<svg version="1.1" xmlns="http://www.w3.org/2000/svg" xmlns:xlink="http://www.w3.org/1999/xlink" width="90.19658" height="88.09898" viewBox="0,0,90.19658,88.09898"><defs><linearGradient x1="265.43328" y1="184.71957" x2="265.43328" y2="224.04949" gradientUnits="userSpaceOnUse" id="color-1"><stop offset="0" stop-color="#ff00ad"/><stop offset="1" stop-color="#ff0000"/></linearGradient></defs><g transform="translate(-194.90171,-135.95051)"><g data-paper-data="{&quot;isPaintingLayer&quot;:true}" fill-rule="nonzero" stroke="none" stroke-width="0.5" stroke-linecap="butt" stroke-linejoin="miter" stroke-miterlimit="10" stroke-dasharray="" stroke-dashoffset="0" style="mix-blend-mode: normal"><g><path d="M194.90171,155.61547c0,-10.86065 8.80431,-19.66496 19.66496,-19.66496c10.86065,0 19.66496,8.80431 19.66496,19.66496c0,10.86065 -8.80431,19.66496 -19.66496,19.66496c-10.86065,0 -19.66496,-8.80431 -19.66496,-19.66496z" fill="#ff0000"/><path d="M245.76837,155.61547c0,-10.86065 8.80431,-19.66496 19.66496,-19.66496c10.86065,0 19.66496,8.80431 19.66496,19.66496c0,10.86065 -8.80431,19.66496 -19.66496,19.66496c-10.86065,0 -19.66496,-8.80431 -19.66496,-19.66496z" fill="#ffffff"/></g><g><path d="M194.90171,204.38453c0,-10.86065 8.80431,-19.66496 19.66496,-19.66496c10.86065,0 19.66496,8.80431 19.66496,19.66496c0,10.86065 -8.80431,19.66496 -19.66496,19.66496c-10.86065,0 -19.66496,-8.80431 -19.66496,-19.66496z" fill="#ffffff"/><path d="M245.76837,204.38453c0,-10.86065 8.80431,-19.66496 19.66496,-19.66496c10.86065,0 19.66496,8.80431 19.66496,19.66496c0,10.86065 -8.80431,19.66496 -19.66496,19.66496c-10.86065,0 -19.66496,-8.80431 -19.66496,-19.66496z" fill="url(#color-1)"/></g></g></g></svg>