<svg version="1.1" xmlns="http://www.w3.org/2000/svg" xmlns:xlink="http://www.w3.org/1999/xlink" width="92.89193" height="93.16123" viewBox="0,0,92.89193,93.16123"><defs><linearGradient x1="245.70358" y1="145.18664" x2="245.70358" y2="238.3479" gradientUnits="userSpaceOnUse" id="color-1"><stop offset="0" stop-color="#d30d0d"/><stop offset="1" stop-color="#8f1717"/></linearGradient></defs><g transform="translate(-199.25761,-145.18663)"><g data-paper-data="{&quot;isPaintingLayer&quot;:true}" fill="url(#color-1)" fill-rule="nonzero" stroke="none" stroke-width="0" stroke-linecap="butt" stroke-linejoin="miter" stroke-miterlimit="10" stroke-dasharray="" stroke-dashoffset="0" style="mix-blend-mode: normal"><path d="M244.7418,212.76209c4.61363,-0.19717 14.97573,-0.75956 20.43749,-13.97347c5.51324,-13.33848 -5.52011,-22.0086 -5.52011,-22.0086c0,0 -7.41711,-8.3658 -9.45772,-15.43509c-2.04059,-7.06929 0.24896,-16.1583 0.24896,-16.1583c0,0 0.67378,0.0649 1.02808,0.10581c5.13705,0.59275 12.6711,2.41763 20.14008,7.67775c6.45077,4.54297 14.48539,12.39369 17.74169,22.9055c8.69578,24.56535 -4.4106,46.67861 -19.08621,55.21152c-30.4932,17.72976 -55.53685,-1.06601 -63.01445,-13.32334c-16.13493,-26.44854 -4.42796,-49.437 5.08851,-58.87119c9.08713,-9.00856 20.22756,-12.12942 26.86605,-13.21068c0.34296,-0.05589 0.99179,-0.15174 0.99179,-0.15174c0,0 3.53221,7.72942 -0.4272,17.78539c-4.09445,10.39891 -10.38797,15.57787 -10.38797,15.57787c0,0 -8.47283,9.55085 -1.77361,22.95492c4.16538,8.33427 13.76384,11.05737 17.12456,10.91377z"/></g></g></svg>