<svg version="1.1" xmlns="http://www.w3.org/2000/svg" xmlns:xlink="http://www.w3.org/1999/xlink" width="33.03963" height="55.56032" viewBox="0,0,33.03963,55.56032"><defs><linearGradient x1="235.91637" y1="189.58571" x2="231.83826" y2="202.90197" gradientUnits="userSpaceOnUse" id="color-1"><stop offset="0" stop-color="#3d5cd9"/><stop offset="1" stop-color="#427ce2"/></linearGradient><linearGradient x1="247.21914" y1="152.4086" x2="241.15979" y2="172.19422" gradientUnits="userSpaceOnUse" id="color-2"><stop offset="0" stop-color="#403e45"/><stop offset="1" stop-color="#2c2b2e"/></linearGradient><linearGradient x1="254.9077" y1="166.86869" x2="247.82499" y2="189.99581" gradientUnits="userSpaceOnUse" id="color-3"><stop offset="0" stop-color="#817c8b"/><stop offset="1" stop-color="#ede3ff"/></linearGradient><linearGradient x1="232.18611" y1="159.74467" x2="225.10341" y2="182.8718" gradientUnits="userSpaceOnUse" id="color-4"><stop offset="0" stop-color="#817c8b"/><stop offset="1" stop-color="#ede3ff"/></linearGradient><linearGradient x1="244.68497" y1="160.93965" x2="235.97064" y2="189.39449" gradientUnits="userSpaceOnUse" id="color-5"><stop offset="0" stop-color="#817c8b"/><stop offset="1" stop-color="#ede3ff"/></linearGradient></defs><g transform="translate(-223.48018,-152.21984)"><g data-paper-data="{&quot;isPaintingLayer&quot;:true}" fill-rule="nonzero" stroke="none" stroke-width="0" stroke-linecap="butt" stroke-linejoin="miter" stroke-miterlimit="10" stroke-dasharray="" stroke-dashoffset="0" style="mix-blend-mode: normal"><g><path d="M226.84467,201.37266l3.09454,-13.61746l11.72736,3.59151l-4.83473,13.08451c0,0 -1.86718,2.23641 -2.52614,3.0257c-0.4236,0.50737 -1.41174,0.401 -1.67377,-0.20378c-0.25054,-0.57826 -0.78817,-1.81923 -1.19873,-2.76691c-0.30178,-0.69658 -0.9826,-0.79519 -1.28595,-0.49744c-0.25608,0.25139 -0.76611,0.75205 -1.17384,1.15232c-0.33455,0.32843 -0.7685,0.10949 -0.90351,-0.27543c-0.27138,-0.77367 -1.22523,-3.49302 -1.22523,-3.49302z" fill="url(#color-1)"/><path d="M250.49767,164.2333c-1.67326,5.46364 -14.28966,1.59985 -12.61641,-3.86379c1.67326,-5.46364 5.85396,-9.02787 9.33788,-7.96091c3.48392,1.06696 4.95176,6.36106 3.27853,11.8247z" fill="url(#color-2)"/><path d="M249.12592,165.09802c0,0 6.01652,11.32841 7.21989,13.59425c0.40115,0.75532 0.07789,1.89541 -0.65388,2.28407c-2.24034,1.18985 -13.64871,7.24883 -13.64871,7.24883z" data-paper-data="{&quot;index&quot;:null}" fill="url(#color-3)"/><path d="M230.88518,184.64247c0,0 -6.05898,-11.40835 -7.24883,-13.64871c-0.38865,-0.73177 -0.01803,-1.85737 0.73729,-2.25852c2.26581,-1.20339 13.59425,-7.21989 13.59425,-7.21989z" fill="url(#color-4)"/><path d="M229.67459,187.46631l8.71433,-28.45482c0,0 0.55549,-3.25691 7.40008,-0.96123c6.6776,2.23968 5.192,4.81755 5.192,4.81755l-8.71433,28.45482c0,0 -1.28904,1.60693 -7.32658,-0.00935c-6.44085,-1.72426 -5.2655,-3.847 -5.2655,-3.847z" fill="url(#color-5)"/></g></g></g></svg>