<svg version="1.1" xmlns="http://www.w3.org/2000/svg" xmlns:xlink="http://www.w3.org/1999/xlink" width="120.89395" height="124.49078" viewBox="0,0,120.89395,124.49078"><g transform="translate(-179.55304,-117.7546)"><g data-paper-data="{&quot;isPaintingLayer&quot;:true}" fill="#ffffff" fill-rule="nonzero" stroke="none" stroke-width="3" stroke-linecap="butt" stroke-linejoin="round" stroke-miterlimit="10" stroke-dasharray="" stroke-dashoffset="0" style="mix-blend-mode: normal"><g><path d="M215.79183,239.58955l-12.09394,0.24666c-0.23519,0.02233 -0.47177,0.03748 -0.71098,0.04223l-9.49856,0.19402c-7.10426,0.14474 -12.90967,-7.46627 -13.01725,-17.06603l-0.74643,-66.74336c-0.00375,-0.33348 0.00072,-0.66342 0.01074,-0.99211l-0.18236,-16.33837l17.09686,-0.35022l-0.00013,0.0025l5.20162,-0.10594c7.10379,-0.14546 12.91059,7.46633 13.01778,17.06543l0.74637,66.74404c0.0033,0.31115 0.00059,0.62099 -0.00758,0.92767l0.18296,16.37335z" data-paper-data="{&quot;index&quot;:null}"/><path d="M300.447,241.76044l-12.09394,0.24666c-0.23519,0.02233 -0.47177,0.03748 -0.71098,0.04223l-9.49856,0.19402c-7.10426,0.14474 -12.90967,-7.46621 -13.01725,-17.06603l-0.74643,-66.74336c-0.00375,-0.33348 0.00072,-0.66342 0.01074,-0.99211l-0.18236,-16.33837l17.09686,-0.35022l-0.00013,0.0025l5.20162,-0.10594c7.10379,-0.14546 12.91059,7.46633 13.01778,17.06543l0.74637,66.74404c0.0033,0.31115 0.00059,0.62099 -0.00758,0.92767l0.18296,16.37335z" data-paper-data="{&quot;index&quot;:null}"/><path d="M258.14627,218.86727l-12.09394,0.24666c-0.23519,0.02233 -0.47177,0.03748 -0.71098,0.04223l-9.49856,0.19402c-7.10426,0.14474 -12.90967,-7.46621 -13.01725,-17.06603l-0.74643,-66.74336c-0.00375,-0.33348 0.00072,-0.66342 0.01074,-0.99211l-0.18236,-16.33837l17.09686,-0.35022l-0.00013,0.0025l5.20162,-0.10594c7.10379,-0.14546 12.91059,7.46633 13.01778,17.06543l0.74637,66.74404c0.0033,0.31115 0.00059,0.62099 -0.00758,0.92767l0.18296,16.37335z" data-paper-data="{&quot;index&quot;:null}"/></g></g></g></svg>