<svg version="1.1" xmlns="http://www.w3.org/2000/svg" xmlns:xlink="http://www.w3.org/1999/xlink" width="650.45403" height="574" viewBox="0,0,650.45403,574"><g transform="translate(18,18.5)"><g stroke="none" stroke-width="0" stroke-miterlimit="10"><path d="M-18,374.5v-393h619v393z" fill="#5bd4dc"/><path d="M628.10001,315.09999c0,40.31679 -142.82116,73 -319,73c-176.17884,0 -319,-32.68321 -319,-73c0,-13.97264 -7.85204,-55.67531 46.95644,-83.08709c8.15225,-4.07725 40.7938,21.16167 60.50783,17.85504c33.05719,-5.54468 56.94176,-38.81155 66.6843,-41.14864c43.17684,-10.35751 28.02536,33.1191 67.00253,45.85897c13.46687,4.40171 70.53033,-42.47828 93.84891,-42.47828c9.78054,0 26.45828,17.10073 36.01448,17.29789c8.90104,0.18365 44.62769,-19.51007 53.17238,-19.08888c20.22521,0.99695 60.92347,21.01358 78.13333,23.8443c0.94715,0.15579 21.61744,-13.08434 44.08445,-14.1146c20.06867,-0.92028 41.6733,25.43016 45.99566,26.72475c70.78751,21.20161 45.59969,41.51999 45.59969,68.33653z" fill="#28798f"/><path d="M92.5,360c0,-107.97167 87.52833,-195.5 195.5,-195.5c107.97167,0 195.5,87.52833 195.5,195.5c0,107.97167 -87.52833,195.5 -195.5,195.5c-107.97167,0 -195.5,-87.52833 -195.5,-195.5z" fill="#fce58b"/><path d="M454.10001,270c0,39.48836 -84.15729,37.5 -167,37.5c-82.84271,0 -166,1.98836 -166,-37.5c0,-39.48836 54.15729,-106.5 166,-105.5c98.83876,0.88373 167,66.01164 167,105.5z" fill="#4cd354"/><g><path d="M263.60001,236v-138h47v138z" fill="#4d270e"/><path d="M189.60001,98c0,-33.41323 27.08677,-60.5 60.5,-60.5c33.41323,0 60.5,27.08677 60.5,60.5c0,33.41323 -27.08677,60.5 -60.5,60.5c-33.41323,0 -60.5,-27.08677 -60.5,-60.5z" fill="#4cd354"/><path d="M224.10001,84.09999c0,-33.13708 26.86292,-60 60,-60c33.13708,0 60,26.86292 60,60c0,33.13708 -26.86292,60 -60,60c-33.13708,0 -60,-26.86292 -60,-60z" fill="#4cd354"/><path d="M263.60001,98c0,-34.24165 27.75835,-62 62,-62c34.24165,0 62,27.75835 62,62c0,34.24165 -27.75835,62 -62,62c-34.24165,0 -62,-27.75835 -62,-62z" fill="#4cd354"/></g><path d="M628.10001,362.09999c0,40.31679 -142.82116,73 -319,73c-176.17884,0 -319,-32.68321 -319,-73c0,-13.97264 -7.85204,-55.67531 46.95644,-83.08709c8.15225,-4.07725 40.7938,21.16167 60.50783,17.85504c33.05719,-5.54468 56.94176,-38.81155 66.6843,-41.14864c43.17684,-10.35751 28.02536,33.1191 67.00253,45.85897c13.46687,4.40171 70.53033,-42.47828 93.84891,-42.47828c9.78054,0 26.45828,17.10073 36.01448,17.29789c8.90104,0.18365 44.62769,-19.51007 53.17238,-19.08888c20.22521,0.99695 60.92347,21.01358 78.13333,23.8443c0.94715,0.15579 21.61744,-13.08434 44.08445,-14.1146c20.06867,-0.92028 41.6733,25.43016 45.99566,26.72475c70.78751,21.20161 45.59969,41.51999 45.59969,68.33653z" fill="#3ea5c1"/></g></g></svg>