<svg version="1.1" xmlns="http://www.w3.org/2000/svg" xmlns:xlink="http://www.w3.org/1999/xlink" width="406" height="49.4" viewBox="0,0,406,49.4"><g transform="translate(-85,-48.5)"><g stroke="none" stroke-miterlimit="10"><path d="M85,97.9c0,0 0,-8.83577 0,-15c0,-20.32696 12.49842,-34.4 32.60001,-34.4c73.40347,0 308.19035,0 346,0c14.12451,0 27.39999,6.62005 27.39999,17.4c0,7.79959 0,31 0,31z" fill="#eddb6d" stroke-width="0"/><text transform="translate(159.3,78.96875) scale(0.5,0.5)" font-size="40" xml:space="preserve" fill="#ffffff" stroke-width="1" font-family="&quot;Trebuchet MS&quot;, Sans Serif" font-weight="normal" text-anchor="start"><tspan x="0" dy="0">Settings</tspan></text><g stroke-width="0"><path d="M116.48037,73.2c0,-6.58142 5.3353,-11.91674 11.91674,-11.91674c6.58142,0 11.91674,5.3353 11.91674,11.91674c0,6.58142 -5.3353,11.91674 -11.91674,11.91674c-6.58142,0 -11.91674,-5.33531 -11.91674,-11.91674z" fill="#8c8698"/><path d="M122.49659,73.2c0,-3.25876 2.64175,-5.90052 5.90052,-5.90052c3.25877,0 5.90052,2.64175 5.90052,5.90052c0,3.25876 -2.64175,5.90052 -5.90052,5.90052c-3.25877,0 -5.90052,-2.64175 -5.90052,-5.90052z" fill="#55dcdc"/><path d="M125.16421,66.03147c0,0 0,-5.82397 0,-7.54506c0,-0.89519 0.79544,-2.04122 1.40489,-2.04122c0.71035,0 2.44043,0 3.63618,0c0.71545,0 1.23961,0.93276 1.23961,1.71066c0,1.6691 0,7.87563 0,7.87563z" fill="#8c8698"/><path d="M135.43145,69.99872c0,0 5.82397,0 7.54506,0c0.89519,0 2.04121,0.79544 2.04121,1.40489c0,0.71035 0,2.44043 0,3.63618c0,0.71545 -0.93276,1.2396 -1.71065,1.2396c-1.66909,0 -7.87563,0 -7.87563,0z" fill="#8c8698"/><path d="M131.62999,80.36853c0,0 0,5.82397 0,7.54506c0,0.89519 -0.79544,2.04122 -1.40489,2.04122c-0.71035,0 -2.44043,0 -3.63617,0c-0.71545,0 -1.2396,-0.93276 -1.2396,-1.71065c0,-1.6691 0,-7.87563 0,-7.87563z" fill="#8c8698"/><path d="M121.36276,76.40129c0,0 -5.82397,0 -7.54506,0c-0.89519,0 -2.04122,-0.79544 -2.04122,-1.40489c0,-0.71035 0,-2.44043 0,-3.63617c0,-0.71545 0.93276,-1.23961 1.71065,-1.23961c1.66909,0 7.87563,0 7.87563,0z" fill="#8c8698"/><path d="M131.18002,65.84508c0,0 4.11817,-4.11816 5.33516,-5.33516c0.633,-0.63299 2.00582,-0.88091 2.43676,-0.44995c0.5023,0.5023 1.72564,1.72565 2.57116,2.57116c0.5059,0.5059 0.21697,1.5361 -0.33308,2.08615c-1.18023,1.18023 -5.56891,5.5689 -5.56891,5.5689z" fill="#8c8698"/><path d="M135.63479,75.91039c0,0 4.11817,4.11817 5.33516,5.33516c0.633,0.63299 0.88089,2.00582 0.44995,2.43676c-0.5023,0.5023 -1.72564,1.72564 -2.57116,2.57116c-0.5059,0.5059 -1.5361,0.21697 -2.08615,-0.33308c-1.18023,-1.18023 -5.56891,-5.56891 -5.56891,-5.56891z" fill="#8c8698"/><path d="M125.61418,80.55492c0,0 -4.11817,4.11816 -5.33516,5.33516c-0.633,0.63299 -2.00582,0.8809 -2.43676,0.44995c-0.5023,-0.5023 -1.72564,-1.72565 -2.57116,-2.57116c-0.5059,-0.5059 -0.21697,-1.53609 0.33308,-2.08615c1.18023,-1.18023 5.5689,-5.56891 5.5689,-5.56891z" fill="#8c8698"/><path d="M121.15942,70.48962c0,0 -4.11817,-4.11817 -5.33516,-5.33516c-0.633,-0.63299 -0.88089,-2.00582 -0.44995,-2.43676c0.5023,-0.5023 1.72564,-1.72564 2.57116,-2.57116c0.5059,-0.5059 1.5361,-0.21697 2.08615,0.33308c1.18023,1.18023 5.5689,5.56891 5.5689,5.56891z" fill="#8c8698"/></g></g></g></svg>