<svg version="1.1" xmlns="http://www.w3.org/2000/svg" xmlns:xlink="http://www.w3.org/1999/xlink" width="406" height="49.4" viewBox="0,0,406,49.4"><defs><radialGradient cx="127.56376" cy="73.2" r="17.22684" gradientUnits="userSpaceOnUse" id="color-1"><stop offset="0" stop-color="#9966ff"/><stop offset="1" stop-color="#9966ff" stop-opacity="0"/></radialGradient><radialGradient cx="127.56376" cy="73.2" r="15.73015" gradientUnits="userSpaceOnUse" id="color-2"><stop offset="0" stop-color="#9966ff"/><stop offset="1" stop-color="#9966ff" stop-opacity="0"/></radialGradient><radialGradient cx="127.56376" cy="73.20001" r="14.03391" gradientUnits="userSpaceOnUse" id="color-3"><stop offset="0" stop-color="#9966ff"/><stop offset="1" stop-color="#9966ff" stop-opacity="0"/></radialGradient><linearGradient x1="127.56376" y1="61.12164" x2="127.56376" y2="85.27837" gradientUnits="userSpaceOnUse" id="color-4"><stop offset="0" stop-color="#9966ff"/><stop offset="1" stop-color="#72239a"/></linearGradient></defs><g transform="translate(-85,-48.5)"><g stroke-miterlimit="10"><path d="M85,97.9c0,0 0,-8.83577 0,-15c0,-20.32696 12.49842,-34.4 32.60001,-34.4c73.40347,0 308.19035,0 346,0c14.12451,0 27.39999,6.62005 27.39999,17.4c0,7.79959 0,31 0,31z" fill="#eddb6d" stroke="none" stroke-width="0" stroke-linecap="butt"/><text transform="translate(159.3,78.96875) scale(0.5,0.5)" font-size="40" xml:space="preserve" fill="#ffffff" stroke="none" stroke-width="1" stroke-linecap="butt" font-family="&quot;Trebuchet MS&quot;, Sans Serif" font-weight="normal" text-anchor="start"><tspan x="0" dy="0">Nightlight</tspan></text><g><path d="M110.33693,73.2c0,-9.51412 7.71271,-17.22683 17.22683,-17.22683c9.51412,0 17.22684,7.71272 17.22684,17.22683c0,9.51412 -7.71272,17.22683 -17.22684,17.22683c-9.51412,0 -17.22683,-7.71271 -17.22683,-17.22683z" fill="url(#color-1)" stroke="none" stroke-width="0" stroke-linecap="butt"/><path d="M111.83362,73.2c0,-8.68752 7.04263,-15.73015 15.73015,-15.73015c8.68752,0 15.73015,7.04263 15.73015,15.73015c0,8.68752 -7.04263,15.73015 -15.73015,15.73015c-8.68753,0 -15.73015,-7.04262 -15.73015,-15.73015z" fill="url(#color-2)" stroke="none" stroke-width="0" stroke-linecap="butt"/><path d="M113.52986,73.20001c0,-7.75072 6.28319,-14.03391 14.03391,-14.03391c7.75072,0 14.03391,6.28319 14.03391,14.03391c0,7.75072 -6.2832,14.03391 -14.03391,14.03391c-7.75072,0 -14.03391,-6.28319 -14.03391,-14.03391z" fill="url(#color-3)" stroke="none" stroke-width="0" stroke-linecap="butt"/><path d="M115.4854,73.2c0,-6.67069 5.40767,-12.07837 12.07837,-12.07837c6.67069,0 12.07837,5.40767 12.07837,12.07837c0,6.67069 -5.40768,12.07836 -12.07837,12.07836c-6.6707,0 -12.07837,-5.40767 -12.07837,-12.07836z" fill="url(#color-4)" stroke="none" stroke-width="0" stroke-linecap="butt"/><g fill="none" stroke="#9966ff" stroke-width="2.5"><path d="M115.4854,73.2c0,-6.67069 5.40768,-12.07837 12.07837,-12.07837c6.67069,0 12.07837,5.40767 12.07837,12.07837c0,6.67069 -5.40767,12.07836 -12.07837,12.07836c-6.67069,0 -12.07837,-5.40767 -12.07837,-12.07836z" stroke-linecap="butt"/><path d="M121.34869,82.69703c0,0 -1.46367,-4.66945 -1.3969,-8.98009c0.07486,-4.83241 1.3969,-10.67632 1.3969,-10.67632" stroke-linecap="round"/><path d="M125.5394,84.22556c0,0 -1.46367,-5.21818 -1.3969,-10.03538c0.07486,-5.40029 1.3969,-11.93094 1.3969,-11.93094" stroke-linecap="round"/><path d="M129.82989,84.22556c0,0 -1.46367,-5.21818 -1.3969,-10.03538c0.07486,-5.40029 1.3969,-11.93094 1.3969,-11.93094" stroke-linecap="round"/><path d="M134.12038,83.02821c0,0 -1.46367,-4.66945 -1.3969,-8.98009c0.07485,-4.83241 1.3969,-10.67633 1.3969,-10.67633" stroke-linecap="round"/><path d="M117.33209,67.55611c0,0 5.99224,-1.32205 10.9473,-1.39691c4.42005,-0.06677 9.20801,1.39691 9.20801,1.39691" stroke-linecap="round"/><path d="M116.45093,71.74682c0,0 6.53066,-1.32205 11.93094,-1.39691c4.8172,-0.06677 10.03538,1.39691 10.03538,1.39691" stroke-linecap="round"/><path d="M116.45093,76.03731c0,0 6.53066,-1.32204 11.93094,-1.3969c4.8172,-0.06677 10.03538,1.3969 10.03538,1.3969" stroke-linecap="round"/><path d="M117.83098,80.3278c0,0 5.76439,-1.32204 10.53104,-1.3969c4.25198,-0.06677 8.85789,1.3969 8.85789,1.3969" stroke-linecap="round"/></g></g></g></g></svg>