<svg version="1.1" xmlns="http://www.w3.org/2000/svg" xmlns:xlink="http://www.w3.org/1999/xlink" width="16.6923" height="16.6923" viewBox="0,0,16.6923,16.6923"><defs><radialGradient cx="240" cy="180" r="8.34615" gradientUnits="userSpaceOnUse" id="color-1"><stop offset="0" stop-color="#594939"/><stop offset="1" stop-color="#594939" stop-opacity="0"/></radialGradient></defs><g transform="translate(-231.65385,-171.65385)"><g data-paper-data="{&quot;isPaintingLayer&quot;:true}" fill-rule="nonzero" stroke-linejoin="miter" stroke-miterlimit="10" stroke-dasharray="" stroke-dashoffset="0" style="mix-blend-mode: normal"><path d="M231.65385,180c0,-4.60945 3.7367,-8.34615 8.34615,-8.34615c4.60945,0 8.34615,3.7367 8.34615,8.34615c0,4.60945 -3.7367,8.34615 -8.34615,8.34615c-4.60945,0 -8.34615,-3.7367 -8.34615,-8.34615z" fill="url(#color-1)" stroke="none" stroke-width="0" stroke-linecap="butt"/><path d="M233.24889,180c0,-3.72853 3.02257,-6.75111 6.75111,-6.75111c3.72853,0 6.75111,3.02257 6.75111,6.75111c0,3.72853 -3.02257,6.75111 -6.75111,6.75111c-3.72853,0 -6.75111,-3.02257 -6.75111,-6.75111z" fill="#cca27a" stroke="none" stroke-width="0" stroke-linecap="butt"/><g fill="none" stroke="#ffebd9" stroke-width="1.5" stroke-linecap="round"><path d="M236.8721,177.21825l3.13766,6.02504"/><path d="M239.99024,183.24329l3.13766,-6.02503" data-paper-data="{&quot;index&quot;:null}"/></g></g></g></svg>