<svg version="1.1" xmlns="http://www.w3.org/2000/svg" xmlns:xlink="http://www.w3.org/1999/xlink" width="105.19625" height="107.76627" viewBox="0,0,105.19625,107.76627"><g transform="translate(-234.65187,-137.11686)"><g stroke-miterlimit="10"><path d="M234.65188,231.52504c0,-9.80967 0,-62.43632 0,-80.31252c0,-8.32914 3.23044,-14.09565 8.42604,-14.09565c18.97241,0 79.91564,0 89.6882,0c3.65073,0 7.08201,2.71261 7.08201,7.12977c0,16.98378 0,82.11348 0,92.19548c0,4.22333 -3.21222,8.44102 -8.37434,8.44102c-18.55982,0 -78.09216,0 -88.39586,0c-4.24746,0 -8.42604,-7.14076 -8.42604,-13.35811z" fill="#bcb4b4" stroke="none" stroke-width="0"/><text transform="translate(247.74023,224.76876) scale(0.5,0.5)" font-size="40" xml:space="preserve" fill="#ffffff" stroke="none" stroke-width="1" font-family="&quot;Trebuchet MS&quot;, Sans Serif" font-weight="normal" text-anchor="start"><tspan x="0" dy="0">Accounts</tspan></text><g fill="#66ff93"><path d="M263.82473,188.47593c0,-12.93742 10.48784,-23.42526 23.42526,-23.42526c12.93742,0 23.42526,10.48784 23.42526,23.42526c0,12.93742 -46.85052,12.93742 -46.85052,0z" stroke="none" stroke-width="0"/><path d="M270.38382,164.74865c0,-9.31493 7.55125,-16.86619 16.86619,-16.86619c9.31493,0 16.86619,7.55125 16.86619,16.86619c0,9.31493 -7.55125,16.86619 -16.86619,16.86619c-9.31493,0 -16.86619,-7.55125 -16.86619,-16.86619z" stroke="#bcb4b4" stroke-width="1.5"/></g></g></g></svg>