<svg version="1.1" xmlns="http://www.w3.org/2000/svg" xmlns:xlink="http://www.w3.org/1999/xlink" width="653" height="439.9" viewBox="0,0,653,439.9"><g transform="translate(17.7331,14.10001)"><g stroke="none" stroke-width="0" stroke-miterlimit="10"><path d="M-11.83311,371.9v-386h606v386z" fill="#54cfc0"/><path d="M417.8669,371.9v-149.45054h13.66667v149.45054z" fill="#753a1a"/><path d="M428.8669,371.9v-149.45054h13.66667v149.45054z" fill="#49230f"/><path d="M549.70023,371.9v-149.45054h13.66667v149.45054z" fill="#753a1a"/><path d="M560.70023,371.9v-149.45054h13.66667v149.45054z" fill="#49230f"/><path d="M515.20023,371.9v-149.45054h13.66667v149.45054z" fill="#753a1a"/><path d="M526.20023,371.9v-149.45054h13.66667v149.45054z" fill="#49230f"/><path d="M379.20023,371.9v-149.45054h13.66667v149.45054z" fill="#753a1a"/><path d="M390.20023,371.9v-149.45054h13.66667v149.45054z" fill="#49230f"/><g><path d="M373.28769,220.64224l5.00444,-31.95676l204.34165,0.80408l-3.68064,31.95676z" fill="#753a1a"/><path d="M372.0829,232.67949l1.2048,-14.03725l206.32734,0.54023l-1.86669,15.03725z" fill="#49230f"/></g><g><path d="M467.70001,192.75988v-68.33334h68.33333v68.33334z" fill="#bcb87a"/><path d="M442.36668,192.75988v-68.33334h68.33333v68.33334z" fill="#eae6aa"/><path d="M446.86668,188.25988v-59.33334h59.33333v59.33334z" fill="#21201d"/><path d="M446.86415,128.93705l59.39567,-0.04599l-0.02956,9.97962c0,0 -4.41593,22.19782 -33.57192,22.09752c-22.28845,-0.07668 -25.86264,-22.97423 -25.86264,-22.97423z" fill-opacity="0.62353" fill="#ded8c8"/></g><g><path d="M470.95001,202.85988v-10.5h39.75v10.5z" fill="#bcb87a"/><path d="M458.20001,202.85988v-10.5h39.75v10.5z" fill="#eae6aa"/><path d="M460.57501,198.80988v-2.4h25.2v2.4z" fill="#000000"/><path d="M492.45624,198.96702v-2.71429h2.71428v2.71429z" fill="#1e761a"/></g><path d="M-17.7331,425.79999v-112h653v112z" fill="#50380d"/></g></g></svg>