<svg version="1.1" xmlns="http://www.w3.org/2000/svg" xmlns:xlink="http://www.w3.org/1999/xlink" width="74.84686" height="54.42911" viewBox="0,0,74.84686,54.42911"><defs><radialGradient cx="263.95138" cy="184.56987" r="5.34657" gradientUnits="userSpaceOnUse" id="color-1"><stop offset="0" stop-color="#17b1ea"/><stop offset="1" stop-color="#1984ff"/></radialGradient><radialGradient cx="262.98985" cy="183.64763" r="5.34657" gradientUnits="userSpaceOnUse" id="color-2"><stop offset="0" stop-color="#17b1ea"/><stop offset="1" stop-color="#1984ff"/></radialGradient></defs><g transform="translate(-202.57657,-152.78549)"><g data-paper-data="{&quot;isPaintingLayer&quot;:true}" fill-rule="nonzero" stroke="none" stroke-linecap="butt" stroke-linejoin="miter" stroke-miterlimit="10" stroke-dasharray="" stroke-dashoffset="0" style="mix-blend-mode: normal"><path d="M202.57657,207.2146v-54.42911h74.84686v54.42911z" fill="#cdcdcd" stroke-width="0"/><text transform="translate(204.92014,159.11272) scale(0.11393,0.11393)" font-size="40" xml:space="preserve" fill="#000000" fill-rule="nonzero" stroke="none" stroke-width="1" stroke-linecap="butt" stroke-linejoin="miter" stroke-miterlimit="10" stroke-dasharray="" stroke-dashoffset="0" font-family="Sans Serif" font-weight="normal" text-anchor="start" style="mix-blend-mode: normal"><tspan x="0" dy="0">PaweR Music - Zynthowaves</tspan></text><text transform="translate(204.92014,202.9432) scale(0.15584,0.15584)" font-size="40" xml:space="preserve" fill="#000000" fill-rule="nonzero" stroke="none" stroke-width="1" stroke-linecap="butt" stroke-linejoin="miter" stroke-miterlimit="10" stroke-dasharray="" stroke-dashoffset="0" font-family="Sans Serif" font-weight="normal" text-anchor="start" style="mix-blend-mode: normal"><tspan x="0" dy="0">1:29</tspan></text><g><path d="M232.49142,204.70051v-43.16782h43.16782v43.16782z" fill="#00ff8a" stroke-width="0"/><text transform="translate(233.47372,167.65682) scale(0.10285,0.10285)" font-size="40" xml:space="preserve" fill="#000000" fill-rule="nonzero" stroke="none" stroke-width="1" stroke-linecap="butt" stroke-linejoin="miter" stroke-miterlimit="10" stroke-dasharray="" stroke-dashoffset="0" font-family="Serif" font-weight="normal" text-anchor="start" style="mix-blend-mode: normal"><tspan x="0" dy="0">PaweR Music</tspan><tspan x="0" dy="46.150000000000006px">"Zynthowaves"</tspan></text><path d="M232.48878,195.99857c0,0 3.27637,-1.8431 2.90609,-2.98198c-0.90011,-2.76845 -1.21078,-1.20761 -0.90177,-2.52958c1.58612,-6.78559 16.49258,-0.57918 16.49258,-0.57918c0,0 15.68613,5.69432 16.09722,6.03241c5.13153,4.22019 7.76308,-8.99089 5.52972,-9.45809c-1.24647,-0.26074 3.2269,9.49925 2.91473,9.89624c-1.285,1.63415 0.18856,-1.13785 0.24939,4.26234c0.0124,1.10121 -0.16663,4.06349 -0.16663,4.06349l-43.15084,0.06232z" fill="#0046ff" stroke-width="0"/><g data-paper-data="{&quot;index&quot;:null}" stroke-width="0"><path d="M271.56078,186.8487c0,0 -2.85544,2.44892 -4.89674,3.70357c-2.0413,1.25466 -6.75693,3.45913 -6.75693,3.45913l3.62965,-10.05827z" fill="url(#color-1)"/><path d="M255.38044,181.3688c0,0 2.85545,-2.44893 4.89675,-3.70357c2.0413,-1.25466 6.75693,-3.45913 6.75693,-3.45913l-3.62965,10.05827z" data-paper-data="{&quot;index&quot;:null}" fill="url(#color-2)"/></g></g></g></g></svg>