<svg version="1.1" xmlns="http://www.w3.org/2000/svg" xmlns:xlink="http://www.w3.org/1999/xlink" width="116.90234" height="113.66505" viewBox="0,0,116.90234,113.66505"><g transform="translate(-229.54883,-123.16748)"><g stroke="none" stroke-miterlimit="10"><path d="M229.54883,219.56695c0,-22.62349 0,-61.03845 0,-74.8175c0,-9.69461 6.56843,-21.58197 12.94918,-21.58197c13.76327,0 66.81855,0 91.36368,0c7.69626,0 12.58948,5.56055 12.58948,11.15069c0,11.16919 0,52.13273 0,78.77419c0,13.7882 -6.56843,23.74017 -12.94918,23.74017c-13.37248,0 -63.83734,0 -89.20548,0c-8.92812,0 -14.74768,-7.01037 -14.74768,-17.26558z" fill-opacity="0.53333" fill="#66ffed" stroke-width="0"/><text transform="translate(243.23988,210.1334) scale(0.5,0.5)" font-size="40" xml:space="preserve" fill="#000000" stroke-width="1" font-family="&quot;Trebuchet MS&quot;, Sans Serif" font-weight="normal" text-anchor="start"><tspan x="0" dy="0">ScriptBox</tspan></text><g><path d="M271.67023,184.97189v-30.8109h44.76301v30.8109z" fill="#2c1707" stroke-width="0"/><path d="M258.08144,185.01709v-30.8109h37.90809v30.8109z" fill="#40230c" stroke-width="0"/><text transform="translate(261.30306,175.38039) scale(0.5,0.5)" font-size="40" xml:space="preserve" fill="#dfcec1" stroke-width="1" font-family="&quot;Trebuchet MS&quot;, Sans Serif" font-weight="normal" text-anchor="start"><tspan x="0" dy="0">&lt;/&gt;</tspan></text></g></g></g></svg>