<svg version="1.1" xmlns="http://www.w3.org/2000/svg" xmlns:xlink="http://www.w3.org/1999/xlink" width="80.91123" height="73.66433" viewBox="0,0,80.91123,73.66433"><defs><radialGradient cx="305.51359" cy="172.8862" r="11.46676" gradientUnits="userSpaceOnUse" id="color-1"><stop offset="0" stop-color="#ffe766"/><stop offset="1" stop-color="#ffe766" stop-opacity="0"/></radialGradient></defs><g transform="translate(-246.20451,-152.70982)"><g stroke-miterlimit="10"><text transform="translate(246.34538,223.58493) scale(0.28174,0.28174)" font-size="40" xml:space="preserve" fill="#ffe766" stroke="none" stroke-width="1" font-family="&quot;Trebuchet MS&quot;, Sans Serif" font-weight="normal" text-anchor="start"><tspan x="0" dy="0">Firefly Terminal</tspan></text><g stroke="none"><path d="M248.88426,201.71884c0,-5.06965 0,-22.75843 0,-30.31431c0,-2.13797 1.36826,-3.46465 2.99898,-3.46465c5.81986,0 40.448,0 53.61825,0c3.15598,0 5.07979,2.28235 5.07979,3.35866c0,4.21175 0,22.35732 0,31.16226c0,2.93287 -2.14,4.82938 -5.59436,4.82938c-12.7352,0 -43.33493,0 -50.42792,0c-2.8698,0 -5.67474,-2.92987 -5.67474,-5.57134z" fill="#4e4949" stroke-width="0"/><path d="M252.48278,199.7116c0,-4.34814 0,-19.51947 0,-26c0,-1.83369 1.20864,-2.97157 2.64914,-2.97157c5.14096,0 35.7297,0 47.36363,0c2.78782,0 4.48723,1.95753 4.48723,2.88066c0,3.61234 0,19.17544 0,26.72727c0,2.51547 -1.89037,4.14207 -4.94178,4.14207c-11.24962,0 -38.27987,0 -44.54545,0c-2.53503,0 -5.01277,-2.5129 -5.01277,-4.77843z" fill="#000000" stroke-width="0"/><text transform="translate(254.40464,184.59173) scale(0.5,0.5)" font-size="40" xml:space="preserve" fill="#ffffff" stroke-width="1" font-family="&quot;Trebuchet MS&quot;, Sans Serif" font-weight="normal" text-anchor="start"><tspan x="0" dy="0">&gt;_</tspan></text></g><g><path d="M300.32445,181.04371l2.08095,-5.16078l1.12191,0.45238l-2.08096,5.16078z" fill="#000000" stroke="none" stroke-width="0"/><path d="M311.27205,165.39039c0,-3.61881 2.93363,-6.55244 6.55244,-6.55244c3.61881,0 6.55244,2.93363 6.55244,6.55244c0,3.61881 -2.93363,6.55244 -6.55244,6.55244c-3.61881,0 -6.55244,-2.93363 -6.55244,-6.55244z" fill="#000000" stroke="none" stroke-width="0"/><path d="M317.82449,170.75834c0,2.96463 -2.41459,5.36795 -5.39315,5.36795c-2.97856,0 -5.39316,-2.40332 -5.39316,-5.36795c0,-2.96463 2.4146,-5.36795 5.39316,-5.36795c2.97856,0 5.39315,2.40332 5.39315,5.36795z" fill="#e37156" stroke="none" stroke-width="0"/><path d="M299.50847,164.2343c1.05201,-1.59037 4.12574,-1.41051 6.86536,0.40171c2.73962,1.81223 4.10769,4.57059 3.05567,6.16096c-1.05201,1.59037 -4.12574,1.41052 -6.86536,-0.40171c-2.73962,-1.81223 -4.10769,-4.57059 -3.05567,-6.16096z" fill="#000000" stroke="#e37156" stroke-width="3"/><path d="M303.68132,181.16539l2.08096,-5.16077l1.12191,0.45238l-2.08096,5.16078z" fill="#000000" stroke="none" stroke-width="0"/><path d="M294.04683,172.8862c0,-4.06698 5.13384,-7.36393 11.46676,-7.36393c6.33292,0 11.46676,3.29694 11.46676,7.36393c0,4.06698 -5.13384,7.36393 -11.46676,7.36393c-6.33292,0 -11.46676,-3.29694 -11.46676,-7.36393z" fill="url(#color-1)" stroke="none" stroke-width="0"/><path d="M296.28747,172.8862c0,-3.27228 4.13068,-5.92499 9.22612,-5.92499c5.09544,0 9.22612,2.65272 9.22612,5.92499c0,3.27228 -4.13068,5.92499 -9.22612,5.92499c-5.09544,0 -9.22612,-2.65272 -9.22612,-5.92499z" fill="#ffe766" stroke="none" stroke-width="0"/><path d="M316.98035,172.83241c0,3.27229 -2.22563,5.92499 -4.97109,5.92499c-2.74545,0 -2.74545,-11.84999 0,-11.84999c2.74545,0 4.97109,2.65272 4.97109,5.92499z" fill="#000000" stroke="none" stroke-width="0"/><path d="M309.11913,181.73945l-2.08095,-5.16078l1.12191,-0.45238l2.08096,5.16078z" fill="#000000" stroke="none" stroke-width="0"/><path d="M311.68894,164.08157c2.73962,1.81223 4.10769,4.57059 3.05567,6.16096c-1.05201,1.59037 -4.12574,1.41051 -6.86536,-0.40171c-2.73962,-1.81223 -4.10769,-4.57059 -3.05567,-6.16096c1.05201,-1.59037 4.12574,-1.41051 6.86536,0.40171z" fill="#000000" stroke="#e37156" stroke-width="3"/><path d="M321.0658,164.90669l3.96583,-8.68893l1.1836,0.8196l-3.96583,8.68894z" fill="#000000" stroke="none" stroke-width="0"/><path d="M316.61215,162.56524l3.96583,-8.68894l1.1836,0.8196l-3.96583,8.68894z" fill="#000000" stroke="none" stroke-width="0"/><path d="M312.476,181.86113l-2.08096,-5.16078l1.1219,-0.45238l2.08096,5.16078z" fill="#000000" stroke="none" stroke-width="0"/><path d="M320.3761,153.8763c0,-0.64423 0.52225,-1.16647 1.16647,-1.16647c0.64423,0 1.16647,0.52225 1.16647,1.16647c0,0.64423 -0.52225,1.16648 -1.16647,1.16648c-0.64423,0 -1.16647,-0.52225 -1.16647,-1.16648z" fill="#000000" stroke="none" stroke-width="0"/><path d="M324.78279,156.21776c0,-0.64423 0.52225,-1.16648 1.16648,-1.16648c0.64423,0 1.16647,0.52225 1.16647,1.16648c0,0.64423 -0.52225,1.16648 -1.16647,1.16648c-0.64423,0 -1.16648,-0.52225 -1.16648,-1.16648z" fill="#000000" stroke="none" stroke-width="0"/></g></g></g></svg>