<svg version="1.1" xmlns="http://www.w3.org/2000/svg" xmlns:xlink="http://www.w3.org/1999/xlink" width="746.49264" height="746.49264" viewBox="0,0,746.49264,746.49264"><defs><linearGradient x1="331.91497" y1="244.03483" x2="446.18343" y2="358.30329" gradientUnits="userSpaceOnUse" id="color-1"><stop offset="0" stop-color="#050b2e"/><stop offset="1" stop-color="#050321"/></linearGradient><radialGradient cx="288" cy="180.00001" r="69.83333" gradientUnits="userSpaceOnUse" id="color-2"><stop offset="0" stop-color="#bb2d2d"/><stop offset="1" stop-color="#210303"/></radialGradient><linearGradient x1="294.00001" y1="258.00001" x2="294.00001" y2="419.60002" gradientUnits="userSpaceOnUse" id="color-3"><stop offset="0" stop-color="#050b2e"/><stop offset="1" stop-color="#050321"/></linearGradient><linearGradient x1="232.00001" y1="86.99999" x2="232.00001" y2="273.00001" gradientUnits="userSpaceOnUse" id="color-4"><stop offset="0" stop-color="#9966ff"/><stop offset="1" stop-color="#492494"/></linearGradient><radialGradient cx="288" cy="180.00001" r="69.83333" gradientUnits="userSpaceOnUse" id="color-5"><stop offset="0" stop-color="#bb2d2d"/><stop offset="1" stop-color="#bb2d2d" stop-opacity="0"/></radialGradient><linearGradient x1="344.00001" y1="86.99999" x2="344.00001" y2="273.00001" gradientUnits="userSpaceOnUse" id="color-6"><stop offset="0" stop-color="#9966ff"/><stop offset="1" stop-color="#c3a8f8"/></linearGradient></defs><g transform="translate(77.1463,167.99631)"><g stroke="none" stroke-width="0" stroke-miterlimit="10"><g fill="url(#color-1)"><path d="M314.30802,490.17871l-114.26846,-114.26846l263.75083,-263.75083l114.26846,114.26846zM88.95307,271.89482l-81.31728,-81.31728l263.75083,-263.75083l81.31728,81.31728z"/><path d="M314.30802,490.17871l-114.26846,-114.26846l188.16112,-188.16112l-188.86823,-188.86823l166.8772,-166.8772l303.13669,303.13669z"/><path d="M463.79038,112.15941l114.26846,114.26846l-352.06846,352.06846l-303.13669,-303.13669l166.8772,-166.8772l188.86823,188.86823z"/></g><path d="M218.16667,180.00001c0,-38.56789 31.26545,-69.83333 69.83333,-69.83333c38.56789,0 69.83333,31.26545 69.83333,69.83333c0,38.56789 -31.26545,69.83333 -69.83333,69.83333c-38.56789,0 -69.83333,-31.26545 -69.83333,-69.83333z" fill="url(#color-2)"/><g fill="url(#color-3)"><path d="M107.5,419.60002v-161.60001h373v161.60001zM102.5,105.89999v-115h373v115z"/><path d="M107.5,419.60002v-161.60001h266.10001v-267.10001h236v428.70002z"/><path d="M480.50001,258.00001v161.60001h-497.89999v-428.70002h236v267.10001z"/></g><path d="M128,176.00003c0,-30.30496 113,-89 113,-89h95c0,0 -113,61.16845 -113,92c0,31.16487 113,94 113,94h-95c0,0 -113,-65.36233 -113,-97z" fill="url(#color-4)"/><path d="M218.16667,180.00001c0,-38.56788 31.26545,-69.83334 69.83334,-69.83334c38.56788,0 69.83333,31.26545 69.83333,69.83334c0,38.56788 -31.26545,69.83334 -69.83333,69.83334c-38.56788,0 -69.83334,-31.26545 -69.83334,-69.83334z" fill="url(#color-5)"/><path d="M335.00001,273.00001h-95c0,0 113,-62.83513 113,-94c0,-30.83155 -113,-92 -113,-92h95c0,0 113,58.69505 113,89c0,31.63767 -113,97 -113,97z" fill="url(#color-6)"/></g></g></svg>