<svg version="1.1" xmlns="http://www.w3.org/2000/svg" xmlns:xlink="http://www.w3.org/1999/xlink" width="407" height="263" viewBox="0,0,407,263"><defs><radialGradient cx="151.55192" cy="158.75834" r="23.7922" gradientUnits="userSpaceOnUse" id="color-1"><stop offset="0" stop-color="#ffe766"/><stop offset="1" stop-color="#ffe766" stop-opacity="0"/></radialGradient></defs><g transform="translate(-84.5,-48.5)"><g stroke-miterlimit="10"><path d="M84.5,278.89999c0,-23.94017 0,-152.37376 0,-196c0,-20.32696 12.49842,-34.39999 32.60001,-34.39999c73.40347,0 309.19035,0 347,0c14.12451,0 27.39999,6.62005 27.39999,17.39999c0,41.44836 0,200.39521 0,225c0,10.30692 -12.42794,20.60001 -32.39999,20.60001c-71.80718,0 -302.13538,0 -342,0c-16.43325,0 -32.60001,-17.4268 -32.60001,-32.60001z" fill="#f6f2f2" stroke="none" stroke-width="0"/><text transform="translate(206.42543,126.59847) scale(0.34232,0.34232)" font-size="40" xml:space="preserve" fill="#000000" stroke="none" stroke-width="1" font-family="&quot;Trebuchet MS&quot;, Sans Serif" font-weight="normal" text-anchor="start"><tspan x="0" dy="0">Operating System: Firefly 1.0</tspan><tspan x="0" dy="48px">Kernel: Lightning 1.0</tspan><tspan x="0" dy="48px">Graphical Environment: Buzz 1.0</tspan><tspan x="0" dy="48px">Created by Scratch_Fakemon</tspan></text><g><path d="M140.78506,175.68423l4.31774,-10.70801l2.32783,0.93863l-4.31774,10.70801z" fill="#000000" stroke="none" stroke-width="0"/><path d="M163.50006,143.20542c0,-7.50861 6.08693,-13.59554 13.59554,-13.59554c7.50861,0 13.59554,6.08693 13.59554,13.59554c0,7.50861 -6.08693,13.59554 -13.59554,13.59554c-7.50861,0 -13.59554,-6.08693 -13.59554,-13.59554z" fill="#000000" stroke="none" stroke-width="0"/><path d="M177.0956,154.3433c0,6.15128 -5.01001,11.13789 -11.19017,11.13789c-6.18017,0 -11.19017,-4.98661 -11.19017,-11.13789c0,-6.15128 5.01001,-11.13789 11.19017,-11.13789c6.18017,0 11.19017,4.98661 11.19017,11.13789z" fill="#e37156" stroke="none" stroke-width="0"/><path d="M139.092,140.80666c2.18281,-3.29984 8.56043,-2.92665 14.24482,0.83351c5.68438,3.76017 8.52298,9.48344 6.34017,12.78327c-2.18281,3.29984 -8.56043,2.92666 -14.24482,-0.83351c-5.68438,-3.76017 -8.52297,-9.48344 -6.34016,-12.78327z" fill="#000000" stroke="#e37156" stroke-width="3"/><path d="M147.75016,175.9367l4.31774,-10.70801l2.32783,0.93864l-4.31774,10.70801z" fill="#000000" stroke="none" stroke-width="0"/><path d="M127.75973,158.75834c0,-8.43853 10.65211,-15.27929 23.79219,-15.27929c13.14008,0 23.7922,6.84077 23.7922,15.27929c0,8.43853 -10.65212,15.2793 -23.7922,15.2793c-13.14008,0 -23.79219,-6.84077 -23.79219,-15.2793z" fill="url(#color-1)" stroke="none" stroke-width="0"/><path d="M132.40879,158.75834c0,-6.78959 8.57068,-12.29367 19.14312,-12.29367c10.57245,0 19.14313,5.50408 19.14313,12.29367c0,6.78959 -8.57068,12.29368 -19.14313,12.29368c-10.57245,0 -19.14312,-5.50409 -19.14312,-12.29368z" fill="#ffe766" stroke="none" stroke-width="0"/><path d="M175.34412,158.64673c0,6.78962 -4.61793,12.29368 -10.31443,12.29368c-5.6965,0 -5.6965,-24.58735 0,-24.58735c5.6965,0 10.31443,5.50407 10.31443,12.29367z" fill="#000000" stroke="none" stroke-width="0"/><path d="M159.033,177.12783l-4.31774,-10.70801l2.32783,-0.93863l4.31774,10.70801z" fill="#000000" stroke="none" stroke-width="0"/><path d="M164.36505,140.48978c5.68438,3.76017 8.52297,9.48344 6.34016,12.78327c-2.18281,3.29984 -8.56043,2.92665 -14.24482,-0.83351c-5.68438,-3.76017 -8.52298,-9.48344 -6.34017,-12.78327c2.18281,-3.29984 8.56043,-2.92665 14.24482,0.83351z" fill="#000000" stroke="#e37156" stroke-width="3"/><path d="M183.82094,142.2018l8.22864,-18.02853l2.45583,1.70058l-8.22864,18.02854z" fill="#000000" stroke="none" stroke-width="0"/><path d="M174.58013,137.34356l8.22864,-18.02854l2.45583,1.70058l-8.22864,18.02854z" fill="#000000" stroke="none" stroke-width="0"/><path d="M165.9981,177.38031l-4.31775,-10.70801l2.32783,-0.93864l4.31775,10.70801z" fill="#000000" stroke="none" stroke-width="0"/><path d="M182.38989,119.31503c0,-1.33669 1.0836,-2.42029 2.42029,-2.42029c1.33669,0 2.4203,1.0836 2.4203,2.42029c0,1.33669 -1.08361,2.4203 -2.4203,2.4203c-1.33669,0 -2.42029,-1.08361 -2.42029,-2.4203z" fill="#000000" stroke="none" stroke-width="0"/><path d="M191.53326,124.17327c0,-1.33669 1.08361,-2.42031 2.42031,-2.42031c1.33669,0 2.4203,1.08361 2.4203,2.42031c0,1.33669 -1.08361,2.42032 -2.4203,2.42032c-1.33669,0 -2.42031,-1.08361 -2.42031,-2.42032z" fill="#000000" stroke="none" stroke-width="0"/></g><text transform="translate(206.42617,233.09847) scale(0.34232,0.34232)" font-size="40" xml:space="preserve" fill="#000000" stroke="none" stroke-width="1" font-family="&quot;Trebuchet MS&quot;, Sans Serif" font-weight="normal" text-anchor="start"><tspan x="0" dy="0">Computer: Fate L1</tspan><tspan x="0" dy="48px">CPU: Fate C1</tspan><tspan x="0" dy="48px">GPU: Fate G1</tspan><tspan x="0" dy="48px">RAM: 1x Fate C1 Integrated RAM (16GB)</tspan></text><g stroke="none"><path d="M126.05193,267.48614c0,-4.93669 0,-18.50065 0,-26.81454c0,-4.0173 2.18264,-6.80878 4.62682,-6.80878c6.94857,0 40.94051,0 57.83528,0c5.78783,0 9.5691,3.17718 9.5691,6.02012c0,4.43159 0,17.80313 0,26.81454c0,5.03003 -2.78014,8.70158 -7.20311,8.70158c-14.99167,0 -48.85738,0 -57.3095,0c-3.73673,0 -7.51859,-4.36082 -7.51859,-7.91291z" fill="#061921" stroke-width="0"/><g stroke-width="0"><path d="M126.05193,285.99935c0,-3.9737 0,-16.81061 0,-24.12529c0,-4.18766 4.79806,-7.24312 11.73522,-7.24312c15.54484,0 45.1047,0 52.21401,0c3.50433,0 8.08198,2.24575 8.08198,5.51989c0,7.12303 0,21.18126 0,25.50387c0,3.06363 -4.5771,6.82682 -9.97753,6.82682c-15.00633,0 -47.62744,0 -55.14351,0c-3.44538,0 -6.91017,-3.54311 -6.91017,-6.48217z" fill="#061921"/><g fill="#41a9d6"><path d="M137.4653,265.92465c0,-0.64686 0,-2.0831 0,-3.21971c0,-0.88988 1.15337,-1.5961 1.92632,-1.5961c0.5183,0 1.44297,0 2.31159,0c1.08983,0 2.09144,0.62189 2.09144,1.43099c0,1.13054 0,2.62659 0,3.30227c0,0.67316 -0.70326,1.59609 -1.26587,1.59609c-0.72646,0 -2.62546,0 -3.88017,0c-0.68872,0 -1.18331,-0.86698 -1.18331,-1.51354z"/><path d="M137.4653,259.68375c0,-0.32344 0,-1.04154 0,-1.60985c0,-0.44493 1.15337,-0.79805 1.92632,-0.79805c0.5183,0 1.44297,0 2.31159,0c1.08983,0 2.09144,0.31095 2.09144,0.71549c0,0.56527 0,1.3133 0,1.65114c0,0.33659 -0.70326,0.79805 -1.26587,0.79805c-0.72646,0 -2.62546,0 -3.88017,0c-0.68872,0 -1.18331,-0.43349 -1.18331,-0.75677z"/><path d="M144.83644,265.99836c0,-0.64686 0,-2.0831 0,-3.21972c0,-0.88986 1.15336,-1.59609 1.92632,-1.59609c0.5183,0 1.44297,0 2.31159,0c1.08983,0 2.09144,0.62189 2.09144,1.43098c0,1.13054 0,2.62659 0,3.30227c0,0.67316 -0.70326,1.59609 -1.26587,1.59609c-0.72646,0 -2.62546,0 -3.88017,0c-0.68872,0 -1.18331,-0.86698 -1.18331,-1.51354z"/><path d="M144.83644,259.75746c0,-0.32344 0,-1.04154 0,-1.60985c0,-0.44494 1.15336,-0.79805 1.92632,-0.79805c0.5183,0 1.44297,0 2.31159,0c1.08983,0 2.09144,0.31095 2.09144,0.71549c0,0.56527 0,1.3133 0,1.65113c0,0.33658 -0.70326,0.79805 -1.26587,0.79805c-0.72646,0 -2.62546,0 -3.88017,0c-0.68872,0 -1.18331,-0.43349 -1.18331,-0.75677z"/><path d="M152.20758,265.99836c0,-0.64686 0,-2.0831 0,-3.21972c0,-0.88986 1.15336,-1.59609 1.92632,-1.59609c0.5183,0 1.44297,0 2.31159,0c1.08983,0 2.09144,0.62189 2.09144,1.43098c0,1.13054 0,2.62659 0,3.30227c0,0.67316 -0.70326,1.59609 -1.26587,1.59609c-0.72646,0 -2.62546,0 -3.88016,0c-0.68872,0 -1.18331,-0.86698 -1.18331,-1.51354z"/><path d="M152.20758,259.75746c0,-0.32344 0,-1.04154 0,-1.60985c0,-0.44494 1.15336,-0.79805 1.92632,-0.79805c0.5183,0 1.44297,0 2.31159,0c1.08983,0 2.09144,0.31095 2.09144,0.71549c0,0.56527 0,1.3133 0,1.65113c0,0.33658 -0.70326,0.79805 -1.26587,0.79805c-0.72646,0 -2.62546,0 -3.88016,0c-0.68872,0 -1.18331,-0.43349 -1.18331,-0.75677z"/><path d="M158.91531,265.92465c0,-0.64686 0,-2.0831 0,-3.21971c0,-0.88986 1.15337,-1.5961 1.92632,-1.5961c0.5183,0 1.44297,0 2.31159,0c1.08983,0 2.09144,0.62189 2.09144,1.43099c0,1.13054 0,2.62659 0,3.30227c0,0.67316 -0.70326,1.59609 -1.26587,1.59609c-0.72646,0 -2.62546,0 -3.88017,0c-0.68872,0 -1.18331,-0.86698 -1.18331,-1.51354z"/><path d="M158.91531,259.68375c0,-0.32344 0,-1.04154 0,-1.60985c0,-0.44494 1.15337,-0.79805 1.92632,-0.79805c0.5183,0 1.44297,0 2.31159,0c1.08983,0 2.09144,0.31095 2.09144,0.71549c0,0.56527 0,1.3133 0,1.65114c0,0.33658 -0.70326,0.79805 -1.26587,0.79805c-0.72646,0 -2.62546,0 -3.88017,0c-0.68872,0 -1.18331,-0.43349 -1.18331,-0.75677z"/><path d="M166.28645,265.99836c0,-0.64686 0,-2.0831 0,-3.21972c0,-0.88986 1.15337,-1.59609 1.92632,-1.59609c0.5183,0 1.44297,0 2.31159,0c1.08983,0 2.09143,0.62189 2.09143,1.43098c0,1.13054 0,2.62659 0,3.30227c0,0.67316 -0.70326,1.59609 -1.26586,1.59609c-0.72646,0 -2.62546,0 -3.88017,0c-0.68872,0 -1.1833,-0.86698 -1.1833,-1.51354z"/><path d="M166.28645,259.75746c0,-0.32344 0,-1.04154 0,-1.60985c0,-0.44494 1.15337,-0.79805 1.92632,-0.79805c0.5183,0 1.44297,0 2.31159,0c1.08983,0 2.09143,0.31095 2.09143,0.71549c0,0.56527 0,1.3133 0,1.65113c0,0.33658 -0.70326,0.79805 -1.26586,0.79805c-0.72646,0 -2.62546,0 -3.88017,0c-0.68872,0 -1.1833,-0.43349 -1.1833,-0.75677z"/><path d="M173.65758,265.99836c0,-0.64686 0,-2.0831 0,-3.21972c0,-0.88986 1.15336,-1.59609 1.92632,-1.59609c0.5183,0 1.44297,0 2.31159,0c1.08983,0 2.09144,0.62189 2.09144,1.43098c0,1.13054 0,2.62659 0,3.30227c0,0.67316 -0.70326,1.59609 -1.26587,1.59609c-0.72646,0 -2.62546,0 -3.88017,0c-0.68872,0 -1.18331,-0.86698 -1.18331,-1.51354z"/><path d="M173.65758,259.75746c0,-0.32344 0,-1.04154 0,-1.60985c0,-0.44494 1.15336,-0.79805 1.92632,-0.79805c0.5183,0 1.44297,0 2.31159,0c1.08983,0 2.09144,0.31095 2.09144,0.71549c0,0.56527 0,1.3133 0,1.65113c0,0.33658 -0.70326,0.79805 -1.26587,0.79805c-0.72646,0 -2.62546,0 -3.88017,0c-0.68872,0 -1.18331,-0.43349 -1.18331,-0.75677z"/><path d="M180.51274,265.99836c0,-0.64686 0,-2.0831 0,-3.21972c0,-0.88986 1.15337,-1.59609 1.92632,-1.59609c0.5183,0 1.44296,0 2.31158,0c1.08983,0 2.09144,0.62189 2.09144,1.43098c0,1.13054 0,2.62659 0,3.30227c0,0.67316 -0.70327,1.59609 -1.26587,1.59609c-0.72646,0 -2.62546,0 -3.88017,0c-0.68872,0 -1.1833,-0.86698 -1.1833,-1.51354z"/><path d="M180.51274,259.75746c0,-0.32344 0,-1.04154 0,-1.60985c0,-0.44494 1.15337,-0.79805 1.92632,-0.79805c0.5183,0 1.44296,0 2.31158,0c1.08983,0 2.09144,0.31095 2.09144,0.71549c0,0.56527 0,1.3133 0,1.65113c0,0.33658 -0.70327,0.79805 -1.26587,0.79805c-0.72646,0 -2.62546,0 -3.88017,0c-0.68872,0 -1.1833,-0.43349 -1.1833,-0.75677z"/><path d="M137.4653,273.14837c0,-0.64686 0,-2.0831 0,-3.21972c0,-0.88987 1.15337,-1.59609 1.92632,-1.59609c0.5183,0 1.44297,0 2.31159,0c1.08983,0 2.09144,0.62189 2.09144,1.43098c0,1.13054 0,2.6266 0,3.30227c0,0.67316 -0.70326,1.59609 -1.26587,1.59609c-0.72646,0 -2.62546,0 -3.88017,0c-0.68872,0 -1.18331,-0.86698 -1.18331,-1.51354z"/><path d="M144.83644,273.22208c0,-0.64686 0,-2.0831 0,-3.21971c0,-0.88987 1.15336,-1.5961 1.92632,-1.5961c0.5183,0 1.44297,0 2.31159,0c1.08983,0 2.09144,0.62189 2.09144,1.43098c0,1.13054 0,2.6266 0,3.30227c0,0.67316 -0.70326,1.59609 -1.26587,1.59609c-0.72646,0 -2.62546,0 -3.88017,0c-0.68872,0 -1.18331,-0.86698 -1.18331,-1.51354z"/><path d="M152.20758,273.22208c0,-0.64686 0,-2.0831 0,-3.21971c0,-0.88987 1.15336,-1.5961 1.92632,-1.5961c0.5183,0 1.44297,0 2.31159,0c1.08983,0 2.09144,0.62189 2.09144,1.43098c0,1.13054 0,2.6266 0,3.30227c0,0.67316 -0.70326,1.59609 -1.26587,1.59609c-0.72646,0 -2.62546,0 -3.88016,0c-0.68872,0 -1.18331,-0.86698 -1.18331,-1.51354z"/><path d="M158.91531,273.14837c0,-0.64686 0,-2.0831 0,-3.21972c0,-0.88987 1.15337,-1.59609 1.92632,-1.59609c0.5183,0 1.44297,0 2.31159,0c1.08983,0 2.09144,0.62189 2.09144,1.43098c0,1.13054 0,2.6266 0,3.30227c0,0.67316 -0.70326,1.59609 -1.26587,1.59609c-0.72646,0 -2.62546,0 -3.88017,0c-0.68872,0 -1.18331,-0.86698 -1.18331,-1.51354z"/><path d="M166.28645,273.22208c0,-0.64686 0,-2.0831 0,-3.21971c0,-0.88987 1.15337,-1.5961 1.92632,-1.5961c0.5183,0 1.44297,0 2.31159,0c1.08983,0 2.09143,0.62189 2.09143,1.43098c0,1.13054 0,2.6266 0,3.30227c0,0.67316 -0.70326,1.59609 -1.26586,1.59609c-0.72646,0 -2.62546,0 -3.88017,0c-0.68872,0 -1.1833,-0.86698 -1.1833,-1.51354z"/><path d="M173.65758,273.22208c0,-0.64686 0,-2.0831 0,-3.21971c0,-0.88987 1.15336,-1.5961 1.92632,-1.5961c0.5183,0 1.44297,0 2.31159,0c1.08983,0 2.09143,0.62189 2.09143,1.43098c0,1.13054 0,2.6266 0,3.30227c0,0.67316 -0.70326,1.59609 -1.26586,1.59609c-0.72646,0 -2.62546,0 -3.88017,0c-0.68872,0 -1.18331,-0.86698 -1.18331,-1.51354z"/><path d="M180.51274,273.22208c0,-0.64686 0,-2.0831 0,-3.21971c0,-0.88987 1.15337,-1.5961 1.92632,-1.5961c0.5183,0 1.44296,0 2.31158,0c1.08983,0 2.09144,0.62189 2.09144,1.43098c0,1.13054 0,2.6266 0,3.30227c0,0.67316 -0.70327,1.59609 -1.26587,1.59609c-0.72646,0 -2.62546,0 -3.88017,0c-0.68872,0 -1.1833,-0.86698 -1.1833,-1.51354z"/><path d="M137.4653,280.5195c0,-0.64686 0,-2.0831 0,-3.21971c0,-0.88987 1.15337,-1.5961 1.92632,-1.5961c0.5183,0 1.44297,0 2.31159,0c1.08983,0 2.09144,0.62189 2.09144,1.43099c0,1.13054 0,2.62659 0,3.30227c0,0.67316 -0.70326,1.59609 -1.26587,1.59609c-0.72646,0 -2.62546,0 -3.88017,0c-0.68872,0 -1.18331,-0.86698 -1.18331,-1.51354z"/><path d="M144.83644,280.59321c0,-0.64686 0,-2.0831 0,-3.21971c0,-0.88987 1.15336,-1.5961 1.92632,-1.5961c0.5183,0 1.44297,0 2.31159,0c1.08983,0 2.09144,0.62189 2.09144,1.43098c0,1.13054 0,2.6266 0,3.30227c0,0.67316 -0.70326,1.59609 -1.26587,1.59609c-0.72646,0 -2.62546,0 -3.88017,0c-0.68872,0 -1.18331,-0.86698 -1.18331,-1.51354z"/><path d="M152.20758,280.59321c0,-0.64686 0,-2.0831 0,-3.21971c0,-0.88987 1.15336,-1.5961 1.92632,-1.5961c0.5183,0 1.44297,0 2.31159,0c1.08983,0 2.09144,0.62189 2.09144,1.43098c0,1.13054 0,2.6266 0,3.30227c0,0.67316 -0.70326,1.59609 -1.26587,1.59609c-0.72646,0 -2.62546,0 -3.88016,0c-0.68872,0 -1.18331,-0.86698 -1.18331,-1.51354z"/><path d="M158.91531,280.5195c0,-0.64686 0,-2.0831 0,-3.21971c0,-0.88987 1.15337,-1.5961 1.92632,-1.5961c0.5183,0 1.44297,0 2.31159,0c1.08983,0 2.09144,0.62189 2.09144,1.43099c0,1.13054 0,2.62659 0,3.30227c0,0.67316 -0.70326,1.59609 -1.26587,1.59609c-0.72646,0 -2.62546,0 -3.88017,0c-0.68872,0 -1.18331,-0.86698 -1.18331,-1.51354z"/><path d="M166.28645,280.59321c0,-0.64686 0,-2.0831 0,-3.21971c0,-0.88987 1.15337,-1.5961 1.92632,-1.5961c0.5183,0 1.44297,0 2.31159,0c1.08983,0 2.09143,0.62189 2.09143,1.43098c0,1.13054 0,2.6266 0,3.30227c0,0.67316 -0.70326,1.59609 -1.26586,1.59609c-0.72646,0 -2.62546,0 -3.88017,0c-0.68872,0 -1.1833,-0.86698 -1.1833,-1.51354z"/><path d="M173.65758,280.59321c0,-0.64686 0,-2.0831 0,-3.21971c0,-0.88987 1.15336,-1.5961 1.92632,-1.5961c0.5183,0 1.44297,0 2.31159,0c1.08983,0 2.09143,0.62189 2.09143,1.43098c0,1.13054 0,2.6266 0,3.30227c0,0.67316 -0.70326,1.59609 -1.26586,1.59609c-0.72646,0 -2.62546,0 -3.88017,0c-0.68872,0 -1.18331,-0.86698 -1.18331,-1.51354z"/><path d="M180.51274,280.59321c0,-0.64686 0,-2.0831 0,-3.21971c0,-0.88987 1.15337,-1.5961 1.92632,-1.5961c0.5183,0 1.44296,0 2.31158,0c1.08983,0 2.09144,0.62189 2.09144,1.43098c0,1.13054 0,2.6266 0,3.30227c0,0.67316 -0.70327,1.59609 -1.26587,1.59609c-0.72646,0 -2.62546,0 -3.88017,0c-0.68872,0 -1.1833,-0.86698 -1.1833,-1.51354z"/><path d="M137.4653,288.24936c0,-0.64686 0,-2.0831 0,-3.21972c0,-0.88987 1.15337,-1.59609 1.92632,-1.59609c0.5183,0 1.44297,0 2.31159,0c1.08983,0 2.09144,0.62189 2.09144,1.43098c0,1.13054 0,2.6266 0,3.30227c0,0.67316 -0.70326,1.59609 -1.26587,1.59609c-0.72646,0 -2.62546,0 -3.88017,0c-0.68872,0 -1.18331,-0.86698 -1.18331,-1.51354z"/><path d="M144.83644,288.32308c0,-0.64686 0,-2.0831 0,-3.21971c0,-0.88987 1.15336,-1.5961 1.92632,-1.5961c0.5183,0 1.44297,0 2.31159,0c1.08983,0 2.09144,0.62189 2.09144,1.43098c0,1.13054 0,2.6266 0,3.30227c0,0.67316 -0.70326,1.59609 -1.26587,1.59609c-0.72646,0 -2.62546,0 -3.88017,0c-0.68872,0 -1.18331,-0.86698 -1.18331,-1.51354z"/><path d="M173.65758,288.32308c0,-0.64686 0,-2.0831 0,-3.21971c0,-0.88987 1.15336,-1.5961 1.92632,-1.5961c0.5183,0 1.44297,0 2.31159,0c1.08983,0 2.09143,0.62189 2.09143,1.43098c0,1.13054 0,2.6266 0,3.30227c0,0.67316 -0.70326,1.59609 -1.26586,1.59609c-0.72646,0 -2.62546,0 -3.88017,0c-0.68872,0 -1.18331,-0.86698 -1.18331,-1.51354z"/><path d="M180.51274,288.32308c0,-0.64686 0,-2.0831 0,-3.21971c0,-0.88987 1.15337,-1.5961 1.92632,-1.5961c0.5183,0 1.44296,0 2.31158,0c1.08983,0 2.09144,0.62189 2.09144,1.43098c0,1.13054 0,2.6266 0,3.30227c0,0.67316 -0.70327,1.59609 -1.26587,1.59609c-0.72646,0 -2.62546,0 -3.88017,0c-0.68872,0 -1.1833,-0.86698 -1.1833,-1.51354z"/><path d="M152.93732,288.32308c0,-0.64686 0,-2.0831 0,-3.21971c0,-0.88987 0.91157,-1.5961 1.52248,-1.5961c0.40964,0 14.42335,0 15.10987,0c0.86136,0 1.65297,0.62189 1.65297,1.43098c0,1.13054 0,2.6266 0,3.30227c0,0.67316 -0.55582,1.5961 -1.00049,1.5961c-0.57416,0 -15.35794,0 -16.3496,0c-0.54433,0 -0.93524,-0.86698 -0.93524,-1.51354z"/><path d="M187.92265,265.99836c0,-0.64686 0,-2.0831 0,-3.21972c0,-0.88986 1.15337,-1.59609 1.92632,-1.59609c0.5183,0 1.44296,0 2.31158,0c1.08983,0 2.09144,0.62189 2.09144,1.43098c0,1.13054 0,2.62659 0,3.30227c0,0.67316 -0.70327,1.59609 -1.26587,1.59609c-0.72646,0 -2.62545,0 -3.88016,0c-0.68872,0 -1.18331,-0.86698 -1.18331,-1.51354z"/><path d="M187.92265,259.75746c0,-0.32344 0,-1.04154 0,-1.60985c0,-0.44494 1.15337,-0.79805 1.92632,-0.79805c0.5183,0 1.44296,0 2.31158,0c1.08983,0 2.09144,0.31095 2.09144,0.71549c0,0.56527 0,1.3133 0,1.65113c0,0.33658 -0.70327,0.79805 -1.26587,0.79805c-0.72646,0 -2.62545,0 -3.88016,0c-0.68872,0 -1.18331,-0.43349 -1.18331,-0.75677z"/><path d="M187.92265,273.22208c0,-0.64686 0,-2.0831 0,-3.21971c0,-0.88987 1.15337,-1.5961 1.92632,-1.5961c0.5183,0 1.44296,0 2.31158,0c1.08983,0 2.09144,0.62189 2.09144,1.43098c0,1.13054 0,2.6266 0,3.30227c0,0.67316 -0.70327,1.59609 -1.26587,1.59609c-0.72646,0 -2.62545,0 -3.88016,0c-0.68872,0 -1.18331,-0.86698 -1.18331,-1.51354z"/><path d="M187.92265,280.59321c0,-0.64686 0,-2.0831 0,-3.21971c0,-0.88987 1.15337,-1.5961 1.92632,-1.5961c0.5183,0 1.44296,0 2.31158,0c1.08983,0 2.09144,0.62189 2.09144,1.43098c0,1.13054 0,2.6266 0,3.30227c0,0.67316 -0.70327,1.59609 -1.26587,1.59609c-0.72646,0 -2.62545,0 -3.88016,0c-0.68872,0 -1.18331,-0.86698 -1.18331,-1.51354z"/><path d="M187.92265,288.32308c0,-0.64686 0,-2.0831 0,-3.21971c0,-0.88987 1.15337,-1.5961 1.92632,-1.5961c0.5183,0 1.44296,0 2.31158,0c1.08983,0 2.09144,0.62189 2.09144,1.43098c0,1.13054 0,2.6266 0,3.30227c0,0.67316 -0.70327,1.59609 -1.26587,1.59609c-0.72646,0 -2.62545,0 -3.88016,0c-0.68872,0 -1.18331,-0.86698 -1.18331,-1.51354z"/><path d="M129.88307,265.92465c0,-0.64686 0,-2.0831 0,-3.21971c0,-0.88988 1.15337,-1.5961 1.92632,-1.5961c0.5183,0 1.44297,0 2.31159,0c1.08983,0 2.09144,0.62189 2.09144,1.43099c0,1.13054 0,2.62659 0,3.30227c0,0.67316 -0.70326,1.59609 -1.26587,1.59609c-0.72646,0 -2.62545,0 -3.88016,0c-0.68872,0 -1.18332,-0.86698 -1.18332,-1.51354z"/><path d="M129.88307,259.68375c0,-0.32344 0,-1.04154 0,-1.60985c0,-0.44493 1.15337,-0.79805 1.92632,-0.79805c0.5183,0 1.44297,0 2.31159,0c1.08983,0 2.09144,0.31095 2.09144,0.71549c0,0.56527 0,1.3133 0,1.65114c0,0.33659 -0.70326,0.79805 -1.26587,0.79805c-0.72646,0 -2.62545,0 -3.88016,0c-0.68872,0 -1.18331,-0.43349 -1.18331,-0.75677z"/><path d="M129.88307,273.14837c0,-0.64686 0,-2.0831 0,-3.21972c0,-0.88987 1.15337,-1.59609 1.92632,-1.59609c0.5183,0 1.44297,0 2.31159,0c1.08983,0 2.09144,0.62189 2.09144,1.43098c0,1.13054 0,2.6266 0,3.30227c0,0.67316 -0.70326,1.59609 -1.26587,1.59609c-0.72646,0 -2.62545,0 -3.88016,0c-0.68872,0 -1.18331,-0.86698 -1.18331,-1.51354z"/><path d="M129.88307,280.5195c0,-0.64686 0,-2.0831 0,-3.21971c0,-0.88987 1.15337,-1.5961 1.92632,-1.5961c0.5183,0 1.44297,0 2.31159,0c1.08983,0 2.09144,0.62189 2.09144,1.43099c0,1.13054 0,2.62659 0,3.30227c0,0.67316 -0.70326,1.59609 -1.26587,1.59609c-0.72646,0 -2.62545,0 -3.88016,0c-0.68872,0 -1.18331,-0.86698 -1.18331,-1.51354z"/><path d="M129.88307,288.24936c0,-0.64686 0,-2.0831 0,-3.21972c0,-0.88987 1.15337,-1.59609 1.92632,-1.59609c0.5183,0 1.44297,0 2.31159,0c1.08983,0 2.09144,0.62189 2.09144,1.43098c0,1.13054 0,2.6266 0,3.30227c0,0.67316 -0.70326,1.59609 -1.26587,1.59609c-0.72646,0 -2.62545,0 -3.88016,0c-0.68872,0 -1.18331,-0.86698 -1.18331,-1.51354z"/></g></g><path d="M126.05193,248.41686c0,-4.93669 0,-18.50065 0,-26.81454c0,-4.0173 2.18264,-6.80878 4.62682,-6.80878c6.94857,0 40.94051,0 57.83528,0c5.78783,0 9.5691,3.17718 9.5691,6.02013c0,4.43159 0,17.80312 0,26.81453c0,5.03003 -2.78014,8.70158 -7.20311,8.70158c-14.99167,0 -48.85738,0 -57.3095,0c-3.73673,0 -7.51859,-4.36082 -7.51859,-7.91292z" fill="#061921" stroke-width="0"/><path d="M131.52264,253.17512v-35.22694h61.08976v35.22694z" fill="#41a9d6" stroke-width="0"/><text transform="translate(156.74515,255.07697) scale(0.03717,0.03717)" font-size="40" xml:space="preserve" fill="#ffffff" stroke-width="1" font-family="&quot;Poppins-Regular&quot;, Malgun Gothic" font-weight="normal" text-anchor="start"><tspan x="0" dy="0">Fate Computers</tspan></text></g><path d="M84.5,199.89999v-5h407v5z" fill="#c5bbbb" stroke="none" stroke-width="none"/></g></g></svg>