<svg version="1.1" xmlns="http://www.w3.org/2000/svg" xmlns:xlink="http://www.w3.org/1999/xlink" width="94.00001" height="79" viewBox="0,0,94.00001,79"><g transform="translate(-244.33333,-140.5)"><g stroke="none" stroke-miterlimit="10"><path d="M244.33333,207.5c0,-15.72388 0,-42.42322 0,-52c0,-6.73799 5.28161,-15 10.41231,-15c11.06691,0 53.72812,0 73.46462,0c6.18849,0 10.12308,3.86472 10.12308,7.75c0,7.76286 0,36.23353 0,54.75c0,9.58314 -5.28161,16.5 -10.41231,16.5c-10.75267,0 -51.33096,0 -71.72923,0c-7.17901,0 -11.85846,-4.87238 -11.85846,-12z" fill-opacity="0.53333" fill="#66ffed" stroke-width="0"/><path d="M266.33655,167.7591c0,-13.62137 11.0423,-24.66368 24.66368,-24.66368c13.62137,0 24.66368,11.0423 24.66368,24.66368c0,13.62137 -11.0423,24.66368 -24.66368,24.66368c-13.62137,0 -24.66368,-11.0423 -24.66368,-24.66368z" fill="#000000" stroke-width="0"/><text transform="translate(272.39185,172.91854) scale(0.42996,0.42996)" font-size="40" xml:space="preserve" fill="#ffffff" stroke-width="1" font-family="&quot;Poppins-Regular&quot;, Malgun Gothic" font-weight="normal" text-anchor="start"><tspan x="0" dy="0">Fate</tspan></text><text transform="translate(246.8112,211.05017) scale(0.39835,0.39835)" font-size="40" xml:space="preserve" fill="#000000" stroke-width="1" font-family="&quot;Trebuchet MS&quot;, Sans Serif" font-weight="normal" text-anchor="start"><tspan x="0" dy="0">Fate Control</tspan></text><text transform="translate(246.09691,210.33588) scale(0.39835,0.39835)" font-size="40" xml:space="preserve" fill="#ffffff" stroke-width="1" font-family="&quot;Trebuchet MS&quot;, Sans Serif" font-weight="normal" text-anchor="start"><tspan x="0" dy="0">Fate Control</tspan></text></g></g></svg>