<svg version="1.1" xmlns="http://www.w3.org/2000/svg" xmlns:xlink="http://www.w3.org/1999/xlink" width="147.1057" height="64.03966" viewBox="0,0,147.1057,64.03966"><defs><linearGradient x1="177.12268" y1="164.97878" x2="177.82269" y2="203.6777" gradientUnits="userSpaceOnUse" id="color-1"><stop offset="0" stop-color="#332932"/><stop offset="1" stop-color="#331f1f"/></linearGradient><linearGradient x1="184.79776" y1="160.52699" x2="184.79776" y2="165.62722" gradientUnits="userSpaceOnUse" id="color-2"><stop offset="0" stop-color="#302532"/><stop offset="1" stop-color="#312832"/></linearGradient><linearGradient x1="203.34832" y1="183.78898" x2="203.34832" y2="188.78898" gradientUnits="userSpaceOnUse" id="color-3"><stop offset="0" stop-color="#33272c"/><stop offset="1" stop-color="#332124"/></linearGradient><linearGradient x1="206.088" y1="161.65204" x2="206.088" y2="199.16052" gradientUnits="userSpaceOnUse" id="color-4"><stop offset="0" stop-color="#312933"/><stop offset="1" stop-color="#331f1f"/></linearGradient><linearGradient x1="177.37268" y1="161.97878" x2="178.07269" y2="200.6777" gradientUnits="userSpaceOnUse" id="color-5"><stop offset="0" stop-color="#ea76df"/><stop offset="1" stop-color="#ff3f3f"/></linearGradient><linearGradient x1="184.79776" y1="157.52699" x2="184.79776" y2="162.62722" gradientUnits="userSpaceOnUse" id="color-6"><stop offset="0" stop-color="#e681ff"/><stop offset="1" stop-color="#e87cef"/></linearGradient><linearGradient x1="203.34832" y1="180.78898" x2="203.34832" y2="185.78898" gradientUnits="userSpaceOnUse" id="color-7"><stop offset="0" stop-color="#f260a0"/><stop offset="1" stop-color="#f94f6e"/></linearGradient><linearGradient x1="206.088" y1="158.65204" x2="206.088" y2="196.16052" gradientUnits="userSpaceOnUse" id="color-8"><stop offset="0" stop-color="#e681ff"/><stop offset="1" stop-color="#ff3f3f"/></linearGradient><linearGradient x1="265.47775" y1="158.1125" x2="265.47775" y2="204.2625" gradientTransform="translate(-446.88258,-350.8375) scale(2,2)" gradientUnits="userSpaceOnUse" id="color-9"><stop offset="0" stop-color="#302632"/><stop offset="1" stop-color="#331f1f"/></linearGradient><linearGradient x1="265.47775" y1="158.1125" x2="265.47775" y2="204.2625" gradientTransform="translate(-446.88258,-350.8375) scale(2,2)" gradientUnits="userSpaceOnUse" id="color-10"><stop offset="0" stop-color="#302632"/><stop offset="1" stop-color="#332020"/></linearGradient><linearGradient x1="265.47775" y1="155.7375" x2="265.47775" y2="201.8875" gradientTransform="translate(-446.88258,-346.0875) scale(2,2)" gradientUnits="userSpaceOnUse" id="color-11"><stop offset="0" stop-color="#e581ff"/><stop offset="1" stop-color="#ff3f3f"/></linearGradient><linearGradient x1="265.47775" y1="155.7375" x2="265.47775" y2="201.8875" gradientTransform="translate(-446.88258,-346.0875) scale(2,2)" gradientUnits="userSpaceOnUse" id="color-12"><stop offset="0" stop-color="#e681ff"/><stop offset="1" stop-color="#fe434a"/></linearGradient><radialGradient cx="268.43697" cy="210.6149" r="5.84824" gradientUnits="userSpaceOnUse" id="color-13"><stop offset="0" stop-color="#ffe766"/><stop offset="1" stop-color="#ffe766" stop-opacity="0"/></radialGradient></defs><g transform="translate(-169.98579,-151.46875)"><g data-paper-data="{&quot;isPaintingLayer&quot;:true}" fill-rule="nonzero" stroke-linejoin="miter" stroke-miterlimit="10" stroke-dasharray="" stroke-dashoffset="0" style="mix-blend-mode: normal"><g><path d="M182.62943,169.66881l-10.14364,29.14091" fill="none" stroke="url(#color-1)" stroke-width="5" stroke-linecap="round"/><path d="M182.24765,163.0771c0,-1.40839 1.14173,-2.55012 2.55012,-2.55012c1.40839,0 2.55011,1.14173 2.55011,2.55012c0,1.40839 -1.14172,2.55011 -2.55011,2.55011c-1.40839,0 -2.55012,-1.14172 -2.55012,-2.55011z" fill="url(#color-2)" stroke="none" stroke-width="0.5" stroke-linecap="butt"/><path d="M187.45738,191.93184c0,0 7.30297,-6.49351 14.7731,-6.28572c7.81829,0.21748 18.95259,5.07143 18.95259,5.07143" fill="none" stroke="url(#color-3)" stroke-width="5" stroke-linecap="round"/><path d="M185.1792,199.16052l8.06175,-25.26483c0,0 3.44258,-10.19562 5.4868,-10.52558c1.43299,-0.40466 7.23115,6.99789 7.23115,6.99789l21.03789,28.06841" fill="none" stroke="url(#color-4)" stroke-width="5" stroke-linecap="round"/></g><g><path d="M182.87943,166.66881l-10.14364,29.14091" fill="none" stroke="url(#color-5)" stroke-width="5" stroke-linecap="round"/><path d="M182.24765,160.0771c0,-1.40839 1.14173,-2.55012 2.55012,-2.55012c1.40839,0 2.55011,1.14173 2.55011,2.55012c0,1.40839 -1.14172,2.55011 -2.55011,2.55011c-1.40839,0 -2.55012,-1.14172 -2.55012,-2.55011z" fill="url(#color-6)" stroke="none" stroke-width="0.5" stroke-linecap="butt"/><path d="M187.45738,188.93184c0,0 7.30297,-6.49351 14.7731,-6.28572c7.81829,0.21748 18.95259,5.07143 18.95259,5.07143" fill="none" stroke="url(#color-7)" stroke-width="5" stroke-linecap="round"/><path d="M185.1792,196.16052l8.06175,-25.26483c0,0 3.44258,-10.19562 5.4868,-10.52558c1.43299,-0.40466 7.23115,6.99789 7.23115,6.99789l21.03789,28.06841" fill="none" stroke="url(#color-8)" stroke-width="5" stroke-linecap="round"/></g><text transform="translate(223.44129,175.41875) scale(0.5,0.5)" font-size="40" xml:space="preserve" fill="url(#color-9)" fill-rule="nonzero" stroke="url(#color-10)" stroke-width="1.5" stroke-linecap="butt" stroke-linejoin="miter" stroke-miterlimit="10" stroke-dasharray="" stroke-dashoffset="0" font-family="&quot;Microsoft YaHei&quot;, &quot;微软雅黑&quot;, STXihei, &quot;华文细黑&quot;" font-weight="normal" text-anchor="start" style="mix-blend-mode: normal"><tspan x="0" dy="0">InterApp</tspan><tspan x="0" dy="46.150000000000006px">   Driver</tspan></text><text transform="translate(223.44129,173.04375) scale(0.5,0.5)" font-size="40" xml:space="preserve" fill="url(#color-11)" fill-rule="nonzero" stroke="url(#color-12)" stroke-width="1.5" stroke-linecap="butt" stroke-linejoin="miter" stroke-miterlimit="10" stroke-dasharray="" stroke-dashoffset="0" font-family="&quot;Microsoft YaHei&quot;, &quot;微软雅黑&quot;, STXihei, &quot;华文细黑&quot;" font-weight="normal" text-anchor="start" style="mix-blend-mode: normal"><tspan x="0" dy="0">InterApp</tspan><tspan x="0" dy="46.150000000000006px">   Driver</tspan></text><text transform="translate(242.2,211.73028) scale(0.30225,0.30225)" font-size="40" xml:space="preserve" fill="#ffffff" fill-rule="nonzero" stroke="none" stroke-width="1" stroke-linecap="butt" stroke-linejoin="miter" stroke-miterlimit="10" stroke-dasharray="" stroke-dashoffset="0" font-family="Sans Serif" font-weight="normal" text-anchor="start" style="mix-blend-mode: normal"><tspan x="0" dy="0">for       Firefly</tspan></text><path d="M265.79042,214.77537l1.06132,-2.63208l0.57219,0.23072l-1.06132,2.63208z" fill="#000000" stroke="none" stroke-width="0" stroke-linecap="butt"/><path d="M271.37388,206.79191c0,-1.84565 1.4962,-3.34185 3.34185,-3.34185c1.84565,0 3.34185,1.4962 3.34185,3.34185c0,1.84565 -1.4962,3.34185 -3.34185,3.34185c-1.84565,0 -3.34185,-1.4962 -3.34185,-3.34185z" fill="#000000" stroke="none" stroke-width="0" stroke-linecap="butt"/><path d="M274.71573,209.52966c0,1.51202 -1.23149,2.73775 -2.7506,2.73775c-1.51911,0 -2.7506,-1.22573 -2.7506,-2.73775c0,-1.51202 1.23149,-2.73775 2.7506,-2.73775c1.51911,0 2.7506,1.22573 2.7506,2.73775z" fill="#e37156" stroke="none" stroke-width="0" stroke-linecap="butt"/><path d="M265.37426,206.20229c0.53655,-0.81112 2.1042,-0.71939 3.50145,0.20488c1.39725,0.92427 2.09499,2.33108 1.55844,3.14219c-0.53655,0.81112 -2.1042,0.71939 -3.50145,-0.20488c-1.39725,-0.92427 -2.09499,-2.33108 -1.55844,-3.14219z" fill="#000000" stroke="#e37156" stroke-width="2" stroke-linecap="butt"/><path d="M267.50248,214.83743l1.06132,-2.63208l0.57219,0.23072l-1.06132,2.63208z" fill="#000000" stroke="none" stroke-width="0" stroke-linecap="butt"/><path d="M262.58873,210.6149c0,-2.07423 2.61834,-3.75573 5.84824,-3.75573c3.2299,0 5.84824,1.68149 5.84824,3.75573c0,2.07423 -2.61834,3.75573 -5.84824,3.75573c-3.2299,0 -5.84824,-1.68149 -5.84824,-3.75573z" fill="url(#color-13)" stroke="none" stroke-width="0" stroke-linecap="butt"/><path d="M263.73149,210.6149c0,-1.66892 2.10672,-3.02185 4.70548,-3.02185c2.59876,0 4.70548,1.35293 4.70548,3.02185c0,1.66892 -2.10672,3.02185 -4.70548,3.02185c-2.59876,0 -4.70548,-1.35293 -4.70548,-3.02185z" fill="#ffe766" stroke="none" stroke-width="0" stroke-linecap="butt"/><path d="M274.28521,210.58747c0,1.66892 -1.13511,3.02185 -2.53534,3.02185c-1.40023,0 -1.40023,-6.04369 0,-6.04369c1.40023,0 2.53534,1.35293 2.53534,3.02185z" fill="#000000" stroke="none" stroke-width="0" stroke-linecap="butt"/><path d="M270.27586,215.13021l-1.06132,-2.63208l0.57219,-0.23072l1.06132,2.63208z" fill="#000000" stroke="none" stroke-width="0" stroke-linecap="butt"/><path d="M271.5865,206.1244c1.39725,0.92427 2.09499,2.33108 1.55844,3.14219c-0.53655,0.81112 -2.1042,0.71939 -3.50145,-0.20488c-1.39725,-0.92427 -2.09499,-2.33108 -1.55844,-3.14219c0.53655,-0.81112 2.1042,-0.71939 3.50145,0.20488z" fill="#000000" stroke="#e37156" stroke-width="2" stroke-linecap="butt"/><path d="M276.36886,206.54522l2.02264,-4.4315l0.60366,0.41801l-2.02264,4.4315z" fill="#000000" stroke="none" stroke-width="0" stroke-linecap="butt"/><path d="M274.09742,205.35104l2.02264,-4.4315l0.60366,0.41801l-2.02264,4.4315z" fill="#000000" stroke="none" stroke-width="0" stroke-linecap="butt"/><path d="M271.98791,215.19227l-1.06132,-2.63208l0.57219,-0.23072l1.06132,2.63208z" fill="#000000" stroke="none" stroke-width="0" stroke-linecap="butt"/><path d="M276.0171,200.91954c0,-0.32857 0.26636,-0.59492 0.59492,-0.59492c0.32857,0 0.59492,0.26636 0.59492,0.59492c0,0.32857 -0.26636,0.59492 -0.59492,0.59492c-0.32857,0 -0.59492,-0.26636 -0.59492,-0.59492z" fill="#000000" stroke="none" stroke-width="0" stroke-linecap="butt"/><path d="M278.26458,202.11372c0,-0.32857 0.26636,-0.59492 0.59492,-0.59492c0.32857,0 0.59492,0.26636 0.59492,0.59492c0,0.32857 -0.26636,0.59492 -0.59492,0.59492c-0.32857,0 -0.59492,-0.26636 -0.59492,-0.59492z" fill="#000000" stroke="none" stroke-width="0" stroke-linecap="butt"/></g></g></svg>