<svg version="1.1" xmlns="http://www.w3.org/2000/svg" xmlns:xlink="http://www.w3.org/1999/xlink" width="61.69757" height="65.36838" viewBox="0,0,61.69757,65.36838"><g transform="translate(-256.79418,-148.11085)"><g stroke="none" stroke-miterlimit="10"><g stroke-width="0"><path d="M256.79418,178.15488c0,-4.10813 0,-15.809 0,-23.33778c0,-3.9181 3.3926,-6.70626 6.70626,-6.70626c7.267,0 35.65658,0 48.5533,0c3.94316,0 6.43801,2.04493 6.43801,5.09676c0,7.4305 0,20.82997 0,25.21553c0,2.72983 -3.78185,5.90151 -9.38876,5.90151c-13.76093,0 -38.51505,0 -45.3343,0c-3.42643,0 -6.97451,-3.33926 -6.97451,-6.16976z" fill="#dad9d2"/><path d="M314.87978,150.53433c-3.44302,3.04853 -17.99806,16.85952 -24.44031,22.56363c-1.72739,1.52947 -4.38753,1.08398 -6.81867,-1.0439c-7.02327,-6.14717 -20.0146,-18.43486 -22.9564,-21.03959c-1.02386,-0.90654 -0.63725,-2.75458 1.73324,-2.75458c5.03213,0 46.51313,0 49.68592,0c3.3218,0 4.11215,1.10931 2.79623,2.27445z" fill="#f9f8f2"/></g><text transform="translate(272.50875,209.53557) scale(0.39835,0.39835)" font-size="40" xml:space="preserve" fill="#000000" stroke-width="1" font-family="&quot;Trebuchet MS&quot;, Sans Serif" font-weight="normal" text-anchor="start"><tspan x="0" dy="0">Mail</tspan></text><text transform="translate(271.79446,208.82128) scale(0.39835,0.39835)" font-size="40" xml:space="preserve" fill="#ffffff" stroke-width="1" font-family="&quot;Trebuchet MS&quot;, Sans Serif" font-weight="normal" text-anchor="start"><tspan x="0" dy="0">Mail</tspan></text></g></g></svg>