<svg version="1.1" xmlns="http://www.w3.org/2000/svg" xmlns:xlink="http://www.w3.org/1999/xlink" width="723.39999" height="467" viewBox="0,0,723.39999,467"><g transform="translate(133.39999,53.5)"><g stroke="none" stroke-miterlimit="10"><path d="M-14,383.5v-407h604v407z" fill="#061921" stroke-width="0"/><path d="M-133.39999,180c0,-128.95849 104.54151,-233.5 233.5,-233.5c128.95849,0 233.5,104.54151 233.5,233.5c0,128.95849 -104.54151,233.5 -233.5,233.5c-128.95849,0 -233.5,-104.54151 -233.5,-233.5z" fill="#41a9d6" stroke-width="0"/><text transform="translate(37.10001,37.89999) scale(0.5,0.5)" font-size="40" xml:space="preserve" fill="#ffffff" stroke-width="1" font-family="&quot;Poppins-Regular&quot;, Malgun Gothic" font-weight="normal" text-anchor="start"><tspan x="0" dy="0">Fate Computers</tspan></text><text transform="translate(34.21001,62.9) scale(0.5,0.5)" font-size="40" xml:space="preserve" fill="#ffffff" stroke-width="1" font-family="&quot;Poppins-Regular&quot;, Malgun Gothic" font-weight="normal" text-anchor="start"><tspan x="0" dy="0">BIOS Setup Utility</tspan></text><text transform="translate(66.36,84.9) scale(0.5,0.5)" font-size="40" xml:space="preserve" fill="#ffffff" stroke-width="1" font-family="&quot;Poppins-Regular&quot;, Malgun Gothic" font-weight="normal" text-anchor="start"><tspan x="0" dy="0">Version 1.0</tspan></text><text transform="translate(16.95002,126.9) scale(0.5,0.5)" font-size="40" xml:space="preserve" fill="#ffffff" stroke-width="1" font-family="&quot;Poppins-Regular&quot;, Malgun Gothic" font-weight="normal" text-anchor="start"><tspan x="0" dy="0">Y - Yes</tspan></text><text transform="translate(341.1,175.4) scale(0.5,0.5)" font-size="40" xml:space="preserve" fill="#ffffff" stroke-width="1" font-family="&quot;Poppins-Regular&quot;, Malgun Gothic" font-weight="normal" text-anchor="start"><tspan x="0" dy="0">Are you sure you want</tspan><tspan x="0" dy="46.150000000000006px">to wipe the filesystem?</tspan></text><text transform="translate(16.95002,150.9) scale(0.5,0.5)" font-size="40" xml:space="preserve" fill="#ffffff" stroke-width="1" font-family="&quot;Poppins-Regular&quot;, Malgun Gothic" font-weight="normal" text-anchor="start"><tspan x="0" dy="0">N - No</tspan></text></g></g></svg>