<svg version="1.1" xmlns="http://www.w3.org/2000/svg" xmlns:xlink="http://www.w3.org/1999/xlink" width="39.59763" height="34.90658" viewBox="0,0,39.59763,34.90658"><defs><radialGradient cx="25.64728" cy="343.70645" r="13.73062" gradientUnits="userSpaceOnUse" id="color-1"><stop offset="0" stop-color="#ffe766"/><stop offset="1" stop-color="#ffe766" stop-opacity="0"/></radialGradient></defs><g transform="translate(-11.91666,-319.54671)"><g stroke-miterlimit="10"><path d="M19.43366,353.47448l2.49179,-6.17965l1.3434,0.54169l-2.49179,6.17966z" fill="#000000" stroke="none" stroke-width="0"/><path d="M32.54262,334.73076c0,-4.33326 3.5128,-7.84607 7.84607,-7.84607c4.33326,0 7.84607,3.5128 7.84607,7.84607c0,4.33326 -3.5128,7.84607 -7.84607,7.84607c-4.33326,0 -7.84607,-3.5128 -7.84607,-7.84607z" fill="#000000" stroke="none" stroke-width="0"/><path d="M40.38868,341.1585c0,3.54994 -2.89131,6.42774 -6.45791,6.42774c-3.56661,0 -6.45791,-2.8778 -6.45791,-6.42774c0,-3.54994 2.89131,-6.42774 6.45791,-6.42774c3.56661,0 6.45791,2.8778 6.45791,6.42774z" fill="#e37156" stroke="none" stroke-width="0"/><path d="M18.45658,333.34643c1.25971,-1.90435 4.94028,-1.68899 8.22077,0.48103c3.28049,2.17002 4.91866,5.47295 3.65894,7.3773c-1.25971,1.90436 -4.94028,1.689 -8.22077,-0.48102c-3.28049,-2.17002 -4.91866,-5.47295 -3.65894,-7.3773z" fill="#000000" stroke="#e37156" stroke-width="3"/><path d="M23.45325,353.62018l2.49179,-6.17965l1.3434,0.54169l-2.49179,6.17966z" fill="#000000" stroke="none" stroke-width="0"/><path d="M11.91666,343.70645c0,-4.86992 6.1474,-8.81777 13.73062,-8.81777c7.58321,0 13.73062,3.94785 13.73062,8.81777c0,4.86992 -6.1474,8.81777 -13.73062,8.81777c-7.58321,0 -13.73062,-3.94785 -13.73062,-8.81777z" fill="url(#color-1)" stroke="none" stroke-width="0"/><path d="M14.59966,343.70645c0,-3.91832 4.94619,-7.09475 11.04761,-7.09475c6.10142,0 11.04761,3.17644 11.04761,7.09475c0,3.91832 -4.94619,7.09475 -11.04761,7.09475c-6.10142,0 -11.04761,-3.17644 -11.04761,-7.09475z" fill="#ffe766" stroke="none" stroke-width="0"/><path d="M39.37789,343.64204c0,3.91832 -2.66503,7.09475 -5.95252,7.09475c-3.28749,0 -3.28749,-14.18951 0,-14.18951c3.28749,0 5.95252,3.17643 5.95252,7.09475z" fill="#000000" stroke="none" stroke-width="0"/><path d="M29.96465,354.30758l-2.49179,-6.17966l1.3434,-0.54169l2.49179,6.17965z" fill="#000000" stroke="none" stroke-width="0"/><path d="M33.04181,333.16356c3.28049,2.17002 4.91866,5.47295 3.65894,7.3773c-1.25971,1.90435 -4.94028,1.68899 -8.22077,-0.48103c-3.28049,-2.17002 -4.91866,-5.47295 -3.65894,-7.3773c1.25971,-1.90435 4.94028,-1.68899 8.22077,0.48103z" fill="#000000" stroke="#e37156" stroke-width="3"/><path d="M44.26992,334.15157l4.74879,-10.40437l1.41728,0.98141l-4.74879,10.40437z" fill="#000000" stroke="none" stroke-width="0"/><path d="M38.93699,331.34785l4.74879,-10.40437l1.41728,0.98141l-4.74879,10.40437z" fill="#000000" stroke="none" stroke-width="0"/><path d="M33.98425,354.45329l-2.4918,-6.17965l1.3434,-0.54169l2.4918,6.17965z" fill="#000000" stroke="none" stroke-width="0"/><path d="M43.44405,320.94348c0,-0.77142 0.62536,-1.39677 1.39677,-1.39677c0.77142,0 1.39677,0.62536 1.39677,1.39677c0,0.77142 -0.62536,1.39677 -1.39677,1.39677c-0.77142,0 -1.39677,-0.62536 -1.39677,-1.39677z" fill="#000000" stroke="none" stroke-width="0"/><path d="M48.72074,323.7472c0,-0.77142 0.62536,-1.39677 1.39677,-1.39677c0.77142,0 1.39677,0.62536 1.39677,1.39677c0,0.77142 -0.62536,1.39677 -1.39677,1.39677c-0.77142,0 -1.39677,-0.62536 -1.39677,-1.39677z" fill="#000000" stroke="none" stroke-width="0"/></g></g></svg>