<svg version="1.1" xmlns="http://www.w3.org/2000/svg" xmlns:xlink="http://www.w3.org/1999/xlink" width="126.66667" height="126.66667" viewBox="0,0,126.66667,126.66667"><g transform="translate(-104.76668,-116.66667)"><g stroke-miterlimit="10"><path d="M104.76668,229.52991c0,-15.23379 0,-75.57268 0,-101.22507c0,-7.17645 4.85092,-11.63818 10.01425,-11.63818c12.47648,0 65.75799,0 95.81197,0c12.39597,0 20.84046,6.78344 20.84046,17.05128c0,27.21219 0,78.89788 0,93.64672c0,7.7154 -10.54605,15.96866 -19.75783,15.96866c-16.04701,0 -68.01641,0 -93.10541,0c-8.41296,0 -13.80342,-6.98548 -13.80342,-13.80342z" fill="#c7baba" stroke="none" stroke-width="0"/><path d="M128.60001,192.89103c0,-9.50107 0,-47.13348 0,-63.13248c0,-4.47583 3.02544,-7.25855 6.24573,-7.25855c7.78139,0 41.01222,0 59.75641,0c7.73117,0 12.99786,4.23073 12.99786,10.63462c0,16.97181 0,49.20737 0,58.40598c0,4.81197 -6.5774,9.9594 -12.32265,9.9594c-10.00827,0 -42.42076,0 -58.06838,0c-5.24703,0 -8.60897,-4.35674 -8.60897,-8.60897z" fill="#f54e4e" stroke="none" stroke-width="0"/><g><path d="M141.47501,162c0,-14.70458 11.92042,-26.625 26.625,-26.625c14.70458,0 26.625,11.92042 26.625,26.625c0,14.70458 -11.92042,26.625 -26.625,26.625c-14.70458,0 -26.625,-11.92042 -26.625,-26.625z" fill="#1b1a1a" stroke="none" stroke-width="0"/><path d="M157.27501,162c0,-5.97848 4.84652,-10.825 10.825,-10.825c5.97848,0 10.825,4.84652 10.825,10.825c0,5.97848 -4.84652,10.825 -10.825,10.825c-5.97848,0 -10.825,-4.84652 -10.825,-10.825z" fill="#f54e4e" stroke="none" stroke-width="0"/><path d="M160.97501,162c0,-3.93502 3.18997,-7.125 7.125,-7.125c3.93503,0 7.125,3.18998 7.125,7.125c0,3.93502 -3.18998,7.125 -7.125,7.125c-3.93503,0 -7.125,-3.18998 -7.125,-7.125z" fill="#9595a1" stroke="none" stroke-width="0"/><path d="M145.37501,162c0,-12.55067 10.17433,-22.725 22.725,-22.725c12.55067,0 22.725,10.17433 22.725,22.725c0,12.55067 -10.17433,22.725 -22.725,22.725c-12.55067,0 -22.725,-10.17433 -22.725,-22.725z" fill="none" stroke="#141414" stroke-width="1.5"/><path d="M149.77501,162c0,-10.12062 8.20438,-18.325 18.325,-18.325c10.12061,0 18.325,8.20438 18.325,18.325c0,10.12062 -8.20439,18.325 -18.325,18.325c-10.12062,0 -18.325,-8.20439 -18.325,-18.325z" fill="none" stroke="#141414" stroke-width="1.5"/><path d="M147.57501,162c0,-11.33564 9.18936,-20.525 20.525,-20.525c11.33564,0 20.525,9.18936 20.525,20.525c0,11.33564 -9.18936,20.525 -20.525,20.525c-11.33564,0 -20.525,-9.18936 -20.525,-20.525z" fill="none" stroke="#141414" stroke-width="1.5"/><path d="M154.57298,162c0,-7.47078 6.05626,-13.52703 13.52703,-13.52703c7.47077,0 13.52704,6.05626 13.52704,13.52703c0,7.47078 -6.05626,13.52704 -13.52704,13.52704c-7.47077,0 -13.52703,-6.05626 -13.52703,-13.52704z" fill="none" stroke="#141414" stroke-width="1.5"/><path d="M152.30614,162c0,-8.72271 7.07116,-15.79387 15.79388,-15.79387c8.72272,0 15.79388,7.07116 15.79388,15.79388c0,8.72271 -7.07116,15.79388 -15.79388,15.79388c-8.72272,0 -15.79387,-7.07116 -15.79387,-15.79388z" fill="none" stroke="#141414" stroke-width="1.5"/><path d="M142.83095,162c0,-13.95571 11.31334,-25.26906 25.26905,-25.26906c13.95572,0 25.26907,11.31335 25.26907,25.26906c0,13.95571 -11.31336,25.26907 -25.26907,25.26907c-13.95571,0 -25.26905,-11.31335 -25.26905,-25.26907z" fill="none" stroke="#141414" stroke-width="1.5"/></g><text transform="translate(130.40112,215.0721) scale(0.27707,0.27707)" font-size="40" xml:space="preserve" fill="#ffffff" stroke="none" stroke-width="1" font-family="&quot;Trebuchet MS&quot;, Sans Serif" font-weight="normal" text-anchor="start"><tspan x="0" dy="0">Newspaper Boy</tspan></text><text transform="translate(139.68035,224.77476) scale(0.17808,0.17808)" font-size="40" xml:space="preserve" fill="#ffffff" stroke="none" stroke-width="1" font-family="&quot;Trebuchet MS&quot;, Sans Serif" font-weight="normal" text-anchor="start"><tspan x="0" dy="0">Scratch_Fakemon</tspan></text><text transform="translate(135.15753,232.24224) scale(0.14676,0.14676)" font-size="40" xml:space="preserve" fill="#ffffff" stroke="none" stroke-width="1" font-family="&quot;Trebuchet MS&quot;, Sans Serif" font-weight="normal" text-anchor="start"><tspan x="0" dy="0">From Vynil Record Player</tspan></text></g></g></svg>