<svg version="1.1" xmlns="http://www.w3.org/2000/svg" xmlns:xlink="http://www.w3.org/1999/xlink" width="407" height="263" viewBox="0,0,407,263"><g transform="translate(-84.5,-48.5)"><g stroke-miterlimit="10"><path d="M84.5,278.89999c0,-23.94017 0,-152.37376 0,-196c0,-20.32696 12.49842,-34.39999 32.60001,-34.39999c73.40347,0 309.19035,0 347,0c14.12451,0 27.39999,6.62005 27.39999,17.39999c0,41.44836 0,200.39521 0,225c0,10.30692 -12.42794,20.60001 -32.39999,20.60001c-71.80718,0 -302.13538,0 -342,0c-16.43325,0 -32.60001,-17.4268 -32.60001,-32.60001z" fill="#f6f2f2" stroke="none" stroke-width="0" stroke-linecap="butt"/><path d="M218.72727,157.7981c0,-4.18725 0,-26.65092 0,-34.28137c0,-3.55529 8.11545,-6.01673 21.16779,-6.01673c47.66225,0 200.7631,0 225.31361,0c9.17131,0 17.79133,1.15788 17.79133,3.04334c0,7.24952 0,35.05011 0,39.35361c0,1.80273 -8.06969,3.60304 -21.03792,3.60304c-46.62574,0 -196.18217,0 -222.06702,0c-10.67041,0 -21.16779,-3.04803 -21.16779,-5.7019z" fill="#d0cccc" stroke="none" stroke-width="0" stroke-linecap="butt"/><path d="M218.72727,220.2981c0,-4.18725 0,-26.65092 0,-34.28136c0,-3.55528 8.11545,-6.01673 21.16779,-6.01673c47.66224,0 200.7631,0 225.31361,0c9.17131,0 17.79133,1.15788 17.79133,3.04334c0,7.24953 0,35.05011 0,39.35361c0,1.80273 -8.06969,3.60305 -21.03792,3.60305c-46.62574,0 -196.18216,0 -222.06701,0c-10.67041,0 -21.1678,-3.04803 -21.1678,-5.70191z" fill="#d0cccc" stroke="none" stroke-width="0" stroke-linecap="butt"/><path d="M218.72727,281.2981c0,-4.18725 0,-26.65092 0,-34.28136c0,-3.55528 8.11545,-6.01673 21.16779,-6.01673c47.66224,0 200.7631,0 225.31361,0c9.17131,0 17.79133,1.15788 17.79133,3.04334c0,7.24953 0,35.05011 0,39.35361c0,1.80273 -8.06969,3.60305 -21.03792,3.60305c-46.62574,0 -196.18216,0 -222.06701,0c-10.67041,0 -21.1678,-3.04804 -21.1678,-5.70191z" fill="#d0cccc" stroke="none" stroke-width="0" stroke-linecap="butt"/><text transform="translate(229.47238,138.1124) scale(0.40962,0.40962)" font-size="40" xml:space="preserve" fill="#000000" stroke="none" stroke-width="1" stroke-linecap="butt" font-family="&quot;Trebuchet MS&quot;, Sans Serif" font-weight="normal" text-anchor="start"><tspan x="0" dy="0">OH MY GOSH YOU WON'T BELIEV...</tspan></text><text transform="translate(229.47238,154.46798) scale(0.33599,0.33599)" font-size="40" xml:space="preserve" fill="#000000" stroke="none" stroke-width="1" stroke-linecap="butt" font-family="&quot;Trebuchet MS&quot;, Sans Serif" font-weight="normal" text-anchor="start"><tspan x="0" dy="0">JoshuaVeryGood@relatively.cool</tspan></text><text transform="translate(229.47145,200.61244) scale(0.40962,0.40962)" font-size="40" xml:space="preserve" fill="#000000" stroke="none" stroke-width="1" stroke-linecap="butt" font-family="&quot;Trebuchet MS&quot;, Sans Serif" font-weight="normal" text-anchor="start"><tspan x="0" dy="0">EPIC MEMES DROP THIS SATURD...</tspan></text><text transform="translate(229.47145,216.96801) scale(0.336,0.336)" font-size="40" xml:space="preserve" fill="#000000" stroke="none" stroke-width="1" stroke-linecap="butt" font-family="&quot;Trebuchet MS&quot;, Sans Serif" font-weight="normal" text-anchor="start"><tspan x="0" dy="0">the.memer@videos.net</tspan></text><text transform="translate(225.72727,261.61244) scale(0.40962,0.40962)" font-size="40" xml:space="preserve" fill="#000000" stroke="none" stroke-width="1" stroke-linecap="butt" font-family="&quot;Trebuchet MS&quot;, Sans Serif" font-weight="normal" text-anchor="start"><tspan x="0" dy="0">You got 999 messages while you...</tspan></text><text transform="translate(225.72727,277.96801) scale(0.336,0.336)" font-size="40" xml:space="preserve" fill="#000000" stroke="none" stroke-width="1" stroke-linecap="butt" font-family="&quot;Trebuchet MS&quot;, Sans Serif" font-weight="normal" text-anchor="start"><tspan x="0" dy="0">noreply@epic.chat</tspan></text><path d="M84.5,278.89999c0,-23.94017 0,-152.37376 0,-196c0,-20.32696 12.49842,-34.39999 32.60001,-34.39999c73.40347,0 30.19035,0 68,0c14.12451,0 27.39999,6.62005 27.39999,17.39999c0,41.44836 0,245.5 0,245.5c0,0 -55.53537,0.10001 -95.39999,0.10001c-16.43325,0 -32.60001,-17.4268 -32.60001,-32.60001z" fill="#5884e8" stroke="none" stroke-width="0" stroke-linecap="butt"/><g><path d="M95.51667,121.49108c0,-9.23696 7.48804,-16.725 16.725,-16.725c9.23696,0 16.725,7.48804 16.725,16.725c0,9.23696 -7.48804,16.725 -16.725,16.725c-9.23696,0 -16.725,-7.48804 -16.725,-16.725z" fill="#788acf" stroke="#000000" stroke-width="1.5" stroke-linecap="butt"/><text transform="translate(111.99833,129.63888) rotate(-43.56744) scale(0.48832,0.48832)" font-size="40" xml:space="preserve" fill="#e2cfcf" stroke="none" stroke-width="1" stroke-linecap="butt" font-family="&quot;Tw Cen MT&quot;, Sans Serif" font-weight="normal" text-anchor="start"><tspan x="0" dy="0">U</tspan></text><path d="M118.46777,105.98689l-20.99781,20.99781" fill="none" stroke="#000000" stroke-width="1.5" stroke-linecap="round"/><path d="M127.01339,115.10221l-20.99781,20.99781" fill="none" stroke="#000000" stroke-width="1.5" stroke-linecap="round"/></g><text transform="translate(137.58667,122.39667) scale(0.5,0.5)" font-size="40" xml:space="preserve" fill="#ffffff" stroke="none" stroke-width="1" stroke-linecap="butt" font-family="&quot;Trebuchet MS&quot;, Sans Serif" font-weight="normal" text-anchor="start"><tspan x="0" dy="0">USide</tspan></text><text transform="translate(137.58667,133.78775) scale(0.16244,0.16244)" font-size="40" xml:space="preserve" fill="#ffffff" stroke="none" stroke-width="1" stroke-linecap="butt" font-family="&quot;Trebuchet MS&quot;, Sans Serif" font-weight="normal" text-anchor="start"><tspan x="0" dy="0">USide@Mailfly.com</tspan></text><path d="M93.34053,171.71489c0,-2.88606 0,-18.36916 0,-23.62846c0,-2.45049 3.44467,-4.14704 8.98485,-4.14704c20.23065,0 85.21561,0 95.63628,0c3.89284,0 7.55168,0.79807 7.55168,2.09762c0,4.99674 0,24.15831 0,27.1245c0,1.24253 -3.42525,2.4834 -8.92972,2.4834c-19.79069,0 -83.27119,0 -94.25824,0c-4.52915,0 -8.98485,-2.10086 -8.98485,-3.93004z" fill="#3f5da2" stroke="none" stroke-width="0" stroke-linecap="butt"/><text transform="translate(100.67514,163.82404) scale(0.33599,0.33599)" font-size="40" xml:space="preserve" fill="#ffffff" stroke="none" stroke-width="1" stroke-linecap="butt" font-family="&quot;Trebuchet MS&quot;, Sans Serif" font-weight="normal" text-anchor="start"><tspan x="0" dy="0">All</tspan></text><path d="M92.4136,207.7755c0,-2.88607 0,-18.36916 0,-23.62846c0,-2.45048 3.44467,-4.14704 8.98484,-4.14704c20.23065,0 85.21561,0 95.63629,0c3.89284,0 7.55168,0.79807 7.55168,2.09763c0,4.99674 0,24.15831 0,27.1245c0,1.24254 -3.42525,2.4834 -8.92972,2.4834c-19.79069,0 -83.2712,0 -94.25824,0c-4.52914,0 -8.98484,-2.10086 -8.98484,-3.93004z" fill="#617dbd" stroke="none" stroke-width="0" stroke-linecap="butt"/><text transform="translate(99.7482,199.88465) scale(0.33599,0.33599)" font-size="40" xml:space="preserve" fill="#ffffff" stroke="none" stroke-width="1" stroke-linecap="butt" font-family="&quot;Trebuchet MS&quot;, Sans Serif" font-weight="normal" text-anchor="start"><tspan x="0" dy="0">Main</tspan></text><path d="M92.41359,243.71489c0,-2.88607 0,-18.36916 0,-23.62846c0,-2.45048 3.44467,-4.14704 8.98484,-4.14704c20.23065,0 85.21561,0 95.63629,0c3.89284,0 7.55168,0.79807 7.55168,2.09763c0,4.99674 0,24.15831 0,27.1245c0,1.24254 -3.42525,2.4834 -8.92972,2.4834c-19.79069,0 -83.2712,0 -94.25824,0c-4.52914,0 -8.98484,-2.10086 -8.98484,-3.93004z" fill="#3f5da2" stroke="none" stroke-width="0" stroke-linecap="butt"/><text transform="translate(99.7482,235.82404) scale(0.33599,0.33599)" font-size="40" xml:space="preserve" fill="#ffffff" stroke="none" stroke-width="1" stroke-linecap="butt" font-family="&quot;Trebuchet MS&quot;, Sans Serif" font-weight="normal" text-anchor="start"><tspan x="0" dy="0">Promotions</tspan></text><path d="M92.4136,279.71489c0,-2.88607 0,-18.36917 0,-23.62846c0,-2.45049 3.44467,-4.14704 8.98484,-4.14704c20.23065,0 85.21561,0 95.63629,0c3.89284,0 7.55168,0.79807 7.55168,2.09763c0,4.99674 0,24.15831 0,27.1245c0,1.24254 -3.42525,2.4834 -8.92973,2.4834c-19.79069,0 -83.2712,0 -94.25824,0c-4.52914,0 -8.98484,-2.10086 -8.98484,-3.93004z" fill="#3f5da2" stroke="none" stroke-width="0" stroke-linecap="butt"/><text transform="translate(99.74821,271.82404) scale(0.33599,0.33599)" font-size="40" xml:space="preserve" fill="#ffffff" stroke="none" stroke-width="1" stroke-linecap="butt" font-family="&quot;Trebuchet MS&quot;, Sans Serif" font-weight="normal" text-anchor="start"><tspan x="0" dy="0">Social</tspan></text><path d="M92.24386,293.08643c0,-2.45048 3.44467,-4.14704 8.98484,-4.14704c20.23065,0 85.21561,0 95.63629,0c3.89284,0 7.55168,0.79807 7.55168,2.09763c0,3.42498 0,13.50511 0,20.46298c-41.32544,0 -74.50471,0 -87.4864,0c-9.26255,0 -18.44044,-5.53645 -24.68641,-13.08522c0,-2.16243 0,-4.04824 0,-5.32835z" fill="#3f5da2" stroke="none" stroke-width="0" stroke-linecap="butt"/><path d="" fill="#3f5da2" stroke="none" stroke-width="0" stroke-linecap="butt"/><path d="M103.86366,307.4775c0.31062,-0.27999 0.46592,-0.63654 0.46592,-1.06965c0,-0.32374 -0.08749,-0.62342 -0.26249,-0.89904c-0.17062,-0.27999 -0.60373,-0.58404 -1.29933,-0.91216l-0.77436,-0.36092c-0.65623,-0.30624 -1.11559,-0.66936 -1.37808,-1.08935c-0.25811,-0.41998 -0.38717,-0.92528 -0.38717,-1.51589c0,-0.71748 0.25374,-1.31246 0.76122,-1.78495c0.50749,-0.47248 1.15934,-0.70872 1.95557,-0.70872c1.06309,0 1.80244,0.1728 2.21806,0.51842l-0.38718,1.14184c-0.17499,-0.12687 -0.44186,-0.24937 -0.8006,-0.36749c-0.35874,-0.11812 -0.69123,-0.17718 -0.99747,-0.17718c-0.44624,0 -0.79841,0.12687 -1.05653,0.38061c-0.25374,0.25374 -0.38061,0.57967 -0.38061,0.97778c0,0.245 0.04593,0.46812 0.1378,0.66936c0.09188,0.20124 0.21875,0.36968 0.38062,0.5053c0.16624,0.13562 0.50311,0.32592 1.01059,0.57092l0.78748,0.37405c0.65623,0.31061 1.11559,0.68248 1.37808,1.11559c0.26687,0.42874 0.4003,0.9756 0.4003,1.64058c0,0.72185 -0.29093,1.33433 -0.87278,1.83745c-0.03614,0.03149 -0.07306,0.06199 -0.11075,0.09151c-0.41841,-0.20894 -0.83356,-0.42721 -1.24512,-0.65439c0.17091,-0.06864 0.32318,-0.16319 0.45683,-0.28367zM111.02973,308.10745c-0.4988,0.6256 -1.2622,0.9384 -2.29028,0.9384c-0.55123,0 -1.03028,-0.199 -1.43714,-0.5971c-0.40249,-0.4025 -0.60373,-0.90125 -0.60373,-1.49623c0,-0.7131 0.31061,-1.31465 0.93184,-1.80463c0.62561,-0.49436 1.42184,-0.74154 2.38871,-0.74154c0.2625,0 0.56,0.05687 0.8924,0.17062c0,-1.13747 -0.5074,-1.7062 -1.52241,-1.7062c-0.77873,0 -1.37808,0.20999 -1.79807,0.62998l-0.52498,-1.04341c0.23624,-0.19249 0.56217,-0.35655 0.97778,-0.49217c0.41999,-0.14 0.82029,-0.20999 1.2009,-0.20999c1.01938,0 1.75868,0.23186 2.21808,0.6956c0.4637,0.46374 0.6956,1.2009 0.6956,2.2115v2.51992c0,0.61686 0.1837,1.02805 0.5512,1.23375v0.6234c-0.5075,0 -0.8881,-0.0722 -1.1418,-0.2166c-0.2494,-0.1443 -0.4288,-0.3828 -0.5381,-0.7153zM110.91153,305.46288c-0.3937,-0.0875 -0.6693,-0.13125 -0.8268,-0.13125c-0.62999,0 -1.14403,0.16187 -1.54215,0.48561c-0.39811,0.32374 -0.59717,0.70654 -0.59717,1.1484c0,0.73061 0.43093,1.09591 1.29278,1.09591c0.62994,0 1.18774,-0.29968 1.67334,-0.89904zM116.65363,309.04585h-0.3282l-3.0121,-7.17912h1.365l1.8571,4.92173l1.8965,-4.92173h1.3059zM126.62833,305.52194h-5.0661c0,0.82247 0.2253,1.45464 0.6759,1.8965c0.3981,0.38499 0.91,0.57749 1.5356,0.57749c0.7131,0 1.308,-0.20781 1.7849,-0.62342l0.525,0.89904c-0.1925,0.1925 -0.4878,0.3587 -0.8859,0.4987c-0.4988,0.1838 -1.0544,0.2756 -1.6668,0.2756c-0.8838,0 -1.6341,-0.2996 -2.2509,-0.899c-0.6869,-0.6606 -1.0303,-1.54869 -1.0303,-2.66429c0,-1.15934 0.3522,-2.089 1.0565,-2.78898c0.63,-0.6256 1.3759,-0.9384 2.2378,-0.9384c1.0018,0 1.7871,0.28217 2.3558,0.84653c0.5513,0.54249 0.8269,1.26215 0.8269,2.159c0,0.27562 -0.0328,0.52936 -0.0984,0.76123zM123.60303,302.80514c-0.5556,0 -1.0215,0.17937 -1.3977,0.53811c-0.3588,0.34124 -0.5622,0.7656 -0.6103,1.27309h3.8914c0,-0.50311 -0.1575,-0.9231 -0.4725,-1.25996c-0.3456,-0.36749 -0.8159,-0.55124 -1.4109,-0.55124zM132.50153,308.90805v-0.5184c-0.4331,0.4331 -1.0631,0.6497 -1.8899,0.6497c-0.8794,0 -1.5925,-0.315 -2.1393,-0.945c-0.5469,-0.62997 -0.8203,-1.46994 -0.8203,-2.51991c0,-1.05435 0.315,-1.95338 0.945,-2.69711c0.6299,-0.7481 1.3802,-1.12215 2.2508,-1.12215c0.7263,0 1.2775,0.17061 1.6537,0.51185v-3.26146h1.2469v9.90248zM132.50153,303.51387c-0.315,-0.47248 -0.7459,-0.70873 -1.2927,-0.70873c-0.6694,0 -1.2119,0.24937 -1.6275,0.74811c-0.4112,0.49873 -0.6169,1.13309 -0.6169,1.90306c0,1.69308 0.77,2.53962 2.31,2.53962c0.1968,0 0.4331,-0.06125 0.7087,-0.18375c0.2756,-0.12687 0.4484,-0.2603 0.5184,-0.4003z" fill="#ffffff" stroke="none" stroke-width="0" stroke-linecap="butt"/></g></g></svg>