<svg version="1.1" xmlns="http://www.w3.org/2000/svg" xmlns:xlink="http://www.w3.org/1999/xlink" width="81.25" height="79" viewBox="0,0,81.25,79"><defs><radialGradient cx="285.15846" cy="167.39774" r="22.89351" gradientUnits="userSpaceOnUse" id="color-1"><stop offset="0" stop-color="#9966ff"/><stop offset="1" stop-color="#9966ff" stop-opacity="0"/></radialGradient><radialGradient cx="285.15846" cy="167.39774" r="20.90449" gradientUnits="userSpaceOnUse" id="color-2"><stop offset="0" stop-color="#9966ff"/><stop offset="1" stop-color="#9966ff" stop-opacity="0"/></radialGradient><radialGradient cx="285.15846" cy="167.39774" r="18.65029" gradientUnits="userSpaceOnUse" id="color-3"><stop offset="0" stop-color="#9966ff"/><stop offset="1" stop-color="#9966ff" stop-opacity="0"/></radialGradient><linearGradient x1="285.15846" y1="151.34626" x2="285.15846" y2="183.44921" gradientUnits="userSpaceOnUse" id="color-4"><stop offset="0" stop-color="#9966ff"/><stop offset="1" stop-color="#72239a"/></linearGradient></defs><g transform="translate(-247.9,-138.725)"><g stroke-miterlimit="10"><path d="M247.9,205.725c0,-15.72388 0,-42.42322 0,-52c0,-6.73799 4.56522,-15 9,-15c9.56581,0 46.44053,0 63.5,0c5.34909,0 8.75,3.86472 8.75,7.75c0,7.76286 0,36.23353 0,54.75c0,9.58314 -4.56522,16.5 -9,16.5c-9.2942,0 -44.36852,0 -62,0c-6.20526,0 -10.25,-4.87238 -10.25,-12z" fill-opacity="0.53333" fill="#66ffed" stroke="none" stroke-width="0" stroke-linecap="butt"/><text transform="translate(253.35759,210.71557) scale(0.39835,0.39835)" font-size="40" xml:space="preserve" fill="#000000" stroke="none" stroke-width="1" stroke-linecap="butt" font-family="&quot;Trebuchet MS&quot;, Sans Serif" font-weight="normal" text-anchor="start"><tspan x="0" dy="0">Nightlight</tspan></text><path d="M262.26497,167.39774c0,-12.64373 10.24976,-22.8935 22.8935,-22.8935c12.64373,0 22.89351,10.24977 22.89351,22.8935c0,12.64373 -10.24977,22.8935 -22.89351,22.8935c-12.64373,0 -22.8935,-10.24976 -22.8935,-22.8935z" fill="url(#color-1)" stroke="none" stroke-width="0" stroke-linecap="butt"/><path d="M264.25397,167.39774c0,-11.54523 9.35926,-20.9045 20.90449,-20.9045c11.54523,0 20.90449,9.35926 20.90449,20.9045c0,11.54523 -9.35926,20.90449 -20.90449,20.90449c-11.54523,0 -20.90449,-9.35925 -20.90449,-20.90449z" fill="url(#color-2)" stroke="none" stroke-width="0" stroke-linecap="butt"/><path d="M266.50818,167.39774c0,-10.30027 8.35001,-18.65029 18.65028,-18.65029c10.30027,0 18.65029,8.35002 18.65029,18.65029c0,10.30027 -8.35002,18.65028 -18.65029,18.65028c-10.30027,0 -18.65028,-8.35001 -18.65028,-18.65028z" fill="url(#color-3)" stroke="none" stroke-width="0" stroke-linecap="butt"/><text transform="translate(252.6433,210.00128) scale(0.39835,0.39835)" font-size="40" xml:space="preserve" fill="#ffffff" stroke="none" stroke-width="1" stroke-linecap="butt" font-family="&quot;Trebuchet MS&quot;, Sans Serif" font-weight="normal" text-anchor="start"><tspan x="0" dy="0">Nightlight</tspan></text><path d="M269.10699,167.39774c0,-8.86498 7.18649,-16.05148 16.05147,-16.05148c8.86498,0 16.05148,7.18649 16.05148,16.05148c0,8.86498 -7.1865,16.05147 -16.05148,16.05147c-8.86498,0 -16.05147,-7.18649 -16.05147,-16.05147z" fill="url(#color-4)" stroke="none" stroke-width="0" stroke-linecap="butt"/><g fill="none" stroke="#9966ff" stroke-width="2.5"><path d="M269.10699,167.39774c0,-8.86498 7.1865,-16.05148 16.05148,-16.05148c8.86498,0 16.05147,7.18649 16.05147,16.05148c0,8.86498 -7.18649,16.05147 -16.05147,16.05147c-8.86498,0 -16.05148,-7.18649 -16.05148,-16.05147z" stroke-linecap="butt"/><path d="M276.89898,153.89647c0,0 -1.75692,7.76624 -1.8564,14.18824c-0.08874,5.7286 1.8564,11.93404 1.8564,11.93404" stroke-linecap="round"/><path d="M282.4682,152.85807c0,0 -1.75693,8.67888 -1.85641,15.85556c-0.08874,6.40179 1.85641,13.33646 1.85641,13.33646" stroke-linecap="round"/><path d="M288.17002,152.85807c0,0 -1.75692,8.67888 -1.8564,15.85556c-0.08874,6.40179 1.8564,13.33646 1.8564,13.33646" stroke-linecap="round"/><path d="M293.87184,154.33659c0,0 -1.75692,7.76624 -1.8564,14.18825c-0.08874,5.7286 1.8564,11.93404 1.8564,11.93404" stroke-linecap="round"/><path d="M271.56113,159.89732c0,0 7.96335,-1.75692 14.54835,-1.8564c5.87399,-0.08874 12.23693,1.8564 12.23693,1.8564" stroke-linecap="round"/><path d="M270.39013,165.46654c0,0 8.67888,-1.75692 15.85556,-1.8564c6.40179,-0.08874 13.33646,1.8564 13.33646,1.8564" stroke-linecap="round"/><path d="M270.39013,171.16836c0,0 8.67888,-1.75692 15.85556,-1.8564c6.40179,-0.08874 13.33646,1.8564 13.33646,1.8564" stroke-linecap="round"/><path d="M272.22413,176.87018c0,0 7.66055,-1.75692 13.99517,-1.8564c5.65064,-0.08874 11.77164,1.8564 11.77164,1.8564" stroke-linecap="round"/></g></g></g></svg>