<svg version="1.1" xmlns="http://www.w3.org/2000/svg" xmlns:xlink="http://www.w3.org/1999/xlink" width="81.25" height="79" viewBox="0,0,81.25,79"><g transform="translate(-247.9,-138.725)"><g stroke="none" stroke-miterlimit="10"><path d="M247.9,205.725c0,-15.72388 0,-42.42322 0,-52c0,-6.73799 4.56522,-15 9,-15c9.56581,0 46.44053,0 63.5,0c5.34909,0 8.75,3.86472 8.75,7.75c0,7.76286 0,36.23353 0,54.75c0,9.58314 -4.56522,16.5 -9,16.5c-9.2942,0 -44.36852,0 -62,0c-6.20526,0 -10.25,-4.87238 -10.25,-12z" fill-opacity="0.53333" fill="#66ffed" stroke-width="0"/><text transform="translate(257.50874,209.53557) scale(0.39835,0.39835)" font-size="40" xml:space="preserve" fill="#000000" stroke-width="1" font-family="&quot;Trebuchet MS&quot;, Sans Serif" font-weight="normal" text-anchor="start"><tspan x="0" dy="0">Terminal</tspan></text><g><path d="M256.79446,180.99564c0,-5.06965 0,-22.75843 0,-30.31431c0,-2.13796 1.36826,-3.46466 2.99897,-3.46466c5.81986,0 40.448,0 53.61826,0c3.15597,0 5.07979,2.28235 5.07979,3.35866c0,4.21175 0,22.35732 0,31.16226c0,2.93287 -2.14,4.82938 -5.59436,4.82938c-12.7352,0 -43.33494,0 -50.42792,0c-2.86979,0 -5.67474,-2.92987 -5.67474,-5.57134z" fill="#4e4949" stroke-width="0"/><path d="M260.39297,178.98839c0,-4.34814 0,-19.51947 0,-26c0,-1.83369 1.20865,-2.97157 2.64914,-2.97157c5.14097,0 35.7297,0 47.36363,0c2.78783,0 4.48723,1.95753 4.48723,2.88066c0,3.61233 0,19.17544 0,26.72727c0,2.51546 -1.89037,4.14207 -4.94178,4.14207c-11.24963,0 -38.27987,0 -44.54545,0c-2.53503,0 -5.01277,-2.51289 -5.01277,-4.77843z" fill="#000000" stroke-width="0"/><text transform="translate(262.31484,163.86853) scale(0.5,0.5)" font-size="40" xml:space="preserve" fill="#ffffff" stroke-width="1" font-family="&quot;Trebuchet MS&quot;, Sans Serif" font-weight="normal" text-anchor="start"><tspan x="0" dy="0">&gt;_</tspan></text></g><text transform="translate(256.79446,208.82128) scale(0.39835,0.39835)" font-size="40" xml:space="preserve" fill="#ffffff" stroke-width="1" font-family="&quot;Trebuchet MS&quot;, Sans Serif" font-weight="normal" text-anchor="start"><tspan x="0" dy="0">Terminal</tspan></text></g></g></svg>