<svg version="1.1" xmlns="http://www.w3.org/2000/svg" xmlns:xlink="http://www.w3.org/1999/xlink" width="840.84084" height="549.16607" viewBox="0,0,840.84084,549.16607"><g transform="translate(132.42042,104.33122)"><g stroke="none" stroke-width="0" stroke-miterlimit="10"><path d="M-49.83784,411.23126v-462.46246h675.67568v462.46246z" fill="#5748bd"/><path d="M-132.42042,444.83486v-169.66967h840.84084v169.66967z" fill="#a37e39"/><path d="M-80.65087,46.16879c0,-83.11885 67.38115,-150.5 150.5,-150.5c83.11886,0 150.5,67.38115 150.5,150.5c0,83.11886 -67.38114,150.5 -150.5,150.5c-83.11885,0 -150.5,-67.38114 -150.5,-150.5z" fill="#d7e386"/><path d="M90.67959,296.90001v-186h87v186z" fill="#4f2b13"/><path d="M20.51256,139.77005c-9.15427,-33.56811 10.63705,-68.20143 44.20516,-77.3557c33.56811,-9.15427 68.20143,10.63705 77.3557,44.20516c9.15427,33.5681 -10.63704,68.20143 -44.20515,77.3557c-33.56811,9.15427 -68.20143,-10.63705 -77.3557,-44.20515z" fill="#8f7d5d"/><path d="M72.0845,89.42788c-9.15427,-33.56811 10.63705,-68.20143 44.20515,-77.3557c33.5681,-9.15427 68.20143,10.63704 77.3557,44.20515c9.15427,33.56811 -10.63704,68.20143 -44.20515,77.3557c-33.56811,9.15427 -68.20143,-10.63705 -77.3557,-44.20515z" fill="#8f7d5d"/><path d="M126.28576,139.94742c-9.15427,-33.56811 10.63705,-68.20143 44.20516,-77.3557c33.56811,-9.15427 68.20143,10.63705 77.3557,44.20515c9.15427,33.56811 -10.63705,68.20143 -44.20515,77.3557c-33.56811,9.15427 -68.20143,-10.63705 -77.3557,-44.20516z" fill="#8f7d5d"/><path d="M393.67959,323.53163v-186h87v186z" fill="#4f2b13"/><path d="M243.66378,323.53163v-186h87v186z" fill="#4f2b13"/><path d="M178.78812,135.76508c6.46508,-34.18803 39.42093,-56.66191 73.60896,-50.19683c34.18803,6.46508 56.66191,39.42093 50.19683,73.60895c-6.46508,34.18803 -39.42093,56.66191 -73.60895,50.19683c-34.18803,-6.46508 -56.66192,-39.42093 -50.19684,-73.60896z" fill="#a6926f"/><path d="M235.06569,74.97249c6.46508,-34.18803 39.42093,-56.66192 73.60895,-50.19684c34.18802,6.46508 56.66191,39.42093 50.19683,73.60896c-6.46508,34.18803 -39.42093,56.66191 -73.60895,50.19683c-34.18803,-6.46508 -56.66191,-39.42093 -50.19683,-73.60895z" fill="#a6926f"/><path d="M272.25291,142.54375c6.46508,-34.18803 39.42094,-56.6619 73.60896,-50.19682c34.18802,6.46508 56.6619,39.42093 50.19682,73.60896c-6.46508,34.18803 -39.42093,56.66191 -73.60896,50.19683c-34.18802,-6.46508 -56.66191,-39.42093 -50.19683,-73.60896z" fill="#a6926f"/><path d="M330.69384,158.19177c-1.06438,-34.77766 26.26563,-63.83337 61.04328,-64.89775c34.77766,-1.06438 63.83337,26.26563 64.89775,61.04328c1.06438,34.77766 -26.26562,63.83337 -61.04328,64.89775c-34.77766,1.06438 -63.83337,-26.26563 -64.89775,-61.04328z" fill="#ccb68d"/><path d="M372.52766,86.68769c-1.06438,-34.77766 26.26562,-63.83337 61.04328,-64.89775c34.77766,-1.06438 63.83337,26.26562 64.89775,61.04328c1.06438,34.77766 -26.26562,63.83337 -61.04328,64.89775c-34.77766,1.06438 -63.83337,-26.26562 -64.89775,-61.04328z" fill="#ccb68d"/><path d="M423.41946,144.64273c-1.06438,-34.77766 26.26563,-63.83337 61.04328,-64.89775c34.77766,-1.06438 63.83337,26.26563 64.89775,61.04328c1.06438,34.77766 -26.26563,63.83337 -61.04328,64.89775c-34.77766,1.06438 -63.83337,-26.26563 -64.89775,-61.04328z" fill="#ccb68d"/><g><path d="M213.07726,222.66968l-12.94888,21.68673l-5.10028,-6.89641l-6.95215,2.39318l-1.75111,-10.00787l-8.64526,1.25741l19.22558,-20.62016z" fill="#a6926f"/><path d="M209.36744,215.02188l-4.66421,6.18932l-4.39242,-3.31008l4.66421,-6.18932z" fill="#a6926f"/></g><g fill="#a6926f"><path d="M243.66378,267.66968l-7.17293,21.68673l-6.93704,-6.89641l-6.31475,2.39318l-4.41657,-10.00787l-8.31037,1.25742l13.73369,-20.62016z"/><path d="M237.91707,260.02188l-3.01576,6.18932l-5.27401,-3.31009l3.01577,-6.18932z"/></g><g fill="#a6926f"><path d="M338.3192,258.33634l3.48394,21.68673l-10.32594,-6.89641l-5.13874,2.39318l-9.33444,-10.00787l-7.69247,1.25741l3.60093,-20.62016z"/><path d="M328.81436,250.68855l0.02567,6.18932l-6.90059,-3.31009l-0.02567,-6.18932z"/></g><g fill="#8f7d5d"><path d="M54.70643,181.46078l-15.6017,21.68673l-4.25668,-6.89641l-7.24489,2.39318l-0.5269,-10.00787l-8.79907,1.25742l21.74793,-20.62016z"/><path d="M51.93211,173.81298l-5.42131,6.18932l-3.98752,-3.31009l5.42131,-6.18932z"/></g><g fill="#ccb68d"><path d="M536.3609,193.54564l21.74793,20.62016l-8.79907,-1.25742l-0.5269,10.00787l-7.24489,-2.39318l-4.25669,6.89641l-15.60169,-21.68673z"/><path d="M528.44142,194.77488l5.42131,6.18932l-3.98752,3.31009l-5.42131,-6.18932z"/></g></g></g></svg>