<svg version="1.1" xmlns="http://www.w3.org/2000/svg" xmlns:xlink="http://www.w3.org/1999/xlink" width="246.03067" height="174.84693" viewBox="0,0,246.03067,174.84693"><defs><linearGradient x1="183.45601" y1="137.97878" x2="184.15602" y2="176.6777" gradientUnits="userSpaceOnUse" id="color-1"><stop offset="0" stop-color="#332932"/><stop offset="1" stop-color="#331f1f"/></linearGradient><linearGradient x1="191.13109" y1="133.52699" x2="191.13109" y2="138.62722" gradientUnits="userSpaceOnUse" id="color-2"><stop offset="0" stop-color="#302532"/><stop offset="1" stop-color="#312832"/></linearGradient><linearGradient x1="209.68165" y1="156.78898" x2="209.68165" y2="161.78898" gradientUnits="userSpaceOnUse" id="color-3"><stop offset="0" stop-color="#33272c"/><stop offset="1" stop-color="#332124"/></linearGradient><linearGradient x1="212.42133" y1="134.65204" x2="212.42133" y2="172.16052" gradientUnits="userSpaceOnUse" id="color-4"><stop offset="0" stop-color="#312933"/><stop offset="1" stop-color="#331f1f"/></linearGradient><linearGradient x1="183.70601" y1="134.97878" x2="184.40602" y2="173.6777" gradientUnits="userSpaceOnUse" id="color-5"><stop offset="0" stop-color="#ea76df"/><stop offset="1" stop-color="#ff3f3f"/></linearGradient><linearGradient x1="191.13109" y1="130.52699" x2="191.13109" y2="135.62722" gradientUnits="userSpaceOnUse" id="color-6"><stop offset="0" stop-color="#e681ff"/><stop offset="1" stop-color="#e87cef"/></linearGradient><linearGradient x1="209.68165" y1="153.78898" x2="209.68165" y2="158.78898" gradientUnits="userSpaceOnUse" id="color-7"><stop offset="0" stop-color="#f260a0"/><stop offset="1" stop-color="#f94f6e"/></linearGradient><linearGradient x1="212.42133" y1="131.65204" x2="212.42133" y2="169.16052" gradientUnits="userSpaceOnUse" id="color-8"><stop offset="0" stop-color="#e681ff"/><stop offset="1" stop-color="#ff3f3f"/></linearGradient></defs><g transform="translate(-164.99482,-92.58843)"><g stroke-miterlimit="10"><path d="M169.74482,262.29053c-3.77342,-3.91755 -3.75,-10.34484 -3.75,-10.34484v-144.25c0,0 -0.49268,-6.68349 3.375,-10.59484c3.86768,-3.91135 10.5625,-3.5 10.5625,-3.5h216.125c0,0 6.86299,-0.61768 10.6875,3.25c3.82451,3.86768 3.25,10.84484 3.25,10.84484v144.5c0,0 0.34852,6.72164 -3.5,10.71984c-3.84852,3.9982 -10.1875,3.5 -10.1875,3.5h-216.375c0,0 -6.41408,-0.20745 -10.1875,-4.125z" fill="#e5e5e5" stroke="#a8a8a8" stroke-width="2" stroke-linecap="butt"/><g><path d="M188.96276,142.66881l-10.14364,29.14091" fill="none" stroke="url(#color-1)" stroke-width="5" stroke-linecap="round"/><path d="M188.58098,136.0771c0,-1.40839 1.14173,-2.55012 2.55012,-2.55012c1.40839,0 2.55011,1.14173 2.55011,2.55012c0,1.40839 -1.14172,2.55011 -2.55011,2.55011c-1.40839,0 -2.55012,-1.14172 -2.55012,-2.55011z" fill="url(#color-2)" stroke="none" stroke-width="0.5" stroke-linecap="butt"/><path d="M193.79071,164.93184c0,0 7.30297,-6.49351 14.7731,-6.28572c7.81829,0.21748 18.95259,5.07143 18.95259,5.07143" fill="none" stroke="url(#color-3)" stroke-width="5" stroke-linecap="round"/><path d="M191.51253,172.16052l8.06175,-25.26483c0,0 3.44258,-10.19562 5.4868,-10.52558c1.43299,-0.40466 7.23115,6.99789 7.23115,6.99789l21.03789,28.06841" fill="none" stroke="url(#color-4)" stroke-width="5" stroke-linecap="round"/></g><g><path d="M179.06912,168.80972l10.14364,-29.14091" fill="none" stroke="url(#color-5)" stroke-width="5" stroke-linecap="round"/><path d="M188.58098,133.0771c0,-1.40839 1.14173,-2.55012 2.55012,-2.55012c1.40839,0 2.55011,1.14173 2.55011,2.55012c0,1.40839 -1.14172,2.55011 -2.55011,2.55011c-1.40839,0 -2.55012,-1.14172 -2.55012,-2.55011z" fill="url(#color-6)" stroke="none" stroke-width="0.5" stroke-linecap="butt"/><path d="M193.79071,161.93184c0,0 7.30297,-6.49351 14.7731,-6.28572c7.81829,0.21748 18.95259,5.07143 18.95259,5.07143" fill="none" stroke="url(#color-7)" stroke-width="5" stroke-linecap="round"/><path d="M191.51253,169.16052l8.06175,-25.26483c0,0 3.44258,-10.19562 5.4868,-10.52558c1.43299,-0.40466 7.23115,6.99789 7.23115,6.99789l21.03789,28.06841" fill="none" stroke="url(#color-8)" stroke-width="5" stroke-linecap="round"/></g><text transform="translate(244.86668,141.8276) scale(0.26899,0.26899)" font-size="40" xml:space="preserve" fill="#000000" stroke="none" stroke-width="1" stroke-linecap="butt" font-family="Sans Serif" font-weight="normal" text-anchor="start"><tspan x="0" dy="0">InterApp Driver | Version 1.0</tspan><tspan x="0" dy="48px">Running on Firefly/Lightning</tspan><tspan x="0" dy="48px">Compiled at: 21.09.2024</tspan></text><text transform="translate(174.53335,191.16093) scale(0.26899,0.26899)" font-size="40" xml:space="preserve" fill="#000000" stroke="none" stroke-width="1" stroke-linecap="butt" font-family="Sans Serif" font-weight="normal" text-anchor="start"><tspan x="0" dy="0">Made by @bambus80</tspan><tspan x="0" dy="48px">Firefly by @Scratch_Fakemon</tspan><tspan x="0" dy="48px"> </tspan><tspan x="0" dy="48px">Compatible with InterApp 1.0 apps</tspan></text></g></g></svg>