<svg version="1.1" xmlns="http://www.w3.org/2000/svg" xmlns:xlink="http://www.w3.org/1999/xlink" width="31.36832" height="31.36833" viewBox="0,0,31.36832,31.36833"><g transform="translate(-275.31583,-258.91113)"><g stroke-miterlimit="10"><path d="M275.31583,284.36091c0,-3.8671 0,-14.80635 0,-21.01086c0,-2.65195 3.20889,-4.43892 7.39819,-4.43892c6.16066,0 14.44155,0 17.75565,0c2.76744,0 6.21448,1.65488 6.21448,4.14299c0,6.14638 0,17.37743 0,21.30679c0,2.66198 -2.06346,5.91855 -5.03077,5.91855c-6.01664,0 -15.7493,0 -19.53122,0c-2.97269,0 -6.80633,-3.25657 -6.80633,-5.91855z" fill="#ff0000" stroke="#ffffff" stroke-width="0" stroke-linecap="butt"/><path d="M280.19863,276.41328c0,-5.96543 4.83593,-10.80136 10.80136,-10.80136c5.96543,0 10.80136,4.83593 10.80136,10.80136c0,5.96543 -4.83593,10.80136 -10.80136,10.80136c-5.96543,0 -10.80136,-4.83593 -10.80136,-10.80136z" fill="#ff0000" stroke="#ffffff" stroke-width="3.5" stroke-linecap="butt"/><path d="M291.29357,262.28525v7.52445" fill="none" stroke="#ff0000" stroke-width="5.5" stroke-linecap="round"/><path d="M291.29358,260.97248v7.52445" fill="none" stroke="#ffffff" stroke-width="3.5" stroke-linecap="round"/></g></g></svg>