<svg version="1.1" xmlns="http://www.w3.org/2000/svg" xmlns:xlink="http://www.w3.org/1999/xlink" width="81.25" height="79" viewBox="0,0,81.25,79"><g transform="translate(-247.9,-138.725)"><g stroke="none" stroke-miterlimit="10"><path d="M247.9,205.725c0,-15.72388 0,-42.42322 0,-52c0,-6.73799 4.56522,-15 9,-15c9.56581,0 46.44053,0 63.5,0c5.34909,0 8.75,3.86472 8.75,7.75c0,7.76286 0,36.23353 0,54.75c0,9.58314 -4.56522,16.5 -9,16.5c-9.2942,0 -44.36852,0 -62,0c-6.20526,0 -10.25,-4.87238 -10.25,-12z" fill-opacity="0.53333" fill="#66ffed" stroke-width="0"/><g stroke-width="0"><path d="M256.79419,178.15489c0,-4.10814 0,-15.809 0,-23.33777c0,-3.9181 3.39259,-6.70626 6.70625,-6.70626c7.267,0 35.65658,0 48.5533,0c3.94315,0 6.43801,2.04494 6.43801,5.09676c0,7.43051 0,20.82997 0,25.21553c0,2.72984 -3.78186,5.9015 -9.38876,5.9015c-13.76092,0 -38.51505,0 -45.3343,0c-3.42643,0 -6.9745,-3.33926 -6.9745,-6.16975z" fill="#dad9d2"/><path d="M314.87978,150.53433c-3.44302,3.04853 -17.99806,16.85952 -24.44031,22.56363c-1.72739,1.52946 -4.38752,1.08398 -6.81867,-1.0439c-7.02326,-6.14718 -20.0146,-18.43486 -22.9564,-21.03959c-1.02386,-0.90654 -0.63725,-2.75458 1.73324,-2.75458c5.03213,0 46.51314,0 49.68592,0c3.3218,0 4.11215,1.1093 2.79623,2.27444z" fill="#f9f8f2"/></g><text transform="translate(272.50874,209.53557) scale(0.39835,0.39835)" font-size="40" xml:space="preserve" fill="#000000" stroke-width="1" font-family="&quot;Trebuchet MS&quot;, Sans Serif" font-weight="normal" text-anchor="start"><tspan x="0" dy="0">Mail</tspan></text><text transform="translate(271.79446,208.82128) scale(0.39835,0.39835)" font-size="40" xml:space="preserve" fill="#ffffff" stroke-width="1" font-family="&quot;Trebuchet MS&quot;, Sans Serif" font-weight="normal" text-anchor="start"><tspan x="0" dy="0">Mail</tspan></text></g></g></svg>