<svg version="1.1" xmlns="http://www.w3.org/2000/svg" xmlns:xlink="http://www.w3.org/1999/xlink" width="40.41981" height="26.85" viewBox="0,0,40.41981,26.85"><g transform="translate(-360.83463,-325.76826)"><g stroke="#ffffff" stroke-width="4" stroke-miterlimit="10"><path d="M395.76607,327.76827c0,0 3.75405,4.50426 3.47338,11.79355c-0.26718,6.93903 -3.47338,11.05645 -3.47338,11.05645" fill="none" stroke-linecap="round"/><path d="M391.09035,330.2945c0,0 2.82682,3.39172 2.61548,8.88058c-0.20119,5.22511 -2.61548,8.32554 -2.61548,8.32554" fill="none" stroke-linecap="round"/><path d="M386.50444,332.92435c0,0 2.05985,2.4715 1.90585,6.47114c-0.14661,3.80746 -1.90585,6.0667 -1.90585,6.0667" fill="none" stroke-linecap="round"/><path d="M362.83463,344.80512c-0.22745,-2.71001 0,-7.45114 0,-9.25c0,-0.78989 3.79572,-1.64112 7.50091,-3.06323c2.69439,-1.03415 5.3409,-2.79854 6.4451,-2.97175c1.27643,-0.20022 2.16762,1.05114 2.16762,2.28498c0,1.94199 0,10.32951 0,14.125c0,1.96902 -1.29915,3.24763 -2.36732,3.14291c-0.68408,-0.06707 -3.08212,-1.5184 -5.68821,-2.21052c-3.78294,-1.00466 -8.00428,-1.41605 -8.0581,-2.05739z" fill="#ffffff" stroke-linecap="butt"/></g></g></svg>