<svg version="1.1" xmlns="http://www.w3.org/2000/svg" xmlns:xlink="http://www.w3.org/1999/xlink" width="29.58388" height="23.55887" viewBox="0,0,29.58388,23.55887"><g transform="translate(-360.83463,-327.52013)"><g stroke="#ffffff" stroke-width="4" stroke-miterlimit="10"><path d="M386.50444,332.92435c0,0 2.05985,2.4715 1.90585,6.47114c-0.14661,3.80746 -1.90585,6.0667 -1.90585,6.0667" fill="none" stroke-linecap="round"/><path d="M362.83464,344.80512c-0.22744,-2.71001 0,-7.45114 0,-9.25c0,-0.78989 3.79573,-1.64113 7.50092,-3.06324c2.69439,-1.03415 5.3409,-2.79854 6.4451,-2.97174c1.27643,-0.20022 2.16762,1.05114 2.16762,2.28498c0,1.94199 0,10.32951 0,14.125c0,1.96902 -1.29915,3.24763 -2.36732,3.14291c-0.68408,-0.06707 -3.08211,-1.51839 -5.68821,-2.21051c-3.78294,-1.00466 -8.00428,-1.41604 -8.05811,-2.05739z" fill="#ffffff" stroke-linecap="butt"/></g></g></svg>