<svg version="1.1" xmlns="http://www.w3.org/2000/svg" xmlns:xlink="http://www.w3.org/1999/xlink" width="847.84685" height="597.75121" viewBox="0,0,847.84685,597.75121"><defs><linearGradient x1="289.07521" y1="-87.27167" x2="289.07521" y2="451.76737" gradientUnits="userSpaceOnUse" id="color-1"><stop offset="0" stop-color="#051d34"/><stop offset="1" stop-color="#03031c"/></linearGradient></defs><g transform="translate(134.84822,87.77168)"><g stroke="#000000" stroke-miterlimit="10"><path d="M-134.34822,451.76737v-539.03904h846.84685v539.03904z" fill="url(#color-1)"/><path d="M1.07521,462.74635c-2.3,-2.6 -4.3,-5.5 -6.2,-8.5c-12.5,1 -23.3,-5.3 -24.8,-8.4c-1.8,-3.7 13.1,-16.5 15.4,-18.4c-1.3,-8.4 -1.3,-17 0,-25.4c-2.3,-1.9 -17.2,-14.7 -15.4,-18.4c1.5,-3.1 12.3,-9.4 24.8,-8.4c1.8,-3 3.9,-5.9 6.1,-8.5v-43.1625c0,-2.20914 1.79086,-4 4,-4h40c2.20914,0 4,1.79086 4,4v91.1625c0,2 1,3 2,4l4,4c1,1 2,2 2,4v12c0,2 -1,3 -2,4l-4,4c-1,1 -2,2 -2,4v8c0,2.20914 -1.79086,4 -4,4z" fill="#000000"/><path d="M53.07521,462.74635c-2.20914,0 -4,-1.79086 -4,-4v-8c0,-2 1,-3 2,-4l4,-4c1,-1 2,-2 2,-4v-12c0,-2 -1,-3 -2,-4l-4,-4c-1,-1 -2,-2 -2,-4v-108c0,-2.20914 1.79086,-4 4,-4h40c2.20914,0 4,1.79086 4,4v92c0,2 1,3 2,4l4,4c1,1 2,2 2,4v12c0,2 -1,3 -2,4l-4,4c-1,1 -2,2 -2,4v8c0,2.20914 1.79086,4 4,4h208c2.20914,0 4,-1.79086 4,-4v-8c0,-2 1,-3 2,-4l4,-4c1,-1 2,-2 2,-4v-12c0,-2 -1,-3 -2,-4l-4,-4c-1,-1 -2,-2 -2,-4v-92v0c0,-2.20914 1.79086,-4 4,-4h24c2.20914,0 4,1.79086 4,4v152c0,2.20914 -1.79086,4 -4,4z" fill="#000000"/><path d="M104.04783,509.47954c-2.20914,0 -4,-1.79086 -4,-4v-8c0,-2 1,-3 2,-4l4,-4c1,-1 2,-2 2,-4v-12c0,-2 -1,-3 -2,-4l-4,-4c-1,-1 -2,-2 -2,-4v-352.68518c0,-2.20914 1.79086,-4 4,-4h48c2.20914,0 4,1.79086 4,4v336.68519c0,2 1,3 2,4l4,4c1,1 2,2 2,4v12c0,2 -1,3 -2,4l-4,4c-1,1 -2,2 -2,4v8c0,2.20914 1.79086,4 4,4h40c2.20914,0 4,-1.79086 4,-4v-8c0,-2 1,-3 2,-4l4,-4c1,-1 2,-2 2,-4v-12c0,-2 -1,-3 -2,-4l-4,-4c-1,-1 -2,-2 -2,-4v-336.68518v0c0,-2.20914 1.79086,-4 4,-4h24c2.20914,0 4,1.79086 4,4v336.68519c0,2 1,3 2,4l4,4c1,1 2,2 2,4v12c0,2 -1,3 -2,4l-4,4c-1,1 -2,2 -2,4v8c0,2.20914 1.79086,4 4,4h40c2.20914,0 4,-1.79086 4,-4v-8c0,-2 1,-3 2,-4l4,-4c1,-1 2,-2 2,-4v-12c0,-2 -1,-3 -2,-4l-4,-4c-1,-1 -2,-2 -2,-4v-336.68518c0,-2.20914 1.79086,-4 4,-4h24c2.20914,0 4,1.79086 4,4v352.68519c0,2 1,3 2,4l4,4c1,1 2,2 2,4v12c0,2 -1,3 -2,4l-4,4c-1,1 -2,2 -2,4v8c0,2.20914 -1.79086,4 -4,4z" fill="#000000"/><path d="M101.07521,398.74635M101.07521,374.74635v-261.53518l24,-24l24,24v261.53519l-24,24z" fill="#000000"/><path d="M105.07521,374.74635M105.07521,354.74635v-107.88889c0,-11.04569 8.95431,-20 20,-20c11.04569,0 20,8.95431 20,20v107.88889c0,11.0457 -8.95431,20 -20,20c-11.04569,0 -20,-8.9543 -20,-20z" fill="#000000"/><path d="M109.07521,201.50746M109.07521,185.50746v-60.29629c0,-8.83656 7.16344,-16 16,-16c8.83656,0 16,7.16344 16,16v60.29629c0,8.83656 -7.16344,16 -16,16c-8.83656,0 -16,-7.16344 -16,-16z" fill="#000000"/><path d="" fill="#000000" visibility="hidden"/><path d="" fill="#000000" visibility="hidden"/><path d="M157.07521,430.74635c-2.20914,0 -4,-1.79086 -4,-4v-8c0,-2 1,-3 2,-4l4,-4c1,-1 2,-2 2,-4v-12c0,-2 -1,-3 -2,-4l-4,-4c-1,-1 -2,-2 -2,-4v-210.55138c0,-2.20914 1.79086,-4 4,-4h40c2.20914,0 4,1.79086 4,4v210.55139c0,2 1,3 2,4l4,4c1,1 2,2 2,4v12c0,2 -1,3 -2,4l-4,4c-1,1 -2,2 -2,4v8c0,2.20914 -1.79086,4 -4,4z" fill="#000000"/><path d="M161.07521,287.58385M161.07521,271.58385v-79.38888c0,-8.83656 7.16344,-16 16,-16c8.83656,0 16,7.16344 16,16v79.38888c0,8.83655 -7.16344,16 -16,16c-8.83656,0 -16,-7.16345 -16,-16z" fill="#000000"/><path d="M176.11521,187.48496c0.64526,-0.00314 1.26484,0.25262 1.72,0.71l3.92,3.92c0.94694,0.95506 0.94694,2.49494 0,3.45l-3.92,3.91c-0.45415,0.46011 -1.07351,0.71938 -1.72,0.72c-0.64722,-0.00186 -1.26807,-0.25665 -1.73,-0.71c-0.24,-0.29 -0.71,-0.72 -0.71,-5.65c0,-4.93 0.46,-5.39 0.71,-5.64c0.4595,-0.45702 1.08192,-0.71248 1.73,-0.71z" fill="#000000"/><path d="M181.46521,193.83496c-0.00325,0.37555 -0.15412,0.73476 -0.42,1l-3.92,3.94c-0.55793,0.53847 -1.44207,0.53847 -2,0c-0.56,-0.56 -0.56,-9.31 0,-9.87c0.55793,-0.53847 1.44207,-0.53847 2,0l3.92,3.92c0.26832,0.2677 0.41939,0.63097 0.42,1.01z" fill="#000000"/><path d="" fill="#000000" visibility="hidden"/><path d="M237.07521,430.74635c-2.20914,0 -4,-1.79086 -4,-4v-8c0,-2 1,-3 2,-4l4,-4c1,-1 2,-2 2,-4v-12c0,-2 -1,-3 -2,-4l-4,-4c-1,-1 -2,-2 -2,-4v-247.05138c0,-2.20914 1.79086,-4 4,-4h40c2.20914,0 4,1.79086 4,4v247.05139c0,2 1,3 2,4l4,4c1,1 2,2 2,4v12c0,2 -1,3 -2,4l-4,4c-1,1 -2,2 -2,4v8c0,2.20914 -1.79086,4 -4,4z" fill="#000000"/><path d="M237.07521,287.58385M237.07521,267.58385v-107.88888c0,-11.04569 8.95431,-20 20,-20c11.0457,0 20,8.95431 20,20v107.88888c0,11.0457 -8.9543,20 -20,20c-11.04569,0 -20,-8.9543 -20,-20z" fill="#000000"/><path d="" fill="#000000" visibility="hidden"/><path d="" fill="#000000" visibility="hidden"/><g fill="#000000"><g><path d="M-0.82479,438.44635c-0.5,0.2 -1.1,-0.2 -1.2,-0.7l-1,-4l-2.2,3.4c-0.3,0.5 -0.9,0.6 -1.4,0.3c-0.5,-0.3 -0.6,-0.9 -0.3,-1.4l4.8,-7l2.1,8.3c0,0 0,0.1 0,0.2c0,0.5 -0.3,0.9 -0.8,0.9z"/><path d="M-0.02479,400.34635c0,0.1 0,0.2 0,0.2l-2.1,8.3l-4.8,-7c-0.3,-0.5 -0.2,-1.1 0.3,-1.4c0.5,-0.3 1.1,-0.2 1.4,0.3l2.3,3.4l1,-4c0.1,-0.5 0.7,-0.9 1.2,-0.7c0.4,0.1 0.7,0.5 0.7,0.9z"/><path d="M-2.22479,406.94635c-1.87777,0 -3.4,-1.52223 -3.4,-3.4c0,-1.87777 1.52223,-3.4 3.4,-3.4c1.87777,0 3.4,1.52223 3.4,3.4c0,1.87777 -1.52223,3.4 -3.4,3.4z"/><path d="M-2.22479,437.04635c-1.87777,0 -3.4,-1.52223 -3.4,-3.4c0,-1.87777 1.52223,-3.4 3.4,-3.4c1.87777,0 3.4,1.52223 3.4,3.4c0,1.87777 -1.52223,3.4 -3.4,3.4z"/><path d="M1.17521,417.14635c0,0.9 -0.3,1.7 -0.9,2.3c0.6,0.6 0.9,1.3 0.9,2.2c0,0.9 -0.3,1.8 -0.9,2.3c-1.1,1 -2.6,1.1 -2.8,1.1c-0.5,0 -1,-0.5 -1,-1v0c0,-0.6 0.5,-1 1,-1c0.4,0 1.7,-0.1 1.7,-1.4c0,-0.5 -0.2,-0.7 -0.3,-0.8c-0.3,-0.3 -1,-0.4 -1.3,-0.4c-0.1,0 -0.1,0 -0.2,0c-0.5,0 -1,-0.5 -1,-1v0c0,-0.5 0.4,-1 1,-1c0,0 0.1,0 0.2,0c0.3,0 0.9,-0.1 1.2,-0.4c0.1,-0.1 0.3,-0.3 0.3,-0.8c0,-0.5 -0.2,-0.7 -0.3,-0.8c-0.4,-0.3 -1.1,-0.4 -1.3,-0.3c-0.5,0 -1,-0.4 -1.1,-0.9c0,-0.5 0.4,-1 0.9,-1.1c0.2,0 1.8,-0.1 2.8,0.8c0.6,0.3 1.1,1 1.1,2.2z"/></g><path d="M-14.52479,389.64635c-4.2,-1.7 -9.1,-4.5 -8.5,-5.8c0.8,-1.6 7.9,-5.4 15.4,-5c0.6,0 0.7,0.7 0.5,1.1c-1.6,3 -2.8,6.4 -3.6,8.6c-0.5,1.4 -1.9,1.8 -3.8,1.1z"/><path d="M-10.72479,441.44635c0.8,2.2 2,5.6 3.6,8.6c0.2,0.4 0.1,1.1 -0.5,1.1c-7.5,0.4 -14.6,-3.4 -15.4,-5c-0.6,-1.3 4.3,-4.1 8.5,-5.8c1.9,-0.8 3.3,-0.4 3.8,1.1z"/></g><path d="M669.78062,123.94484c2.3,2.6 4.3,5.5 6.2,8.5c12.5,-1 23.3,5.3 24.8,8.4c1.8,3.7 -13.1,16.5 -15.4,18.4c1.3,8.4 1.3,17 0,25.4c2.3,1.9 17.2,14.7 15.4,18.4c-1.5,3.1 -12.3,9.4 -24.8,8.4c-1.8,3 -3.9,5.9 -6.1,8.5v43.1625c0,2.20914 -1.79086,4 -4,4h-40c-2.20914,0 -4,-1.79086 -4,-4v-91.1625c0,-2 -1,-3 -2,-4l-4,-4c-1,-1 -2,-2 -2,-4v-12c0,-2 1,-3 2,-4l4,-4c1,-1 2,-2 2,-4v-8c0,-2.20914 1.79086,-4 4,-4z" fill="#000000"/><path d="M329.78062,283.94484c-2.20914,0 -4,-1.79086 -4,-4v-152c0,-2.20914 1.79086,-4 4,-4h24c2.20914,0 4,1.79086 4,4v0v92c0,2 -1,3 -2,4l-4,4c-1,1 -2,2 -2,4v12c0,2 1,3 2,4l4,4c1,1 2,2 2,4v8c0,2.20914 1.79086,4 4,4h208c2.20914,0 4,-1.79086 4,-4v-8c0,-2 -1,-3 -2,-4l-4,-4c-1,-1 -2,-2 -2,-4v-12c0,-2 1,-3 2,-4l4,-4c1,-1 2,-2 2,-4v-92c0,-2.20914 1.79086,-4 4,-4h40c2.20914,0 4,1.79086 4,4v108c0,2 -1,3 -2,4l-4,4c-1,1 -2,2 -2,4v12c0,2 1,3 2,4l4,4c1,1 2,2 2,4v8c0,2.20914 -1.79086,4 -4,4z" fill="#000000"/><path d="M321.66075,475.93324c-2.20914,0 -4,-1.79086 -4,-4v-8c0,-2 -1,-3 -2,-4l-4,-4c-1,-1 -2,-2 -2,-4v-12c0,-2 1,-3 2,-4l4,-4c1,-1 2,-2 2,-4v-352.68519c0,-2.20914 1.79086,-4 4,-4h24c2.20914,0 4,1.79086 4,4v336.68519c0,2 -1,3 -2,4l-4,4c-1,1 -2,2 -2,4v12c0,2 1,3 2,4l4,4c1,1 2,2 2,4v8c0,2.20914 1.79086,4 4,4h40c2.20914,0 4,-1.79086 4,-4v-8c0,-2 -1,-3 -2,-4l-4,-4c-1,-1 -2,-2 -2,-4v-12c0,-2 1,-3 2,-4l4,-4c1,-1 2,-2 2,-4v-336.68519c0,-2.20914 1.79086,-4 4,-4h24c2.20914,0 4,1.79086 4,4v0v336.68519c0,2 -1,3 -2,4l-4,4c-1,1 -2,2 -2,4v12c0,2 1,3 2,4l4,4c1,1 2,2 2,4v8c0,2.20914 1.79086,4 4,4h40c2.20914,0 4,-1.79086 4,-4v-8c0,-2 -1,-3 -2,-4l-4,-4c-1,-1 -2,-2 -2,-4v-12c0,-2 1,-3 2,-4l4,-4c1,-1 2,-2 2,-4v-336.68519c0,-2.20914 1.79086,-4 4,-4h48c2.20914,0 4,1.79086 4,4v352.68519c0,2 -1,3 -2,4l-4,4c-1,1 -2,2 -2,4v12c0,2 1,3 2,4l4,4c1,1 2,2 2,4v8c0,2.20914 -1.79086,4 -4,4z" fill="#000000"/><path d="M569.78062,187.94484M569.78062,211.94484v261.53519l-24,24l-24,-24v-261.53518l24,-24z" fill="#000000"/><path d="M565.78062,211.94484M565.78062,231.94484v107.88889c0,11.0457 -8.9543,20 -20,20c-11.0457,0 -20,-8.9543 -20,-20v-107.88889c0,-11.04569 8.9543,-20 20,-20c11.0457,0 20,8.95431 20,20z" fill="#000000"/><path d="M561.78062,385.18373M561.78062,401.18373v60.29629c0,8.83655 -7.16345,16 -16,16c-8.83655,0 -16,-7.16345 -16,-16v-60.29629c0,-8.83655 7.16345,-16 16,-16c8.83655,0 16,7.16345 16,16z" fill="#000000"/><path d="" fill="#000000" visibility="hidden"/><path d="" fill="#000000" visibility="hidden"/><path d="M513.78062,155.94484c2.20914,0 4,1.79086 4,4v8c0,2 -1,3 -2,4l-4,4c-1,1 -2,2 -2,4v12c0,2 1,3 2,4l4,4c1,1 2,2 2,4v210.55139c0,2.20914 -1.79086,4 -4,4h-40c-2.20914,0 -4,-1.79086 -4,-4v-210.55138c0,-2 -1,-3 -2,-4l-4,-4c-1,-1 -2,-2 -2,-4v-12c0,-2 1,-3 2,-4l4,-4c1,-1 2,-2 2,-4v-8c0,-2.20914 1.79086,-4 4,-4z" fill="#000000"/><path d="M509.78062,299.10734M509.78062,315.10734v79.38888c0,8.83655 -7.16345,16 -16,16c-8.83655,0 -16,-7.16345 -16,-16v-79.38888c0,-8.83655 7.16345,-16 16,-16c8.83655,0 16,7.16345 16,16z" fill="#000000"/><path d="M494.74062,399.20623c-0.64526,0.00314 -1.26483,-0.25262 -1.72,-0.71l-3.92,-3.92c-0.94695,-0.95506 -0.94695,-2.49494 0,-3.45l3.92,-3.91c0.45414,-0.46011 1.07351,-0.71938 1.72,-0.72c0.64722,0.00185 1.26808,0.25666 1.73,0.71c0.24,0.29 0.71,0.72 0.71,5.65c0,4.93 -0.46,5.39 -0.71,5.64c-0.4595,0.45702 -1.08193,0.71248 -1.73,0.71z" fill="#000000"/><path d="M489.39062,392.85623c0.00325,-0.37556 0.15411,-0.73476 0.42,-1l3.92,-3.94c0.55793,-0.53847 1.44207,-0.53847 2,0c0.56,0.56 0.56,9.31 0,9.87c-0.55793,0.53847 -1.44207,0.53847 -2,0l-3.92,-3.92c-0.26832,-0.2677 -0.41938,-0.63097 -0.42,-1.01z" fill="#000000"/><path d="" fill="#000000" visibility="hidden"/><path d="M433.78062,155.94484c2.20914,0 4,1.79086 4,4v8c0,2 -1,3 -2,4l-4,4c-1,1 -2,2 -2,4v12c0,2 1,3 2,4l4,4c1,1 2,2 2,4v247.05139c0,2.20914 -1.79086,4 -4,4h-40c-2.20914,0 -4,-1.79086 -4,-4v-247.05138c0,-2 -1,-3 -2,-4l-4,-4c-1,-1 -2,-2 -2,-4v-12c0,-2 1,-3 2,-4l4,-4c1,-1 2,-2 2,-4v-8c0,-2.20914 1.79086,-4 4,-4z" fill="#000000"/><path d="M433.78062,299.10734M433.78062,319.10734v107.88888c0,11.0457 -8.9543,20 -20,20c-11.0457,0 -20,-8.9543 -20,-20v-107.88888c0,-11.0457 8.9543,-20 20,-20c11.0457,0 20,8.9543 20,20z" fill="#000000"/><path d="" fill="#000000" visibility="hidden"/><path d="" fill="#000000" visibility="hidden"/><g fill="#000000"><g><path d="M671.68062,148.24484c0.5,-0.2 1.1,0.2 1.2,0.7l1,4l2.2,-3.4c0.3,-0.5 0.9,-0.6 1.4,-0.3c0.5,0.3 0.6,0.9 0.3,1.4l-4.8,7l-2.1,-8.3c0,0 0,-0.1 0,-0.2c0,-0.5 0.3,-0.9 0.8,-0.9z"/><path d="M670.88062,186.34484c0,-0.1 0,-0.2 0,-0.2l2.1,-8.3l4.8,7c0.3,0.5 0.2,1.1 -0.3,1.4c-0.5,0.3 -1.1,0.2 -1.4,-0.3l-2.3,-3.4l-1,4c-0.1,0.5 -0.7,0.9 -1.2,0.7c-0.4,-0.1 -0.7,-0.5 -0.7,-0.9z"/><path d="M673.08062,179.74484c1.87777,0 3.4,1.52223 3.4,3.4c0,1.87777 -1.52223,3.4 -3.4,3.4c-1.87777,0 -3.4,-1.52223 -3.4,-3.4c0,-1.87777 1.52223,-3.4 3.4,-3.4z"/><path d="M673.08062,149.64484c1.87777,0 3.4,1.52223 3.4,3.4c0,1.87777 -1.52223,3.4 -3.4,3.4c-1.87777,0 -3.4,-1.52223 -3.4,-3.4c0,-1.87777 1.52223,-3.4 3.4,-3.4z"/><path d="M669.68062,169.54484c0,-0.9 0.3,-1.7 0.9,-2.3c-0.6,-0.6 -0.9,-1.3 -0.9,-2.2c0,-0.9 0.3,-1.8 0.9,-2.3c1.1,-1 2.6,-1.1 2.8,-1.1c0.5,0 1,0.5 1,1v0c0,0.6 -0.5,1 -1,1c-0.4,0 -1.7,0.1 -1.7,1.4c0,0.5 0.2,0.7 0.3,0.8c0.3,0.3 1,0.4 1.3,0.4c0.1,0 0.1,0 0.2,0c0.5,0 1,0.5 1,1v0c0,0.5 -0.4,1 -1,1c0,0 -0.1,0 -0.2,0c-0.3,0 -0.9,0.1 -1.2,0.4c-0.1,0.1 -0.3,0.3 -0.3,0.8c0,0.5 0.2,0.7 0.3,0.8c0.4,0.3 1.1,0.4 1.3,0.3c0.5,0 1,0.4 1.1,0.9c0,0.5 -0.4,1 -0.9,1.1c-0.2,0 -1.8,0.1 -2.8,-0.8c-0.6,-0.3 -1.1,-1 -1.1,-2.2z"/></g><path d="M685.38062,197.04484c4.2,1.7 9.1,4.5 8.5,5.8c-0.8,1.6 -7.9,5.4 -15.4,5c-0.6,0 -0.7,-0.7 -0.5,-1.1c1.6,-3 2.8,-6.4 3.6,-8.6c0.5,-1.4 1.9,-1.8 3.8,-1.1z"/><path d="M681.58062,145.24484c-0.8,-2.2 -2,-5.6 -3.6,-8.6c-0.2,-0.4 -0.1,-1.1 0.5,-1.1c7.5,-0.4 14.6,3.4 15.4,5c0.6,1.3 -4.3,4.1 -8.5,5.8c-1.9,0.8 -3.3,0.4 -3.8,-1.1z"/></g><path d="M243.19829,509.47954c-2.3,-2.6 -4.3,-5.5 -6.2,-8.5c-12.5,1 -23.3,-5.3 -24.8,-8.4c-1.8,-3.7 13.1,-16.5 15.4,-18.4c-1.3,-8.4 -1.3,-17 0,-25.4c-2.3,-1.9 -17.2,-14.7 -15.4,-18.4c1.5,-3.1 12.3,-9.4 24.8,-8.4c1.8,-3 3.9,-5.9 6.1,-8.5v-43.1625c0,-2.20914 1.79086,-4 4,-4h40c2.20914,0 4,1.79086 4,4v91.1625c0,2 1,3 2,4l4,4c1,1 2,2 2,4v12c0,2 -1,3 -2,4l-4,4c-1,1 -2,2 -2,4v8c0,2.20914 -1.79086,4 -4,4z" fill="#000000"/><path d="M295.19829,509.47954c-2.20914,0 -4,-1.79086 -4,-4v-8c0,-2 1,-3 2,-4l4,-4c1,-1 2,-2 2,-4v-12c0,-2 -1,-3 -2,-4l-4,-4c-1,-1 -2,-2 -2,-4v-108c0,-2.20914 1.79086,-4 4,-4h40c2.20914,0 4,1.79086 4,4v92c0,2 1,3 2,4l4,4c1,1 2,2 2,4v12c0,2 -1,3 -2,4l-4,4c-1,1 -2,2 -2,4v8c0,2.20914 1.79086,4 4,4h208c2.20914,0 4,-1.79086 4,-4v-8c0,-2 1,-3 2,-4l4,-4c1,-1 2,-2 2,-4v-12c0,-2 -1,-3 -2,-4l-4,-4c-1,-1 -2,-2 -2,-4v-92v0c0,-2.20914 1.79086,-4 4,-4h24c2.20914,0 4,1.79086 4,4v152c0,2.20914 -1.79086,4 -4,4z" fill="#000000"/><path d="M343.19829,445.47954M343.19829,421.47954v-261.53518l24,-24l24,24v261.53519l-24,24z" fill="#000000"/><path d="M347.19829,421.47954M347.19829,401.47954v-107.88889c0,-11.0457 8.9543,-20 20,-20c11.0457,0 20,8.9543 20,20v107.88889c0,11.0457 -8.9543,20 -20,20c-11.0457,0 -20,-8.9543 -20,-20z" fill="#000000"/><path d="M351.19829,248.24065M351.19829,232.24065v-60.2963c0,-8.83656 7.16345,-16 16,-16c8.83655,0 16,7.16344 16,16v60.2963c0,8.83656 -7.16345,16 -16,16c-8.83655,0 -16,-7.16344 -16,-16z" fill="#000000"/><path d="" fill="#000000" visibility="hidden"/><path d="" fill="#000000" visibility="hidden"/><path d="M399.19829,477.47954c-2.20914,0 -4,-1.79086 -4,-4v-8c0,-2 1,-3 2,-4l4,-4c1,-1 2,-2 2,-4v-12c0,-2 -1,-3 -2,-4l-4,-4c-1,-1 -2,-2 -2,-4v-210.55138c0,-2.20914 1.79086,-4 4,-4h40c2.20914,0 4,1.79086 4,4v210.55139c0,2 1,3 2,4l4,4c1,1 2,2 2,4v12c0,2 -1,3 -2,4l-4,4c-1,1 -2,2 -2,4v8c0,2.20914 -1.79086,4 -4,4z" fill="#000000"/><path d="M403.19829,334.31703M403.19829,318.31703v-79.38888c0,-8.83656 7.16345,-16 16,-16c8.83655,0 16,7.16344 16,16v79.38888c0,8.83655 -7.16345,16 -16,16c-8.83655,0 -16,-7.16345 -16,-16z" fill="#000000"/><path d="M418.23829,234.21815c0.64526,-0.00314 1.26483,0.25261 1.72,0.71l3.92,3.92c0.94695,0.95506 0.94695,2.49493 0,3.45l-3.92,3.91c-0.45414,0.46011 -1.07351,0.71938 -1.72,0.72c-0.64722,-0.00186 -1.26808,-0.25665 -1.73,-0.71c-0.24,-0.29 -0.71,-0.72 -0.71,-5.65c0,-4.93 0.46,-5.39 0.71,-5.64c0.4595,-0.45702 1.08193,-0.71247 1.73,-0.71z" fill="#000000"/><path d="M423.58829,240.56815c-0.00325,0.37555 -0.15411,0.73476 -0.42,1l-3.92,3.94c-0.55793,0.53847 -1.44207,0.53847 -2,0c-0.56,-0.56 -0.56,-9.31 0,-9.87c0.55793,-0.53847 1.44207,-0.53847 2,0l3.92,3.92c0.26832,0.2677 0.41938,0.63097 0.42,1.01z" fill="#000000"/><path d="" fill="#000000" visibility="hidden"/><path d="M479.19829,477.47954c-2.20914,0 -4,-1.79086 -4,-4v-8c0,-2 1,-3 2,-4l4,-4c1,-1 2,-2 2,-4v-12c0,-2 -1,-3 -2,-4l-4,-4c-1,-1 -2,-2 -2,-4v-247.05138c0,-2.20914 1.79086,-4 4,-4h40c2.20914,0 4,1.79086 4,4v247.05139c0,2 1,3 2,4l4,4c1,1 2,2 2,4v12c0,2 -1,3 -2,4l-4,4c-1,1 -2,2 -2,4v8c0,2.20914 -1.79086,4 -4,4z" fill="#000000"/><path d="M435.19829,448.97954M435.19829,413.47296v-191.53823c0,-19.60974 8.9543,-35.50657 20,-35.50657c11.0457,0 20,15.89684 20,35.50658v191.53824c0,19.60974 -8.9543,35.50658 -20,35.50658c-11.0457,0 -20,-15.89684 -20,-35.50657z" fill="#000000"/><path d="" fill="#000000" visibility="hidden"/><path d="" fill="#000000" visibility="hidden"/><g fill="#000000"><g><path d="M241.29829,485.17954c-0.5,0.2 -1.1,-0.2 -1.2,-0.7l-1,-4l-2.2,3.4c-0.3,0.5 -0.9,0.6 -1.4,0.3c-0.5,-0.3 -0.6,-0.9 -0.3,-1.4l4.8,-7l2.1,8.3c0,0 0,0.1 0,0.2c0,0.5 -0.3,0.9 -0.8,0.9z"/><path d="M242.09829,447.07954c0,0.1 0,0.2 0,0.2l-2.1,8.3l-4.8,-7c-0.3,-0.5 -0.2,-1.1 0.3,-1.4c0.5,-0.3 1.1,-0.2 1.4,0.3l2.3,3.4l1,-4c0.1,-0.5 0.7,-0.9 1.2,-0.7c0.4,0.1 0.7,0.5 0.7,0.9z"/><path d="M239.89829,453.67954c-1.87777,0 -3.4,-1.52223 -3.4,-3.4c0,-1.87777 1.52223,-3.4 3.4,-3.4c1.87777,0 3.4,1.52223 3.4,3.4c0,1.87777 -1.52223,3.4 -3.4,3.4z"/><path d="M239.89829,483.77954c-1.87777,0 -3.4,-1.52223 -3.4,-3.4c0,-1.87777 1.52223,-3.4 3.4,-3.4c1.87777,0 3.4,1.52223 3.4,3.4c0,1.87777 -1.52223,3.4 -3.4,3.4z"/><path d="M243.29829,463.87954c0,0.9 -0.3,1.7 -0.9,2.3c0.6,0.6 0.9,1.3 0.9,2.2c0,0.9 -0.3,1.8 -0.9,2.3c-1.1,1 -2.6,1.1 -2.8,1.1c-0.5,0 -1,-0.5 -1,-1v0c0,-0.6 0.5,-1 1,-1c0.4,0 1.7,-0.1 1.7,-1.4c0,-0.5 -0.2,-0.7 -0.3,-0.8c-0.3,-0.3 -1,-0.4 -1.3,-0.4c-0.1,0 -0.1,0 -0.2,0c-0.5,0 -1,-0.5 -1,-1v0c0,-0.5 0.4,-1 1,-1c0,0 0.1,0 0.2,0c0.3,0 0.9,-0.1 1.2,-0.4c0.1,-0.1 0.3,-0.3 0.3,-0.8c0,-0.5 -0.2,-0.7 -0.3,-0.8c-0.4,-0.3 -1.1,-0.4 -1.3,-0.3c-0.5,0 -1,-0.4 -1.1,-0.9c0,-0.5 0.4,-1 0.9,-1.1c0.2,0 1.8,-0.1 2.8,0.8c0.6,0.3 1.1,1 1.1,2.2z"/></g><path d="M227.59829,436.37954c-4.2,-1.7 -9.1,-4.5 -8.5,-5.8c0.8,-1.6 7.9,-5.4 15.4,-5c0.6,0 0.7,0.7 0.5,1.1c-1.6,3 -2.8,6.4 -3.6,8.6c-0.5,1.4 -1.9,1.8 -3.8,1.1z"/><path d="M231.39829,488.17954c0.8,2.2 2,5.6 3.6,8.6c0.2,0.4 0.1,1.1 -0.5,1.1c-7.5,0.4 -14.6,-3.4 -15.4,-5c-0.6,-1.3 4.3,-4.1 8.5,-5.8c1.9,-0.8 3.3,-0.4 3.8,1.1z"/></g></g></g></svg>