<svg version="1.1" xmlns="http://www.w3.org/2000/svg" xmlns:xlink="http://www.w3.org/1999/xlink" width="27.96659" height="28.29027" viewBox="0,0,27.96659,28.29027"><g transform="translate(-97.41547,-325.19193)"><g fill="#e37156" stroke="#e37156" stroke-width="0" stroke-miterlimit="10"><path d="M97.41547,338.04741c0,0 0,-8.2271 0,-10.48048c0,-1.07269 0.8402,-2.375 1.625,-2.375c2.06316,0 11.23048,0 11.23048,0v12.85548z"/><path d="M112.52658,338.04741v-12.85548c0,0 9.16732,0 11.23048,0c0.78481,0 1.625,1.30231 1.625,2.375c0,2.25338 0,10.48048 0,10.48048z"/><path d="M110.27095,340.62672v12.85548c0,0 -9.16732,0 -11.23048,0c-0.7848,0 -1.625,-1.30231 -1.625,-2.375c0,-2.25338 0,-10.48048 0,-10.48048z"/><path d="M125.38206,340.62672c0,0 0,8.2271 0,10.48048c0,1.07269 -0.84019,2.375 -1.625,2.375c-2.06316,0 -11.23048,0 -11.23048,0v-12.85548z"/></g></g></svg>