<svg version="1.1" xmlns="http://www.w3.org/2000/svg" xmlns:xlink="http://www.w3.org/1999/xlink" width="128" height="33.33333" viewBox="0,0,128,33.33333"><g transform="translate(-224,-163.33335)"><g stroke="none" stroke-miterlimit="10"><path d="M224,187.77851c0,-4.2121 0,-14.17657 0,-20c0,-2.65198 3.24649,-4.44516 8.46198,-4.44516c18.80871,0 101.55866,0 111.66667,0c4.00513,0 7.87135,2.40848 7.87135,5.77849c0,6.01142 0,15.08236 0,19c0,3.5924 -3.69654,8.55484 -9.53802,8.55484c-19.3964,0 -100.77514,0 -110.66667,0c-3.97142,0 -7.79531,-5.19167 -7.79531,-8.88817z" fill="#65bab4" stroke-width="0"/><g><path d="M233.24683,187.86614c0,-2.69852 0,-12.11408 0,-16.13599c0,-1.13801 0.72831,-1.8442 1.59632,-1.8442c3.09785,0 21.53005,0 28.54044,0c1.67989,0 2.70392,1.21487 2.70392,1.78778c0,2.24187 0,11.90057 0,16.58735c0,1.56114 -1.1391,2.57063 -2.97782,2.57063c-6.77881,0 -23.06674,0 -26.84226,0c-1.52756,0 -3.02061,-1.55954 -3.02061,-2.96557z" fill="#ffffff" stroke-width="0"/><path d="M235.16227,186.7977c0,-2.31447 0,-10.39001 0,-13.83953c0,-0.97605 0.64335,-1.58174 1.41011,-1.58174c2.73648,0 19.01855,0 25.21117,0c1.48393,0 2.38851,1.04197 2.38851,1.53335c0,1.92281 0,10.20689 0,14.22665c0,1.33895 -1.00622,2.20478 -2.63046,2.20478c-5.98806,0 -20.37598,0 -23.71108,0c-1.34937,0 -2.66825,-1.33759 -2.66825,-2.54351z" fill="#65bab4" stroke-width="0"/><text transform="translate(236.18527,178.74954) scale(0.26614,0.26614)" font-size="40" xml:space="preserve" fill="#ffffff" stroke-width="1" font-family="&quot;Trebuchet MS&quot;, Sans Serif" font-weight="normal" text-anchor="start"><tspan x="0" dy="0">&gt;_</tspan></text></g><text transform="translate(274.65245,184.92453) scale(0.42683,0.42683)" font-size="40" xml:space="preserve" fill="#ffffff" stroke-width="1" font-family="&quot;Trebuchet MS&quot;, Sans Serif" font-weight="normal" text-anchor="start"><tspan x="0" dy="0">Terminal</tspan></text></g></g></svg>