<svg version="1.1" xmlns="http://www.w3.org/2000/svg" xmlns:xlink="http://www.w3.org/1999/xlink" width="406" height="49.4" viewBox="0,0,406,49.4"><g transform="translate(-85,-48.5)"><g stroke="none" stroke-miterlimit="10"><path d="M85,97.9c0,0 0,-8.83577 0,-15c0,-20.32696 12.49842,-34.4 32.60001,-34.4c73.40347,0 308.19035,0 346,0c14.12451,0 27.39999,6.62005 27.39999,17.4c0,7.79959 0,31 0,31z" fill="#eddb6d" stroke-width="0"/><g stroke-width="0"><path d="M107.29419,81.36591c0,-2.81027 0,-10.81455 0,-15.96481c0,-2.68028 2.3208,-4.58759 4.58759,-4.58759c4.97118,0 24.3918,0 33.21414,0c2.69742,0 4.40409,1.39889 4.40409,3.48657c0,5.08303 0,14.24928 0,17.24933c0,1.86741 -2.58707,4.03708 -6.42262,4.03708c-9.41352,0 -26.34721,0 -31.0121,0c-2.34394,0 -4.77109,-2.28431 -4.77109,-4.22058z" fill="#dad9d2"/><path d="M147.02914,62.47136c-2.35529,2.08543 -12.31204,11.53319 -16.71902,15.43523c-1.18167,1.04627 -3.0014,0.74152 -4.66449,-0.71411c-4.80445,-4.20513 -13.6915,-12.61084 -15.70392,-14.39267c-0.7004,-0.62014 -0.43593,-1.88434 1.18567,-1.88434c3.44236,0 31.81851,0 33.98894,0c2.27236,0 2.81302,0.75885 1.91283,1.5559z" fill="#f9f8f2"/></g><text transform="translate(159.3,78.96875) scale(0.5,0.5)" font-size="40" xml:space="preserve" fill="#ffffff" stroke-width="1" font-family="&quot;Trebuchet MS&quot;, Sans Serif" font-weight="normal" text-anchor="start"><tspan x="0" dy="0">Mail - Home</tspan></text></g></g></svg>