<svg version="1.1" xmlns="http://www.w3.org/2000/svg" xmlns:xlink="http://www.w3.org/1999/xlink" width="836.33634" height="783.44224" viewBox="0,0,836.33634,783.44224"><defs><linearGradient x1="288" y1="-98.52853" x2="288" y2="458.52853" gradientUnits="userSpaceOnUse" id="color-1"><stop offset="0" stop-color="#000000"/><stop offset="1" stop-color="#000000" stop-opacity="0"/></linearGradient></defs><g transform="translate(130.16817,211.72112)"><g stroke-width="0" stroke-miterlimit="10"><g stroke="#000000"><path d="M613.91704,128.03639v240.03579h-240.03579v-240.03579z" fill-opacity="0.8" fill="#c67af5"/><path d="M512.84934,157.09335v240.03579h-240.03579v-240.03579z" fill-opacity="0.8" fill="#9871b0"/><path d="M555.80311,67.39577v240.03579h-240.03579v-240.03579z" fill-opacity="0.8" fill="#d9abf5"/></g><g stroke="#000000"><path d="M272.81355,128.03639v240.03579h-240.03579v-240.03579z" fill-opacity="0.8" fill="#c67af5"/><path d="M171.74585,157.09335v240.03579h-240.03579v-240.03579z" fill-opacity="0.8" fill="#9871b0"/><path d="M214.69962,67.39577v240.03579h-240.03579v-240.03579z" fill-opacity="0.8" fill="#d9abf5"/></g><g stroke="#000000"><path d="M613.91704,2.96511v240.03579h-240.03579v-240.03579z" fill-opacity="0.8" fill="#c67af5"/><path d="M512.84934,32.02207v240.03579h-240.03579v-240.03579z" fill-opacity="0.8" fill="#9871b0"/><path d="M555.80311,-57.67551v240.03579h-240.03579v-240.03579z" fill-opacity="0.8" fill="#d9abf5"/></g><g stroke="#000000"><path d="M272.81355,2.96511v240.03579h-240.03579v-240.03579z" fill-opacity="0.8" fill="#c67af5"/><path d="M171.74585,32.02207v240.03579h-240.03579v-240.03579z" fill-opacity="0.8" fill="#9871b0"/><path d="M214.69962,-57.67551v240.03579h-240.03579v-240.03579z" fill-opacity="0.8" fill="#d9abf5"/></g><g stroke="#000000"><path d="M231.12312,-171.37667h240.03579v240.03579h-240.03579z" fill-opacity="0.8" fill="#c67af5"/><path d="M260.18009,-70.30897h240.03579v240.03579h-240.03579z" fill-opacity="0.8" fill="#9871b0"/><path d="M170.4825,-113.26274h240.03579v240.03579h-240.03579z" fill-opacity="0.8" fill="#d9abf5"/></g><g stroke="#000000"><path d="M231.12312,169.72682h240.03579v240.03579h-240.03579z" fill-opacity="0.8" fill="#c67af5"/><path d="M260.18009,270.79452h240.03579v240.03579h-240.03579z" fill-opacity="0.8" fill="#9871b0"/><path d="M170.4825,227.84074h240.03579v240.03579h-240.03579z" fill-opacity="0.8" fill="#d9abf5"/></g><g stroke="#000000"><path d="M106.05184,-171.37667h240.03579v240.03579h-240.03579z" fill-opacity="0.8" fill="#c67af5"/><path d="M135.10881,-70.30897h240.03579v240.03579h-240.03579z" fill-opacity="0.8" fill="#9871b0"/><path d="M45.41122,-113.26274h240.03579v240.03579h-240.03579z" fill-opacity="0.8" fill="#d9abf5"/></g><g stroke="#000000"><path d="M106.05184,169.72682h240.03579v240.03579h-240.03579z" fill-opacity="0.8" fill="#c67af5"/><path d="M135.10881,270.79452h240.03579v240.03579h-240.03579z" fill-opacity="0.8" fill="#9871b0"/><path d="M45.41122,227.84074h240.03579v240.03579h-240.03579z" fill-opacity="0.8" fill="#d9abf5"/></g><g stroke="#000000"><path d="M484.53056,-100.94935l169.73093,169.73093l-169.73093,169.73093l-169.73093,-169.73093z" fill-opacity="0.8" fill="#c67af5"/><path d="M433.61127,-8.93733l169.73093,169.73093l-169.73093,169.73093l-169.73093,-169.73093z" fill-opacity="0.8" fill="#9871b0"/><path d="M400.55841,-102.736l169.73093,169.73093l-169.73093,169.73093l-169.73093,-169.73093z" fill-opacity="0.8" fill="#d9abf5"/></g><g stroke="#000000"><path d="M243.33397,140.24724l169.73093,169.73093l-169.73093,169.73093l-169.73093,-169.73093z" fill-opacity="0.8" fill="#c67af5"/><path d="M192.41469,232.25926l169.73093,169.73093l-169.73093,169.73093l-169.73093,-169.73093z" fill-opacity="0.8" fill="#9871b0"/><path d="M159.36182,138.46059l169.73093,169.73093l-169.73093,169.73093l-169.73093,-169.73093z" fill-opacity="0.8" fill="#d9abf5"/></g><g stroke="#000000"><path d="M396.09181,-189.38811l169.73093,169.73093l-169.73093,169.73093l-169.73093,-169.73093z" fill-opacity="0.8" fill="#c67af5"/><path d="M345.17253,-97.37608l169.73093,169.73093l-169.73093,169.73093l-169.73093,-169.73093z" fill-opacity="0.8" fill="#9871b0"/><path d="M312.11966,-191.17475l169.73093,169.73093l-169.73093,169.73093l-169.73093,-169.73093z" fill-opacity="0.8" fill="#d9abf5"/></g><g stroke="#000000"><path d="M154.89521,51.80848l169.73093,169.73093l-169.73093,169.73093l-169.73093,-169.73093z" fill-opacity="0.8" fill="#c67af5"/><path d="M103.97594,143.82051l169.73093,169.73093l-169.73093,169.73093l-169.73093,-169.73093z" fill-opacity="0.8" fill="#9871b0"/><path d="M70.92307,50.02184l169.73093,169.73093l-169.73093,169.73093l-169.73093,-169.73093z" fill-opacity="0.8" fill="#d9abf5"/></g><g stroke="#000000"><path d="M2.13738,-41.99019l169.73093,-169.73093l169.73093,169.73093l-169.73093,169.73093z" fill-opacity="0.8" fill="#c67af5"/><path d="M94.1494,8.92909l169.73093,-169.73093l169.73093,169.73093l-169.73093,169.73093z" fill-opacity="0.8" fill="#9871b0"/><path d="M0.35073,41.98196l169.73093,-169.73093l169.73093,169.73093l-169.73093,169.73093z" fill-opacity="0.8" fill="#d9abf5"/></g><g stroke="#000000"><path d="M243.33397,199.20639l169.73093,-169.73093l169.73093,169.73093l-169.73093,169.73093z" fill-opacity="0.8" fill="#c67af5"/><path d="M335.34599,250.12568l169.73093,-169.73093l169.73093,169.73093l-169.73093,169.73093z" fill-opacity="0.8" fill="#9871b0"/><path d="M241.54732,283.17854l169.73093,-169.73093l169.73093,169.73093l-169.73093,169.73093z" fill-opacity="0.8" fill="#d9abf5"/></g><g stroke="#000000"><path d="M-86.30138,46.44855l169.73093,-169.73093l169.73093,169.73093l-169.73093,169.73093z" fill-opacity="0.8" fill="#c67af5"/><path d="M5.71066,97.36784l169.73093,-169.73093l169.73093,169.73093l-169.73093,169.73093z" fill-opacity="0.8" fill="#9871b0"/><path d="M-88.08801,130.4207l169.73093,-169.73093l169.73093,169.73093l-169.73093,169.73093z" fill-opacity="0.8" fill="#d9abf5"/></g><g stroke="#000000"><path d="M154.89521,287.64515l169.73093,-169.73093l169.73093,169.73093l-169.73093,169.73093z" fill-opacity="0.8" fill="#c67af5"/><path d="M246.90724,338.56443l169.73093,-169.73093l169.73093,169.73093l-169.73093,169.73093z" fill-opacity="0.8" fill="#9871b0"/><path d="M153.10857,371.61729l169.73093,-169.73093l169.73093,169.73093l-169.73093,169.73093z" fill-opacity="0.8" fill="#d9abf5"/></g><g stroke="#000000"><path d="M18,213v-190h190v190z" fill-opacity="0.8" fill="#c67af5"/><path d="M98,190v-190h190v190z" fill-opacity="0.8" fill="#9871b0"/><path d="M64,261v-190h190v190z" fill-opacity="0.8" fill="#d9abf5"/></g><g stroke="#000000"><path d="M288,213v-190h190v190z" fill-opacity="0.8" fill="#c67af5"/><path d="M368,190v-190h190v190z" fill-opacity="0.8" fill="#9871b0"/><path d="M334,261v-190h190v190z" fill-opacity="0.8" fill="#d9abf5"/></g><g stroke="#000000"><path d="M18,312v-190h190v190z" fill-opacity="0.8" fill="#c67af5"/><path d="M98,289v-190h190v190z" fill-opacity="0.8" fill="#9871b0"/><path d="M64,360v-190h190v190z" fill-opacity="0.8" fill="#d9abf5"/></g><g stroke="#000000"><path d="M288,312v-190h190v190z" fill-opacity="0.8" fill="#c67af5"/><path d="M368,289v-190h190v190z" fill-opacity="0.8" fill="#9871b0"/><path d="M334,360v-190h190v190z" fill-opacity="0.8" fill="#d9abf5"/></g><g stroke="#000000"><path d="M321,450h-190v-190h190z" fill-opacity="0.8" fill="#c67af5"/><path d="M298,370h-190v-190h190z" fill-opacity="0.8" fill="#9871b0"/><path d="M369,404h-190v-190h190z" fill-opacity="0.8" fill="#d9abf5"/></g><g stroke="#000000"><path d="M321,180h-190v-190h190z" fill-opacity="0.8" fill="#c67af5"/><path d="M298,100h-190v-190h190z" fill-opacity="0.8" fill="#9871b0"/><path d="M369,134h-190v-190h190z" fill-opacity="0.8" fill="#d9abf5"/></g><g stroke="#000000"><path d="M420,450h-190v-190h190z" fill-opacity="0.8" fill="#c67af5"/><path d="M397,370h-190v-190h190z" fill-opacity="0.8" fill="#9871b0"/><path d="M468,404h-190v-190h190z" fill-opacity="0.8" fill="#d9abf5"/></g><g stroke="#000000"><path d="M420,180h-190v-190h190z" fill-opacity="0.8" fill="#c67af5"/><path d="M397,100h-190v-190h190z" fill-opacity="0.8" fill="#9871b0"/><path d="M468,134h-190v-190h190z" fill-opacity="0.8" fill="#d9abf5"/></g><g stroke="#000000"><path d="M120.41569,394.25335l-134.35029,-134.35029l134.35029,-134.35029l134.35029,134.35029z" fill-opacity="0.8" fill="#c67af5"/><path d="M160.72078,321.42136l-134.35029,-134.35029l134.35029,-134.35029l134.35029,134.35029z" fill-opacity="0.8" fill="#9871b0"/><path d="M186.88373,395.66757l-134.35029,-134.35029l134.35029,-134.35029l134.35029,134.35029z" fill-opacity="0.8" fill="#d9abf5"/></g><g stroke="#000000"><path d="M311.33452,203.33452l-134.35029,-134.35029l134.35029,-134.35029l134.35029,134.35029z" fill-opacity="0.8" fill="#c67af5"/><path d="M351.63961,130.50253l-134.35029,-134.35029l134.35029,-134.35029l134.35029,134.35029z" fill-opacity="0.8" fill="#9871b0"/><path d="M377.80256,204.74874l-134.35029,-134.35029l134.35029,-134.35029l134.35029,134.35029z" fill-opacity="0.8" fill="#d9abf5"/></g><g stroke="#000000"><path d="M190.41926,464.25693l-134.35029,-134.35029l134.35029,-134.35029l134.35029,134.35029z" fill-opacity="0.8" fill="#c67af5"/><path d="M230.72435,391.42493l-134.35029,-134.35029l134.35029,-134.35029l134.35029,134.35029z" fill-opacity="0.8" fill="#9871b0"/><path d="M256.8873,465.67114l-134.35029,-134.35029l134.35029,-134.35029l134.35029,134.35029z" fill-opacity="0.8" fill="#d9abf5"/></g><g stroke="#000000"><path d="M381.3381,273.3381l-134.35029,-134.35029l134.35029,-134.35029l134.35029,134.35029z" fill-opacity="0.8" fill="#c67af5"/><path d="M421.64318,200.5061l-134.35029,-134.35029l134.35029,-134.35029l134.35029,134.35029z" fill-opacity="0.8" fill="#9871b0"/><path d="M447.80613,274.75231l-134.35029,-134.35029l134.35029,-134.35029l134.35029,134.35029z" fill-opacity="0.8" fill="#d9abf5"/></g><g stroke="#000000"><path d="M502.25335,347.58431l-134.35029,134.35029l-134.35029,-134.35029l134.35029,-134.35029z" fill-opacity="0.8" fill="#c67af5"/><path d="M429.42136,307.27922l-134.35029,134.35029l-134.35029,-134.35029l134.35029,-134.35029z" fill-opacity="0.8" fill="#9871b0"/><path d="M503.66757,281.11627l-134.35029,134.35029l-134.35029,-134.35029l134.35029,-134.35029z" fill-opacity="0.8" fill="#d9abf5"/></g><g stroke="#000000"><path d="M311.33452,156.66548l-134.35029,134.35029l-134.35029,-134.35029l134.35029,-134.35029z" fill-opacity="0.8" fill="#c67af5"/><path d="M238.50253,116.36039l-134.35029,134.35029l-134.35029,-134.35029l134.35029,-134.35029z" fill-opacity="0.8" fill="#9871b0"/><path d="M312.74874,90.19744l-134.35029,134.35029l-134.35029,-134.35029l134.35029,-134.35029z" fill-opacity="0.8" fill="#d9abf5"/></g><g stroke="#000000"><path d="M572.25693,277.58074l-134.35029,134.35029l-134.35029,-134.35029l134.35029,-134.35029z" fill-opacity="0.8" fill="#c67af5"/><path d="M499.42493,237.27565l-134.35029,134.35029l-134.35029,-134.35029l134.35029,-134.35029z" fill-opacity="0.8" fill="#9871b0"/><path d="M573.67114,211.1127l-134.35029,134.35029l-134.35029,-134.35029l134.35029,-134.35029z" fill-opacity="0.8" fill="#d9abf5"/></g><g stroke="#000000"><path d="M381.3381,86.6619l-134.35029,134.35029l-134.35029,-134.35029l134.35029,-134.35029z" fill-opacity="0.8" fill="#c67af5"/><path d="M308.5061,46.35682l-134.35029,134.35029l-134.35029,-134.35029l134.35029,-134.35029z" fill-opacity="0.8" fill="#9871b0"/><path d="M382.75231,20.19387l-134.35029,134.35029l-134.35029,-134.35029l134.35029,-134.35029z" fill-opacity="0.8" fill="#d9abf5"/></g><path d="M-130.16817,458.52853v-557.05706h836.33634v557.05706z" fill="url(#color-1)" stroke="none"/></g></g></svg>