<svg version="1.1" xmlns="http://www.w3.org/2000/svg" xmlns:xlink="http://www.w3.org/1999/xlink" width="116.90234" height="113.66505" viewBox="0,0,116.90234,113.66505"><defs><linearGradient x1="289.17777" y1="159.60626" x2="289.17777" y2="189.87257" gradientUnits="userSpaceOnUse" id="color-1"><stop offset="0" stop-color="#262626"/><stop offset="1" stop-color="#1a1a1a"/></linearGradient><linearGradient x1="289.17777" y1="169.74511" x2="289.17777" y2="179.73375" gradientUnits="userSpaceOnUse" id="color-2"><stop offset="0" stop-color="#e6e6e6"/><stop offset="1" stop-color="#d7d7d7"/></linearGradient><linearGradient x1="290.38374" y1="152.55452" x2="290.38374" y2="163.66592" gradientUnits="userSpaceOnUse" id="color-3"><stop offset="0" stop-color="#312530"/><stop offset="1" stop-color="#322227"/></linearGradient><linearGradient x1="269.86807" y1="149.54896" x2="270.40188" y2="179.05875" gradientUnits="userSpaceOnUse" id="color-4"><stop offset="0" stop-color="#332632"/><stop offset="1" stop-color="#332020"/></linearGradient><linearGradient x1="275.53006" y1="146.15427" x2="275.53006" y2="150.04343" gradientUnits="userSpaceOnUse" id="color-5"><stop offset="0" stop-color="#302633"/><stop offset="1" stop-color="#322633"/></linearGradient><linearGradient x1="291.7649" y1="147.01217" x2="291.7649" y2="175.6142" gradientUnits="userSpaceOnUse" id="color-6"><stop offset="0" stop-color="#302633"/><stop offset="1" stop-color="#332020"/></linearGradient><linearGradient x1="307.34265" y1="147.39344" x2="307.34265" y2="175.99547" gradientUnits="userSpaceOnUse" id="color-7"><stop offset="0" stop-color="#302633"/><stop offset="1" stop-color="#332020"/></linearGradient><linearGradient x1="290.27481" y1="150.26689" x2="290.27481" y2="161.37828" gradientUnits="userSpaceOnUse" id="color-8"><stop offset="0" stop-color="#ea76de"/><stop offset="1" stop-color="#f75ca2"/></linearGradient><linearGradient x1="269.75915" y1="147.26133" x2="270.29294" y2="176.7711" gradientUnits="userSpaceOnUse" id="color-9"><stop offset="0" stop-color="#ea76df"/><stop offset="1" stop-color="#ff3f3f"/></linearGradient><linearGradient x1="275.42113" y1="143.86664" x2="275.42113" y2="147.7558" gradientUnits="userSpaceOnUse" id="color-10"><stop offset="0" stop-color="#e681ff"/><stop offset="1" stop-color="#e87cef"/></linearGradient><linearGradient x1="291.65594" y1="144.72453" x2="291.65594" y2="173.32654" gradientUnits="userSpaceOnUse" id="color-11"><stop offset="0" stop-color="#e681ff"/><stop offset="1" stop-color="#ff3f3f"/></linearGradient><linearGradient x1="307.23372" y1="145.10581" x2="307.23372" y2="173.70783" gradientUnits="userSpaceOnUse" id="color-12"><stop offset="0" stop-color="#e681ff"/><stop offset="1" stop-color="#ff3f3f"/></linearGradient></defs><g transform="translate(-229.54883,-123.16748)"><g stroke-miterlimit="10"><path d="M229.54883,219.56695c0,-22.62349 0,-61.03845 0,-74.8175c0,-9.69461 6.56843,-21.58197 12.94918,-21.58197c13.76327,0 66.81855,0 91.36368,0c7.69626,0 12.58948,5.56055 12.58948,11.15069c0,11.16919 0,52.13273 0,78.77419c0,13.7882 -6.56843,23.74017 -12.94918,23.74017c-13.37248,0 -63.83734,0 -89.20548,0c-8.92812,0 -14.74768,-7.01037 -14.74768,-17.26558z" fill-opacity="0.53333" fill="#66ffed" stroke="none" stroke-width="0" stroke-linecap="butt"/><text transform="translate(242.03809,210.13339) scale(0.5,0.5)" font-size="40" xml:space="preserve" fill="#000000" stroke="none" stroke-width="1" stroke-linecap="butt" font-family="&quot;Trebuchet MS&quot;, Sans Serif" font-weight="normal" text-anchor="start"><tspan x="0" dy="0">InterMusic</tspan></text><g><g><path d="M261.92224,174.73942c0,-8.35782 12.2027,-15.13315 27.2555,-15.13315c15.0528,0 27.2555,6.77534 27.2555,15.13315c0,8.35782 -12.2027,15.13315 -27.2555,15.13315c-15.0528,0 -27.2555,-6.77535 -27.2555,-15.13315z" fill="url(#color-1)" stroke="none" stroke-width="0" stroke-linecap="butt"/><path d="M280.18279,174.73942c0,-2.75828 4.0272,-4.99432 8.99498,-4.99432c4.96779,0 8.99499,2.23604 8.99499,4.99432c0,2.75828 -4.0272,4.99433 -8.99499,4.99433c-4.96779,0 -8.99498,-2.23604 -8.99498,-4.99433z" fill="url(#color-2)" stroke="none" stroke-width="0" stroke-linecap="butt"/><path d="M311.74978,161.81301c0,0 0.04469,7.75282 -0.9336,11.35293c-0.96015,3.53339 -5.28849,8.69867 -5.28849,8.69867" fill="none" stroke="#404040" stroke-width="1.5" stroke-linecap="round"/><path d="M302.01087,163.31507l0.81158,-4.51242h10.41525l0.81157,4.51242z" fill="#404040" stroke="#404040" stroke-width="0" stroke-linecap="butt"/></g><g><g><path d="M297.51903,155.98599c0,0 -5.01078,8.78018 -9.58631,7.67995c-4.57554,-1.10023 -4.68423,-11.11141 -4.68423,-11.11141" fill="none" stroke="url(#color-3)" stroke-width="3.5" stroke-linecap="round"/><path d="M274.06724,153.12533l-7.73501,22.22136" fill="none" stroke="url(#color-4)" stroke-width="3.5" stroke-linecap="round"/><path d="M273.58547,148.09885c0,-1.07396 0.87064,-1.94459 1.94459,-1.94459c1.07396,0 1.94458,0.87064 1.94458,1.94459c0,1.07396 -0.87061,1.94458 -1.94458,1.94458c-1.07396,0 -1.94459,-0.87062 -1.94459,-1.94458z" fill="url(#color-5)" stroke="none" stroke-width="2" stroke-linecap="butt"/><path d="M284.20436,149.19215l-8.38344,26.42203" fill="none" stroke="url(#color-6)" stroke-width="3.5" stroke-linecap="round"/><path d="M291.39868,175.99547l8.38344,-26.42202" fill="none" stroke="url(#color-7)" stroke-width="3.5" stroke-linecap="round"/></g><g><path d="M297.41008,153.69833c0,0 -5.01078,8.78017 -9.58631,7.67994c-4.57554,-1.10023 -4.68423,-11.1114 -4.68423,-11.1114" fill="none" stroke="url(#color-8)" stroke-width="3.5" stroke-linecap="round"/><path d="M266.22331,173.05906l7.73501,-22.22134" fill="none" stroke="url(#color-9)" stroke-width="3.5" stroke-linecap="round"/><path d="M273.47652,145.81122c0,-1.07396 0.87062,-1.94459 1.94459,-1.94459c1.07396,0 1.94459,0.87064 1.94459,1.94459c0,1.07396 -0.87062,1.94456 -1.94459,1.94456c-1.07396,0 -1.94459,-0.8706 -1.94459,-1.94456z" fill="url(#color-10)" stroke="none" stroke-width="2" stroke-linecap="butt"/><path d="M275.71199,173.32655l8.38344,-26.42203" fill="none" stroke="url(#color-11)" stroke-width="3.5" stroke-linecap="round"/><path d="M291.28975,173.7078l8.38344,-26.42201" fill="none" stroke="url(#color-12)" stroke-width="3.5" stroke-linecap="round"/></g></g></g></g></g></svg>