<svg version="1.1" xmlns="http://www.w3.org/2000/svg" xmlns:xlink="http://www.w3.org/1999/xlink" width="619" height="408" viewBox="0,0,619,408"><defs><linearGradient x1="290.10002" y1="-16.09999" x2="290.10002" y2="391.90001" gradientUnits="userSpaceOnUse" id="color-1"><stop offset="0" stop-color="#02091d"/><stop offset="1" stop-color="#02091d" stop-opacity="0"/></linearGradient></defs><g transform="translate(18.39999,16.1)"><g stroke="none" stroke-miterlimit="10"><path d="M-18.39998,302.9v-319h617v319z" fill="#02091d" stroke-width="0"/><g stroke-width="0"><path d="M133.38235,278.32951l23.84024,-144.57623l44.82984,7.39232l-23.84024,144.57624z" fill="#40200b"/><path d="M171.85188,184.66441c-32.18649,-5.30747 -53.97624,-35.70232 -48.66877,-67.88881c5.30746,-32.18649 35.70232,-53.97625 67.88881,-48.66878c32.18649,5.30746 53.97624,35.70233 48.66878,67.88882c-5.30747,32.18649 -35.70232,53.97624 -67.88881,48.66878z" fill="#0b4022"/><path d="M209.39688,190.85548c-21.04501,-3.47027 -35.29216,-23.34384 -31.82189,-44.38884c3.47027,-21.04501 23.34383,-35.29215 44.38884,-31.82189c21.04501,3.47026 35.29215,23.34383 31.82189,44.38884c-3.47027,21.04501 -23.34383,35.29216 -44.38884,31.82189z" fill="#0b4022"/><path d="M134.18899,177.44292c-25.53255,-4.21025 -42.81769,-28.32155 -38.60744,-53.8541c4.21025,-25.53255 28.32156,-42.81769 53.85411,-38.60744c25.53255,4.21025 42.81769,28.32156 38.60744,53.85411c-4.21025,25.53255 -28.32156,42.81769 -53.85411,38.60744z" fill="#0b4022"/></g><path d="M305.92648,232.96947c3.99716,2.64742 6.82401,6.5024 10.35629,9.67233c2.07625,1.86326 3.84994,1.36257 4.57794,5.00494c0.63178,3.161 -1.37072,6.38474 -4.47184,7.27866c-1.49688,0.43149 -5.68894,-1.38769 -6.92769,-2.20084c-3.63808,-2.38814 -6.02389,-6.43297 -8.2584,-10.41336l-1.01085,-0.94982c-0.6308,-0.57132 -0.91563,-1.41695 -0.79075,-2.23158c-0.54622,-0.93426 -1.10119,-1.83681 -1.68104,-2.68247c0,0 -1.41281,-2.06252 0.64971,-3.47532c0.7582,-0.51935 1.42858,-0.56907 1.97327,-0.42426c0.71911,-0.93878 1.998,-1.23897 3.05374,-0.7371l2.3591,1.07326l-0.02735,0.0601z" fill-opacity="0.51765" fill="#0d0b40" stroke-width="0.5"/><path d="M258.64802,150.49359c-0.18034,0.03412 -0.37775,0.0528 -0.59382,0.0528c-2.5,0 -2.5,-2.5 -2.5,-2.5c0,-1.87614 -0.72532,-8.0307 0.4129,-9.37623c3.68573,-4.35704 7.43133,-1.66024 9.11006,2.07988c0.81891,1.33166 1.17802,3.00553 0.88795,4.58464c-0.0197,0.23414 -0.05161,0.46262 -0.0963,0.68382c-0.30502,1.50985 -0.3231,3.48434 -1.60941,4.33173c-2.16688,1.42748 -4.11175,1.21534 -5.61138,0.14335zM260.92476,143.47472c-0.01704,-0.02963 -0.03335,-0.05919 -0.04857,-0.0886c-0.0147,0.18845 -0.03337,0.38023 -0.03972,0.49625c-0.00906,0.16564 -0.02952,0.33197 -0.04887,0.49828c0.06991,0.03597 0.13878,0.05956 0.20599,0.06295c0.00108,-0.30165 -0.00717,-0.60195 -0.05501,-0.89456c-0.00408,-0.02492 -0.00869,-0.04969 -0.01382,-0.07432z" fill-opacity="0.51765" fill="#646297" stroke-width="0.5"/><path d="M280.11742,147.86663c-0.19383,0.24418 -0.46093,0.47687 -0.82287,0.6837c-2.17061,1.24034 -3.41096,-0.93026 -3.41096,-0.93026c-2.04705,-3.6476 -6.25352,-12.55812 2.05648,-12.73072c5.12243,-0.10638 8.57696,12.08701 2.17735,12.97728z" fill-opacity="0.51765" fill="#646297" stroke-width="0.5"/><path d="M285.1944,186.7779c0.03683,-0.31144 0.08168,-0.61775 0.13589,-0.91155l-0.01053,-0.01053c0.00603,-0.01002 0.01206,-0.02003 0.01809,-0.03005c0.0004,-0.00211 0.00079,-0.00423 0.00119,-0.00634l-0.45589,-0.61824l-0.38851,-0.42383l-0.55722,-0.46899c-0.24451,-0.12691 -0.4654,-0.29303 -0.65434,-0.49001c0.60611,1.00752 1.23362,2.00061 1.91132,2.95953zM303.83754,202.83807c0,0.70646 -0.29303,1.34447 -0.76417,1.79914c0.08308,0.45621 0.15041,0.9149 0.19729,1.37647c0.10971,1.08017 0.63812,2.4282 0.54638,3.49049c0.26243,0.60313 0.50003,1.21918 0.70993,1.84957c0.14159,0.42524 0.2758,0.84897 0.40132,1.27105c0.35429,0.6865 0.65855,1.38955 0.84161,2.05171c3.62484,2.02447 9.18282,4.67963 8.81581,9.00752c-0.41316,4.87198 -5.55296,6.21954 -9.4595,5.2689c-0.01209,0.03374 -0.02459,0.06739 -0.03751,0.10093c0.46216,0.45365 0.74884,1.08546 0.74884,1.78422c0,0.41989 -0.10352,0.81561 -0.28642,1.16302l-1.20329,2.40658c-0.17109,0.36093 -0.4261,0.67434 -0.73981,0.91504c-0.32094,0.42829 -0.67721,0.83098 -1.05933,1.21318l0.33692,0.23585l-1.72994,2.47134c-0.44988,0.66094 -1.20832,1.095 -2.06814,1.095c-0.17124,0 -0.33844,-0.01721 -0.5,-0.05001c-0.16156,0.03279 -0.32876,0.05001 -0.5,0.05001c-0.59805,0 -1.14704,-0.20999 -1.57729,-0.56027l-0.24495,-0.19595c-0.05872,0.00412 -0.118,0.00623 -0.17777,0.00623c-0.12606,0 -0.24994,-0.00933 -0.37099,-0.02734l0.5897,0.344c0.76448,0.42764 1.28129,1.24514 1.28129,2.18335c0,1.38071 -1.11929,2.5 -2.5,2.5c-0.22872,0 -0.45026,-0.03071 -0.66073,-0.08825l-0.67037,-0.16759c-0.43142,0.75046 -1.24115,1.25583 -2.16891,1.25583c-0.52533,0 -1.0128,-0.16203 -1.41519,-0.43883l-2.22156,-1.48104l0.00131,-0.00196l-0.00645,-0.00148c-0.52574,-0.35503 -1.07345,-0.695 -1.63671,-1.02519l-2.13596,-0.64079c-0.45185,-0.12428 -0.85249,-0.37221 -1.16326,-0.70511c-2.12383,-0.4846 -4.15375,-2.0719 -5.82878,-3.74203c-1.43748,-0.96611 -2.75387,-2.05158 -3.83534,-3.34975l-3.83673,-3.17523c-0.56225,-0.45842 -0.92132,-1.15658 -0.92132,-1.93859c0,-1.13665 0.75856,-2.09613 1.79706,-2.39982c-0.56383,-0.59395 -1.12318,-1.2052 -1.73025,-1.6321c-0.10442,-0.51324 -0.20073,-1.01914 -0.28955,-1.51931c-0.8861,-1.26844 -1.40915,-3.04076 -1.9743,-4.43691c-0.51481,-1.27178 -0.09011,-2.7443 -0.05081,-4.11577c0.03805,-1.3276 0.0426,-2.98695 0.30797,-4.49843c-3.14607,-5.08592 -5.834,-12.16936 -3.64358,-17.2949c1.37973,-3.22855 3.73791,-4.22829 6.22638,-3.95061c0.0949,-1.29667 0.23676,-2.60896 0.4221,-3.88298c0.00062,-0.03107 0.00124,-0.06226 0.00185,-0.09357c0.00563,-0.01139 0.01126,-0.0228 0.01691,-0.03424c0.13059,-0.88196 0.28206,-1.74464 0.45324,-2.57005c0.27227,-1.31286 0.27477,-2.80246 1.07967,-3.87478c0.7745,-1.03183 1.77329,-2.18697 2.95744,-2.69015l0.18254,-2.19044c0.09422,-1.29477 1.17452,-2.31595 2.49333,-2.31595c0.8178,0 1.54388,0.39267 2,0.99975c0.45612,-0.60709 1.1822,-0.99975 2,-0.99975c0.95782,0 1.78983,0.53864 2.20964,1.32954l0.08165,0.14697c0.20436,0.09375 0.39391,0.21426 0.56414,0.35702l3.75831,3.1047c0.61901,0.00125 1.1852,0.22746 1.62117,0.60123l3.80548,3.2199l-0.01782,0.02106c0.0453,0.02807 0.09046,0.05642 0.13547,0.08506c1.30252,0.82884 2.08011,2.28193 3.12016,3.4229l0.05365,0.30502l0.10352,-0.05751l1.22794,2.2103c0.21407,0.36857 0.33666,0.79688 0.33666,1.25381c0,0.15903 -0.01485,0.31458 -0.04323,0.46536c0.03532,0.0418 0.07063,0.0836 0.10592,0.12542l0.03494,0.09938l0.02554,-0.01825l2.39414,3.35115c0.30348,0.41381 0.4827,0.92444 0.4827,1.47694c0,0.14598 -0.01251,0.28904 -0.03652,0.42816c0.73891,-0.67816 1.78652,-0.67816 1.78652,-0.67816h0.5c3.45443,0 6.90886,-0.00083 10.36329,0.00257c6.7246,0.61132 16.23454,-0.05878 18.0916,8.52466c0.22692,1.04882 0.20657,2.16016 0.03294,3.21911c-0.22665,1.38235 -0.22954,3.0309 -1.22006,4.02142c-1.22111,1.2211 -5.42647,1.4484 -7.1308,1.20574c-3.0297,-0.43138 -5.79221,-1.93585 -8.48786,-3.22895c-3.48026,-1.66948 -7.25169,-3.03517 -10.95918,-4.29176c0.03933,0.17612 0.06007,0.35924 0.06007,0.54721zM293.46799,238.24906l0.65032,0.37936c-0.14452,-0.1845 -0.26369,-0.38983 -0.35223,-0.61073l-1.01752,-0.37c0.23701,0.20426 0.47652,0.40515 0.71943,0.60138zM291.80078,218.99454c1.28393,1.50358 2.62704,2.96219 4.15946,4.34517c0.82803,0.74728 1.45841,1.79175 2.47391,2.25307c0.1617,0.07346 0.21087,-0.10629 0.24466,-0.3379c-0.19768,-0.17842 -0.41303,-0.44088 -0.63826,-0.76378c-2.03332,-1.90877 -3.92837,-4.04083 -5.74875,-5.6637l-0.07785,-0.17802l-0.04697,0.03914l-0.53785,-0.64542c0.06639,0.30897 0.12315,0.62725 0.17165,0.95144zM283.65369,193.08835c0.00306,-0.15992 0.00412,-0.32272 0.00476,-0.48686c-0.6554,-0.80965 -1.2972,-1.63074 -1.92168,-2.46774c0.00118,0.04405 0.00229,0.08813 0.00334,0.13227l1.01798,1.22158l-0.05673,0.04727c0.12324,0.12993 0.2422,0.26438 0.35634,0.40391c0.27906,0.34115 0.46382,0.73166 0.59599,1.14957zM287.40614,231.17797c-0.0632,-0.67246 -0.13955,-1.3443 -0.22613,-2.01554l-2.35688,-2.74968c0.27614,0.65713 0.53211,1.3257 0.76427,2.00839c0.69209,0.73864 1.23828,1.51345 1.58332,2.28478c0.06868,0.15354 0.1482,0.31118 0.23542,0.47205zM273.03587,223.43295c-0.0064,0.00969 -0.01281,0.01936 -0.01924,0.02902c-0.00043,0.18618 0.00135,0.28609 0.00925,0.14559c0.00329,-0.0586 0.00663,-0.1168 0.00999,-0.17461zM268.07036,201.76553c0.04399,-0.06631 0.08847,-0.1302 0.13345,-0.19162l-0.10254,-0.97414l0.26914,-0.02833c-0.38399,-1.94309 -0.28295,-3.88274 0.75614,-6.13942c-0.00411,-0.08568 -0.00793,-0.17136 -0.01144,-0.25706c-1.09517,-0.17061 -1.56703,0.6941 -1.52789,2.70297c0.02389,1.22621 -0.03735,2.46956 0.19222,3.67433c0.07886,0.41385 0.17672,0.8178 0.29092,1.21327zM284.7519,209.9921c-0.21604,0.09748 -0.44169,0.16966 -0.67476,0.22002c0.08846,0.28016 0.18059,0.56038 0.27575,0.84073c0.23461,0.1044 0.45018,0.24386 0.64002,0.41174l0.59254,0.51848l-0.79067,-1.89762c-0.0143,-0.0311 -0.0286,-0.06223 -0.04287,-0.09334zM282.03479,181.69328c-0.00502,-0.07747 -0.00579,-0.15668 -0.0017,-0.23746c-0.00523,-0.00178 -0.01045,-0.00357 -0.01567,-0.00538l-0.02265,0.17382c0.01334,0.02301 0.02667,0.04601 0.04001,0.06902zM278.80422,215.7862c0.09327,-0.3077 0.13817,-0.68428 0.14715,-1.1042c-0.1025,0.25868 -0.21348,0.53053 -0.3345,0.80721c0.06243,0.09911 0.12489,0.19809 0.18736,0.29699zM281.74848,220.49549c0.48327,0.80615 0.9513,1.61757 1.39576,2.44041c-0.31297,-0.88408 -0.6609,-1.89237 -0.99493,-2.87128c-0.12529,0.15177 -0.25877,0.29565 -0.40083,0.43087zM305.98019,197.83819c5.32713,2.05712 10.47203,4.62968 15.8619,6.36647c0.49912,0.16083 4.46923,1.37409 4.97767,0.86564c0.23642,-0.23641 -0.19744,-0.645 -0.22006,-0.97858c-0.15003,-2.21242 0.04291,-3.07063 -1.9504,-4.45879c-3.02049,-2.1035 -7.89826,-1.47682 -11.42505,-1.79744c-2.41469,0.0026 -4.82937,0.00279 -7.24406,0.00269z" fill-opacity="0.51765" fill="#0d0b40" stroke-width="0.5"/><path d="M296.43021,117.01243c-0.48712,-1.77532 -1.90917,-3.9676 -2.58371,-6.00427c-0.01628,0.08118 -0.03102,0.16237 -0.04343,0.24362c-0.1594,1.04368 -0.35722,2.08205 -0.48288,3.13034c-0.29286,2.44317 -0.43704,4.9028 -0.47332,7.36141c0.22624,0.10158 0.45173,0.20544 0.67642,0.31163c1.0156,0.22947 2.35494,0.35787 3.62367,0.68752c-0.03566,-1.93078 -0.20067,-3.84938 -0.71675,-5.73024zM288.87201,110.42434c0.19849,-1.11721 0.07103,-2.37566 0.6744,-3.33665c0.8909,-1.41894 1.94028,-3.57133 3.6139,-3.49334c2.11936,0.09877 3.73692,2.2166 5.03306,3.89632c1.12851,1.46248 1.32419,3.44911 1.97033,5.17969c1.99936,5.35502 1.92384,10.30685 1.92384,15.9177v0.25c0,0 0,0.72501 -0.39043,1.39417c0.33186,0.33492 0.66057,0.67353 0.98588,1.01613c1.25302,1.31961 3.00123,2.31063 3.74645,3.97078c0.06299,0.14032 0.11971,0.28242 0.17086,0.42611l0.04494,-0.01872l1.2285,2.94839c0.13745,0.30969 0.21381,0.6525 0.21381,1.01315c0,0.39475 -0.09149,0.76812 -0.25442,1.10009c0.00293,0.0496 0.00442,0.09958 0.00442,0.14991c0,0.99115 -0.57679,1.84759 -1.41302,2.25196c-0.024,0.47431 -0.08826,0.93216 -0.15224,1.40095c0.13511,0.1233 0.25663,0.26123 0.36208,0.41128l0.85572,0.46676c0.80066,0.41671 1.34746,1.25403 1.34746,2.21906c0,0.98409 -0.5686,1.83538 -1.39519,2.24326c0.36927,0.60442 0.71886,1.18421 0.89927,1.70147c0.98523,2.82496 0.68843,4.99448 -0.16168,7.34425c0.08472,0.09153 0.16931,0.1833 0.25376,0.27529l0.00272,0.00492l0.00096,-0.00087l2.49416,2.74357c0.4074,0.44478 0.65599,1.03741 0.65599,1.68811c0,1.33139 -1.04074,2.41969 -2.35306,2.49575l-2.51902,0.16793c0.67614,0.44746 1.12208,1.21481 1.12208,2.08631c0,1.38071 -1.11929,2.5 -2.5,2.5c-0.14474,0 -0.2866,-0.0123 -0.42461,-0.03591l-2.07781,-0.31966c-1.98863,0.92908 -4.32306,1.36809 -5.90978,1.45628c-0.90954,0.05056 -1.85059,-0.31996 -2.73139,-0.05236c-0.43691,0.13274 -0.83875,0.36107 -1.22443,0.63419c-0.10438,0.38627 -0.26878,0.75323 -0.50621,1.09187c4.05258,3.42666 7.62986,6.37236 9.07317,11.97293c1.19777,4.6478 0.28625,9.94613 1.47793,14.65243c2.14049,8.45341 7.07162,16.0409 7.82313,24.85023c-0.14267,1.74051 -0.24638,4.77371 -0.9403,6.45671c-3.90154,9.4626 -14.4925,17.52103 -25.14598,16.52057c-3.33179,-0.31288 -5.37093,-3.10887 -7.73796,-5.03518c-2.58029,-2.09987 -6.05168,-3.53027 -8.15708,-6.16752c-2.80331,-3.51147 -3.99967,-9.85532 -5.21411,-14.00513c-0.99259,-7.35718 -1.89071,-15.2071 -0.77703,-22.63941c1.01332,-6.76258 3.48761,-13.02085 5.02353,-19.6327c0.62117,-2.67402 1.27328,-5.19917 2.0693,-7.69336c-0.32957,-0.11982 -0.65756,-0.2534 -0.98334,-0.40526c-1.62761,-0.75871 -2.76499,-2.35059 -4.30406,-3.24187c-1.4502,-0.83981 -3.13611,-1.00133 -4.59972,-1.82641c-1.82306,-1.02773 -2.82614,-2.54048 -4.00824,-4.3632l-0.74352,-1.83371c0,0 -0.21497,-0.56031 -0.09236,-1.1538c-0.46484,-0.86873 -1.08307,-1.63242 -1.55272,-2.50135c-0.50305,-0.93074 -0.96332,-1.94329 -1.38674,-2.99568c-2.51562,-2.98549 -4.32403,-6.45259 -5.68752,-10.10199l-0.39568,0.20826l-2.30635,-4.38206c-0.19762,-0.35781 -0.31009,-0.76922 -0.31009,-1.2069c0,-1.38071 1.11929,-2.5 2.5,-2.5c0.26635,0 0.52297,0.04165 0.7637,0.1188c-0.16873,-0.33661 -0.2637,-0.71662 -0.2637,-1.1188c0,-1.38071 1.11929,-2.5 2.5,-2.5c0.58396,0 1.12114,0.20022 1.54667,0.53574l1.11503,0.86161c0.03281,-0.69866 0.07974,-1.33218 0.13803,-1.72309c0.36956,-2.47841 1.3899,-4.19881 2.81151,-5.70731c-0.44854,-1.44298 -0.69703,-2.82485 -0.2481,-3.92397l-0.40958,-0.32854c-0.58074,-0.4578 -0.95356,-1.16757 -0.95356,-1.96444c0,-1.38071 1.11929,-2.5 2.5,-2.5c0.07985,0 0.15881,0.00374 0.23674,0.01106l0.90349,0.07529c-0.08458,-0.25924 -0.17109,-0.52284 -0.26044,-0.79131c-0.65945,-1.98152 -1.92371,-3.77835 -2.2773,-5.83657c-0.28106,-1.63602 -1.21784,-3.76418 -0.08677,-4.97918c1.33077,-1.42951 3.84871,-1.53972 5.75346,-1.10801c1.75404,0.39754 2.75342,2.32041 4.21573,3.36749c3.21503,2.30214 6.16057,3.70414 8.75601,6.25836c1.51197,0.40236 2.95531,1.01936 4.22195,1.8484c0.44787,0.29314 0.74797,0.84482 1.20677,1.11432c0.52052,0.30576 1.10041,0.42516 1.70353,0.46373l-1.39058,-1.94681c-0.3034,-0.41378 -0.48257,-0.92435 -0.48257,-1.47677c0,-1.38071 1.11929,-2.5 2.5,-2.5c0.71796,0 1.36525,0.30265 1.82121,0.78733l2.39095,2.53019c1.04825,0.8213 2.10172,1.63585 3.15492,2.45021c0.14603,-2.74201 0.43679,-5.47646 0.91739,-8.18145zM261.10263,113.09929c-0.46862,-0.35335 -0.91025,-0.74085 -1.33539,-1.14702c0.138,0.44092 0.26218,0.87772 0.39949,1.2276c0.42119,1.07318 0.75974,2.16359 1.09028,3.24684c1.00608,-0.53684 2.20965,-0.82976 3.13873,-1.09818c0.0188,-0.00543 0.03762,-0.01082 0.05647,-0.01617c-1.08556,-0.66163 -2.20815,-1.35239 -3.34958,-2.21307zM272.78648,181.59073c-1.53074,6.53326 -3.97327,12.68779 -4.97647,19.3673c-1.02702,6.83811 -0.16845,14.08987 0.72296,20.86059c1.00969,3.41374 1.96483,9.10269 4.28589,11.99487c1.80056,2.2436 5.11372,3.5239 7.34292,5.33248c1.27158,1.03165 3.38115,3.90147 5.26204,3.96482c10.25977,0.34556 19.56905,-8.09234 20.41371,-18.02272c-0.47638,-5.91027 -3.46031,-11.66239 -5.58536,-17.10774c-1.28235,-3.28598 -2.27742,-6.87595 -2.65107,-10.38215c-0.47037,-4.41365 -0.03291,-9.88235 -2.21177,-13.81935c-1.86974,-3.37844 -4.7782,-5.47809 -7.57864,-7.86213c-3.17865,1.47996 -6.37104,1.80506 -9.72706,-0.32887c-1.06602,-0.68116 -2.17123,-1.09115 -3.29199,-1.40656c-0.7752,2.40026 -1.39922,4.82331 -2.00515,7.40947zM267.4025,122.8441c0.78633,-0.3163 1.65199,-0.50066 2.59292,-0.52412c-0.03165,-0.04493 -0.0629,-0.09021 -0.09373,-0.13586c-0.02156,-0.03193 -0.04293,-0.06397 -0.06409,-0.09612l-0.01783,0.01783l-2.5,-2.5c-0.35949,-0.35949 -0.61001,-0.82797 -0.69775,-1.35162c-0.52876,0.07711 -1.04093,0.18653 -1.52792,0.32798c-0.45394,0.13184 -2.03514,0.50154 -2.81308,0.99916c0.04098,0.1107 0.0827,0.22104 0.12525,0.33101c1.71136,0.89077 3.63072,2.07675 4.99623,2.93175zM292.19156,165.55995c-0.29215,-0.15069 -0.58268,-0.30358 -0.87169,-0.45855c-0.07502,0.05533 -0.15324,0.10656 -0.23434,0.15337c0.46906,0.93434 1.1705,2.28081 1.61397,3.69939c0.24868,-0.12582 0.50405,-0.2325 0.76848,-0.31327c0.2957,-0.09033 2.92568,-0.03578 3.34629,-0.05236c0.31783,-0.01253 0.68298,-0.0454 1.07718,-0.09974c-2.49126,-1.27497 -5.4675,-2.80898 -5.6999,-2.92884zM282.88975,171.88624c-0.46063,0.09515 -0.97654,0.16357 -1.55222,0.20183c-1.80855,0.12021 -3.35934,-1.33143 -4.97599,-2.19077c-0.16971,0.41038 -0.3328,0.81901 -0.48994,1.2266c1.21965,0.34708 2.42833,0.78861 3.60771,1.52684c1.88045,1.22815 3.68738,1.34805 5.46954,0.85827c-0.70049,-0.49646 -1.39592,-1.05438 -2.0591,-1.62277zM261.41076,160.77639c-1.0519,-0.06187 -2.17497,-0.5251 -3.18756,-1.09674c0.02995,0.22941 0.03166,0.50561 -0.04922,0.78135l0.20385,0.58266c0.38108,0.58972 1.31111,2.09459 1.7919,2.56518c1.59897,1.56506 3.9876,1.59024 5.80729,2.64444c1.46134,0.84659 2.55993,2.42563 4.08893,3.12831c0.32223,0.14809 0.64575,0.28011 0.97021,0.39991c0.27824,-0.74021 0.57337,-1.48203 0.88837,-2.22856c-3.64879,-2.04564 -7.14091,-4.30784 -10.51377,-6.77655zM256.5553,137.89788c-0.01819,-0.72416 0.06559,-1.36753 0.3031,-1.84412l-0.51723,-1.1172c-0.15017,-0.3065 -0.23945,-0.64826 -0.25209,-1.0095l-0.35604,-0.23736c-0.33462,-0.21611 -0.61433,-0.50996 -0.81357,-0.856c-0.2097,1.22696 -0.17477,2.53445 -0.22613,3.90124c0.64264,0.34902 1.26242,0.73876 1.86196,1.16295zM300.7637,158.45449c-0.52715,-0.50661 -1.05912,-1.00611 -1.5958,-1.49911c-0.56412,-0.16459 -1.07903,-0.35371 -1.56205,-0.56485c-0.02711,0.05832 -0.0564,0.11543 -0.08777,0.17121c0.354,0.22991 0.70904,0.45766 1.06513,0.68311c0.67974,0.43036 1.42136,0.82182 2.18049,1.20964z" fill-opacity="0.51765" fill="#0d0b40" stroke-width="0.5"/><path d="M305.83673,195.88335c0.44279,-0.39807 1.02851,-0.64028 1.6708,-0.64028c0.11851,0 0.23509,0.00824 0.34921,0.02419l2.18138,0.27267c0.44973,-0.66199 1.20878,-1.09687 2.06941,-1.09687c0.22872,0 0.45026,0.03071 0.66073,0.08824l3.14561,0.78641l-0.0094,0.0376l0.10203,-0.01255c4.38878,1.4807 7.04146,3.00711 10.64559,5.8345c0,0 1.9658,1.54456 0.42124,3.51035c-1.54456,1.9658 -3.51035,0.42124 -3.51035,0.42124c-0.15639,-0.12309 -0.31,-0.24316 -0.46119,-0.36034l-2.1744,-0.33452l0.06279,-0.40815l-0.08066,-0.02689c-0.98579,0.05903 -1.96659,0.0138 -2.92581,-0.19138l-0.88252,-0.21915c0,0 -0.27419,-0.06855 -0.61514,-0.25174c0.57789,0.73468 1.02181,1.53593 1.11385,2.43115c0.35344,3.43768 -3.0899,5.34403 -5.68977,5.86261c-2.72496,0.54352 -5.88022,-0.76926 -8.59322,-0.97465c-3.69162,-0.27948 -7.50422,0.40885 -11.20937,0.40728c-6.06894,-0.00258 -12.11142,-0.4 -18.2,-0.4c0,0 -2.5,0 -2.5,-2.5c0,-0.6145 0.15104,-1.07795 0.37887,-1.42749c-0.24243,-0.73332 -0.47244,-1.51161 -0.5993,-2.28517c-0.33556,-0.36926 -0.57957,-0.90629 -0.57957,-1.68734c0,-1.46431 0.85769,-2.07094 1.56832,-2.32225c1.78917,-1.94074 5.57088,-3.30682 7.65589,-3.88468c7.40993,-2.05365 17.0793,-0.81354 24.58112,1.44225c0.06028,-0.92696 0.62577,-1.71618 1.42386,-2.09504z" fill-opacity="0.51765" fill="#0d0b40" stroke-width="0.5"/><path d="M280.93744,238.94547c0.24725,-0.2286 0.49201,-0.3931 0.73042,-0.50663c-0.00052,-0.47054 0.13162,-0.94654 0.40859,-1.36964c0.30348,-0.46361 0.73473,-0.79325 1.21698,-0.97292c-1.60743,-0.93463 -3.12184,-1.33457 -4.1816,-0.00402c0.21114,1.30486 0.52813,2.50939 1.24517,3.57384c0.13302,-0.23927 0.32161,-0.48133 0.58044,-0.72063zM301.5721,259.87093c-0.75621,1.15521 -2.30572,1.47866 -3.46093,0.72245c-0.07833,-0.05127 -0.15285,-0.1062 -0.22345,-0.1644c-1.23509,0.24002 -2.66296,0.11429 -4.20346,-0.42302c-3.30487,-1.15271 -4.56219,-3.96554 -6.50401,-6.49665c-4.25261,-5.54315 -10.44933,-8.4935 -12.58313,-15.12782c-0.4796,-0.69808 -0.48651,-1.5228 -0.48651,-1.5228l0.03483,-0.24908c-0.02458,-0.12814 -0.04775,-0.25758 -0.06948,-0.38835c0,0 -0.15685,-1.01573 0.38185,-1.84523l0.04892,-0.34974c0.7024,-0.9572 1.10265,-2.23877 2.10721,-2.87159c2.42521,-1.52775 4.78312,-1.02147 7.19858,-0.1599c5.68315,2.02713 8.79776,7.3819 12.7519,11.538c2.0016,3.20648 5.85222,7.64148 5.82137,11.58186c-0.00988,1.26241 -0.24378,2.3629 -0.66354,3.27968c0.37813,0.76736 0.35232,1.709 -0.15014,2.47657z" fill-opacity="0.51765" fill="#0d0b40" stroke-width="0.5"/><path d="M299.86323,227.62498c-0.01551,0.00001 -0.03103,0.00001 -0.04655,0.00001c0,0 -2.5,0 -2.5,-2.5c0,-2.5 2.5,-2.5 2.5,-2.5c5.27146,0 10.07315,-0.50395 15.27549,-0.98989c0.90887,-0.08489 1.89067,-0.03683 2.78419,-0.22083c1.07875,-0.76834 2.11101,-1.63415 3.28248,-2.26113c0.90519,-1.06352 1.56064,-2.28901 2.31027,-3.63836l0.15608,-0.0959l-0.0585,-0.04388l1.48254,-1.97672c0.37066,-0.50554 0.92676,-0.8666 1.5681,-0.983c0.70625,-0.40511 1.67112,-0.65964 3.08809,-0.7878c2.24842,-0.20335 6.4632,2.08456 7.07538,4.32544c0.31796,1.16388 -1.23985,2.10741 -1.53826,3.27645c-0.4832,1.89297 1.36164,4.00801 0.64482,5.82542c-1.33479,3.38422 -7.06881,4.26719 -10.0222,5.0093c-3.0799,0.61331 -5.85767,1.06767 -9.01398,0.51718c-1.56201,-0.27242 -3.07502,-0.88838 -4.65902,-0.95938c-2.4828,-0.11129 -4.8941,0.011 -7.37547,-0.2469l-2.25124,0.23759c0,0 -2.31653,0.23165 -2.70221,-1.98761zM331.85256,216.79709c0.11142,-0.1274 -0.13421,0.08202 -0.37606,0.21459c0.01623,0.01919 0.03217,0.03863 0.04783,0.05831c0.1232,-0.08016 0.2367,-0.16825 0.32823,-0.2729z" fill-opacity="0.51765" fill="#0d0b40" stroke-width="0.5"/><g stroke-width="0"><path d="M64.36669,285.72182v-168.83157h52.35088v168.83158z" fill="#40200b"/><path d="M22.48599,103.97027c0,-37.58637 30.46977,-68.05614 68.05614,-68.05614c37.58637,0 68.05614,30.46978 68.05614,68.05615c0,37.58637 -30.46977,68.05614 -68.05614,68.05614c-37.58637,0 -68.05614,-30.46977 -68.05614,-68.05614z" fill="#0b4022"/><path d="M2.20002,127.52817c0,-24.5757 19.92255,-44.49824 44.49825,-44.49824c24.5757,0 44.49825,19.92255 44.49825,44.49825c0,24.5757 -19.92254,44.49825 -44.49824,44.49825c-24.5757,0 -44.49824,-19.92255 -44.49824,-44.49825z" fill="#0b4022"/><path d="M80.72634,116.89026c0,-29.8161 24.17074,-53.98684 53.98684,-53.98684c29.8161,0 53.98684,24.17074 53.98684,53.98684c0,29.8161 -24.17074,53.98684 -53.98684,53.98684c-29.8161,0 -53.98684,-24.17074 -53.98684,-53.98684z" fill="#0b4022"/></g><g stroke-width="0"><path d="M471.10934,282.72182v-154.6388h47.95002v154.63881z" fill="#40200b"/><path d="M495.08435,178.58419c-34.42669,0 -62.33502,-27.90833 -62.33502,-62.33502c0,-34.42668 27.90834,-62.33503 62.33502,-62.33503c34.42669,0 62.33502,27.90835 62.33502,62.33503c0,34.42668 -27.90834,62.33502 -62.33502,62.33502z" fill="#0b4022"/><path d="M535.24249,178.58419c-22.50975,0 -40.75752,-18.24777 -40.75752,-40.75752c0,-22.50975 18.24776,-40.75751 40.75752,-40.75751c22.50975,0 40.75752,18.24776 40.75752,40.75751c0,22.50975 -18.24776,40.75752 -40.75752,40.75752z" fill="#0b4022"/><path d="M454.62653,177.53148c-27.30962,0 -49.44845,-22.13883 -49.44845,-49.44846c0,-27.30962 22.13883,-49.44846 49.44845,-49.44846c27.30962,0 49.44846,22.13883 49.44846,49.44846c0,27.30963 -22.13884,49.44846 -49.44846,49.44846z" fill="#0b4022"/></g><g stroke-width="0"><path d="M364.09408,289.20556l-23.84024,-144.57624l44.82984,-7.39232l23.84024,144.57624z" fill="#40200b"/><path d="M302.56557,139.47937c-5.30746,-32.18649 16.48228,-62.58135 48.66877,-67.88882c32.18649,-5.30746 62.58135,16.48229 67.88882,48.66878c5.30746,32.18649 -16.48228,62.58135 -48.66877,67.88881c-32.18649,5.30747 -62.58135,-16.48229 -67.88882,-48.66878z" fill="#0b4022"/><path d="M288.52054,162.51733c-3.47026,-21.04501 10.77688,-40.91858 31.82189,-44.38884c21.04501,-3.47026 40.91858,10.77688 44.38884,31.82189c3.47026,21.04501 -10.77688,40.91858 -31.82189,44.38885c-21.04501,3.47027 -40.91858,-10.77688 -44.38884,-31.82189z" fill="#0b4022"/><path d="M354.26316,142.31922c-4.21025,-25.53255 13.07489,-49.64386 38.60744,-53.85411c25.53255,-4.21025 49.64386,13.07489 53.85411,38.60745c4.21025,25.53255 -13.07489,49.64386 -38.60744,53.85411c-25.53255,4.21025 -49.64386,-13.07489 -53.85411,-38.60744z" fill="#0b4022"/></g><path d="M-12.39998,370.90001v-102h613v102z" fill="#0b4022" stroke-width="0"/><path d="M-18.39998,391.90001v-408h617v408z" fill="url(#color-1)" stroke-width="0"/></g></g></svg>