<svg version="1.1" xmlns="http://www.w3.org/2000/svg" xmlns:xlink="http://www.w3.org/1999/xlink" width="757.5" height="579.4" viewBox="0,0,757.5,579.4"><defs><linearGradient x1="237.35001" y1="-22.1" x2="237.35001" y2="333.9" gradientUnits="userSpaceOnUse" id="color-1"><stop offset="0" stop-color="#37393f"/><stop offset="1" stop-color="#0e1b42"/></linearGradient><linearGradient x1="66.25" y1="170.70001" x2="66.25" y2="433.70001" gradientUnits="userSpaceOnUse" id="color-2"><stop offset="0" stop-color="#e5e7f1"/><stop offset="1" stop-color="#cdcdde"/></linearGradient><linearGradient x1="498.25" y1="97.70001" x2="498.25" y2="434.70001" gradientUnits="userSpaceOnUse" id="color-3"><stop offset="0" stop-color="#e5e7f1"/><stop offset="1" stop-color="#cdcdde"/></linearGradient><linearGradient x1="245.25" y1="206.70001" x2="245.25" y2="469.70001" gradientUnits="userSpaceOnUse" id="color-4"><stop offset="0" stop-color="#e5e7f1"/><stop offset="1" stop-color="#cdcdde"/></linearGradient><linearGradient x1="564.5" y1="-42.29999" x2="564.5" y2="162.20001" gradientUnits="userSpaceOnUse" id="color-5"><stop offset="0" stop-color="#e5e7f1"/><stop offset="1" stop-color="#cdcdde"/></linearGradient><linearGradient x1="11.5" y1="26.70001" x2="11.5" y2="231.20001" gradientUnits="userSpaceOnUse" id="color-6"><stop offset="0" stop-color="#e5e7f1"/><stop offset="1" stop-color="#cdcdde"/></linearGradient><linearGradient x1="113.75" y1="-109.69999" x2="113.75" y2="94.80001" gradientUnits="userSpaceOnUse" id="color-7"><stop offset="0" stop-color="#e5e7f1"/><stop offset="1" stop-color="#cdcdde"/></linearGradient><linearGradient x1="237.625" y1="-109.69999" x2="237.625" y2="50.55001" gradientUnits="userSpaceOnUse" id="color-8"><stop offset="0" stop-color="#e5e7f1"/><stop offset="1" stop-color="#cdcdde"/></linearGradient><linearGradient x1="351.625" y1="-87.57499" x2="351.625" y2="72.67501" gradientUnits="userSpaceOnUse" id="color-9"><stop offset="0" stop-color="#e5e7f1"/><stop offset="1" stop-color="#cdcdde"/></linearGradient><linearGradient x1="462.25" y1="-76.57499" x2="462.25" y2="83.67501" gradientUnits="userSpaceOnUse" id="color-10"><stop offset="0" stop-color="#e5e7f1"/><stop offset="1" stop-color="#cdcdde"/></linearGradient><linearGradient x1="11.5" y1="-39.3" x2="11.5" y2="62.95001" gradientUnits="userSpaceOnUse" id="color-11"><stop offset="0" stop-color="#e5e7f1"/><stop offset="1" stop-color="#cdcdde"/></linearGradient></defs><g transform="translate(90.75,109.7)"><g stroke="none" stroke-width="0" stroke-miterlimit="10"><path d="M-26.14999,333.9v-356h527v356z" fill="url(#color-1)"/><g><path d="M-65.25,302.2c0,-72.62544 58.87456,-131.5 131.5,-131.5c72.62544,0 131.5,58.87456 131.5,131.5c0,72.62544 -58.87456,131.5 -131.5,131.5c-72.62544,0 -131.5,-58.87456 -131.5,-131.5z" fill="url(#color-2)"/><path d="M329.75,266.2c0,-93.05998 75.44002,-168.5 168.5,-168.5c93.05998,0 168.5,75.44002 168.5,168.5c0,93.05998 -75.44002,168.5 -168.5,168.5c-93.05998,0 -168.5,-75.44002 -168.5,-168.5z" fill="url(#color-3)"/><path d="M113.75,338.20001c0,-72.62544 58.87456,-131.5 131.5,-131.5c72.62544,0 131.5,58.87456 131.5,131.5c0,72.62544 -58.87456,131.5 -131.5,131.5c-72.62544,0 -131.5,-58.87456 -131.5,-131.5z" fill="url(#color-4)"/><path d="M462.25,59.95001c0,-56.47112 45.77888,-102.25 102.25,-102.25c56.47112,0 102.25,45.77888 102.25,102.25c0,56.47112 -45.77888,102.25 -102.25,102.25c-56.47112,0 -102.25,-45.77888 -102.25,-102.25z" fill="url(#color-5)"/><path d="M-90.75,128.95001c0,-56.47111 45.77889,-102.25 102.25,-102.25c56.47111,0 102.25,45.77889 102.25,102.25c0,56.47112 -45.77889,102.25 -102.25,102.25c-56.47111,0 -102.25,-45.77888 -102.25,-102.25z" fill="url(#color-6)"/><path d="M11.5,-7.44999c0,-56.47111 45.77889,-102.25 102.25,-102.25c56.47111,0 102.25,45.77889 102.25,102.25c0,56.47112 -45.77888,102.25 -102.25,102.25c-56.47111,0 -102.25,-45.77888 -102.25,-102.25z" fill="url(#color-7)"/><path d="M157.5,-29.57499c0,-44.25182 35.87318,-80.125 80.125,-80.125c44.25182,0 80.125,35.87318 80.125,80.125c0,44.25182 -35.87318,80.125 -80.125,80.125c-44.25182,0 -80.125,-35.87318 -80.125,-80.125z" fill="url(#color-8)"/><path d="M271.5,-7.44999c0,-44.25181 35.87319,-80.125 80.125,-80.125c44.25182,0 80.125,35.87318 80.125,80.125c0,44.25182 -35.87318,80.125 -80.125,80.125c-44.25181,0 -80.125,-35.87319 -80.125,-80.125z" fill="url(#color-9)"/><path d="M382.125,3.55001c0,-44.25181 35.87318,-80.125 80.125,-80.125c44.25182,0 80.125,35.87318 80.125,80.125c0,44.25182 -35.87319,80.125 -80.125,80.125c-44.25182,0 -80.125,-35.87319 -80.125,-80.125z" fill="url(#color-10)"/><path d="M-39.625,11.82501c0,-28.23556 22.88944,-51.125 51.125,-51.125c28.23556,0 51.125,22.88945 51.125,51.125c0,28.23556 -22.88944,51.125 -51.125,51.125c-28.23556,0 -51.125,-22.88944 -51.125,-51.125z" fill="url(#color-11)"/></g></g></g></svg>