<svg version="1.1" xmlns="http://www.w3.org/2000/svg" xmlns:xlink="http://www.w3.org/1999/xlink" width="917.78378" height="1374.78679" viewBox="0,0,917.78378,1374.78679"><g transform="translate(207.42101,490.68678)"><g stroke="none" stroke-width="0" stroke-miterlimit="10"><path d="M-207.42101,-31.79489c0,-253.43899 205.4529,-458.89189 458.89189,-458.89189c253.43899,0 458.89189,205.4529 458.89189,458.89189c0,253.43899 -205.4529,458.89189 -458.89189,458.89189c-253.43899,0 -458.89189,-205.4529 -458.89189,-458.89189z" fill="#dbd394"/><path d="M-74.5,521.6c0,-200.20322 162.29678,-362.5 362.5,-362.5c200.20322,0 362.5,162.29678 362.5,362.5c0,200.20322 -162.29678,362.5 -362.5,362.5c-200.20322,0 -362.5,-162.29678 -362.5,-362.5z" fill="#e0d263"/><path d="M179.89189,180c0,-59.70646 48.40165,-108.10811 108.10811,-108.10811c59.70646,0 108.10811,48.40165 108.10811,108.10811c0,59.70646 -48.40165,108.10811 -108.10811,108.10811c-59.70646,0 -108.10811,-48.40165 -108.10811,-108.10811z" fill="#d1c03a"/><path d="M233.94595,180c0,-29.85323 24.20082,-54.05405 54.05405,-54.05405c29.85323,0 54.05405,24.20082 54.05405,54.05405c0,29.85323 -24.20082,54.05405 -54.05405,54.05405c-29.85323,0 -54.05405,-24.20082 -54.05405,-54.05405z" fill="#dbd394"/></g></g></svg>