<svg version="1.1" xmlns="http://www.w3.org/2000/svg" xmlns:xlink="http://www.w3.org/1999/xlink" width="105.19625" height="107.76627" viewBox="0,0,105.19625,107.76627"><g transform="translate(-111.65189,-137.11686)"><g stroke="none" stroke-miterlimit="10"><path d="" fill="#3f5da2" stroke-width="0"/><path d="M111.65189,231.52504c0,-9.80968 0,-62.43632 0,-80.31252c0,-8.32914 3.23043,-14.09565 8.42604,-14.09565c18.97241,0 79.91564,0 89.6882,0c3.65073,0 7.08201,2.71261 7.08201,7.12977c0,16.98377 0,82.11348 0,92.19548c0,4.22333 -3.21222,8.44102 -8.37434,8.44102c-18.55982,0 -78.09216,0 -88.39586,0c-4.24746,0 -8.42604,-7.14076 -8.42604,-13.35811z" fill="#bcb4b4" stroke-width="0"/><g stroke-width="0"><path d="M147.45446,174.5646c0,-9.27594 7.51963,-16.79556 16.79556,-16.79556c9.27594,0 16.79556,7.51963 16.79556,16.79556c0,9.27594 -7.51963,16.79556 -16.79556,16.79556c-9.27594,0 -16.79556,-7.51963 -16.79556,-16.79556z" fill="#55dcdc"/><path d="M155.93377,174.5646c0,-4.59293 3.72332,-8.31624 8.31624,-8.31624c4.59293,0 8.31624,3.72332 8.31624,8.31624c0,4.59293 -3.72332,8.31624 -8.31624,8.31624c-4.59293,0 -8.31624,-3.72332 -8.31624,-8.31624z" fill="#bcb4b4"/><path d="M159.69355,164.4612c0,0 0,-8.20836 0,-10.63408c0,-1.26169 1.1211,-2.87691 1.98007,-2.87691c1.00117,0 3.43956,0 5.12486,0c1.00836,0 1.74711,1.31465 1.74711,2.41101c0,2.35245 0,11.09998 0,11.09998z" fill="#55dcdc"/><path d="M174.16428,170.05267c0,0 8.20836,0 10.63408,0c1.26169,0 2.87691,1.1211 2.87691,1.98007c0,1.00117 0,3.43956 0,5.12486c0,1.00836 -1.31465,1.74711 -2.41102,1.74711c-2.35245,0 -11.09997,0 -11.09997,0z" fill="#55dcdc"/><path d="M168.80648,184.668c0,0 0,8.20836 0,10.63408c0,1.26169 -1.1211,2.87691 -1.98007,2.87691c-1.00117,0 -3.43956,0 -5.12486,0c-1.00836,0 -1.74711,-1.31465 -1.74711,-2.41102c0,-2.35245 0,-11.09997 0,-11.09997z" fill="#55dcdc"/><path d="M154.33575,179.07653c0,0 -8.20836,0 -10.63408,0c-1.26169,0 -2.87691,-1.1211 -2.87691,-1.98007c0,-1.00117 0,-3.43956 0,-5.12486c0,-1.00836 1.31465,-1.74711 2.41102,-1.74711c2.35245,0 11.09997,0 11.09997,0z" fill="#55dcdc"/><path d="M168.17229,164.19851c0,0 5.80419,-5.80419 7.51943,-7.51943c0.89215,-0.89215 2.82702,-1.24156 3.4344,-0.63416c0.70794,0.70794 2.43213,2.43213 3.62383,3.62383c0.71303,0.71303 0.30581,2.16499 -0.46945,2.94025c-1.66343,1.66343 -7.84887,7.84887 -7.84887,7.84887z" fill="#55dcdc"/><path d="M174.45088,178.38464c0,0 5.80419,5.80419 7.51943,7.51943c0.89215,0.89215 1.24154,2.82702 0.63416,3.4344c-0.70794,0.70794 -2.43213,2.43213 -3.62383,3.62383c-0.71303,0.71303 -2.16499,0.30581 -2.94025,-0.46945c-1.66343,-1.66343 -7.84887,-7.84887 -7.84887,-7.84887z" fill="#55dcdc"/><path d="M160.32774,184.93069c0,0 -5.80419,5.80419 -7.51943,7.51943c-0.89215,0.89215 -2.82702,1.24154 -3.4344,0.63416c-0.70794,-0.70794 -2.43213,-2.43213 -3.62383,-3.62383c-0.71303,-0.71303 -0.30581,-2.16499 0.46945,-2.94025c1.66343,-1.66343 7.84887,-7.84887 7.84887,-7.84887z" fill="#55dcdc"/><path d="M154.04915,170.74456c0,0 -5.80419,-5.80419 -7.51943,-7.51943c-0.89215,-0.89215 -1.24154,-2.82702 -0.63416,-3.4344c0.70794,-0.70794 2.43213,-2.43213 3.62383,-3.62383c0.71303,-0.71303 2.16499,-0.30581 2.94025,0.46945c1.66343,1.66343 7.84887,7.84887 7.84887,7.84887z" fill="#55dcdc"/></g><text transform="translate(129.02541,226.26876) scale(0.5,0.5)" font-size="40" xml:space="preserve" fill="#ffffff" stroke-width="1" font-family="&quot;Trebuchet MS&quot;, Sans Serif" font-weight="normal" text-anchor="start"><tspan x="0" dy="0">General</tspan></text><path d="" fill="#3f5da2" stroke-width="0"/><path d="" fill="#3f5da2" stroke-width="0"/><path d="" fill="#3f5da2" stroke-width="0"/><path d="" fill="#3f5da2" stroke-width="0"/><path d="" fill="#3f5da2" stroke-width="0"/></g></g></svg>