<svg version="1.1" xmlns="http://www.w3.org/2000/svg" xmlns:xlink="http://www.w3.org/1999/xlink" width="45.48001" height="24.32143" viewBox="0,0,45.48001,24.32143"><g transform="translate(-415.18571,-326.92143)"><g stroke-miterlimit="10"><path d="M417.18571,342.46905c0,-1.92187 0,-5.44447 0,-8.41595c0,-2.81274 2.19763,-5.13167 4.31061,-5.13167c4.16164,0 -0.57166,0 7.79147,0c3.43049,0 5.74747,3.10875 5.74747,5.33694c0,2.13367 0,6.72241 0,10.26335c0,2.4728 -4.92004,4.72114 -5.13167,4.72114c-7.78472,0 -2.4382,0 -6.9704,0c-2.68883,0 -5.74747,-4.12847 -5.74747,-6.77381z" fill="#ff8d66" stroke="none" stroke-width="0"/><path d="M417.18571,342.46905c0,-1.92187 0,-5.44447 0,-8.41595c0,-2.81274 2.19763,-5.13167 4.31061,-5.13167c4.16164,0 19.14264,0 27.50577,0c3.43049,0 5.74747,3.10875 5.74747,5.33694c0,2.13367 0,6.72241 0,10.26335c0,2.65514 -2.05005,4.72114 -5.13167,4.72114c-7.78472,0 -22.1525,0 -26.6847,0c-2.68883,0 -5.74747,-4.12847 -5.74747,-6.77381z" fill="none" stroke="#ffffff" stroke-width="4"/><path d="M454.74957,341.49223c0,-1.32458 0,-3.75241 0,-5.8004c0,-1.93859 0.34612,-3.53683 0.6789,-3.53683c0.65544,0 3.01489,0 4.33205,0c0.54029,0 0.9052,2.1426 0.9052,3.67831c0,1.47056 0,4.6332 0,7.07366c0,1.82997 -0.32287,3.25389 -0.80822,3.25389c-1.22606,0 -3.48893,0 -4.20273,0c-0.42348,0 -0.9052,-2.84541 -0.9052,-4.66862z" fill="#ffffff" stroke="#ffffff" stroke-width="0"/></g></g></svg>