<svg version="1.1" xmlns="http://www.w3.org/2000/svg" xmlns:xlink="http://www.w3.org/1999/xlink" width="840.84084" height="549.16607" viewBox="0,0,840.84084,549.16607"><g transform="translate(132.42042,104.33122)"><g stroke="none" stroke-miterlimit="10"><path d="M-49.83784,411.23125v-462.46246h675.67568v462.46246z" fill="#281b7e" stroke-width="0"/><g stroke-width="0"><path d="M-80.65087,46.16878c0,-83.11885 67.38115,-150.5 150.5,-150.5c83.11886,0 150.5,67.38115 150.5,150.5c0,83.11886 -67.38114,150.5 -150.5,150.5c-83.11885,0 -150.5,-67.38114 -150.5,-150.5z" fill="#e4e6d9"/><path d="M-29.7234,-24.82103c0,-34.79426 28.20632,-63.00058 63.00058,-63.00058c34.79426,0 63.00058,28.20632 63.00058,63.00058c0,34.79426 -28.20632,63.00058 -63.00058,63.00058c-34.79426,0 -63.00058,-28.20632 -63.00058,-63.00058z" fill="#969889"/><path d="M81.27776,38.17954c0,-34.79426 28.20632,-63.00058 63.00058,-63.00058c34.79426,0 63.00058,28.20632 63.00058,63.00058c0,34.79426 -28.20632,63.00058 -63.00058,63.00058c-34.79425,0 -63.00058,-28.20632 -63.00058,-63.00058z" fill="#969889"/><path d="M-35.32157,110.9c0,-34.79426 28.20633,-63.00057 63.00058,-63.00057c34.79426,0 63.00058,28.20632 63.00058,63.00058c0,34.79426 -28.20632,63.00058 -63.00058,63.00058c-34.79425,0 -63.00058,-28.20632 -63.00058,-63.00058z" fill="#969889"/></g><path d="M-132.42042,444.83485v-169.66967h840.84084v169.66967z" fill="#dcd3c1" stroke-width="0"/><path d="M90.67959,296.9v-186h87v186z" fill="#4f2b13" stroke-width="0"/><path d="M20.51256,139.77004c-9.15427,-33.56811 10.63705,-68.20143 44.20516,-77.3557c33.56811,-9.15427 68.20143,10.63705 77.3557,44.20516c9.15427,33.5681 -10.63704,68.20143 -44.20515,77.3557c-33.56811,9.15427 -68.20143,-10.63705 -77.3557,-44.20515z" fill="#ded5c7" stroke-width="0"/><path d="M72.0845,89.42787c-9.15427,-33.56811 10.63705,-68.20143 44.20515,-77.3557c33.5681,-9.15427 68.20143,10.63704 77.3557,44.20515c9.15427,33.56811 -10.63704,68.20143 -44.20515,77.3557c-33.56811,9.15427 -68.20143,-10.63705 -77.3557,-44.20515z" fill="#ded5c7" stroke-width="0"/><path d="M126.28576,139.94741c-9.15427,-33.56811 10.63705,-68.20143 44.20516,-77.3557c33.56811,-9.15427 68.20143,10.63705 77.3557,44.20515c9.15427,33.56811 -10.63705,68.20143 -44.20515,77.3557c-33.56811,9.15427 -68.20143,-10.63705 -77.3557,-44.20516z" fill="#ded5c7" stroke-width="0"/><path d="M393.67959,323.53162v-186h87v186z" fill="#4f2b13" stroke-width="0"/><path d="M243.66378,323.53162v-186h87v186z" fill="#4f2b13" stroke-width="0"/><path d="M178.78812,135.76507c6.46508,-34.18803 39.42093,-56.66191 73.60896,-50.19683c34.18803,6.46508 56.66191,39.42093 50.19683,73.60895c-6.46508,34.18803 -39.42093,56.66191 -73.60895,50.19683c-34.18803,-6.46508 -56.66192,-39.42093 -50.19684,-73.60896z" fill="#e9dfce" stroke-width="0"/><path d="M235.06569,74.97249c6.46508,-34.18803 39.42093,-56.66192 73.60895,-50.19684c34.18802,6.46508 56.66191,39.42093 50.19683,73.60896c-6.46508,34.18803 -39.42093,56.66191 -73.60895,50.19683c-34.18803,-6.46508 -56.66191,-39.42093 -50.19683,-73.60895z" fill="#e9dfce" stroke-width="0"/><path d="M272.25291,142.54374c6.46508,-34.18803 39.42094,-56.6619 73.60896,-50.19682c34.18802,6.46508 56.6619,39.42093 50.19682,73.60896c-6.46508,34.18803 -39.42093,56.66191 -73.60896,50.19683c-34.18802,-6.46508 -56.66191,-39.42093 -50.19683,-73.60896z" fill="#e9dfce" stroke-width="0"/><path d="M330.69384,158.19176c-1.06438,-34.77766 26.26563,-63.83337 61.04328,-64.89775c34.77766,-1.06438 63.83337,26.26563 64.89775,61.04328c1.06438,34.77766 -26.26562,63.83337 -61.04328,64.89775c-34.77766,1.06438 -63.83337,-26.26563 -64.89775,-61.04328z" fill="#f1e8d6" stroke-width="0"/><path d="M372.52766,86.68768c-1.06438,-34.77766 26.26562,-63.83337 61.04328,-64.89775c34.77766,-1.06438 63.83337,26.26562 64.89775,61.04328c1.06438,34.77766 -26.26562,63.83337 -61.04328,64.89775c-34.77766,1.06438 -63.83337,-26.26562 -64.89775,-61.04328z" fill="#f1e8d6" stroke-width="0"/><path d="M423.41946,144.64272c-1.06438,-34.77766 26.26563,-63.83337 61.04328,-64.89775c34.77766,-1.06438 63.83337,26.26563 64.89775,61.04328c1.06438,34.77766 -26.26563,63.83337 -61.04328,64.89775c-34.77766,1.06438 -63.83337,-26.26563 -64.89775,-61.04328z" fill="#f1e8d6" stroke-width="0"/><g fill="#ded3c0" stroke-width="0"><path d="M335.1945,-6.94086c0,-34.50261 27.96989,-62.4725 62.4725,-62.4725c34.50261,0 62.4725,27.96989 62.4725,62.4725c0,34.50261 -27.96989,62.4725 -62.4725,62.4725c-34.50261,0 -62.4725,-27.96989 -62.4725,-62.4725z"/><path d="M386.6958,4.20224c0,-26.79178 21.71903,-48.51081 48.51081,-48.51081c26.79178,0 48.51081,21.71903 48.51081,48.51081c0,26.79178 -21.71903,48.51082 -48.51081,48.51082c-26.79178,0 -48.51081,-21.71903 -48.51081,-48.51081z"/><path d="M428.27017,-15.05272c0,-30.62267 24.82458,-55.44726 55.44726,-55.44726c30.62268,0 55.44725,24.82459 55.44725,55.44726c0,30.62268 -24.82458,55.44726 -55.44725,55.44726c-30.62268,0 -55.44726,-24.82458 -55.44726,-55.44726z"/></g><g fill="#ded3c0" stroke-width="0"><path d="M110.13481,28.76589c0,-34.50261 27.96989,-62.4725 62.4725,-62.4725c34.50261,0 62.4725,27.96989 62.4725,62.4725c0,34.50261 -27.96989,62.4725 -62.4725,62.4725c-34.50261,0 -62.4725,-27.96989 -62.4725,-62.4725z"/><path d="M161.63611,39.90899c0,-26.79178 21.71904,-48.51081 48.51082,-48.51081c26.79178,0 48.51081,21.71903 48.51081,48.51081c0,26.79178 -21.71903,48.51081 -48.51081,48.51081c-26.79178,0 -48.51082,-21.71903 -48.51082,-48.51081z"/><path d="M203.21048,20.65403c0,-30.62267 24.82458,-55.44726 55.44726,-55.44726c30.62268,0 55.44725,24.82459 55.44725,55.44726c0,30.62268 -24.82458,55.44726 -55.44725,55.44726c-30.62268,0 -55.44726,-24.82458 -55.44726,-55.44726z"/></g><g fill="#ded3c0" stroke-width="0"><path d="M-112.86519,-2.29352c0,-34.50261 27.96989,-62.4725 62.4725,-62.4725c34.50261,0 62.4725,27.96989 62.4725,62.4725c0,34.50261 -27.96989,62.4725 -62.4725,62.4725c-34.50261,0 -62.4725,-27.96989 -62.4725,-62.4725z"/><path d="M-61.36389,8.84958c0,-26.79178 21.71904,-48.51081 48.51081,-48.51081c26.79178,0 48.51081,21.71903 48.51081,48.51081c0,26.79178 -21.71903,48.51081 -48.51081,48.51081c-26.79178,0 -48.51081,-21.71903 -48.51081,-48.51081z"/><path d="M-19.78952,-10.40539c0,-30.62267 24.82458,-55.44726 55.44726,-55.44726c30.62268,0 55.44726,24.82458 55.44726,55.44726c0,30.62268 -24.82458,55.44726 -55.44726,55.44726c-30.62267,0 -55.44726,-24.82458 -55.44726,-55.44726z"/></g><path d="M-51.82041,77.89999c0,-1.38071 1.11929,-2.5 2.5,-2.5c1.38071,0 2.5,1.11929 2.5,2.5c0,1.38071 -1.11929,2.5 -2.5,2.5c-1.38071,0 -2.5,-1.11929 -2.5,-2.5z" fill="#ffffff" stroke-width="0.5"/><path d="M-26.82041,77.89999c0,-1.38071 1.11929,-2.5 2.5,-2.5c1.38071,0 2.5,1.11929 2.5,2.5c0,1.38071 -1.11929,2.5 -2.5,2.5c-1.38071,0 -2.5,-1.11929 -2.5,-2.5z" fill="#ffffff" stroke-width="0.5"/><path d="M17.17959,65.89999c0,-1.38071 1.11929,-2.5 2.5,-2.5c1.38071,0 2.5,1.11929 2.5,2.5c0,1.38071 -1.11929,2.5 -2.5,2.5c-1.38071,0 -2.5,-1.11929 -2.5,-2.5z" fill="#ffffff" stroke-width="0.5"/><path d="M36.17959,60.89999c0,-1.38071 1.11929,-2.5 2.5,-2.5c1.38071,0 2.5,1.11929 2.5,2.5c0,1.38071 -1.11929,2.5 -2.5,2.5c-1.38071,0 -2.5,-1.11929 -2.5,-2.5z" fill="#ffffff" stroke-width="0.5"/><path d="M111.17959,73.89999c0,-1.38071 1.11929,-2.5 2.5,-2.5c1.38071,0 2.5,1.11929 2.5,2.5c0,1.38071 -1.11929,2.5 -2.5,2.5c-1.38071,0 -2.5,-1.11929 -2.5,-2.5z" fill="#ffffff" stroke-width="0.5"/><path d="M140.17959,81.89999c0,-1.38071 1.11929,-2.5 2.5,-2.5c1.38071,0 2.5,1.11929 2.5,2.5c0,1.38071 -1.11929,2.5 -2.5,2.5c-1.38071,0 -2.5,-1.11929 -2.5,-2.5z" fill="#ffffff" stroke-width="0.5"/><path d="M200.17959,81.89999c0,-1.38071 1.11929,-2.5 2.5,-2.5c1.38071,0 2.5,1.11929 2.5,2.5c0,1.38071 -1.11929,2.5 -2.5,2.5c-1.38071,0 -2.5,-1.11929 -2.5,-2.5z" fill="#ffffff" stroke-width="0.5"/><path d="M273.17959,89.89999c0,-1.38071 1.11929,-2.5 2.5,-2.5c1.38071,0 2.5,1.11929 2.5,2.5c0,1.38071 -1.11929,2.5 -2.5,2.5c-1.38071,0 -2.5,-1.11929 -2.5,-2.5z" fill="#ffffff" stroke-width="0.5"/><path d="M341.17959,74.89999c0,-1.38071 1.11929,-2.5 2.5,-2.5c1.38071,0 2.5,1.11929 2.5,2.5c0,1.38071 -1.11929,2.5 -2.5,2.5c-1.38071,0 -2.5,-1.11929 -2.5,-2.5z" fill="#ffffff" stroke-width="0.5"/><path d="M406.17959,63.89999c0,-1.38071 1.11929,-2.5 2.5,-2.5c1.38071,0 2.5,1.11929 2.5,2.5c0,1.38071 -1.11929,2.5 -2.5,2.5c-1.38071,0 -2.5,-1.11929 -2.5,-2.5z" fill="#ffffff" stroke-width="0.5"/><path d="M445.17959,69.89999c0,-1.38071 1.11929,-2.5 2.5,-2.5c1.38071,0 2.5,1.11929 2.5,2.5c0,1.38071 -1.11929,2.5 -2.5,2.5c-1.38071,0 -2.5,-1.11929 -2.5,-2.5z" fill="#ffffff" stroke-width="0.5"/><path d="M452.17959,81.89999c0,-1.38071 1.11929,-2.5 2.5,-2.5c1.38071,0 2.5,1.11929 2.5,2.5c0,1.38071 -1.11929,2.5 -2.5,2.5c-1.38071,0 -2.5,-1.11929 -2.5,-2.5z" fill="#ffffff" stroke-width="0.5"/><path d="M424.17959,112.89999c0,-1.38071 1.11929,-2.5 2.5,-2.5c1.38071,0 2.5,1.11929 2.5,2.5c0,1.38071 -1.11929,2.5 -2.5,2.5c-1.38071,0 -2.5,-1.11929 -2.5,-2.5z" fill="#ffffff" stroke-width="0.5"/><path d="M371.17959,112.89999c0,-1.38071 1.11929,-2.5 2.5,-2.5c1.38071,0 2.5,1.11929 2.5,2.5c0,1.38071 -1.11929,2.5 -2.5,2.5c-1.38071,0 -2.5,-1.11929 -2.5,-2.5z" fill="#ffffff" stroke-width="0.5"/><path d="M273.17959,145.89999c0,-1.38071 1.11929,-2.5 2.5,-2.5c1.38071,0 2.5,1.11929 2.5,2.5c0,1.38071 -1.11929,2.5 -2.5,2.5c-1.38071,0 -2.5,-1.11929 -2.5,-2.5z" fill="#ffffff" stroke-width="0.5"/><path d="M193.17959,140.89999c0,-1.38071 1.11929,-2.5 2.5,-2.5c1.38071,0 2.5,1.11929 2.5,2.5c0,1.38071 -1.11929,2.5 -2.5,2.5c-1.38071,0 -2.5,-1.11929 -2.5,-2.5z" fill="#ffffff" stroke-width="0.5"/><path d="M92.17959,117.89999c0,-1.38071 1.11929,-2.5 2.5,-2.5c1.38071,0 2.5,1.11929 2.5,2.5c0,1.38071 -1.11929,2.5 -2.5,2.5c-1.38071,0 -2.5,-1.11929 -2.5,-2.5z" fill="#ffffff" stroke-width="0.5"/><path d="M17.17959,105.89999c0,-1.38071 1.11929,-2.5 2.5,-2.5c1.38071,0 2.5,1.11929 2.5,2.5c0,1.38071 -1.11929,2.5 -2.5,2.5c-1.38071,0 -2.5,-1.11929 -2.5,-2.5z" fill="#ffffff" stroke-width="0.5"/><path d="M-44.82041,118.89999c0,-1.38071 1.11929,-2.5 2.5,-2.5c1.38071,0 2.5,1.11929 2.5,2.5c0,1.38071 -1.11929,2.5 -2.5,2.5c-1.38071,0 -2.5,-1.11929 -2.5,-2.5z" fill="#ffffff" stroke-width="0.5"/><path d="M-70.82041,126.89999c0,-1.38071 1.11929,-2.5 2.5,-2.5c1.38071,0 2.5,1.11929 2.5,2.5c0,1.38071 -1.11929,2.5 -2.5,2.5c-1.38071,0 -2.5,-1.11929 -2.5,-2.5z" fill="#ffffff" stroke-width="0.5"/><path d="M-39.82041,172.89999c0,-1.38071 1.11929,-2.5 2.5,-2.5c1.38071,0 2.5,1.11929 2.5,2.5c0,1.38071 -1.11929,2.5 -2.5,2.5c-1.38071,0 -2.5,-1.11929 -2.5,-2.5z" fill="#ffffff" stroke-width="0.5"/><path d="M74.17959,175.89999c0,-1.38071 1.11929,-2.5 2.5,-2.5c1.38071,0 2.5,1.11929 2.5,2.5c0,1.38071 -1.11929,2.5 -2.5,2.5c-1.38071,0 -2.5,-1.11929 -2.5,-2.5z" fill="#ffffff" stroke-width="0.5"/><path d="M189.17959,180.89999c0,-1.38071 1.11929,-2.5 2.5,-2.5c1.38071,0 2.5,1.11929 2.5,2.5c0,1.38071 -1.11929,2.5 -2.5,2.5c-1.38071,0 -2.5,-1.11929 -2.5,-2.5z" fill="#ffffff" stroke-width="0.5"/><path d="M264.17959,192.89999c0,-1.38071 1.11929,-2.5 2.5,-2.5c1.38071,0 2.5,1.11929 2.5,2.5c0,1.38071 -1.11929,2.5 -2.5,2.5c-1.38071,0 -2.5,-1.11929 -2.5,-2.5z" fill="#ffffff" stroke-width="0.5"/><path d="M385.17959,164.89999c0,-1.38071 1.11929,-2.5 2.5,-2.5c1.38071,0 2.5,1.11929 2.5,2.5c0,1.38071 -1.11929,2.5 -2.5,2.5c-1.38071,0 -2.5,-1.11929 -2.5,-2.5z" fill="#ffffff" stroke-width="0.5"/><path d="M449.17959,147.89999c0,-1.38071 1.11929,-2.5 2.5,-2.5c1.38071,0 2.5,1.11929 2.5,2.5c0,1.38071 -1.11929,2.5 -2.5,2.5c-1.38071,0 -2.5,-1.11929 -2.5,-2.5z" fill="#ffffff" stroke-width="0.5"/><path d="M362.17959,138.89999c0,-1.38071 1.11929,-2.5 2.5,-2.5c1.38071,0 2.5,1.11929 2.5,2.5c0,1.38071 -1.11929,2.5 -2.5,2.5c-1.38071,0 -2.5,-1.11929 -2.5,-2.5z" fill="#ffffff" stroke-width="0.5"/><path d="M320.17959,145.89999c0,-1.38071 1.11929,-2.5 2.5,-2.5c1.38071,0 2.5,1.11929 2.5,2.5c0,1.38071 -1.11929,2.5 -2.5,2.5c-1.38071,0 -2.5,-1.11929 -2.5,-2.5z" fill="#ffffff" stroke-width="0.5"/><path d="M241.17959,165.89999c0,-1.38071 1.11929,-2.5 2.5,-2.5c1.38071,0 2.5,1.11929 2.5,2.5c0,1.38071 -1.11929,2.5 -2.5,2.5c-1.38071,0 -2.5,-1.11929 -2.5,-2.5z" fill="#ffffff" stroke-width="0.5"/><path d="M168.17959,159.89999c0,-1.38071 1.11929,-2.5 2.5,-2.5c1.38071,0 2.5,1.11929 2.5,2.5c0,1.38071 -1.11929,2.5 -2.5,2.5c-1.38071,0 -2.5,-1.11929 -2.5,-2.5z" fill="#ffffff" stroke-width="0.5"/><path d="M144.17959,120.89999c0,-1.38071 1.11929,-2.5 2.5,-2.5c1.38071,0 2.5,1.11929 2.5,2.5c0,1.38071 -1.11929,2.5 -2.5,2.5c-1.38071,0 -2.5,-1.11929 -2.5,-2.5z" fill="#ffffff" stroke-width="0.5"/><path d="M56.17959,157.89999c0,-1.38071 1.11929,-2.5 2.5,-2.5c1.38071,0 2.5,1.11929 2.5,2.5c0,1.38071 -1.11929,2.5 -2.5,2.5c-1.38071,0 -2.5,-1.11929 -2.5,-2.5z" fill="#ffffff" stroke-width="0.5"/><path d="M2.17959,131.89999c0,-1.38071 1.11929,-2.5 2.5,-2.5c1.38071,0 2.5,1.11929 2.5,2.5c0,1.38071 -1.11929,2.5 -2.5,2.5c-1.38071,0 -2.5,-1.11929 -2.5,-2.5z" fill="#ffffff" stroke-width="0.5"/><path d="M-7.82041,158.89999c0,-1.38071 1.11929,-2.5 2.5,-2.5c1.38071,0 2.5,1.11929 2.5,2.5c0,1.38071 -1.11929,2.5 -2.5,2.5c-1.38071,0 -2.5,-1.11929 -2.5,-2.5z" fill="#ffffff" stroke-width="0.5"/><path d="M-31.82041,223.89999c0,-1.38071 1.11929,-2.5 2.5,-2.5c1.38071,0 2.5,1.11929 2.5,2.5c0,1.38071 -1.11929,2.5 -2.5,2.5c-1.38071,0 -2.5,-1.11929 -2.5,-2.5z" fill="#ffffff" stroke-width="0.5"/><path d="M95.17959,187.89999c0,-1.38071 1.11929,-2.5 2.5,-2.5c1.38071,0 2.5,1.11929 2.5,2.5c0,1.38071 -1.11929,2.5 -2.5,2.5c-1.38071,0 -2.5,-1.11929 -2.5,-2.5z" fill="#ffffff" stroke-width="0.5"/><path d="M148.17959,193.89999c0,-1.38071 1.11929,-2.5 2.5,-2.5c1.38071,0 2.5,1.11929 2.5,2.5c0,1.38071 -1.11929,2.5 -2.5,2.5c-1.38071,0 -2.5,-1.11929 -2.5,-2.5z" fill="#ffffff" stroke-width="0.5"/><path d="M300.17959,237.89999c0,-1.38071 1.11929,-2.5 2.5,-2.5c1.38071,0 2.5,1.11929 2.5,2.5c0,1.38071 -1.11929,2.5 -2.5,2.5c-1.38071,0 -2.5,-1.11929 -2.5,-2.5z" fill="#ffffff" stroke-width="0.5"/><path d="M406.17959,229.89999c0,-1.38071 1.11929,-2.5 2.5,-2.5c1.38071,0 2.5,1.11929 2.5,2.5c0,1.38071 -1.11929,2.5 -2.5,2.5c-1.38071,0 -2.5,-1.11929 -2.5,-2.5z" fill="#ffffff" stroke-width="0.5"/><path d="M401.17959,209.89999c0,-1.38071 1.11929,-2.5 2.5,-2.5c1.38071,0 2.5,1.11929 2.5,2.5c0,1.38071 -1.11929,2.5 -2.5,2.5c-1.38071,0 -2.5,-1.11929 -2.5,-2.5z" fill="#ffffff" stroke-width="0.5"/><path d="M268.17959,261.89999c0,-1.38071 1.11929,-2.5 2.5,-2.5c1.38071,0 2.5,1.11929 2.5,2.5c0,1.38071 -1.11929,2.5 -2.5,2.5c-1.38071,0 -2.5,-1.11929 -2.5,-2.5z" fill="#ffffff" stroke-width="0.5"/><path d="M14.17959,249.89999c0,-1.38071 1.11929,-2.5 2.5,-2.5c1.38071,0 2.5,1.11929 2.5,2.5c0,1.38071 -1.11929,2.5 -2.5,2.5c-1.38071,0 -2.5,-1.11929 -2.5,-2.5z" fill="#ffffff" stroke-width="0.5"/><path d="M49.17959,259.89999c0,-1.38071 1.11929,-2.5 2.5,-2.5c1.38071,0 2.5,1.11929 2.5,2.5c0,1.38071 -1.11929,2.5 -2.5,2.5c-1.38071,0 -2.5,-1.11929 -2.5,-2.5z" fill="#ffffff" stroke-width="0.5"/><path d="M115.67959,257.39999c1.38071,0 2.5,1.11929 2.5,2.5c0,1.38071 -1.11929,2.5 -2.5,2.5c-0.35555,0 -0.69377,-0.07422 -1,-0.20802c-0.30623,0.1338 -0.64445,0.20802 -1,0.20802c-1.38071,0 -2.5,-1.11929 -2.5,-2.5c0,-1.38071 1.11929,-2.5 2.5,-2.5c0.35555,0 0.69377,0.07422 1,0.20802c0.30623,-0.1338 0.64445,-0.20802 1,-0.20802z" fill="#ffffff" stroke-width="0.5"/><path d="M191.17959,285.89999c0,-1.38071 1.11929,-2.5 2.5,-2.5c1.38071,0 2.5,1.11929 2.5,2.5c0,1.38071 -1.11929,2.5 -2.5,2.5c-1.38071,0 -2.5,-1.11929 -2.5,-2.5z" fill="#ffffff" stroke-width="0.5"/><path d="M247.17959,293.89999c0,-1.38071 1.11929,-2.5 2.5,-2.5c1.38071,0 2.5,1.11929 2.5,2.5c0,1.38071 -1.11929,2.5 -2.5,2.5c-1.38071,0 -2.5,-1.11929 -2.5,-2.5z" fill="#ffffff" stroke-width="0.5"/><path d="M307.17959,293.89999c0,-1.38071 1.11929,-2.5 2.5,-2.5c1.38071,0 2.5,1.11929 2.5,2.5c0,1.38071 -1.11929,2.5 -2.5,2.5c-1.38071,0 -2.5,-1.11929 -2.5,-2.5z" fill="#ffffff" stroke-width="0.5"/><path d="M360.17959,293.89999c0,-1.38071 1.11929,-2.5 2.5,-2.5c1.38071,0 2.5,1.11929 2.5,2.5c0,1.38071 -1.11929,2.5 -2.5,2.5c-1.38071,0 -2.5,-1.11929 -2.5,-2.5z" fill="#ffffff" stroke-width="0.5"/><path d="M424.17959,303.89999c0,-1.38071 1.11929,-2.5 2.5,-2.5c1.38071,0 2.5,1.11929 2.5,2.5c0,1.38071 -1.11929,2.5 -2.5,2.5c-1.38071,0 -2.5,-1.11929 -2.5,-2.5z" fill="#ffffff" stroke-width="0.5"/><path d="M459.17959,278.89999c0,-1.38071 1.11929,-2.5 2.5,-2.5c1.38071,0 2.5,1.11929 2.5,2.5c0,1.38071 -1.11929,2.5 -2.5,2.5c-1.38071,0 -2.5,-1.11929 -2.5,-2.5z" fill="#ffffff" stroke-width="0.5"/></g></g></svg>