<svg version="1.1" xmlns="http://www.w3.org/2000/svg" xmlns:xlink="http://www.w3.org/1999/xlink" width="166.69625" height="42.88313" viewBox="0,0,166.69625,42.88313"><g transform="translate(-115.49261,-112.05846)"><g stroke="none" stroke-miterlimit="10"><path d="M115.49261,149.62605c0,-3.90354 0,-24.84511 0,-31.95854c0,-3.31439 5.11901,-5.60904 13.35208,-5.60904c30.06409,0 126.63605,0 142.12186,0c5.78503,0 11.22231,1.07942 11.22231,2.83713c0,6.7583 0,32.67519 0,36.68709c0,1.68058 -5.09015,3.35891 -13.27016,3.35891c-29.41029,0 -123.74652,0 -140.07399,0c-6.73062,0 -13.35208,-2.8415 -13.35208,-5.31556z" fill="#bcb4b4" stroke-width="0"/><text transform="translate(143.37198,139.5) scale(0.5,0.5)" font-size="40" xml:space="preserve" fill="#ffffff" stroke-width="1" font-family="&quot;Trebuchet MS&quot;, Sans Serif" font-weight="normal" text-anchor="start"><tspan x="0" dy="0">Export .fvhd</tspan></text><path d="M115.49261,149.62605c0,-3.90354 0,-24.84511 0,-31.95854c0,-3.31439 5.11901,-5.60904 13.35208,-5.60904c30.06409,0 126.63605,0 142.12186,0c5.78503,0 11.22231,1.07942 11.22231,2.83713c0,6.7583 0,32.67519 0,36.68709c0,1.68058 -5.09015,3.35891 -13.27016,3.35891c-29.41029,0 -123.74652,0 -140.07399,0c-6.73062,0 -13.35208,-2.8415 -13.35208,-5.31556z" fill="#bcb4b4" stroke-width="0"/><text transform="translate(118.84562,139.50003) scale(0.5,0.5)" font-size="40" xml:space="preserve" fill="#ffffff" stroke-width="1" font-family="&quot;Trebuchet MS&quot;, Sans Serif" font-weight="normal" text-anchor="start"><tspan x="0" dy="0">Change Username</tspan></text></g></g></svg>