<svg version="1.1" xmlns="http://www.w3.org/2000/svg" xmlns:xlink="http://www.w3.org/1999/xlink" width="114" height="43" viewBox="0,0,114,43"><g transform="translate(-231,-180.66667)"><g stroke="none" stroke-miterlimit="10"><path d="M231,211.94437c0,-3.90601 0,-11.56979 0,-18.33333c0,-6.94706 2.72869,-12.94437 5.93334,-12.94437c10.96994,0 73.86766,0 98.33333,0c6.03647,0 9.73333,5.00191 9.73333,8.94437c0,4.68686 0,16.3037 0,24.66667c0,5.36372 -3.98922,9.38896 -10.39999,9.38896c-22.56342,0 -75.12425,0 -89.33333,0c-6.90103,0 -14.26667,-6.87495 -14.26667,-11.7223z" fill="#625c5c" stroke-width="none"/><text transform="translate(272.01985,209.63059) scale(0.5,0.5)" font-size="40" xml:space="preserve" fill="#ffffff" stroke-width="1" font-family="&quot;Trebuchet MS&quot;, Sans Serif" font-weight="normal" text-anchor="start"><tspan x="0" dy="0">Log In</tspan></text><g stroke-width="0"><path d="M251.45107,196.71177c0,-4.29555 3.48223,-7.77778 7.77778,-7.77778c4.29555,0 7.77778,3.48223 7.77778,7.77778c0,4.29555 -3.48223,7.77778 -7.77778,7.77778c-4.29555,0 -7.77778,-3.48223 -7.77778,-7.77778z" fill="#ffffff"/><path d="M257.27935,198.82288c0,-3.43644 2.78579,-6.22222 6.22222,-6.22222c3.43644,0 6.22222,2.78578 6.22222,6.22222c0,3.43644 -2.78579,6.22222 -6.22222,6.22222c-3.43644,0 -6.22222,-2.78578 -6.22222,-6.22222z" fill="#625c5c"/><path d="M253.00662,196.71177c0,-3.43644 2.78578,-6.22222 6.22222,-6.22222c3.43644,0 6.22222,2.78578 6.22222,6.22222c0,3.43644 -2.78578,6.22222 -6.22222,6.22222c-3.43644,0 -6.22222,-2.78578 -6.22222,-6.22222z" fill="#625c5c"/><path d="M250.56218,210.82288c0,-3.9032 0,-10.4822 0,-12.66667c0,-1.39121 1.02044,-3 2,-3c1.92042,0 8.80842,0 12.66667,0c1.59089,0 2.66667,0.72816 2.66667,1.5c0,1.76721 0,9.00567 0,13.5c0,2.14622 -1.11842,3.66667 -2.16667,3.66667c-2.04484,0 -9.31922,0 -13,0c-1.31142,0 -2.16667,-1.22256 -2.16667,-3z" fill="#ffffff"/><g><path d="M256.33996,207.48955c0,-1.47276 1.19391,-2.66667 2.66667,-2.66667c1.47276,0 2.66667,1.19391 2.66667,2.66667c0,1.47276 -1.19391,2.66667 -2.66667,2.66667c-1.47276,0 -2.66667,-1.19391 -2.66667,-2.66667z" fill="#625c5c"/><path d="M257.56218,206.60066v-7.77778h3.22222v7.77778z" fill="#625c5c"/><path d="M259.45107,200.71177v-1.88889h2.66667v1.88889z" fill="#625c5c"/><path d="M259.45107,203.0451v-1.88889h2.66666v1.88889z" fill="#625c5c"/></g></g></g></g></svg>