<svg version="1.1" xmlns="http://www.w3.org/2000/svg" xmlns:xlink="http://www.w3.org/1999/xlink" width="109.34762" height="96.39344" viewBox="0,0,109.34762,96.39344"><defs><radialGradient cx="271.08333" cy="188.1698" r="37.91667" gradientUnits="userSpaceOnUse" id="color-1"><stop offset="0" stop-color="#ffe766"/><stop offset="1" stop-color="#ffe766" stop-opacity="0"/></radialGradient></defs><g transform="translate(-233.16666,-121.45343)"><g stroke-miterlimit="10"><g><path d="M253.92461,215.14391l6.88101,-17.06492l3.70977,1.49587l-6.88101,17.06493z" fill="#000000" stroke="none" stroke-width="0"/><path d="M290.1246,163.38371c0,-11.96617 9.7005,-21.66667 21.66667,-21.66667c11.96617,0 21.66667,9.7005 21.66667,21.66667c0,11.96617 -9.7005,21.66667 -21.66667,21.66667c-11.96617,0 -21.66667,-9.7005 -21.66667,-21.66667z" fill="#000000" stroke="none" stroke-width="0"/><path d="M311.79127,181.13371c0,9.80305 -7.98426,17.75 -17.83333,17.75c-9.84908,0 -17.83333,-7.94695 -17.83333,-17.75c0,-9.80305 7.98426,-17.75 17.83333,-17.75c9.84908,0 17.83333,7.94695 17.83333,17.75z" fill="#e37156" stroke="none" stroke-width="0"/><path d="M251.22645,159.56093c-3.47866,5.25881 1.04508,14.37976 10.10406,20.37219c9.05898,5.99244 19.22274,6.58715 22.7014,1.32833c3.47866,-5.25881 -1.04508,-14.37975 -10.10406,-20.37219c-9.05898,-5.99243 -19.22274,-6.58715 -22.7014,-1.32834z" fill="#000000" stroke="#e37156" stroke-width="3"/><path d="M265.02461,215.54627l6.88101,-17.06492l3.70977,1.49587l-6.88101,17.06493z" fill="#000000" stroke="none" stroke-width="0"/><path d="M233.16666,188.1698c0,-13.44814 16.97586,-24.35 37.91667,-24.35c20.94081,0 37.91667,10.90186 37.91667,24.35c0,13.44814 -16.97586,24.35 -37.91667,24.35c-20.94081,0 -37.91667,-10.90186 -37.91667,-24.35z" fill="url(#color-1)" stroke="none" stroke-width="0"/><path d="M240.57569,188.1698c0,-10.82031 13.65876,-19.59194 30.50764,-19.59194c16.84888,0 30.50764,8.77163 30.50764,19.59194c0,10.82031 -13.65876,19.59194 -30.50764,19.59194c-16.84888,0 -30.50764,-8.77163 -30.50764,-19.59194z" fill="#ffe766" stroke="none" stroke-width="0"/><path d="M309,187.99194c0,10.82033 -7.35941,19.59194 -16.4377,19.59194c-9.07829,0 -9.07829,-39.18388 0,-39.18388c9.07829,0 16.4377,8.77161 16.4377,19.59194z" fill="#000000" stroke="none" stroke-width="0"/><path d="M283.00562,217.44451l-6.88101,-17.06493l3.70977,-1.49587l6.88101,17.06492z" fill="#000000" stroke="none" stroke-width="0"/><path d="M268.8017,157.7276c-3.47866,5.25881 1.04508,14.37975 10.10406,20.37219c9.05898,5.99243 19.22274,6.58715 22.7014,1.32834c3.47866,-5.25881 -1.04508,-14.37975 -10.10406,-20.37219c-9.05898,-5.99243 -19.22274,-6.58715 -22.7014,-1.32834z" fill="#000000" stroke="#e37156" stroke-width="3"/><path d="M322.50918,161.7843l13.11365,-28.73134l3.91377,2.71014l-13.11365,28.73135z" fill="#000000" stroke="none" stroke-width="0"/><path d="M307.78246,154.04192l13.11365,-28.73135l3.91377,2.71014l-13.11365,28.73135z" fill="#000000" stroke="none" stroke-width="0"/><path d="M294.10562,217.84687l-6.88102,-17.06492l3.70977,-1.49587l6.88102,17.06492z" fill="#000000" stroke="none" stroke-width="0"/><path d="M320.22857,125.31057c0,-2.13024 1.7269,-3.85714 3.85714,-3.85714c2.13024,0 3.85714,1.7269 3.85714,3.85714c0,2.13024 -1.7269,3.85714 -3.85714,3.85714c-2.13024,0 -3.85714,-1.7269 -3.85714,-3.85714z" fill="#000000" stroke="none" stroke-width="0"/><path d="M334.8,133.05296c0,-2.13024 1.7269,-3.85715 3.85715,-3.85715c2.13024,0 3.85714,1.7269 3.85714,3.85715c0,2.13024 -1.7269,3.85715 -3.85714,3.85715c-2.13024,0 -3.85715,-1.7269 -3.85715,-3.85715z" fill="#000000" stroke="none" stroke-width="0"/></g></g></g></svg>