<svg version="1.1" xmlns="http://www.w3.org/2000/svg" xmlns:xlink="http://www.w3.org/1999/xlink" width="83.59882" height="31.37785" viewBox="0,0,83.59882,31.37785"><defs><linearGradient x1="216.50001" y1="176.41007" x2="216.50001" y2="192.39286" gradientUnits="userSpaceOnUse" id="color-1"><stop offset="0" stop-color="#262626"/><stop offset="1" stop-color="#1a1a1a"/></linearGradient><linearGradient x1="216.50001" y1="181.76411" x2="216.50001" y2="187.03883" gradientUnits="userSpaceOnUse" id="color-2"><stop offset="0" stop-color="#e6e6e6"/><stop offset="1" stop-color="#d7d7d7"/></linearGradient><linearGradient x1="217.13685" y1="172.68625" x2="217.13685" y2="178.55387" gradientUnits="userSpaceOnUse" id="color-3"><stop offset="0" stop-color="#312530"/><stop offset="1" stop-color="#322227"/></linearGradient><linearGradient x1="206.30311" y1="171.0991" x2="206.58499" y2="186.68238" gradientUnits="userSpaceOnUse" id="color-4"><stop offset="0" stop-color="#332632"/><stop offset="1" stop-color="#332020"/></linearGradient><linearGradient x1="209.29304" y1="169.30646" x2="209.29304" y2="171.36022" gradientUnits="userSpaceOnUse" id="color-5"><stop offset="0" stop-color="#302633"/><stop offset="1" stop-color="#322633"/></linearGradient><linearGradient x1="217.86619" y1="169.75949" x2="217.86619" y2="184.86341" gradientUnits="userSpaceOnUse" id="color-6"><stop offset="0" stop-color="#302633"/><stop offset="1" stop-color="#332020"/></linearGradient><linearGradient x1="226.09237" y1="169.96083" x2="226.09237" y2="185.06475" gradientUnits="userSpaceOnUse" id="color-7"><stop offset="0" stop-color="#302633"/><stop offset="1" stop-color="#332020"/></linearGradient><linearGradient x1="217.07932" y1="171.47821" x2="217.07932" y2="177.34583" gradientUnits="userSpaceOnUse" id="color-8"><stop offset="0" stop-color="#ea76de"/><stop offset="1" stop-color="#f75ca2"/></linearGradient><linearGradient x1="206.24558" y1="169.89106" x2="206.52746" y2="185.47434" gradientUnits="userSpaceOnUse" id="color-9"><stop offset="0" stop-color="#ea76df"/><stop offset="1" stop-color="#ff3f3f"/></linearGradient><linearGradient x1="209.23551" y1="168.09842" x2="209.23551" y2="170.15218" gradientUnits="userSpaceOnUse" id="color-10"><stop offset="0" stop-color="#e681ff"/><stop offset="1" stop-color="#e87cef"/></linearGradient><linearGradient x1="217.80866" y1="168.55145" x2="217.80866" y2="183.65537" gradientUnits="userSpaceOnUse" id="color-11"><stop offset="0" stop-color="#e681ff"/><stop offset="1" stop-color="#ff3f3f"/></linearGradient><linearGradient x1="226.03484" y1="168.75279" x2="226.03484" y2="183.85671" gradientUnits="userSpaceOnUse" id="color-12"><stop offset="0" stop-color="#e681ff"/><stop offset="1" stop-color="#ff3f3f"/></linearGradient></defs><g transform="translate(-197.64807,-164.61614)"><g data-paper-data="{&quot;isPaintingLayer&quot;:true}" fill-rule="nonzero" stroke-linejoin="miter" stroke-miterlimit="10" stroke-dasharray="" stroke-dashoffset="0" style="mix-blend-mode: normal"><path d="M199.91908,194.27825c-1.27893,-0.67974 -1.27101,-1.79494 -1.27101,-1.79494v-25.02886c0,0 -0.16698,-1.15965 1.14392,-1.83831c1.3109,-0.67866 3.58,-0.60729 3.58,-0.60729h73.25253c0,0 2.32611,-0.10717 3.62237,0.56391c1.29627,0.67108 1.10154,1.88169 1.10154,1.88169v25.07225c0,0 0.11812,1.16628 -1.18628,1.86c-1.3044,0.69373 -3.4529,0.60729 -3.4529,0.60729h-73.33728c0,0 -2.17397,-0.036 -3.4529,-0.71573z" fill="#e5e5e5" stroke="#a8a8a8" stroke-width="2" stroke-linecap="butt"/><text transform="translate(234.3368,178.5285) scale(0.18485,0.18485)" font-size="40" xml:space="preserve" fill="#000000" fill-rule="nonzero" stroke="none" stroke-width="1" stroke-linecap="butt" stroke-linejoin="miter" stroke-miterlimit="10" stroke-dasharray="" stroke-dashoffset="0" font-family="Sans Serif" font-weight="normal" text-anchor="start" style="mix-blend-mode: normal"><tspan x="0" dy="0">Double click</tspan><tspan x="0" dy="48px">    to open</tspan></text><g><g><path d="M202.10714,184.40147c0,-4.41353 6.4439,-7.99139 14.39286,-7.99139c7.94896,0 14.39286,3.57787 14.39286,7.99139c0,4.41353 -6.4439,7.99139 -14.39286,7.99139c-7.94896,0 -14.39286,-3.57787 -14.39286,-7.99139z" fill="url(#color-1)" stroke="none" stroke-width="0" stroke-linecap="butt"/><path d="M211.75001,184.40147c0,-1.45657 2.12665,-2.63736 4.75,-2.63736c2.62335,0 4.75,1.18079 4.75,2.63736c0,1.45657 -2.12665,2.63736 -4.75,2.63736c-2.62335,0 -4.75,-1.18079 -4.75,-2.63736z" fill="url(#color-2)" stroke="none" stroke-width="0" stroke-linecap="butt"/><path d="M228.41965,177.5754c0,0 0.0236,4.09404 -0.49301,5.99516c-0.50703,1.86588 -2.7927,4.59352 -2.7927,4.59352" fill="none" stroke="#404040" stroke-width="1.5" stroke-linecap="round"/><path d="M223.2768,178.36859l0.42857,-2.38288h5.5l0.42857,2.38288z" fill="#404040" stroke="#404040" stroke-width="0" stroke-linecap="butt"/></g><g stroke-width="2"><g><path d="M220.90479,174.49831c0,0 -2.64605,4.63656 -5.06226,4.05556c-2.41621,-0.581 -2.47361,-5.86762 -2.47361,-5.86762" fill="none" stroke="url(#color-3)" stroke-linecap="round"/><path d="M204.43592,184.72215l4.08464,-11.73447" fill="none" stroke="url(#color-4)" stroke-linecap="round"/><path d="M208.26616,170.33334c0,-0.56713 0.45976,-1.02688 1.02688,-1.02688c0.56713,0 1.02688,0.45976 1.02688,1.02688c0,0.56713 -0.45975,1.02688 -1.02688,1.02688c-0.56713,0 -1.02688,-0.45975 -1.02688,-1.02688z" fill="url(#color-5)" stroke="none" stroke-linecap="butt"/><path d="M209.44663,184.86341l4.42706,-13.95273" fill="none" stroke="url(#color-6)" stroke-linecap="round"/><path d="M217.67281,185.06475l4.42706,-13.95272" fill="none" stroke="url(#color-7)" stroke-linecap="round"/></g><g><path d="M220.84726,173.29027c0,0 -2.64605,4.63656 -5.06226,4.05556c-2.41621,-0.581 -2.47361,-5.86762 -2.47361,-5.86762" fill="none" stroke="url(#color-8)" stroke-linecap="round"/><path d="M204.3784,183.51411l4.08464,-11.73446" fill="none" stroke="url(#color-9)" stroke-linecap="round"/><path d="M208.20863,169.1253c0,-0.56713 0.45975,-1.02688 1.02688,-1.02688c0.56713,0 1.02688,0.45976 1.02688,1.02688c0,0.56713 -0.45975,1.02687 -1.02688,1.02687c-0.56713,0 -1.02688,-0.45974 -1.02688,-1.02687z" fill="url(#color-10)" stroke="none" stroke-linecap="butt"/><path d="M209.38911,183.65537l4.42706,-13.95273" fill="none" stroke="url(#color-11)" stroke-linecap="round"/><path d="M217.61528,183.8567l4.42706,-13.95272" fill="none" stroke="url(#color-12)" stroke-linecap="round"/></g></g></g></g></g></svg>