<svg version="1.1" xmlns="http://www.w3.org/2000/svg" xmlns:xlink="http://www.w3.org/1999/xlink" width="105.19625" height="107.76627" viewBox="0,0,105.19625,107.76627"><defs><linearGradient x1="142.19133" y1="164.38968" x2="142.19133" y2="193.53059" gradientUnits="userSpaceOnUse" id="color-1"><stop offset="0" stop-color="#e681ff"/><stop offset="1" stop-color="#e87cef"/></linearGradient><linearGradient x1="149.18148" y1="155.24786" x2="149.18148" y2="160.34808" gradientUnits="userSpaceOnUse" id="color-2"><stop offset="0" stop-color="#e681ff"/><stop offset="1" stop-color="#e87cef"/></linearGradient><linearGradient x1="168.70395" y1="180.3621" x2="168.70395" y2="186.6527" gradientUnits="userSpaceOnUse" id="color-3"><stop offset="0" stop-color="#e681ff"/><stop offset="1" stop-color="#e87cef"/></linearGradient><linearGradient x1="170.47172" y1="158.07496" x2="170.47172" y2="193.88138" gradientUnits="userSpaceOnUse" id="color-4"><stop offset="0" stop-color="#e681ff"/><stop offset="1" stop-color="#e87cef"/></linearGradient></defs><g transform="translate(-111.65189,-137.11687)"><g stroke-miterlimit="10"><path d="" fill="#3f5da2" stroke="none" stroke-width="0" stroke-linecap="butt"/><path d="M111.65189,231.52504c0,-9.80968 0,-62.43632 0,-80.31252c0,-8.32914 3.23043,-14.09565 8.42604,-14.09565c18.97241,0 79.91564,0 89.6882,0c3.65073,0 7.08201,2.71261 7.08201,7.12977c0,16.98377 0,82.11348 0,92.19548c0,4.22333 -3.21222,8.44102 -8.37434,8.44102c-18.55982,0 -78.09216,0 -88.39586,0c-4.24746,0 -8.42604,-7.14076 -8.42604,-13.35811z" fill="#bcb4b4" stroke="none" stroke-width="0" stroke-linecap="butt"/><text transform="translate(125.65626,227.6021) scale(0.5,0.5)" font-size="40" xml:space="preserve" fill="#ffffff" stroke="none" stroke-width="1" stroke-linecap="butt" font-family="&quot;Trebuchet MS&quot;, Sans Serif" font-weight="normal" text-anchor="start"><tspan x="0" dy="0">InterApp</tspan></text><path d="" fill="#3f5da2" stroke="none" stroke-width="0" stroke-linecap="butt"/><path d="" fill="#3f5da2" stroke="none" stroke-width="0" stroke-linecap="butt"/><path d="" fill="#3f5da2" stroke="none" stroke-width="0" stroke-linecap="butt"/><path d="" fill="#3f5da2" stroke="none" stroke-width="0" stroke-linecap="butt"/><path d="" fill="#3f5da2" stroke="none" stroke-width="0" stroke-linecap="butt"/><g><path d="M137.11951,193.53059l10.14364,-29.14091" fill="none" stroke="url(#color-1)" stroke-width="5" stroke-linecap="round"/><path d="M146.63137,157.79796c0,-1.40839 1.14173,-2.55012 2.55012,-2.55012c1.40839,0 2.55011,1.14173 2.55011,2.55012c0,1.40839 -1.14172,2.55011 -2.55011,2.55011c-1.40839,0 -2.55012,-1.14172 -2.55012,-2.55011z" fill="url(#color-2)" stroke="none" stroke-width="0.5" stroke-linecap="butt"/><path d="M151.8411,186.6527c0,0 7.30297,-6.49351 14.7731,-6.28572c7.81829,0.21748 18.95259,5.07143 18.95259,5.07143" fill="none" stroke="url(#color-3)" stroke-width="5" stroke-linecap="round"/><path d="M149.56292,193.88138l8.06175,-25.26483c0,0 3.44258,-10.19562 5.4868,-10.52558c1.43299,-0.40466 7.23115,6.99789 7.23115,6.99789l21.03789,28.06841" fill="none" stroke="url(#color-4)" stroke-width="5" stroke-linecap="round"/></g></g></g></svg>