<svg version="1.1" xmlns="http://www.w3.org/2000/svg" xmlns:xlink="http://www.w3.org/1999/xlink" width="116.90234" height="113.66505" viewBox="0,0,116.90234,113.66505"><defs><linearGradient x1="265.25639" y1="141.56841" x2="265.9564" y2="180.26733" gradientUnits="userSpaceOnUse" id="color-1"><stop offset="0" stop-color="#332932"/><stop offset="1" stop-color="#331f1f"/></linearGradient><linearGradient x1="272.93147" y1="137.11663" x2="272.93147" y2="142.21685" gradientUnits="userSpaceOnUse" id="color-2"><stop offset="0" stop-color="#302532"/><stop offset="1" stop-color="#312832"/></linearGradient><linearGradient x1="291.48203" y1="160.37863" x2="291.48203" y2="165.37863" gradientUnits="userSpaceOnUse" id="color-3"><stop offset="0" stop-color="#33272c"/><stop offset="1" stop-color="#332124"/></linearGradient><linearGradient x1="294.22171" y1="138.24167" x2="294.22171" y2="175.75015" gradientUnits="userSpaceOnUse" id="color-4"><stop offset="0" stop-color="#312933"/><stop offset="1" stop-color="#331f1f"/></linearGradient><linearGradient x1="265.50639" y1="138.56841" x2="266.2064" y2="177.26733" gradientUnits="userSpaceOnUse" id="color-5"><stop offset="0" stop-color="#ea76df"/><stop offset="1" stop-color="#ff3f3f"/></linearGradient><linearGradient x1="272.93147" y1="134.11663" x2="272.93147" y2="139.21685" gradientUnits="userSpaceOnUse" id="color-6"><stop offset="0" stop-color="#e681ff"/><stop offset="1" stop-color="#e87cef"/></linearGradient><linearGradient x1="291.48203" y1="157.37863" x2="291.48203" y2="162.37863" gradientUnits="userSpaceOnUse" id="color-7"><stop offset="0" stop-color="#f260a0"/><stop offset="1" stop-color="#f94f6e"/></linearGradient><linearGradient x1="294.22171" y1="135.24167" x2="294.22171" y2="172.75015" gradientUnits="userSpaceOnUse" id="color-8"><stop offset="0" stop-color="#e681ff"/><stop offset="1" stop-color="#ff3f3f"/></linearGradient></defs><g transform="translate(-229.54883,-123.16748)"><g stroke-miterlimit="10"><path d="M229.54883,219.56695c0,-22.62349 0,-61.03845 0,-74.8175c0,-9.69461 6.56843,-21.58197 12.94918,-21.58197c13.76327,0 66.81855,0 91.36368,0c7.69626,0 12.58948,5.56055 12.58948,11.15069c0,11.16919 0,52.13273 0,78.77419c0,13.7882 -6.56843,23.74017 -12.94918,23.74017c-13.37248,0 -63.83734,0 -89.20548,0c-8.92812,0 -14.74768,-7.01037 -14.74768,-17.26558z" fill-opacity="0.53333" fill="#66ffed" stroke="none" stroke-width="0" stroke-linecap="butt"/><g><path d="M260.6195,175.39937l10.14364,-29.14091" fill="none" stroke="url(#color-1)" stroke-width="5" stroke-linecap="round"/><path d="M270.38136,139.66673c0,-1.40839 1.14173,-2.55012 2.55012,-2.55012c1.40839,0 2.55011,1.14173 2.55011,2.55012c0,1.40839 -1.14172,2.55011 -2.55011,2.55011c-1.40839,0 -2.55012,-1.14172 -2.55012,-2.55011z" fill="url(#color-2)" stroke="none" stroke-width="0.5" stroke-linecap="butt"/><path d="M275.59109,168.52147c0,0 7.30297,-6.49351 14.7731,-6.28572c7.81829,0.21748 18.95259,5.07143 18.95259,5.07143" fill="none" stroke="url(#color-3)" stroke-width="5" stroke-linecap="round"/><path d="M273.31291,175.75015l8.06175,-25.26483c0,0 3.44258,-10.19562 5.4868,-10.52558c1.43299,-0.40466 7.23115,6.99789 7.23115,6.99789l21.03789,28.06841" fill="none" stroke="url(#color-4)" stroke-width="5" stroke-linecap="round"/></g><g><path d="M260.8695,172.39937l10.14364,-29.14091" fill="none" stroke="url(#color-5)" stroke-width="5" stroke-linecap="round"/><path d="M270.38136,136.66673c0,-1.40839 1.14173,-2.55012 2.55012,-2.55012c1.40839,0 2.55011,1.14173 2.55011,2.55012c0,1.40839 -1.14172,2.55011 -2.55011,2.55011c-1.40839,0 -2.55012,-1.14172 -2.55012,-2.55011z" fill="url(#color-6)" stroke="none" stroke-width="0.5" stroke-linecap="butt"/><path d="M275.59109,165.52147c0,0 7.30297,-6.49351 14.7731,-6.28572c7.81829,0.21748 18.95259,5.07143 18.95259,5.07143" fill="none" stroke="url(#color-7)" stroke-width="5" stroke-linecap="round"/><path d="M273.31291,172.75015l8.06175,-25.26483c0,0 3.44258,-10.19562 5.4868,-10.52558c1.43299,-0.40466 7.23115,6.99789 7.23115,6.99789l21.03789,28.06841" fill="none" stroke="url(#color-8)" stroke-width="5" stroke-linecap="round"/></g><text transform="translate(249.28125,200.38338) scale(0.5,0.5)" font-size="40" xml:space="preserve" fill="#000000" stroke="none" stroke-width="1" stroke-linecap="butt" font-family="&quot;Trebuchet MS&quot;, Sans Serif" font-weight="normal" text-anchor="start"><tspan x="0" dy="0">InterApp</tspan></text><text transform="translate(238.04883,219.88338) scale(0.5,0.5)" font-size="40" xml:space="preserve" fill="#000000" stroke="none" stroke-width="1" stroke-linecap="butt" font-family="&quot;Trebuchet MS&quot;, Sans Serif" font-weight="normal" text-anchor="start"><tspan x="0" dy="0">Diagnostics</tspan></text></g></g></svg>