<svg version="1.1" xmlns="http://www.w3.org/2000/svg" xmlns:xlink="http://www.w3.org/1999/xlink" width="160.21733" height="146.87273" viewBox="0,0,160.21733,146.87273"><defs><radialGradient cx="262.34339" cy="163.72495" r="61.08745" gradientUnits="userSpaceOnUse" id="color-1"><stop offset="0" stop-color="#dfdf2c"/><stop offset="1" stop-color="#dfdf2c" stop-opacity="0"/></radialGradient></defs><g transform="translate(-201.25594,-102.6375)"><g stroke="none" stroke-miterlimit="10"><g stroke-width="0"><path d="M201.25594,163.72495c0,-33.73767 27.34978,-61.08745 61.08745,-61.08745c33.73767,0 61.08745,27.34978 61.08745,61.08745c0,33.73767 -27.34978,61.08745 -61.08745,61.08745c-33.73767,0 -61.08745,-27.34978 -61.08745,-61.08745z" fill="url(#color-1)"/><path d="M216.60278,163.72495c0,-25.26185 20.47878,-45.7406 45.7406,-45.7406c25.26185,0 45.7406,20.47878 45.7406,45.7406c0,25.26185 -20.47878,45.7406 -45.7406,45.7406c-25.26185,0 -45.7406,-20.47878 -45.7406,-45.7406z" fill="#dfdf2c"/><path d="M242.03506,231.39857v-55.48861h41.61646v55.48861z" fill="#dfdf2c"/><path d="M241.87259,235.21028c0,-5.30361 0,-18.95861 0,-18.95861h41.61646c0,0 0,13.65499 0,18.95861c0,3.83456 -3.10259,9.91047 -5.8988,9.91047c-4.67377,0 -19.47832,0 -28.49416,0c-4.25706,0 -7.22352,-6.07591 -7.22352,-9.91047z" fill="#8c8c84"/></g><text transform="translate(272.69567,221.64341) scale(2.55659,2.55659)" font-size="40" xml:space="preserve" fill="#8c8c84" stroke-width="1" font-family="&quot;Calibri&quot;, Sans Serif" font-weight="normal" text-anchor="start"><tspan x="0" dy="0">AI</tspan></text></g></g></svg>