<svg version="1.1" xmlns="http://www.w3.org/2000/svg" xmlns:xlink="http://www.w3.org/1999/xlink" width="81.25" height="79" viewBox="0,0,81.25,79"><g transform="translate(-247.375,-140.5)"><g stroke="none" stroke-miterlimit="10"><path d="M247.375,207.5c0,-15.72388 0,-42.42322 0,-52c0,-6.73799 4.56522,-15 9,-15c9.56581,0 46.44053,0 63.5,0c5.34909,0 8.75,3.86472 8.75,7.75c0,7.76286 0,36.23353 0,54.75c0,9.58314 -4.56522,16.5 -9,16.5c-9.2942,0 -44.36852,0 -62,0c-6.20526,0 -10.25,-4.87238 -10.25,-12z" fill-opacity="0.53333" fill="#66ffed" stroke-width="0"/><text transform="translate(260.27888,214.53557) scale(0.39835,0.39835)" font-size="40" xml:space="preserve" fill="#000000" stroke-width="1" font-family="&quot;Trebuchet MS&quot;, Sans Serif" font-weight="normal" text-anchor="start"><tspan x="0" dy="0">Settings</tspan></text><text transform="translate(259.56459,213.82128) scale(0.39835,0.39835)" font-size="40" xml:space="preserve" fill="#ffffff" stroke-width="1" font-family="&quot;Trebuchet MS&quot;, Sans Serif" font-weight="normal" text-anchor="start"><tspan x="0" dy="0">Settings</tspan></text><g fill="#2b5757" stroke-width="0"><path d="M273.6773,175.73302c0,-8.39947 6.80912,-15.2086 15.2086,-15.2086c8.39947,0 15.2086,6.80912 15.2086,15.2086c0,8.39947 -6.80912,15.2086 -15.2086,15.2086c-8.39947,0 -15.2086,-6.80913 -15.2086,-15.2086z"/><path d="M281.35543,175.73302c0,-4.15896 3.3715,-7.53047 7.53047,-7.53047c4.15897,0 7.53047,3.3715 7.53047,7.53047c0,4.15896 -3.3715,7.53047 -7.53047,7.53047c-4.15897,0 -7.53047,-3.37151 -7.53047,-7.53047z"/><path d="M284.75996,166.58426c0,0 0,-7.43278 0,-9.6293c0,-1.14248 1.01517,-2.60508 1.79297,-2.60508c0.90658,0 3.11457,0 4.64063,0c0.91308,0 1.58204,1.19043 1.58204,2.18321c0,2.13017 0,10.05118 0,10.05118z"/><path d="M297.8634,171.64742c0,0 7.43278,0 9.6293,0c1.14248,0 2.60507,1.01517 2.60507,1.79297c0,0.90658 0,3.11457 0,4.64063c0,0.91308 -1.19043,1.58203 -2.1832,1.58203c-2.13016,0 -10.05118,0 -10.05118,0z"/><path d="M293.01184,184.88178c0,0 0,7.43278 0,9.6293c0,1.14248 -1.01517,2.60508 -1.79298,2.60508c-0.90658,0 -3.11457,0 -4.64062,0c-0.91308,0 -1.58203,-1.19042 -1.58203,-2.1832c0,-2.13017 0,-10.05118 0,-10.05118z"/><path d="M279.9084,179.81863c0,0 -7.43278,0 -9.6293,0c-1.14248,0 -2.60508,-1.01517 -2.60508,-1.79297c0,-0.90658 0,-3.11457 0,-4.64062c0,-0.91308 1.19043,-1.58204 2.1832,-1.58204c2.13016,0 10.05118,0 10.05118,0z"/><path d="M292.43757,166.34639c0,0 5.25577,-5.25576 6.80894,-6.80894c0.80786,-0.80785 2.5599,-1.12425 3.10989,-0.57425c0.64105,0.64105 2.20233,2.20234 3.28141,3.28142c0.64565,0.64565 0.27691,1.96043 -0.42509,2.66243c-1.50626,1.50626 -7.10726,7.10725 -7.10726,7.10725z"/><path d="M298.12291,179.19212c0,0 5.25577,5.25577 6.80894,6.80894c0.80786,0.80785 1.12423,2.5599 0.57425,3.10989c-0.64105,0.64105 -2.20233,2.20233 -3.28141,3.28141c-0.64565,0.64565 -1.96043,0.27691 -2.66243,-0.42509c-1.50626,-1.50626 -7.10726,-7.10726 -7.10726,-7.10726z"/><path d="M285.33423,185.11966c0,0 -5.25577,5.25576 -6.80894,6.80894c-0.80786,0.80785 -2.55991,1.12424 -3.10989,0.57425c-0.64105,-0.64105 -2.20233,-2.20234 -3.28141,-3.28142c-0.64565,-0.64565 -0.2769,-1.96042 0.42509,-2.66242c1.50626,-1.50626 7.10725,-7.10726 7.10725,-7.10726z"/><path d="M279.64889,172.27393c0,0 -5.25577,-5.25577 -6.80894,-6.80894c-0.80786,-0.80785 -1.12423,-2.5599 -0.57425,-3.10989c0.64105,-0.64105 2.20233,-2.20233 3.28141,-3.28142c0.64565,-0.64565 1.96043,-0.27691 2.66243,0.42509c1.50626,1.50626 7.10725,7.10726 7.10725,7.10726z"/></g><g stroke-width="0"><path d="M272.69952,174.49398c0,-8.39947 6.80912,-15.2086 15.2086,-15.2086c8.39947,0 15.2086,6.80912 15.2086,15.2086c0,8.39947 -6.80912,15.2086 -15.2086,15.2086c-8.39947,0 -15.2086,-6.80913 -15.2086,-15.2086z" fill="#8c8698"/><path d="M280.37765,174.49398c0,-4.15896 3.3715,-7.53047 7.53047,-7.53047c4.15897,0 7.53047,3.3715 7.53047,7.53047c0,4.15896 -3.3715,7.53047 -7.53047,7.53047c-4.15897,0 -7.53047,-3.37151 -7.53047,-7.53047z" fill="#55dcdc"/><path d="M283.78218,165.34522c0,0 0,-7.43278 0,-9.6293c0,-1.14248 1.01517,-2.60508 1.79297,-2.60508c0.90658,0 3.11457,0 4.64063,0c0.91308,0 1.58204,1.19043 1.58204,2.18321c0,2.13017 0,10.05118 0,10.05118z" fill="#8c8698"/><path d="M296.88562,170.40838c0,0 7.43278,0 9.6293,0c1.14248,0 2.60507,1.01517 2.60507,1.79297c0,0.90658 0,3.11457 0,4.64063c0,0.91308 -1.19043,1.58203 -2.1832,1.58203c-2.13016,0 -10.05118,0 -10.05118,0z" fill="#8c8698"/><path d="M292.03406,183.64274c0,0 0,7.43278 0,9.6293c0,1.14248 -1.01517,2.60508 -1.79298,2.60508c-0.90658,0 -3.11457,0 -4.64062,0c-0.91308,0 -1.58203,-1.19042 -1.58203,-2.1832c0,-2.13017 0,-10.05118 0,-10.05118z" fill="#8c8698"/><path d="M278.93062,178.57959c0,0 -7.43278,0 -9.6293,0c-1.14248,0 -2.60508,-1.01517 -2.60508,-1.79297c0,-0.90658 0,-3.11457 0,-4.64062c0,-0.91308 1.19043,-1.58204 2.1832,-1.58204c2.13016,0 10.05118,0 10.05118,0z" fill="#8c8698"/><path d="M291.45979,165.10735c0,0 5.25577,-5.25576 6.80894,-6.80894c0.80786,-0.80785 2.5599,-1.12425 3.10989,-0.57425c0.64105,0.64105 2.20233,2.20234 3.28141,3.28142c0.64565,0.64565 0.27691,1.96043 -0.42509,2.66243c-1.50626,1.50626 -7.10726,7.10725 -7.10726,7.10725z" fill="#8c8698"/><path d="M297.14513,177.95308c0,0 5.25577,5.25577 6.80894,6.80894c0.80786,0.80785 1.12423,2.5599 0.57425,3.10989c-0.64105,0.64105 -2.20233,2.20233 -3.28141,3.28141c-0.64565,0.64565 -1.96043,0.27691 -2.66243,-0.42509c-1.50626,-1.50626 -7.10726,-7.10726 -7.10726,-7.10726z" fill="#8c8698"/><path d="M284.35645,183.88062c0,0 -5.25577,5.25576 -6.80894,6.80894c-0.80786,0.80785 -2.55991,1.12424 -3.10989,0.57425c-0.64105,-0.64105 -2.20233,-2.20234 -3.28141,-3.28142c-0.64565,-0.64565 -0.2769,-1.96042 0.42509,-2.66242c1.50626,-1.50626 7.10725,-7.10726 7.10725,-7.10726z" fill="#8c8698"/><path d="M278.67111,171.03489c0,0 -5.25577,-5.25577 -6.80894,-6.80894c-0.80786,-0.80785 -1.12423,-2.5599 -0.57425,-3.10989c0.64105,-0.64105 2.20233,-2.20233 3.28141,-3.28142c0.64565,-0.64565 1.96043,-0.27691 2.66243,0.42509c1.50626,1.50626 7.10725,7.10726 7.10725,7.10726z" fill="#8c8698"/></g></g></g></svg>