<svg version="1.1" xmlns="http://www.w3.org/2000/svg" xmlns:xlink="http://www.w3.org/1999/xlink" width="406" height="49.4" viewBox="0,0,406,49.4"><g transform="translate(-85,-48.5)"><g stroke-miterlimit="10"><path d="M85,97.9c0,0 0,-8.83577 0,-15c0,-20.32696 12.49842,-34.4 32.60001,-34.4c73.40347,0 308.19035,0 346,0c14.12451,0 27.39999,6.62005 27.39999,17.4c0,7.79959 0,31 0,31z" fill="#eddb6d" stroke="none" stroke-width="0"/><text transform="translate(159.3,78.96875) scale(0.5,0.5)" font-size="40" xml:space="preserve" fill="#ffffff" stroke="none" stroke-width="1" font-family="&quot;Trebuchet MS&quot;, Sans Serif" font-weight="normal" text-anchor="start"><tspan x="0" dy="0">Vynil</tspan></text><g stroke-width="0.5"><path d="M111.7721,73.2c0,-9.18173 7.44327,-16.625 16.625,-16.625c9.18173,0 16.625,7.44327 16.625,16.625c0,9.18173 -7.44327,16.625 -16.625,16.625c-9.18173,0 -16.625,-7.44327 -16.625,-16.625z" fill="#1b1a1a" stroke="none"/><path d="M121.63783,73.2c0,-3.73304 3.02623,-6.75927 6.75927,-6.75927c3.73304,0 6.75927,3.02623 6.75927,6.75927c0,3.73304 -3.02623,6.75927 -6.75927,6.75927c-3.73304,0 -6.75927,-3.02623 -6.75927,-6.75927z" fill="#f54e4e" stroke="none"/><path d="M123.94816,73.2c0,-2.45708 1.99186,-4.44894 4.44894,-4.44894c2.45708,0 4.44894,1.99187 4.44894,4.44894c0,2.45708 -1.99187,4.44894 -4.44894,4.44894c-2.45708,0 -4.44894,-1.99187 -4.44894,-4.44894z" fill="#9595a1" stroke="none"/><path d="M114.20731,73.2c0,-7.8368 6.35299,-14.18979 14.18979,-14.18979c7.8368,0 14.18979,6.35299 14.18979,14.18979c0,7.8368 -6.35299,14.18979 -14.18979,14.18979c-7.8368,0 -14.18979,-6.35299 -14.18979,-14.18979z" fill="none" stroke="#141414"/><path d="M116.95473,73.2c0,-6.31945 5.12292,-11.44237 11.44237,-11.44237c6.31944,0 11.44237,5.12292 11.44237,11.44237c0,6.31945 -5.12293,11.44237 -11.44237,11.44237c-6.31945,0 -11.44237,-5.12293 -11.44237,-11.44237z" fill="none" stroke="#141414"/><path d="M115.58102,73.2c0,-7.07812 5.73796,-12.81608 12.81608,-12.81608c7.07812,0 12.81608,5.73796 12.81608,12.81608c0,7.07812 -5.73796,12.81608 -12.81608,12.81608c-7.07812,0 -12.81608,-5.73796 -12.81608,-12.81608z" fill="none" stroke="#141414"/><path d="M119.95064,73.2c0,-4.66485 3.78161,-8.44646 8.44646,-8.44646c4.66485,0 8.44646,3.78161 8.44646,8.44646c0,4.66485 -3.78161,8.44646 -8.44646,8.44646c-4.66485,0 -8.44646,-3.78161 -8.44646,-8.44646z" fill="none" stroke="#141414"/><path d="M118.5352,73.2c0,-5.44657 4.41533,-9.8619 9.86191,-9.8619c5.44658,0 9.86191,4.41533 9.86191,9.86191c0,5.44657 -4.41533,9.86191 -9.86191,9.86191c-5.44658,0 -9.8619,-4.41533 -9.8619,-9.86191z" fill="none" stroke="#141414"/><path d="M112.61877,73.19999c0,-8.71414 7.0642,-15.77834 15.77833,-15.77834c8.71414,0 15.77834,7.0642 15.77834,15.77834c0,8.71414 -7.0642,15.77834 -15.77834,15.77834c-8.71414,0 -15.77833,-7.0642 -15.77833,-15.77834z" fill="none" stroke="#141414"/></g></g></g></svg>