<svg version="1.1" xmlns="http://www.w3.org/2000/svg" xmlns:xlink="http://www.w3.org/1999/xlink" width="81.25" height="79.69887" viewBox="0,0,81.25,79.69887"><g transform="translate(-247.9,-138.725)"><g stroke="none" stroke-miterlimit="10"><path d="M247.9,205.725c0,-15.72388 0,-42.42322 0,-52c0,-6.73799 4.56522,-15 9,-15c9.56581,0 46.44053,0 63.5,0c5.34909,0 8.75,3.86472 8.75,7.75c0,7.76286 0,36.23353 0,54.75c0,9.58314 -4.56522,16.5 -9,16.5c-9.2942,0 -44.36852,0 -62,0c-6.20526,0 -10.25,-4.87238 -10.25,-12z" fill-opacity="0.53333" fill="#66ffed" stroke-width="0"/><text transform="translate(267.00392,214.4802) scale(0.39835,0.39835)" font-size="40" xml:space="preserve" fill="#000000" stroke-width="1" font-family="&quot;Trebuchet MS&quot;, Sans Serif" font-weight="normal" text-anchor="start"><tspan x="0" dy="0">About</tspan></text><text transform="translate(266.28963,213.76591) scale(0.39835,0.39835)" font-size="40" xml:space="preserve" fill="#ffffff" stroke-width="1" font-family="&quot;Trebuchet MS&quot;, Sans Serif" font-weight="normal" text-anchor="start"><tspan x="0" dy="0">About</tspan></text><g><path d="M265.89183,172.0127c0,-12.3355 9.9999,-22.33539 22.33539,-22.33539c12.3355,0 22.33539,9.9999 22.33539,22.33539c0,12.3355 -9.9999,22.33539 -22.33539,22.33539c-12.3355,0 -22.33539,-9.9999 -22.33539,-22.33539z" fill="#c6cacd" stroke-width="0"/><path d="M271.0833,172.0127c0,-9.46833 7.6756,-17.14392 17.14392,-17.14392c9.46833,0 17.14392,7.6756 17.14392,17.14392c0,9.46833 -7.6756,17.14392 -17.14392,17.14392c-9.46833,0 -17.14392,-7.6756 -17.14392,-17.14392z" fill="#66b2ff" stroke-width="0"/><text transform="translate(282.03434,184.33179) scale(0.86815,0.86815)" font-size="40" xml:space="preserve" fill="#ffffff" stroke-width="1" font-family="&quot;Trebuchet MS&quot;, Sans Serif" font-weight="normal" text-anchor="start"><tspan x="0" dy="0">?</tspan></text></g></g></g></svg>