<svg version="1.1" xmlns="http://www.w3.org/2000/svg" xmlns:xlink="http://www.w3.org/1999/xlink" width="622" height="423" viewBox="0,0,622,423"><defs><linearGradient x1="288" y1="-31.5" x2="288" y2="391.5" gradientUnits="userSpaceOnUse" id="color-1"><stop offset="0" stop-color="#580d0d"/><stop offset="1" stop-color="#2b0505"/></linearGradient></defs><g transform="translate(23,31.5)"><g stroke-width="0" stroke-miterlimit="10"><path d="M-23,391.5v-423h622v423z" fill="url(#color-1)" stroke="none"/><g stroke="#000000"><path d="M230.33121,222.56251l-28.83439,42.5625l-28.8344,-42.5625z" fill="#c59508"/><path d="M172.66241,222.56251l28.8344,-42.5625l28.8344,42.5625z" fill="#ffbe00"/><path d="M143.82802,265.12501l28.8344,-42.5625l28.8344,42.5625z" fill="#ffbe00"/><path d="M201.49681,265.12501l28.8344,-42.5625l28.8344,42.5625z" fill="#ffbe00"/><path d="M230.33121,222.56251l28.8344,-42.5625l28.83439,42.5625z" fill="#c59508"/><path d="M288,222.56251l-28.83439,42.5625l-28.8344,-42.5625z" fill="#ffbe00"/><path d="M259.16561,180l-28.8344,42.5625l-28.83439,-42.5625z" fill="#ffbe00"/><path d="M316.83439,180l-28.83439,42.5625l-28.83439,-42.5625z" fill="#ffbe00"/><path d="M345.66879,222.56251l28.8344,-42.5625l28.8344,42.5625z" fill="#c59508"/><path d="M403.33759,222.56251l-28.8344,42.5625l-28.8344,-42.5625z" fill="#ffbe00"/><path d="M432.17199,180l-28.8344,42.5625l-28.83439,-42.5625z" fill="#ffbe00"/><path d="M374.50319,180l-28.8344,42.5625l-28.8344,-42.5625z" fill="#ffbe00"/><path d="M345.6688,222.56251l-28.8344,42.5625l-28.83439,-42.5625z" fill="#c59508"/><path d="M288,222.56251l28.83439,-42.5625l28.8344,42.5625z" fill="#ffbe00"/><path d="M316.83439,265.12501l28.8344,-42.5625l28.8344,42.5625z" fill="#ffbe00"/><path d="M259.16561,265.12501l28.83439,-42.5625l28.83439,42.5625z" fill="#ffbe00"/><path d="M461.00638,222.56251l28.8344,-42.5625l28.8344,42.5625z" fill="#c59508"/><path d="M518.67518,222.56251l-28.8344,42.5625l-28.8344,-42.5625z" fill="#ffbe00"/><path d="M547.50957,180.00001l-28.8344,42.5625l-28.83439,-42.5625z" fill="#ffbe00"/><path d="M489.84078,180.00001l-28.8344,42.5625l-28.83439,-42.5625z" fill="#ffbe00"/><path d="M461.00638,222.56251l-28.83439,42.5625l-28.8344,-42.5625z" fill="#c59508"/><path d="M403.33759,222.56251l28.8344,-42.56251l28.83439,42.56251z" fill="#ffbe00"/><path d="M432.17199,265.12501l28.83439,-42.5625l28.8344,42.5625z" fill="#ffbe00"/><path d="M374.50319,265.12501l28.83439,-42.5625l28.8344,42.5625z" fill="#ffbe00"/><path d="M114.99362,222.56251l28.8344,-42.5625l28.8344,42.5625z" fill="#c59508"/><path d="M172.66242,222.56251l-28.8344,42.5625l-28.8344,-42.5625z" fill="#ffbe00"/><path d="M201.49681,180l-28.8344,42.5625l-28.83439,-42.5625z" fill="#ffbe00"/><path d="M143.82802,180l-28.8344,42.5625l-28.83439,-42.5625z" fill="#ffbe00"/><path d="M114.99362,222.56251l-28.8344,42.5625l-28.8344,-42.5625z" fill="#c59508"/><path d="M57.32483,222.56251l28.8344,-42.5625l28.8344,42.5625z" fill="#ffbe00"/><path d="M86.15922,265.12501l28.8344,-42.5625l28.8344,42.5625z" fill="#ffbe00"/><path d="M28.49043,265.12501l28.83439,-42.5625l28.8344,42.5625z" fill="#ffbe00"/><path d="M172.66241,137.4375l28.8344,-42.56251l28.8344,42.56251z" fill="#c59508"/><path d="M230.33121,137.4375l-28.8344,42.5625l-28.8344,-42.5625z" fill="#ffbe00"/><path d="M201.49681,94.87499l-28.83439,42.56251l-28.8344,-42.56251z" fill="#ffbe00"/><path d="M259.16561,94.87499l-28.8344,42.56251l-28.8344,-42.56251z" fill="#ffbe00"/><path d="M288,137.4375l-28.83439,42.5625l-28.8344,-42.5625z" fill="#c59508"/><path d="M230.33121,137.4375l28.8344,-42.56251l28.83439,42.56251z" fill="#ffbe00"/><path d="M201.49681,180l28.8344,-42.5625l28.8344,42.5625z" fill="#ffbe00"/><path d="M259.16561,180l28.83439,-42.5625l28.83439,42.5625z" fill="#ffbe00"/><path d="M403.33759,137.4375l-28.8344,42.5625l-28.8344,-42.5625z" fill="#c59508"/><path d="M345.6688,137.4375l28.8344,-42.56251l28.8344,42.56251z" fill="#ffbe00"/><path d="M374.50319,180l28.83439,-42.5625l28.8344,42.5625z" fill="#ffbe00"/><path d="M316.83439,180l28.8344,-42.5625l28.8344,42.5625z" fill="#ffbe00"/><path d="M288,137.4375l28.83439,-42.56251l28.8344,42.56251z" fill="#c59508"/><path d="M345.6688,137.4375l-28.8344,42.5625l-28.83439,-42.5625z" fill="#ffbe00"/><path d="M374.50319,94.87499l-28.8344,42.56251l-28.8344,-42.56251z" fill="#ffbe00"/><path d="M316.83439,94.87499l-28.83439,42.56251l-28.83439,-42.56251z" fill="#ffbe00"/><path d="M518.67518,137.4375l-28.83439,42.5625l-28.8344,-42.5625z" fill="#c59508"/><path d="M461.00638,137.4375l28.8344,-42.56251l28.83439,42.56251z" fill="#ffbe00"/><path d="M489.84078,180l28.83439,-42.5625l28.8344,42.5625z" fill="#ffbe00"/><path d="M432.17199,180l28.83439,-42.5625l28.8344,42.5625z" fill="#ffbe00"/><path d="M403.33759,137.43749l28.8344,-42.5625l28.8344,42.5625z" fill="#c59508"/><path d="M461.00639,137.43749l-28.8344,42.56251l-28.8344,-42.56251z" fill="#ffbe00"/><path d="M489.84078,94.87499l-28.8344,42.5625l-28.83439,-42.5625z" fill="#ffbe00"/><path d="M432.17199,94.87499l-28.8344,42.5625l-28.83439,-42.5625z" fill="#ffbe00"/><path d="M172.66242,137.4375l-28.8344,42.5625l-28.83439,-42.5625z" fill="#c59508"/><path d="M114.99362,137.4375l28.83439,-42.56251l28.8344,42.56251z" fill="#ffbe00"/><path d="M143.82802,180l28.8344,-42.5625l28.8344,42.5625z" fill="#ffbe00"/><path d="M86.15923,180l28.8344,-42.5625l28.83439,42.5625z" fill="#ffbe00"/><path d="M57.32483,137.43749l28.8344,-42.5625l28.8344,42.5625z" fill="#c59508"/><path d="M114.99362,137.4375l-28.83439,42.5625l-28.8344,-42.5625z" fill="#ffbe00"/><path d="M143.82802,94.87499l-28.83439,42.5625l-28.83439,-42.5625z" fill="#ffbe00"/><path d="M86.15923,94.87499l-28.8344,42.5625l-28.83439,-42.5625z" fill="#ffbe00"/></g></g></g></svg>