<svg version="1.1" xmlns="http://www.w3.org/2000/svg" xmlns:xlink="http://www.w3.org/1999/xlink" width="406" height="49.4" viewBox="0,0,406,49.4"><g transform="translate(-85,-48.5)"><g stroke-miterlimit="10"><path d="M85,97.9c0,0 0,-8.83577 0,-15c0,-20.32696 12.49842,-34.4 32.60001,-34.4c73.40347,0 308.19035,0 346,0c14.12451,0 27.39999,6.62005 27.39999,17.4c0,7.79959 0,31 0,31z" fill="#eddb6d" stroke="none" stroke-width="0"/><text transform="translate(159.3,78.96875) scale(0.5,0.5)" font-size="40" xml:space="preserve" fill="#ffffff" stroke="none" stroke-width="1" font-family="&quot;Trebuchet MS&quot;, Sans Serif" font-weight="normal" text-anchor="start"><tspan x="0" dy="0">Transfer</tspan></text><g stroke="#000000"><g stroke-width="5"><path d="M120.50098,80.50281c0,-2.50065 0,-9.54822 0,-12.84913c0,-1.07013 1.13595,-1.74648 2.33909,-1.74648c2.88035,0 15.0832,0 21.94458,0c2.81811,0 4.73515,2.00633 4.73515,3.62332c0,1.9333 0,6.76308 0,10.3948c0,2.51894 -1.47757,4.46153 -3.72455,4.46153c-5.97678,0 -17.39723,0 -20.93398,0c-2.04636,0 -4.3603,-2.17586 -4.3603,-3.88404z" fill="#a8a4af"/><path d="M128.02521,86.69856c1.76685,-1.76685 6.98518,-6.98518 6.98518,-6.98518c0,0 5.95611,5.95611 7.66399,7.66399c0.85753,0.85753 -0.21709,1.93215 -1.93215,1.93215c-2.25122,0 -8.19305,0 -11.9829,0c-1.96047,0 -1.81434,-1.53074 -0.73412,-2.61096z" fill="#a8a4af"/><path d="M123.77298,79.29503c0,-1.93673 0,-7.39501 0,-9.95153c0,-0.8288 0.87978,-1.35263 1.8116,-1.35263c2.2308,0 11.6818,0 16.99588,0c2.1826,0 3.66733,1.55388 3.66733,2.80623c0,1.49733 0,5.23795 0,8.05068c0,1.9509 -1.14436,3.45541 -2.88463,3.45541c-4.62896,0 -13.474,0 -16.21318,0c-1.58489,0 -3.37701,-1.68518 -3.37701,-3.00815z" fill="#7ae9eb"/></g><g><g stroke-width="5"><path d="M107.2744,72.1861c0,-2.50065 0,-9.54822 0,-12.84913c0,-1.07013 1.13595,-1.74648 2.33909,-1.74648c2.88035,0 15.0832,0 21.94458,0c2.81811,0 4.73515,2.00633 4.73515,3.62332c0,1.9333 0,6.76308 0,10.3948c0,2.51894 -1.47757,4.46153 -3.72455,4.46153c-5.97678,0 -17.39723,0 -20.93398,0c-2.04636,0 -4.3603,-2.17586 -4.3603,-3.88404z" fill="#a8a4af"/><path d="M114.79863,78.38185c1.76685,-1.76685 6.98518,-6.98518 6.98518,-6.98518c0,0 5.95611,5.95611 7.66399,7.66399c0.85753,0.85753 -0.21709,1.93215 -1.93215,1.93215c-2.25122,0 -8.19305,0 -11.9829,0c-1.96047,0 -1.81434,-1.53074 -0.73412,-2.61096z" fill="#a8a4af"/><path d="M110.54641,70.97832c0,-1.93673 0,-7.39501 0,-9.95153c0,-0.8288 0.87978,-1.35263 1.8116,-1.35263c2.2308,0 11.6818,0 16.99588,0c2.1826,0 3.66733,1.55388 3.66733,2.80623c0,1.49733 0,5.23795 0,8.05068c0,1.9509 -1.14436,3.45541 -2.88463,3.45541c-4.62896,0 -13.474,0 -16.21318,0c-1.58489,0 -3.37701,-1.68518 -3.37701,-3.00815z" fill="#7ae9eb"/></g><g stroke-width="0"><path d="M107.2744,72.1861c0,-2.50065 0,-9.54822 0,-12.84913c0,-1.07013 1.13595,-1.74648 2.33909,-1.74648c2.88035,0 15.0832,0 21.94458,0c2.81811,0 4.73515,2.00633 4.73515,3.62332c0,1.9333 0,6.76308 0,10.3948c0,2.51894 -1.47757,4.46153 -3.72455,4.46153c-5.97678,0 -17.39723,0 -20.93398,0c-2.04636,0 -4.3603,-2.17586 -4.3603,-3.88404z" fill="#a8a4af"/><path d="M114.79863,78.38185c1.76685,-1.76685 6.98518,-6.98518 6.98518,-6.98518c0,0 5.95611,5.95611 7.66399,7.66399c0.85753,0.85753 -0.21709,1.93215 -1.93215,1.93215c-2.25122,0 -8.19305,0 -11.9829,0c-1.96047,0 -1.81434,-1.53074 -0.73412,-2.61096z" fill="#a8a4af"/><path d="M110.54641,70.97832c0,-1.93673 0,-7.39501 0,-9.95153c0,-0.8288 0.87978,-1.35263 1.8116,-1.35263c2.2308,0 11.6818,0 16.99588,0c2.1826,0 3.66733,1.55388 3.66733,2.80623c0,1.49733 0,5.23795 0,8.05068c0,1.9509 -1.14436,3.45541 -2.88463,3.45541c-4.62896,0 -13.474,0 -16.21318,0c-1.58489,0 -3.37701,-1.68518 -3.37701,-3.00815z" fill="#7ae9eb"/></g></g><g stroke-width="0"><path d="M120.50098,80.50281c0,-2.50065 0,-9.54822 0,-12.84913c0,-1.07013 1.13595,-1.74648 2.33909,-1.74648c2.88035,0 15.0832,0 21.94458,0c2.81811,0 4.73515,2.00633 4.73515,3.62332c0,1.9333 0,6.76308 0,10.3948c0,2.51894 -1.47757,4.46153 -3.72455,4.46153c-5.97678,0 -17.39723,0 -20.93398,0c-2.04636,0 -4.3603,-2.17586 -4.3603,-3.88404z" fill="#a8a4af"/><path d="M128.02521,86.69856c1.76685,-1.76685 6.98518,-6.98518 6.98518,-6.98518c0,0 5.95611,5.95611 7.66399,7.66399c0.85753,0.85753 -0.21709,1.93215 -1.93215,1.93215c-2.25122,0 -8.19305,0 -11.9829,0c-1.96047,0 -1.81434,-1.53074 -0.73412,-2.61096z" fill="#a8a4af"/><path d="M123.77298,79.29503c0,-1.93673 0,-7.39501 0,-9.95153c0,-0.8288 0.87978,-1.35263 1.8116,-1.35263c2.2308,0 11.6818,0 16.99588,0c2.1826,0 3.66733,1.55388 3.66733,2.80623c0,1.49733 0,5.23795 0,8.05068c0,1.9509 -1.14436,3.45541 -2.88463,3.45541c-4.62896,0 -13.474,0 -16.21318,0c-1.58489,0 -3.37701,-1.68518 -3.37701,-3.00815z" fill="#7ae9eb"/></g></g></g></g></svg>