<svg version="1.1" xmlns="http://www.w3.org/2000/svg" xmlns:xlink="http://www.w3.org/1999/xlink" width="407" height="263" viewBox="0,0,407,263"><defs><radialGradient cx="173.25926" cy="168.95732" r="74.5" gradientUnits="userSpaceOnUse" id="color-1"><stop offset="0" stop-color="#ffffff"/><stop offset="1" stop-color="#ffffff" stop-opacity="0"/></radialGradient></defs><g transform="translate(-84.5,-48.5)"><g stroke="none" stroke-miterlimit="10"><path d="M84.5,278.89999c0,-23.94017 0,-152.37376 0,-196c0,-20.32696 12.49842,-34.39999 32.60001,-34.39999c73.40347,0 309.19035,0 347,0c14.12451,0 27.39999,6.62005 27.39999,17.39999c0,41.44836 0,200.39521 0,225c0,10.30692 -12.42794,20.60001 -32.39999,20.60001c-71.80718,0 -302.13538,0 -342,0c-16.43325,0 -32.60001,-17.4268 -32.60001,-32.60001z" fill="#000000" stroke-width="0"/><path d="" fill="#3f5da2" stroke-width="0"/><path d="M251,146.75781c0,-4.58402 0,-29.17623 0,-37.52969c0,-3.89217 6.24921,-6.58684 16.30001,-6.58684c36.70174,0 154.59518,0 173.5,0c7.06225,0 13.69999,1.26759 13.69999,3.33172c0,7.93645 0,38.37128 0,43.08256c0,1.97355 -6.21397,3.94445 -16.19999,3.94445c-35.90359,0 -151.06769,0 -171,0c-8.21663,0 -16.30001,-3.33685 -16.30001,-6.24219z" fill="#ffffff" stroke-width="0"/><text transform="translate(308.66002,133.82065) scale(0.5,0.5)" font-size="40" xml:space="preserve" fill="#000000" stroke-width="1" font-family="&quot;Poppins-Regular&quot;, Malgun Gothic" font-weight="normal" text-anchor="start"><tspan x="0" dy="0">Software</tspan></text><path d="M251,212.75781c0,-4.58402 0,-29.17623 0,-37.52969c0,-3.89217 6.24921,-6.58684 16.30001,-6.58684c36.70174,0 154.59518,0 173.5,0c7.06225,0 13.69999,1.26759 13.69999,3.33172c0,7.93645 0,38.37128 0,43.08256c0,1.97355 -6.21397,3.94445 -16.19999,3.94445c-35.90359,0 -151.06769,0 -171,0c-8.21663,0 -16.30001,-3.33685 -16.30001,-6.24219z" fill="#ffffff" stroke-width="0"/><text transform="translate(303.69001,199.82065) scale(0.5,0.5)" font-size="40" xml:space="preserve" fill="#000000" stroke-width="1" font-family="&quot;Poppins-Regular&quot;, Malgun Gothic" font-weight="normal" text-anchor="start"><tspan x="0" dy="0">Hardware</tspan></text><path d="M251,280.75781c0,-4.58402 0,-29.17623 0,-37.52969c0,-3.89217 6.24921,-6.58684 16.30001,-6.58684c36.70174,0 154.59518,0 173.5,0c7.06225,0 13.69999,1.26759 13.69999,3.33172c0,7.93645 0,38.37128 0,43.08256c0,1.97355 -6.21397,3.94445 -16.19999,3.94445c-35.90359,0 -151.06769,0 -171,0c-8.21663,0 -16.30001,-3.33685 -16.30001,-6.24219z" fill="#ffffff" stroke-width="0"/><text transform="translate(295.42002,267.82065) scale(0.5,0.5)" font-size="40" xml:space="preserve" fill="#000000" stroke-width="1" font-family="&quot;Poppins-Regular&quot;, Malgun Gothic" font-weight="normal" text-anchor="start"><tspan x="0" dy="0">Boot to UEFI</tspan></text><path d="M462.78334,293.46666c0,-6.25923 5.07411,-11.33333 11.33333,-11.33333c6.25923,0 11.33333,5.07411 11.33333,11.33333c0,6.25923 -5.07411,11.33333 -11.33333,11.33333c-6.25923,0 -11.33333,-5.07411 -11.33333,-11.33333z" fill="#ffffff" stroke-width="0"/><text transform="translate(467.82667,285.69791) scale(0.5,-0.5)" font-size="40" xml:space="preserve" fill="#000000" stroke-width="1" font-family="&quot;Poppins-Regular&quot;, Malgun Gothic" font-weight="normal" text-anchor="start"><tspan x="0" dy="0">^</tspan></text><path d="M98.75926,168.95732c0,-41.14521 33.35479,-74.5 74.5,-74.5c41.14521,0 74.5,33.35479 74.5,74.5c0,41.14521 -33.35479,74.5 -74.5,74.5c-41.14521,0 -74.5,-33.35479 -74.5,-74.5z" fill="url(#color-1)" stroke-width="0"/><path d="M222.78333,294.56875c0,-6.25923 5.07411,-11.33333 11.33333,-11.33333c6.25923,0 11.33333,5.07411 11.33333,11.33333c0,6.25923 -5.0741,11.33334 -11.33333,11.33334c-6.25923,0 -11.33333,-5.07411 -11.33333,-11.33334z" fill="#ffffff" stroke-width="0"/><text transform="translate(227.82667,302.3375) scale(0.5,0.5)" font-size="40" xml:space="preserve" fill="#000000" stroke-width="1" font-family="&quot;Poppins-Regular&quot;, Malgun Gothic" font-weight="normal" text-anchor="start"><tspan x="0" dy="0">^</tspan></text><g><path d="M112.40185,192.35803c0,-8.34177 0,-31.26149 0,-45.30989c0,-6.78824 3.68812,-11.50515 7.81818,-11.50515c11.74135,0 69.17926,0 97.72721,0c9.77999,0 16.16941,5.36864 16.16941,10.17251c0,7.4883 0,30.08285 0,45.30989c0,8.4995 -4.69775,14.70351 -12.17147,14.70351c-25.33219,0 -82.5568,0 -96.83878,0c-6.31414,0 -12.70454,-7.36871 -12.70454,-13.37086z" fill="#061921" stroke-width="0"/><g stroke-width="0"><path d="M112.40185,223.64075c0,-6.71456 0,-28.40574 0,-40.76573c0,-7.07611 8.10753,-12.23908 19.82961,-12.23908c26.2669,0 76.21571,0 88.22867,0c5.92145,0 13.65652,3.79476 13.65652,9.32724c0,12.03615 0,35.79105 0,43.0952c0,5.17678 -7.73416,11.53562 -16.85954,11.53562c-25.35696,0 -80.47851,0 -93.17879,0c-5.82183,0 -11.67647,-5.98698 -11.67647,-10.95325z" fill="#061921"/><g fill="#41a9d6"><path d="M131.68762,189.7195c0,-1.09304 0,-3.51991 0,-5.44051c0,-1.50367 1.94891,-2.69701 3.25501,-2.69701c0.87579,0 2.43825,0 3.90601,0c1.84155,0 3.53401,1.05083 3.53401,2.418c0,1.91033 0,4.43829 0,5.58001c0,1.13748 -1.18833,2.69701 -2.13901,2.69701c-1.22753,0 -4.43637,0 -6.55651,0c-1.16376,0 -1.99951,-1.46498 -1.99951,-2.55751z"/><path d="M131.68762,179.17394c0,-0.54653 0,-1.75995 0,-2.72026c0,-0.75183 1.94891,-1.34851 3.25501,-1.34851c0.87579,0 2.43825,0 3.90601,0c1.84155,0 3.53401,0.52542 3.53401,1.20901c0,0.95516 0,2.21915 0,2.79001c0,0.56875 -1.18833,1.3485 -2.13901,1.3485c-1.22753,0 -4.43637,0 -6.55651,0c-1.16376,0 -1.9995,-0.7325 -1.9995,-1.27875z"/><path d="M144.143,189.84405c0,-1.09304 0,-3.51991 0,-5.44051c0,-1.50365 1.94891,-2.69701 3.25501,-2.69701c0.87579,0 2.43825,0 3.90601,0c1.84155,0 3.53401,1.05084 3.53401,2.418c0,1.91033 0,4.43829 0,5.58001c0,1.13748 -1.18833,2.697 -2.13901,2.697c-1.22753,0 -4.43637,0 -6.55651,0c-1.16376,0 -1.9995,-1.46498 -1.9995,-2.55751z"/><path d="M144.143,179.29849c0,-0.54653 0,-1.75995 0,-2.72026c0,-0.75184 1.94891,-1.34851 3.25501,-1.34851c0.87579,0 2.43825,0 3.90601,0c1.84155,0 3.53401,0.52542 3.53401,1.20901c0,0.95518 0,2.21915 0,2.79001c0,0.56874 -1.18833,1.3485 -2.13901,1.3485c-1.22753,0 -4.43637,0 -6.55651,0c-1.16376,0 -1.9995,-0.7325 -1.9995,-1.27875z"/><path d="M156.59838,189.84405c0,-1.09304 0,-3.51991 0,-5.44051c0,-1.50365 1.94891,-2.69701 3.25501,-2.69701c0.87579,0 2.43825,0 3.90601,0c1.84155,0 3.53401,1.05084 3.53401,2.418c0,1.91033 0,4.43829 0,5.58001c0,1.13748 -1.18833,2.697 -2.13901,2.697c-1.22753,0 -4.43637,0 -6.55651,0c-1.16376,0 -1.9995,-1.46498 -1.9995,-2.55751z"/><path d="M156.59838,179.29849c0,-0.54653 0,-1.75995 0,-2.72026c0,-0.75184 1.94891,-1.34851 3.25501,-1.34851c0.87579,0 2.43825,0 3.90601,0c1.84155,0 3.53401,0.52542 3.53401,1.20901c0,0.95518 0,2.21915 0,2.79001c0,0.56874 -1.18833,1.3485 -2.13901,1.3485c-1.22753,0 -4.43637,0 -6.55651,0c-1.16376,0 -1.9995,-0.7325 -1.9995,-1.27875z"/><path d="M167.93279,189.7195c0,-1.09304 0,-3.51991 0,-5.44051c0,-1.50365 1.94891,-2.69701 3.25501,-2.69701c0.87579,0 2.43825,0 3.90601,0c1.84155,0 3.53401,1.05084 3.53401,2.418c0,1.91033 0,4.43829 0,5.58001c0,1.13748 -1.18834,2.697 -2.13901,2.697c-1.22753,0 -4.43637,0 -6.55651,0c-1.16376,0 -1.9995,-1.46498 -1.9995,-2.55751z"/><path d="M167.93279,179.17394c0,-0.54653 0,-1.75995 0,-2.72026c0,-0.75184 1.94891,-1.34851 3.25501,-1.34851c0.87579,0 2.43825,0 3.90601,0c1.84155,0 3.53401,0.52542 3.53401,1.20901c0,0.95518 0,2.21915 0,2.79001c0,0.56874 -1.18834,1.3485 -2.13901,1.3485c-1.22753,0 -4.43637,0 -6.55651,0c-1.16376,0 -1.9995,-0.7325 -1.9995,-1.27875z"/><path d="M180.38817,189.84405c0,-1.09304 0,-3.51991 0,-5.44051c0,-1.50365 1.94891,-2.69701 3.25501,-2.69701c0.87579,0 2.43825,0 3.90601,0c1.84155,0 3.53401,1.05084 3.53401,2.418c0,1.91033 0,4.43829 0,5.58001c0,1.13748 -1.18833,2.697 -2.139,2.697c-1.22754,0 -4.43637,0 -6.55651,0c-1.16376,0 -1.9995,-1.46498 -1.9995,-2.55751z"/><path d="M180.38817,179.29849c0,-0.54653 0,-1.75995 0,-2.72026c0,-0.75184 1.94891,-1.34851 3.25501,-1.34851c0.87579,0 2.43825,0 3.90601,0c1.84155,0 3.53401,0.52542 3.53401,1.20901c0,0.95518 0,2.21915 0,2.79001c0,0.56874 -1.18833,1.3485 -2.139,1.3485c-1.22754,0 -4.43637,0 -6.55651,0c-1.16376,0 -1.9995,-0.7325 -1.9995,-1.27875z"/><path d="M192.84355,189.84405c0,-1.09304 0,-3.51991 0,-5.44051c0,-1.50365 1.9489,-2.69701 3.25501,-2.69701c0.87579,0 2.43826,0 3.90601,0c1.84155,0 3.53401,1.05084 3.53401,2.418c0,1.91033 0,4.43829 0,5.58001c0,1.13748 -1.18833,2.697 -2.13901,2.697c-1.22753,0 -4.43637,0 -6.55651,0c-1.16376,0 -1.9995,-1.46498 -1.9995,-2.55751z"/><path d="M192.84355,179.29849c0,-0.54653 0,-1.75995 0,-2.72026c0,-0.75184 1.9489,-1.34851 3.25501,-1.34851c0.87579,0 2.43826,0 3.90601,0c1.84155,0 3.53401,0.52542 3.53401,1.20901c0,0.95518 0,2.21915 0,2.79001c0,0.56874 -1.18833,1.3485 -2.13901,1.3485c-1.22753,0 -4.43637,0 -6.55651,0c-1.16376,0 -1.9995,-0.7325 -1.9995,-1.27875z"/><path d="M204.42706,189.84405c0,-1.09304 0,-3.51991 0,-5.44051c0,-1.50365 1.9489,-2.69701 3.255,-2.69701c0.87579,0 2.43826,0 3.90601,0c1.84155,0 3.53401,1.05084 3.53401,2.418c0,1.91033 0,4.43829 0,5.58001c0,1.13748 -1.18834,2.697 -2.139,2.697c-1.22754,0 -4.43637,0 -6.55651,0c-1.16376,0 -1.9995,-1.46498 -1.9995,-2.55751z"/><path d="M204.42706,179.29849c0,-0.54653 0,-1.75995 0,-2.72026c0,-0.75184 1.9489,-1.34851 3.255,-1.34851c0.87579,0 2.43826,0 3.90601,0c1.84155,0 3.53401,0.52542 3.53401,1.20901c0,0.95518 0,2.21915 0,2.79001c0,0.56874 -1.18834,1.3485 -2.139,1.3485c-1.22754,0 -4.43637,0 -6.55651,0c-1.16376,0 -1.9995,-0.7325 -1.9995,-1.27875z"/><path d="M131.68762,201.92578c0,-1.09304 0,-3.51991 0,-5.44051c0,-1.50366 1.94891,-2.69701 3.25501,-2.69701c0.87579,0 2.43825,0 3.90601,0c1.84155,0 3.53401,1.05085 3.53401,2.418c0,1.91034 0,4.43829 0,5.58001c0,1.13748 -1.18833,2.697 -2.13901,2.697c-1.22753,0 -4.43637,0 -6.55651,0c-1.16376,0 -1.9995,-1.46498 -1.9995,-2.55751z"/><path d="M144.143,202.05034c0,-1.09304 0,-3.51991 0,-5.44051c0,-1.50366 1.94891,-2.69701 3.25501,-2.69701c0.87579,0 2.43825,0 3.90601,0c1.84155,0 3.53401,1.05084 3.53401,2.418c0,1.91034 0,4.43829 0,5.58001c0,1.13748 -1.18833,2.697 -2.13901,2.697c-1.22753,0 -4.43637,0 -6.55651,0c-1.16376,0 -1.9995,-1.46498 -1.9995,-2.55751z"/><path d="M156.59838,202.05034c0,-1.09304 0,-3.51991 0,-5.44051c0,-1.50366 1.94891,-2.69701 3.25501,-2.69701c0.87579,0 2.43825,0 3.90601,0c1.84155,0 3.53401,1.05084 3.53401,2.418c0,1.91034 0,4.43829 0,5.58001c0,1.13748 -1.18833,2.697 -2.13901,2.697c-1.22753,0 -4.43637,0 -6.55651,0c-1.16376,0 -1.9995,-1.46498 -1.9995,-2.55751z"/><path d="M167.93279,201.92578c0,-1.09304 0,-3.51991 0,-5.44051c0,-1.50366 1.94891,-2.69701 3.25501,-2.69701c0.87579,0 2.43825,0 3.90601,0c1.84155,0 3.53401,1.05085 3.53401,2.418c0,1.91034 0,4.43829 0,5.58001c0,1.13748 -1.18834,2.697 -2.13901,2.697c-1.22753,0 -4.43637,0 -6.55651,0c-1.16376,0 -1.9995,-1.46498 -1.9995,-2.55751z"/><path d="M180.38817,202.05034c0,-1.09304 0,-3.51991 0,-5.44051c0,-1.50366 1.94891,-2.69701 3.25501,-2.69701c0.87579,0 2.43825,0 3.90601,0c1.84155,0 3.53401,1.05084 3.53401,2.418c0,1.91034 0,4.43829 0,5.58001c0,1.13748 -1.18833,2.697 -2.139,2.697c-1.22753,0 -4.43637,0 -6.55651,0c-1.16376,0 -1.9995,-1.46498 -1.9995,-2.55751z"/><path d="M192.84355,202.05034c0,-1.09304 0,-3.51991 0,-5.44051c0,-1.50366 1.9489,-2.69701 3.25501,-2.69701c0.87579,0 2.43826,0 3.90601,0c1.84155,0 3.53401,1.05084 3.53401,2.418c0,1.91034 0,4.43829 0,5.58001c0,1.13748 -1.18833,2.697 -2.139,2.697c-1.22754,0 -4.43637,0 -6.55651,0c-1.16376,0 -1.9995,-1.46498 -1.9995,-2.55751z"/><path d="M204.42706,202.05034c0,-1.09304 0,-3.51991 0,-5.44051c0,-1.50366 1.9489,-2.69701 3.255,-2.69701c0.87579,0 2.43826,0 3.90601,0c1.84155,0 3.53401,1.05084 3.53401,2.418c0,1.91034 0,4.43829 0,5.58001c0,1.13748 -1.18834,2.697 -2.139,2.697c-1.22754,0 -4.43637,0 -6.55651,0c-1.16376,0 -1.9995,-1.46498 -1.9995,-2.55751z"/><path d="M131.68762,214.38116c0,-1.09304 0,-3.51991 0,-5.44051c0,-1.50366 1.94891,-2.69702 3.25501,-2.69702c0.87579,0 2.43825,0 3.90601,0c1.84155,0 3.53401,1.05085 3.53401,2.41801c0,1.91034 0,4.43829 0,5.58001c0,1.13748 -1.18833,2.697 -2.13901,2.697c-1.22753,0 -4.43637,0 -6.55651,0c-1.16376,0 -1.9995,-1.46498 -1.9995,-2.55751z"/><path d="M144.143,214.50572c0,-1.09304 0,-3.51991 0,-5.44051c0,-1.50366 1.94891,-2.69701 3.25501,-2.69701c0.87579,0 2.43825,0 3.90601,0c1.84155,0 3.53401,1.05085 3.53401,2.418c0,1.91034 0,4.43829 0,5.58001c0,1.13748 -1.18833,2.697 -2.13901,2.697c-1.22753,0 -4.43637,0 -6.55651,0c-1.16376,0 -1.9995,-1.46498 -1.9995,-2.55751z"/><path d="M156.59838,214.50572c0,-1.09304 0,-3.51991 0,-5.44051c0,-1.50366 1.94891,-2.69701 3.25501,-2.69701c0.87579,0 2.43825,0 3.90601,0c1.84155,0 3.53401,1.05085 3.53401,2.418c0,1.91034 0,4.43829 0,5.58001c0,1.13748 -1.18833,2.697 -2.13901,2.697c-1.22753,0 -4.43637,0 -6.55651,0c-1.16376,0 -1.9995,-1.46498 -1.9995,-2.55751z"/><path d="M167.93279,214.38116c0,-1.09304 0,-3.51991 0,-5.44051c0,-1.50366 1.94891,-2.69702 3.25501,-2.69702c0.87579,0 2.43825,0 3.90601,0c1.84155,0 3.53401,1.05085 3.53401,2.41801c0,1.91034 0,4.43829 0,5.58001c0,1.13748 -1.18834,2.697 -2.13901,2.697c-1.22753,0 -4.43637,0 -6.55651,0c-1.16376,0 -1.9995,-1.46498 -1.9995,-2.55751z"/><path d="M180.38817,214.50572c0,-1.09304 0,-3.51991 0,-5.44051c0,-1.50366 1.94891,-2.69701 3.25501,-2.69701c0.87579,0 2.43825,0 3.90601,0c1.84155,0 3.53401,1.05085 3.53401,2.418c0,1.91034 0,4.43829 0,5.58001c0,1.13748 -1.18833,2.697 -2.139,2.697c-1.22753,0 -4.43637,0 -6.55651,0c-1.16376,0 -1.9995,-1.46498 -1.9995,-2.55751z"/><path d="M192.84355,214.50572c0,-1.09304 0,-3.51991 0,-5.44051c0,-1.50366 1.9489,-2.69701 3.25501,-2.69701c0.87579,0 2.43826,0 3.90601,0c1.84155,0 3.53401,1.05085 3.53401,2.418c0,1.91034 0,4.43829 0,5.58001c0,1.13748 -1.18833,2.697 -2.139,2.697c-1.22754,0 -4.43637,0 -6.55651,0c-1.16376,0 -1.9995,-1.46498 -1.9995,-2.55751z"/><path d="M204.42706,214.50572c0,-1.09304 0,-3.51991 0,-5.44051c0,-1.50366 1.9489,-2.69701 3.255,-2.69701c0.87579,0 2.43826,0 3.90601,0c1.84155,0 3.53401,1.05085 3.53401,2.418c0,1.91034 0,4.43829 0,5.58001c0,1.13748 -1.18834,2.697 -2.139,2.697c-1.22754,0 -4.43637,0 -6.55651,0c-1.16376,0 -1.9995,-1.46498 -1.9995,-2.55751z"/><path d="M131.68762,227.4427c0,-1.09304 0,-3.51991 0,-5.44051c0,-1.50366 1.94891,-2.69701 3.25501,-2.69701c0.87579,0 2.43825,0 3.90601,0c1.84155,0 3.53401,1.05085 3.53401,2.418c0,1.91034 0,4.43829 0,5.58001c0,1.13748 -1.18833,2.697 -2.13901,2.697c-1.22753,0 -4.43637,0 -6.55651,0c-1.16376,0 -1.9995,-1.46498 -1.9995,-2.55751z"/><path d="M144.143,227.56726c0,-1.09304 0,-3.51991 0,-5.44051c0,-1.50366 1.94891,-2.69701 3.25501,-2.69701c0.87579,0 2.43825,0 3.90601,0c1.84155,0 3.53401,1.05085 3.53401,2.418c0,1.91034 0,4.43829 0,5.58001c0,1.13748 -1.18833,2.697 -2.13901,2.697c-1.22753,0 -4.43637,0 -6.55651,0c-1.16376,0 -1.9995,-1.46498 -1.9995,-2.55751z"/><path d="M192.84355,227.56726c0,-1.09304 0,-3.51991 0,-5.44051c0,-1.50366 1.9489,-2.69701 3.25501,-2.69701c0.87579,0 2.43826,0 3.90601,0c1.84155,0 3.53401,1.05085 3.53401,2.418c0,1.91034 0,4.43829 0,5.58001c0,1.13748 -1.18833,2.697 -2.139,2.697c-1.22754,0 -4.43637,0 -6.55651,0c-1.16376,0 -1.9995,-1.46498 -1.9995,-2.55751z"/><path d="M204.42706,227.56726c0,-1.09304 0,-3.51991 0,-5.44051c0,-1.50366 1.9489,-2.69701 3.255,-2.69701c0.87579,0 2.43826,0 3.90601,0c1.84155,0 3.53401,1.05085 3.53401,2.418c0,1.91034 0,4.43829 0,5.58001c0,1.13748 -1.18834,2.697 -2.139,2.697c-1.22754,0 -4.43637,0 -6.55651,0c-1.16376,0 -1.9995,-1.46498 -1.9995,-2.55751z"/><path d="M157.83147,227.56726c0,-1.09304 0,-3.51991 0,-5.44051c0,-1.50366 1.54033,-2.69701 2.57262,-2.69701c0.69219,0 24.37187,0 25.53192,0c1.45549,0 2.79312,1.05085 2.79312,2.418c0,1.91034 0,4.43829 0,5.58001c0,1.13748 -0.93921,2.69702 -1.69058,2.69702c-0.9702,0 -25.95109,0 -27.62676,0c-0.91978,0 -1.58032,-1.46498 -1.58032,-2.55751z"/><path d="M216.94796,189.84405c0,-1.09304 0,-3.51991 0,-5.44051c0,-1.50365 1.9489,-2.69701 3.255,-2.69701c0.87579,0 2.43826,0 3.90601,0c1.84155,0 3.53401,1.05084 3.53401,2.418c0,1.91033 0,4.43829 0,5.58001c0,1.13748 -1.18834,2.697 -2.139,2.697c-1.22754,0 -4.43637,0 -6.55651,0c-1.16376,0 -1.9995,-1.46498 -1.9995,-2.55751z"/><path d="M216.94796,179.29849c0,-0.54653 0,-1.75995 0,-2.72026c0,-0.75184 1.9489,-1.34851 3.255,-1.34851c0.87579,0 2.43826,0 3.90601,0c1.84155,0 3.53401,0.52542 3.53401,1.20901c0,0.95518 0,2.21915 0,2.79001c0,0.56874 -1.18834,1.3485 -2.139,1.3485c-1.22754,0 -4.43637,0 -6.55651,0c-1.16376,0 -1.9995,-0.7325 -1.9995,-1.27875z"/><path d="M216.94796,202.05034c0,-1.09304 0,-3.51991 0,-5.44051c0,-1.50366 1.9489,-2.69701 3.255,-2.69701c0.87579,0 2.43826,0 3.90601,0c1.84155,0 3.53401,1.05084 3.53401,2.418c0,1.91034 0,4.43829 0,5.58001c0,1.13748 -1.18834,2.697 -2.139,2.697c-1.22754,0 -4.43637,0 -6.55651,0c-1.16376,0 -1.9995,-1.46498 -1.9995,-2.55751z"/><path d="M216.94796,214.50572c0,-1.09304 0,-3.51991 0,-5.44051c0,-1.50366 1.9489,-2.69701 3.255,-2.69701c0.87579,0 2.43826,0 3.90601,0c1.84155,0 3.53401,1.05085 3.53401,2.418c0,1.91034 0,4.43829 0,5.58001c0,1.13748 -1.18834,2.697 -2.139,2.697c-1.22754,0 -4.43637,0 -6.55651,0c-1.16376,0 -1.9995,-1.46498 -1.9995,-2.55751z"/><path d="M216.94796,227.56726c0,-1.09304 0,-3.51991 0,-5.44051c0,-1.50366 1.9489,-2.69701 3.255,-2.69701c0.87579,0 2.43826,0 3.90601,0c1.84155,0 3.53401,1.05085 3.53401,2.418c0,1.91034 0,4.43829 0,5.58001c0,1.13748 -1.18834,2.697 -2.139,2.697c-1.22754,0 -4.43637,0 -6.55651,0c-1.16376,0 -1.9995,-1.46498 -1.9995,-2.55751z"/><path d="M118.87553,189.7195c0,-1.09304 0,-3.51991 0,-5.44051c0,-1.50367 1.94891,-2.69701 3.25501,-2.69701c0.87579,0 2.43825,0 3.90601,0c1.84155,0 3.53401,1.05083 3.53401,2.418c0,1.91033 0,4.43829 0,5.58001c0,1.13748 -1.18833,2.69701 -2.13901,2.69701c-1.22753,0 -4.43637,0 -6.55651,0c-1.16376,0 -1.99951,-1.46498 -1.99951,-2.55751z"/><path d="M118.87553,179.17394c0,-0.54653 0,-1.75995 0,-2.72026c0,-0.75183 1.94891,-1.34851 3.25501,-1.34851c0.87579,0 2.43825,0 3.90601,0c1.84155,0 3.53401,0.52542 3.53401,1.20901c0,0.95516 0,2.21915 0,2.79001c0,0.56875 -1.18833,1.3485 -2.13901,1.3485c-1.22753,0 -4.43637,0 -6.55651,0c-1.16376,0 -1.9995,-0.7325 -1.9995,-1.27875z"/><path d="M118.87553,201.92578c0,-1.09304 0,-3.51991 0,-5.44051c0,-1.50366 1.94891,-2.69701 3.25501,-2.69701c0.87579,0 2.43825,0 3.90601,0c1.84155,0 3.53401,1.05085 3.53401,2.418c0,1.91034 0,4.43829 0,5.58001c0,1.13748 -1.18833,2.697 -2.13901,2.697c-1.22753,0 -4.43637,0 -6.55651,0c-1.16376,0 -1.9995,-1.46498 -1.9995,-2.55751z"/><path d="M118.87553,214.38116c0,-1.09304 0,-3.51991 0,-5.44051c0,-1.50366 1.94891,-2.69702 3.25501,-2.69702c0.87579,0 2.43825,0 3.90601,0c1.84155,0 3.53401,1.05085 3.53401,2.41801c0,1.91034 0,4.43829 0,5.58001c0,1.13748 -1.18833,2.697 -2.13901,2.697c-1.22753,0 -4.43637,0 -6.55651,0c-1.16376,0 -1.9995,-1.46498 -1.9995,-2.55751z"/><path d="M118.87553,227.4427c0,-1.09304 0,-3.51991 0,-5.44051c0,-1.50366 1.94891,-2.69701 3.25501,-2.69701c0.87579,0 2.43825,0 3.90601,0c1.84155,0 3.53401,1.05085 3.53401,2.418c0,1.91034 0,4.43829 0,5.58001c0,1.13748 -1.18833,2.697 -2.13901,2.697c-1.22753,0 -4.43637,0 -6.55651,0c-1.16376,0 -1.9995,-1.46498 -1.9995,-2.55751z"/></g></g><path d="M112.40185,160.13569c0,-8.34177 0,-31.26149 0,-45.30989c0,-6.78824 3.68812,-11.50515 7.81818,-11.50515c11.74135,0 69.17926,0 97.72721,0c9.77999,0 16.16941,5.36864 16.16941,10.17251c0,7.4883 0,30.08285 0,45.30989c0,8.4995 -4.69775,14.70351 -12.17147,14.70351c-25.33219,0 -82.5568,0 -96.83878,0c-6.31414,0 -12.70454,-7.36871 -12.70454,-13.37086z" fill="#061921" stroke-width="0"/><path d="M121.646,168.17598v-59.52476h103.22648v59.52476z" fill="#41a9d6" stroke-width="0"/><text transform="translate(164.26575,171.38962) scale(0.06281,0.06281)" font-size="40" xml:space="preserve" fill="#ffffff" stroke-width="1" font-family="&quot;Poppins-Regular&quot;, Malgun Gothic" font-weight="normal" text-anchor="start"><tspan x="0" dy="0">Fate Computers</tspan></text></g><text transform="translate(141.42927,267.5894) scale(0.5,0.5)" font-size="40" xml:space="preserve" fill="#ffffff" stroke-width="1" font-family="&quot;Poppins-Regular&quot;, Malgun Gothic" font-weight="normal" text-anchor="start"><tspan x="0" dy="0">Fate L1</tspan></text></g></g></svg>