<svg version="1.1" xmlns="http://www.w3.org/2000/svg" xmlns:xlink="http://www.w3.org/1999/xlink" width="60.56891" height="53.39344" viewBox="0,0,60.56891,53.39344"><defs><radialGradient cx="278.71802" cy="190.25825" r="21.00248" gradientUnits="userSpaceOnUse" id="color-1"><stop offset="0" stop-color="#ffe766"/><stop offset="1" stop-color="#ffe766" stop-opacity="0"/></radialGradient></defs><g transform="translate(-257.71554,-153.30328)"><g stroke-miterlimit="10"><g><path d="M269.21361,205.19952l3.81147,-9.45246l2.05488,0.82858l-3.81147,9.45246z" fill="#000000" stroke="none" stroke-width="0"/><path d="M289.2652,176.52895c0,-6.6282 5.37322,-12.00142 12.00142,-12.00142c6.6282,0 12.00142,5.37322 12.00142,12.00142c0,6.6282 -5.37322,12.00142 -12.00142,12.00142c-6.6282,0 -12.00142,-5.37322 -12.00142,-12.00142z" fill="#000000" stroke="none" stroke-width="0"/><path d="M301.26662,186.36088c0,5.43002 -4.42257,9.83193 -9.87809,9.83193c-5.45552,0 -9.87809,-4.40191 -9.87809,-9.83193c0,-5.43002 4.42257,-9.83193 9.87809,-9.83193c5.45552,0 9.87809,4.40191 9.87809,9.83193z" fill="#e37156" stroke="none" stroke-width="0"/><path d="M267.71907,174.41146c1.92687,-2.91292 7.55669,-2.58349 12.57457,0.73578c5.01787,3.31928 7.52363,8.37148 5.59676,11.28439c-1.92687,2.91292 -7.55669,2.5835 -12.57457,-0.73578c-5.01787,-3.31928 -7.52363,-8.37148 -5.59676,-11.28439z" fill="#000000" stroke="#e37156" stroke-width="3"/><path d="M275.36203,205.42239l3.81147,-9.45246l2.05488,0.82858l-3.81147,9.45246z" fill="#000000" stroke="none" stroke-width="0"/><path d="M257.71554,190.25825c0,-7.44908 9.40312,-13.48775 21.00248,-13.48775c11.59936,0 21.00248,6.03867 21.00248,13.48775c0,7.44908 -9.40312,13.48775 -21.00248,13.48775c-11.59936,0 -21.00248,-6.03867 -21.00248,-13.48775z" fill="url(#color-1)" stroke="none" stroke-width="0"/><path d="M261.81949,190.25825c0,-5.99349 7.56574,-10.8522 16.89853,-10.8522c9.33279,0 16.89853,4.85871 16.89853,10.8522c0,5.99349 -7.56574,10.8522 -16.89853,10.8522c-9.33279,0 -16.89853,-4.85871 -16.89853,-10.8522z" fill="#ffe766" stroke="none" stroke-width="0"/><path d="M299.72051,190.15973c0,5.99351 -4.07646,10.8522 -9.10503,10.8522c-5.02857,0 -5.02857,-21.7044 0,-21.7044c5.02857,0 9.10503,4.8587 9.10503,10.8522z" fill="#000000" stroke="none" stroke-width="0"/><path d="M285.32192,206.47385l-3.81147,-9.45246l2.05488,-0.82858l3.81147,9.45246z" fill="#000000" stroke="none" stroke-width="0"/><path d="M290.02877,174.13174c5.01787,3.31928 7.52363,8.37148 5.59676,11.28439c-1.92687,2.91292 -7.55669,2.58349 -12.57457,-0.73578c-5.01787,-3.31928 -7.52363,-8.37148 -5.59676,-11.28439c1.92687,-2.91292 7.55669,-2.58349 12.57457,0.73578z" fill="#000000" stroke="#e37156" stroke-width="3"/><path d="M307.2034,175.64301l7.2638,-15.91462l2.16788,1.50118l-7.2638,15.91463z" fill="#000000" stroke="none" stroke-width="0"/><path d="M299.0461,171.35442l7.2638,-15.91463l2.16788,1.50118l-7.2638,15.91463z" fill="#000000" stroke="none" stroke-width="0"/><path d="M291.47034,206.69672l-3.81148,-9.45246l2.05488,-0.82858l3.81148,9.45246z" fill="#000000" stroke="none" stroke-width="0"/><path d="M305.94014,155.43979c0,-1.17996 0.95655,-2.13651 2.13651,-2.13651c1.17996,0 2.13651,0.95655 2.13651,2.13651c0,1.17996 -0.95655,2.13651 -2.13651,2.13651c-1.17996,0 -2.13651,-0.95655 -2.13651,-2.13651z" fill="#000000" stroke="none" stroke-width="0"/><path d="M314.01142,159.72839c0,-1.17996 0.95655,-2.13652 2.13652,-2.13652c1.17996,0 2.13651,0.95655 2.13651,2.13652c0,1.17996 -0.95655,2.13652 -2.13651,2.13652c-1.17996,0 -2.13652,-0.95655 -2.13652,-2.13652z" fill="#000000" stroke="none" stroke-width="0"/></g></g></g></svg>