<svg version="1.1" xmlns="http://www.w3.org/2000/svg" xmlns:xlink="http://www.w3.org/1999/xlink" width="44.79084" height="68.74656" viewBox="0,0,44.79084,68.74656"><g transform="translate(-265.77177,-149.6773)"><g stroke="none" stroke-miterlimit="10"><text transform="translate(267.00391,214.4802) scale(0.39835,0.39835)" font-size="40" xml:space="preserve" fill="#000000" stroke-width="1" font-family="&quot;Trebuchet MS&quot;, Sans Serif" font-weight="normal" text-anchor="start"><tspan x="0" dy="0">About</tspan></text><text transform="translate(266.28962,213.76591) scale(0.39835,0.39835)" font-size="40" xml:space="preserve" fill="#ffffff" stroke-width="1" font-family="&quot;Trebuchet MS&quot;, Sans Serif" font-weight="normal" text-anchor="start"><tspan x="0" dy="0">About</tspan></text><g><path d="M265.89182,172.01269c0,-12.3355 9.9999,-22.33539 22.33539,-22.33539c12.3355,0 22.33539,9.9999 22.33539,22.33539c0,12.3355 -9.9999,22.33539 -22.33539,22.33539c-12.3355,0 -22.33539,-9.9999 -22.33539,-22.33539z" fill="#c6cacd" stroke-width="0"/><path d="M271.08329,172.01269c0,-9.46833 7.6756,-17.14392 17.14392,-17.14392c9.46833,0 17.14392,7.6756 17.14392,17.14392c0,9.46833 -7.6756,17.14392 -17.14392,17.14392c-9.46833,0 -17.14392,-7.6756 -17.14392,-17.14392z" fill="#66b2ff" stroke-width="0"/><text transform="translate(282.03434,184.33178) scale(0.86815,0.86815)" font-size="40" xml:space="preserve" fill="#ffffff" stroke-width="1" font-family="&quot;Trebuchet MS&quot;, Sans Serif" font-weight="normal" text-anchor="start"><tspan x="0" dy="0">?</tspan></text></g></g></g></svg>