<svg version="1.1" xmlns="http://www.w3.org/2000/svg" xmlns:xlink="http://www.w3.org/1999/xlink" width="407" height="263" viewBox="0,0,407,263"><g transform="translate(-84.5,-48.5)"><g stroke="none" stroke-miterlimit="10"><path d="M84.5,278.89999c0,-23.94017 0,-152.37376 0,-196c0,-20.32696 12.49842,-34.39999 32.60001,-34.39999c73.40347,0 309.19035,0 347,0c14.12451,0 27.39999,6.62005 27.39999,17.39999c0,41.44836 0,200.39521 0,225c0,10.30692 -12.42794,20.60001 -32.39999,20.60001c-71.80718,0 -302.13538,0 -342,0c-16.43325,0 -32.60001,-17.4268 -32.60001,-32.60001z" fill="#f6f2f2" stroke-width="0"/><text transform="translate(134.63086,155) scale(0.5,0.5)" font-size="40" xml:space="preserve" fill="#000000" stroke-width="1" font-family="&quot;Trebuchet MS&quot;, Sans Serif" font-weight="normal" text-anchor="start"><tspan x="0" dy="0">Transfer your files, apps, settings,</tspan><tspan x="0" dy="48px">users, and more with Transfer!</tspan></text><path d="M93.21863,246.55019c0,-4.36931 0,-27.80966 0,-35.77186c0,-3.70987 5.82122,-6.27832 15.18366,-6.27832c34.18812,0 144.0073,0 161.61737,0c6.57858,0 12.76171,1.20822 12.76171,3.17567c0,7.56472 0,36.57402 0,41.06463c0,1.88111 -5.78839,3.7597 -15.09049,3.7597c-33.44464,0 -140.7214,0 -159.28859,0c-7.65389,0 -15.18366,-3.18056 -15.18366,-5.94981z" fill="#54a840" stroke-width="0"/><text transform="translate(98.10254,234.50001) scale(0.5,0.5)" font-size="40" xml:space="preserve" fill="#ffffff" stroke-width="1" font-family="&quot;Trebuchet MS&quot;, Sans Serif" font-weight="normal" text-anchor="start"><tspan x="0" dy="0">Transfer from Media</tspan></text><path d="M294.71863,246.55019c0,-4.36931 0,-27.80966 0,-35.77186c0,-3.70987 5.82122,-6.27832 15.18366,-6.27832c34.18812,0 144.0073,0 161.61737,0c6.57858,0 12.76171,1.20822 12.76171,3.17567c0,7.56472 0,36.57402 0,41.06463c0,1.88111 -5.78839,3.7597 -15.09049,3.7597c-33.44464,0 -140.7214,0 -159.28859,0c-7.65389,0 -15.18366,-3.18056 -15.18366,-5.94981z" fill="#54a840" stroke-width="0"/><text transform="translate(303.45508,234.50001) scale(0.5,0.5)" font-size="40" xml:space="preserve" fill="#ffffff" stroke-width="1" font-family="&quot;Trebuchet MS&quot;, Sans Serif" font-weight="normal" text-anchor="start"><tspan x="0" dy="0">Transfer from Code</tspan></text></g></g></svg>