<svg version="1.1" xmlns="http://www.w3.org/2000/svg" xmlns:xlink="http://www.w3.org/1999/xlink" width="535" height="366.17251" viewBox="0,0,535,366.17251"><defs><linearGradient x1="286" y1="-23.41125" x2="286" y2="253.19625" gradientUnits="userSpaceOnUse" id="color-1"><stop offset="0" stop-color="#999494" stop-opacity="0.69804"/><stop offset="1" stop-color="#999090" stop-opacity="0.85098"/></linearGradient></defs><g transform="translate(-18.5,23.41125)"><g stroke-miterlimit="10"><path d="M18.5,214.41317c0,-34.55203 0,-146.36278 0,-200.20193c0,-22.53328 36.57874,-37.62249 70.33566,-37.62249c62.56043,0 276.47809,0 390.96154,0c44.29362,0 73.7028,19.08553 73.7028,36.65533c0,32.81079 0,145.55657 0,204.07057c0,21.65442 -5.32428,35.8816 -39.86713,35.8816c-90.13957,0 -433.54782,0 -436.47902,0c-54.77887,0 -58.65385,-14.57147 -58.65385,-38.78308z" fill="url(#color-1)" stroke="none" stroke-width="0"/><text transform="translate(248.25,335.39437) scale(0.74413,0.74413)" font-size="40" xml:space="preserve" fill="#ffffff" stroke="none" stroke-width="1" font-family="&quot;Trebuchet MS&quot;, Sans Serif" font-weight="normal" text-anchor="start"><tspan x="0" dy="0">Log In</tspan></text><path d="M237.875,68.625c0,-27.68327 22.44173,-50.125 50.125,-50.125c27.68327,0 50.125,22.44173 50.125,50.125c0,27.68327 -22.44173,50.125 -50.125,50.125c-27.68327,0 -50.125,-22.44173 -50.125,-50.125z" fill="#383434" stroke="none" stroke-width="0"/><g><path d="M258.91286,93.60884c0,-16.06438 13.02275,-29.08714 29.08714,-29.08714c16.06438,0 29.08714,13.02275 29.08714,29.08714c0,16.06438 -58.17427,16.06438 -58.17427,0z" fill="#625c5c" stroke="none" stroke-width="0"/><path d="M267.51095,52.08192c0,-11.31579 9.17326,-20.48905 20.48905,-20.48905c11.31579,0 20.48905,9.17326 20.48905,20.48905c0,11.31579 -9.17326,20.48905 -20.48905,20.48905c-11.31579,0 -20.48905,-9.17326 -20.48905,-20.48905z" fill="#625c5c" stroke="#383434" stroke-width="5"/><path d="M267.51095,52.08192c0,-11.31579 9.17326,-20.48905 20.48905,-20.48905c11.31579,0 20.48905,9.17326 20.48905,20.48905c0,11.31579 -9.17326,20.48905 -20.48905,20.48905c-11.31579,0 -20.48905,-9.17326 -20.48905,-20.48905z" fill="#625c5c" stroke="none" stroke-width="0"/></g></g></g></svg>