<svg version="1.1" xmlns="http://www.w3.org/2000/svg" xmlns:xlink="http://www.w3.org/1999/xlink" width="71.51105" height="70.155" viewBox="0,0,71.51105,70.155"><defs><radialGradient cx="285.15846" cy="167.39773" r="22.89351" gradientUnits="userSpaceOnUse" id="color-1"><stop offset="0" stop-color="#9966ff"/><stop offset="1" stop-color="#9966ff" stop-opacity="0"/></radialGradient><radialGradient cx="285.15846" cy="167.39773" r="20.90449" gradientUnits="userSpaceOnUse" id="color-2"><stop offset="0" stop-color="#9966ff"/><stop offset="1" stop-color="#9966ff" stop-opacity="0"/></radialGradient><radialGradient cx="285.15846" cy="167.39774" r="18.65029" gradientUnits="userSpaceOnUse" id="color-3"><stop offset="0" stop-color="#9966ff"/><stop offset="1" stop-color="#9966ff" stop-opacity="0"/></radialGradient><linearGradient x1="285.15846" y1="151.34626" x2="285.15846" y2="183.44921" gradientUnits="userSpaceOnUse" id="color-4"><stop offset="0" stop-color="#9966ff"/><stop offset="1" stop-color="#72239a"/></linearGradient></defs><g transform="translate(-252.44411,-144.50423)"><g stroke-miterlimit="10"><text transform="translate(253.35758,210.71557) scale(0.39835,0.39835)" font-size="40" xml:space="preserve" fill="#000000" stroke="none" stroke-width="1" stroke-linecap="butt" font-family="&quot;Trebuchet MS&quot;, Sans Serif" font-weight="normal" text-anchor="start"><tspan x="0" dy="0">Nightlight</tspan></text><text transform="translate(252.64329,210.00128) scale(0.39835,0.39835)" font-size="40" xml:space="preserve" fill="#ffffff" stroke="none" stroke-width="1" stroke-linecap="butt" font-family="&quot;Trebuchet MS&quot;, Sans Serif" font-weight="normal" text-anchor="start"><tspan x="0" dy="0">Nightlight</tspan></text><g><path d="M262.26496,167.39773c0,-12.64373 10.24976,-22.8935 22.8935,-22.8935c12.64373,0 22.89351,10.24977 22.89351,22.8935c0,12.64373 -10.24977,22.8935 -22.89351,22.8935c-12.64374,0 -22.8935,-10.24976 -22.8935,-22.8935z" fill="url(#color-1)" stroke="none" stroke-width="0" stroke-linecap="butt"/><path d="M264.25397,167.39773c0,-11.54523 9.35926,-20.90449 20.90449,-20.90449c11.54523,0 20.90449,9.35926 20.90449,20.90449c0,11.54523 -9.35926,20.90449 -20.90449,20.90449c-11.54524,0 -20.90449,-9.35925 -20.90449,-20.90449z" fill="url(#color-2)" stroke="none" stroke-width="0" stroke-linecap="butt"/><path d="M266.50818,167.39774c0,-10.30027 8.35001,-18.65028 18.65028,-18.65028c10.30027,0 18.65029,8.35001 18.65029,18.65028c0,10.30027 -8.35002,18.65028 -18.65029,18.65028c-10.30027,0 -18.65028,-8.35001 -18.65028,-18.65028z" fill="url(#color-3)" stroke="none" stroke-width="0" stroke-linecap="butt"/><path d="M269.10699,167.39773c0,-8.86498 7.18649,-16.05148 16.05148,-16.05148c8.86498,0 16.05148,7.18649 16.05148,16.05148c0,8.86498 -7.1865,16.05147 -16.05148,16.05147c-8.86499,0 -16.05148,-7.18649 -16.05148,-16.05147z" fill="url(#color-4)" stroke="none" stroke-width="0" stroke-linecap="butt"/><g fill="none" stroke="#9966ff" stroke-width="2.5"><path d="M269.10699,167.39773c0,-8.86498 7.1865,-16.05148 16.05148,-16.05148c8.86498,0 16.05148,7.18649 16.05148,16.05148c0,8.86498 -7.18649,16.05147 -16.05148,16.05147c-8.86498,0 -16.05148,-7.18649 -16.05148,-16.05147z" stroke-linecap="butt"/><path d="M276.89898,180.01875c0,0 -1.94514,-6.20544 -1.8564,-11.93404c0.09948,-6.422 1.8564,-14.18824 1.8564,-14.18824" stroke-linecap="round"/><path d="M282.4682,182.05008c0,0 -1.94514,-6.93467 -1.8564,-13.33646c0.09948,-7.17668 1.8564,-15.85556 1.8564,-15.85556" stroke-linecap="round"/><path d="M288.17002,182.05008c0,0 -1.94514,-6.93467 -1.8564,-13.33646c0.09948,-7.17668 1.8564,-15.85556 1.8564,-15.85556" stroke-linecap="round"/><path d="M293.87184,180.45888c0,0 -1.94514,-6.20544 -1.8564,-11.93404c0.09947,-6.42201 1.8564,-14.18825 1.8564,-14.18825" stroke-linecap="round"/><path d="M271.56113,159.89732c0,0 7.96335,-1.75693 14.54835,-1.85641c5.874,-0.08874 12.23693,1.85641 12.23693,1.85641" stroke-linecap="round"/><path d="M270.39012,165.46654c0,0 8.67888,-1.75693 15.85556,-1.85641c6.40179,-0.08874 13.33646,1.85641 13.33646,1.85641" stroke-linecap="round"/><path d="M270.39012,171.16836c0,0 8.67888,-1.75692 15.85556,-1.8564c6.40179,-0.08874 13.33646,1.8564 13.33646,1.8564" stroke-linecap="round"/><path d="M272.22413,176.87018c0,0 7.66056,-1.75692 13.99517,-1.8564c5.65064,-0.08874 11.77164,1.8564 11.77164,1.8564" stroke-linecap="round"/></g></g></g></g></svg>