<svg version="1.1" xmlns="http://www.w3.org/2000/svg" xmlns:xlink="http://www.w3.org/1999/xlink" width="28.78572" height="24.29444" viewBox="0,0,28.78572,24.29444"><defs><linearGradient x1="240.00001" y1="176.16443" x2="240.00001" y2="192.14722" gradientUnits="userSpaceOnUse" id="color-1"><stop offset="0" stop-color="#262626"/><stop offset="1" stop-color="#1a1a1a"/></linearGradient><linearGradient x1="240.00001" y1="181.51847" x2="240.00001" y2="186.79319" gradientUnits="userSpaceOnUse" id="color-2"><stop offset="0" stop-color="#e6e6e6"/><stop offset="1" stop-color="#d7d7d7"/></linearGradient><linearGradient x1="240.63685" y1="172.44061" x2="240.63685" y2="178.30823" gradientUnits="userSpaceOnUse" id="color-3"><stop offset="0" stop-color="#312530"/><stop offset="1" stop-color="#322227"/></linearGradient><linearGradient x1="229.80311" y1="170.85346" x2="230.08499" y2="186.43674" gradientUnits="userSpaceOnUse" id="color-4"><stop offset="0" stop-color="#332632"/><stop offset="1" stop-color="#332020"/></linearGradient><linearGradient x1="232.79304" y1="169.06082" x2="232.79304" y2="171.11458" gradientUnits="userSpaceOnUse" id="color-5"><stop offset="0" stop-color="#302633"/><stop offset="1" stop-color="#322633"/></linearGradient><linearGradient x1="241.36619" y1="169.51385" x2="241.36619" y2="184.61777" gradientUnits="userSpaceOnUse" id="color-6"><stop offset="0" stop-color="#302633"/><stop offset="1" stop-color="#332020"/></linearGradient><linearGradient x1="249.59237" y1="169.71519" x2="249.59237" y2="184.81911" gradientUnits="userSpaceOnUse" id="color-7"><stop offset="0" stop-color="#302633"/><stop offset="1" stop-color="#332020"/></linearGradient><linearGradient x1="240.57932" y1="171.23257" x2="240.57932" y2="177.10019" gradientUnits="userSpaceOnUse" id="color-8"><stop offset="0" stop-color="#ea76de"/><stop offset="1" stop-color="#f75ca2"/></linearGradient><linearGradient x1="229.74558" y1="169.64542" x2="230.02746" y2="185.2287" gradientUnits="userSpaceOnUse" id="color-9"><stop offset="0" stop-color="#ea76df"/><stop offset="1" stop-color="#ff3f3f"/></linearGradient><linearGradient x1="232.73551" y1="167.85278" x2="232.73551" y2="169.90654" gradientUnits="userSpaceOnUse" id="color-10"><stop offset="0" stop-color="#e681ff"/><stop offset="1" stop-color="#e87cef"/></linearGradient><linearGradient x1="241.30866" y1="168.30581" x2="241.30866" y2="183.40973" gradientUnits="userSpaceOnUse" id="color-11"><stop offset="0" stop-color="#e681ff"/><stop offset="1" stop-color="#ff3f3f"/></linearGradient><linearGradient x1="249.53484" y1="168.50715" x2="249.53484" y2="183.61107" gradientUnits="userSpaceOnUse" id="color-12"><stop offset="0" stop-color="#e681ff"/><stop offset="1" stop-color="#ff3f3f"/></linearGradient></defs><g transform="translate(-225.60714,-167.85278)"><g data-paper-data="{&quot;isPaintingLayer&quot;:true}" fill-rule="nonzero" stroke-linejoin="miter" stroke-miterlimit="10" stroke-dasharray="" stroke-dashoffset="0" style="mix-blend-mode: normal"><g><g><path d="M225.60714,184.15583c0,-4.41353 6.4439,-7.99139 14.39286,-7.99139c7.94896,0 14.39286,3.57787 14.39286,7.99139c0,4.41353 -6.4439,7.99139 -14.39286,7.99139c-7.94896,0 -14.39286,-3.57787 -14.39286,-7.99139z" fill="url(#color-1)" stroke="none" stroke-width="0" stroke-linecap="butt"/><path d="M235.25001,184.15583c0,-1.45657 2.12665,-2.63736 4.75,-2.63736c2.62335,0 4.75,1.18079 4.75,2.63736c0,1.45657 -2.12665,2.63736 -4.75,2.63736c-2.62335,0 -4.75,-1.18079 -4.75,-2.63736z" fill="url(#color-2)" stroke="none" stroke-width="0" stroke-linecap="butt"/><path d="M251.91965,177.32976c0,0 0.0236,4.09404 -0.49301,5.99516c-0.50703,1.86588 -2.7927,4.59352 -2.7927,4.59352" fill="none" stroke="#404040" stroke-width="1.5" stroke-linecap="round"/><path d="M246.7768,178.12295l0.42857,-2.38288h5.5l0.42857,2.38288z" fill="#404040" stroke="#404040" stroke-width="0" stroke-linecap="butt"/></g><g stroke-width="2"><g><path d="M244.40479,174.25267c0,0 -2.64605,4.63656 -5.06226,4.05556c-2.41621,-0.581 -2.47361,-5.86762 -2.47361,-5.86762" fill="none" stroke="url(#color-3)" stroke-linecap="round"/><path d="M227.93592,184.47651l4.08464,-11.73447" fill="none" stroke="url(#color-4)" stroke-linecap="round"/><path d="M231.76616,170.0877c0,-0.56713 0.45976,-1.02688 1.02688,-1.02688c0.56713,0 1.02688,0.45976 1.02688,1.02688c0,0.56713 -0.45975,1.02688 -1.02688,1.02688c-0.56713,0 -1.02688,-0.45975 -1.02688,-1.02688z" fill="url(#color-5)" stroke="none" stroke-linecap="butt"/><path d="M237.37369,170.66504l-4.42706,13.95273" fill="none" stroke="url(#color-6)" stroke-linecap="round"/><path d="M245.59987,170.86639l-4.42706,13.95272" fill="none" stroke="url(#color-7)" stroke-linecap="round"/></g><g><path d="M244.34726,173.04463c0,0 -2.64605,4.63656 -5.06226,4.05556c-2.41621,-0.581 -2.47361,-5.86762 -2.47361,-5.86762" fill="none" stroke="url(#color-8)" stroke-linecap="round"/><path d="M231.96304,171.53401l-4.08464,11.73446" fill="none" stroke="url(#color-9)" stroke-linecap="round"/><path d="M231.70863,168.87966c0,-0.56713 0.45975,-1.02688 1.02688,-1.02688c0.56713,0 1.02688,0.45976 1.02688,1.02688c0,0.56713 -0.45975,1.02687 -1.02688,1.02687c-0.56713,0 -1.02688,-0.45974 -1.02688,-1.02687z" fill="url(#color-10)" stroke="none" stroke-linecap="butt"/><path d="M237.31617,169.457l-4.42706,13.95273" fill="none" stroke="url(#color-11)" stroke-linecap="round"/><path d="M241.11528,183.61106l4.42706,-13.95272" fill="none" stroke="url(#color-12)" stroke-linecap="round"/></g></g></g></g></g></svg>