<svg version="1.1" xmlns="http://www.w3.org/2000/svg" xmlns:xlink="http://www.w3.org/1999/xlink" width="406" height="49.4" viewBox="0,0,406,49.4"><g transform="translate(-37,-48.5)"><g stroke="none" stroke-miterlimit="10"><path d="M37,97.9c0,0 0,-8.83577 0,-15c0,-20.32696 12.49842,-34.4 32.60001,-34.4c73.40347,0 308.19035,0 346,0c14.12451,0 27.39999,6.62005 27.39999,17.4c0,7.79959 0,31 0,31z" fill="#eddb6d" stroke-width="0"/><text transform="translate(111.3,78.96875) scale(0.5,0.5)" font-size="40" xml:space="preserve" fill="#ffffff" stroke-width="1" font-family="&quot;Trebuchet MS&quot;, Sans Serif" font-weight="normal" text-anchor="start"><tspan x="0" dy="0">About Firefly</tspan></text><g><path d="M65.43671,73.2c0,-8.2624 6.698,-14.96039 14.96039,-14.96039c8.2624,0 14.96039,6.698 14.96039,14.96039c0,8.2624 -6.698,14.96039 -14.96039,14.96039c-8.2624,0 -14.96039,-6.698 -14.96039,-14.96039z" fill="#c6cacd" stroke-width="0"/><path d="M68.91399,73.2c0,-6.34195 5.14117,-11.48311 11.48311,-11.48311c6.34195,0 11.48311,5.14116 11.48311,11.48311c0,6.34195 -5.14117,11.48311 -11.48311,11.48311c-6.34195,0 -11.48311,-5.14117 -11.48311,-11.48311z" fill="#66b2ff" stroke-width="0"/><text transform="translate(76.24907,81.45141) scale(0.58149,0.58149)" font-size="40" xml:space="preserve" fill="#ffffff" stroke-width="1" font-family="&quot;Trebuchet MS&quot;, Sans Serif" font-weight="normal" text-anchor="start"><tspan x="0" dy="0">?</tspan></text></g></g></g></svg>