<svg version="1.1" xmlns="http://www.w3.org/2000/svg" xmlns:xlink="http://www.w3.org/1999/xlink" width="740.24337" height="1158.10653" viewBox="0,0,740.24337,1158.10653"><defs><radialGradient cx="288" cy="180.00001" r="278.15394" gradientUnits="userSpaceOnUse" id="color-1"><stop offset="0" stop-color="#ffe766"/><stop offset="1" stop-color="#000000"/></radialGradient><linearGradient x1="17.30223" y1="98.41762" x2="629.56958" y2="98.41762" gradientUnits="userSpaceOnUse" id="color-2"><stop offset="0" stop-color="#d67878"/><stop offset="1" stop-color="#c378d6"/></linearGradient><linearGradient x1="-39.77448" y1="211.10049" x2="572.49288" y2="211.10049" gradientUnits="userSpaceOnUse" id="color-3"><stop offset="0" stop-color="#d6d478"/><stop offset="1" stop-color="#d6788d"/></linearGradient><linearGradient x1="-82.12169" y1="302.98035" x2="530.14566" y2="302.98035" gradientUnits="userSpaceOnUse" id="color-4"><stop offset="0" stop-color="#7899d6"/><stop offset="1" stop-color="#78d6a2"/></linearGradient><linearGradient x1="558.69778" y1="261.58241" x2="-53.56958" y2="261.58241" gradientUnits="userSpaceOnUse" id="color-5"><stop offset="0" stop-color="#d67878"/><stop offset="1" stop-color="#c378d6"/></linearGradient><linearGradient x1="615.77448" y1="148.89953" x2="3.50712" y2="148.89953" gradientUnits="userSpaceOnUse" id="color-6"><stop offset="0" stop-color="#d6d478"/><stop offset="1" stop-color="#d6788d"/></linearGradient><linearGradient x1="658.1217" y1="57.01967" x2="45.85434" y2="57.01967" gradientUnits="userSpaceOnUse" id="color-7"><stop offset="0" stop-color="#7899d6"/><stop offset="1" stop-color="#78d6a2"/></linearGradient></defs><g transform="translate(82.12168,399.05325)"><g stroke="none" stroke-width="0" stroke-miterlimit="10"><path d="M9.84606,180.00001c0,-153.62018 124.53376,-278.15394 278.15394,-278.15394c153.62018,0 278.15394,124.53376 278.15394,278.15394c0,153.62018 -124.53376,278.15394 -278.15394,278.15394c-153.62018,0 -278.15394,-124.53376 -278.15394,-278.15394z" fill="url(#color-1)"/><path d="M597.04463,408.84091c-158.33819,234.65628 -380.08416,149.0847 -480.68151,0c-100.59735,-149.0847 -160.23983,-474.8927 0,-712.36721c160.23983,-237.47451 -28.08609,374.45724 72.51126,523.54194c100.59736,149.0847 566.50844,-45.831 408.17026,188.82527z" fill="url(#color-2)"/><path d="M539.96793,521.52378c-158.33819,234.65627 -380.08416,149.0847 -480.68152,0c-100.59735,-149.0847 -160.23983,-474.8927 0,-712.36721c160.23984,-237.47451 -28.08609,374.45724 72.51126,523.54194c100.59736,149.0847 566.50844,-45.83099 408.17026,188.82528z" fill="url(#color-3)"/><path d="M497.62071,613.40365c-158.33819,234.65627 -380.08416,149.0847 -480.68151,0c-100.59735,-149.0847 -160.23983,-474.8927 0,-712.36721c160.23984,-237.47451 -28.08609,374.45724 72.51126,523.54194c100.59735,149.0847 566.50844,-45.83099 408.17026,188.82528z" fill="url(#color-4)"/><path d="M-21.04462,-48.84088c158.33819,-234.65627 380.08416,-149.0847 480.68152,0c100.59736,149.0847 160.23983,474.89271 0,712.36722c-160.23983,237.47451 28.0861,-374.45724 -72.51126,-523.54194c-100.59735,-149.0847 -566.50844,45.831 -408.17025,-188.82527z" fill="url(#color-5)"/><path d="M36.03207,-161.52375c158.33819,-234.65627 380.08416,-149.0847 480.68152,0c100.59736,149.0847 160.23983,474.89271 0,712.36722c-160.23983,237.47451 28.0861,-374.45723 -72.51126,-523.54193c-100.59735,-149.0847 -566.50844,45.831 -408.17025,-188.82528z" fill="url(#color-6)"/><path d="M78.3793,-253.40362c158.33819,-234.65627 380.08416,-149.0847 480.68151,0c100.59736,149.0847 160.23983,474.89271 0,712.36722c-160.23983,237.47451 28.0861,-374.45723 -72.51126,-523.54193c-100.59735,-149.0847 -566.50845,45.83099 -408.17025,-188.82528z" fill="url(#color-7)"/><path d="M241.45345,180.00001c0,-25.70695 20.8396,-46.54655 46.54655,-46.54655c25.70695,0 46.54655,20.8396 46.54655,46.54655c0,25.70695 -20.8396,46.54655 -46.54655,46.54655c-25.70695,0 -46.54655,-20.8396 -46.54655,-46.54655z" fill="#000000"/></g></g></svg>