<svg version="1.1" xmlns="http://www.w3.org/2000/svg" xmlns:xlink="http://www.w3.org/1999/xlink" width="453" height="294" viewBox="0,0,453,294"><g transform="translate(-61.5,-33)"><g stroke="none" stroke-miterlimit="10"><path d="M61.5,262.89999c0,-64.35751 0,-158.2522 0,-189c0,-19.44854 13.72768,-40.89999 29.10001,-40.89999c46.38161,0 284.34493,0 382,0c25.87533,0 41.89999,17.87989 41.89999,34.89999c0,33.15132 0,151.31041 0,216c0,25.80377 -32.37812,43.10001 -61.89999,43.10001c-54.01755,0 -236.63215,0 -332,0c-35.6437,0 -59.10001,-27.19316 -59.10001,-64.10001z" fill="#ffffff" stroke-width="0"/><text transform="translate(112.91556,92.89999) scale(0.93337,0.93337)" font-size="40" xml:space="preserve" fill="#000000" stroke-width="1" font-family="&quot;Trebuchet MS&quot;, Sans Serif" font-weight="normal" text-anchor="start"><tspan x="0" dy="0">Let's get to know you.</tspan></text><text transform="translate(200.44824,147.89999) scale(0.5,0.5)" font-size="40" xml:space="preserve" fill="#000000" stroke-width="1" font-family="&quot;Trebuchet MS&quot;, Sans Serif" font-weight="normal" text-anchor="start"><tspan x="0" dy="0">What is your name?</tspan></text></g></g></svg>