<svg version="1.1" xmlns="http://www.w3.org/2000/svg" xmlns:xlink="http://www.w3.org/1999/xlink" width="27.46124" height="32.02595" viewBox="0,0,27.46124,32.02595"><defs><radialGradient cx="73.04093" cy="335.47782" r="13.73062" gradientUnits="userSpaceOnUse" id="color-1"><stop offset="0" stop-color="#dfdf2c"/><stop offset="1" stop-color="#dfdf2c" stop-opacity="0"/></radialGradient></defs><g transform="translate(-59.31031,-321.7472)"><g stroke="none" stroke-width="0" stroke-miterlimit="10"><g><path d="M59.31031,335.47782c0,-7.58321 6.14741,-13.73062 13.73062,-13.73062c7.58321,0 13.73062,6.14741 13.73062,13.73062c0,7.58321 -6.14741,13.73062 -13.73062,13.73062c-7.58321,0 -13.73062,-6.14741 -13.73062,-13.73062z" fill="url(#color-1)"/><path d="M62.75981,335.47782c0,-5.6781 4.60301,-10.28111 10.28111,-10.28111c5.6781,0 10.28111,4.60301 10.28111,10.28111c0,5.6781 -4.60301,10.28111 -10.28111,10.28111c-5.6781,0 -10.28111,-4.60301 -10.28111,-10.28111z" fill="#dfdf2c"/><path d="M68.47622,350.68881v-12.47217h9.35413v12.47217z" fill="#dfdf2c"/><path d="M68.43971,351.54557c0,-1.19209 0,-4.26132 0,-4.26132h9.35413c0,0 0,3.06923 0,4.26132c0,0.86189 -0.69737,2.22758 -1.32587,2.22758c-1.05052,0 -4.37814,0 -6.40463,0c-0.95686,0 -1.62363,-1.36568 -1.62363,-2.22758z" fill="#8c8c84"/></g></g></g></svg>