<svg version="1.1" xmlns="http://www.w3.org/2000/svg" xmlns:xlink="http://www.w3.org/1999/xlink" width="148.97511" height="171.01913" viewBox="0,0,148.97511,171.01913"><defs><radialGradient cx="302.58949" cy="168.41976" r="62.0718" gradientUnits="userSpaceOnUse" id="color-1"><stop offset="0" stop-color="#1a1a1a" stop-opacity="0"/><stop offset="1" stop-color="#1a1a1a"/></radialGradient><radialGradient cx="315.20196" cy="215.16649" r="43.67289" gradientUnits="userSpaceOnUse" id="color-2"><stop offset="0" stop-color="#1a1a1a" stop-opacity="0"/><stop offset="1" stop-color="#1a1a1a"/></radialGradient></defs><g transform="translate(-207.29112,-92.78495)"><g stroke-miterlimit="10"><g stroke="none"><g fill="none" stroke-width="1" font-family="sans-serif" font-weight="normal" font-size="12" text-anchor="start"/><g stroke-width="0"><path d="M255.53096,223.86432c-0.89649,-14.68426 -4.77259,-78.17756 -6.5841,-107.85079c-0.57315,-9.38853 6.16957,-12.08934 13.63274,-7.43473c14.22637,8.87246 64.81292,41.55319 87.98169,56.00278c7.41305,4.62323 7.61635,10.25135 0.52402,14.47444c-22.68561,13.508 -71.76591,42.73272 -83.99861,50.01667c-5.40784,3.22004 -11.19263,0.73875 -11.55563,-5.20836z" fill="url(#color-1)"/><path d="M313.71206,251.52428c-7.13547,-11.98355 -35.01168,-58.79903 -35.01168,-58.79903l35.65663,-21.23165c0,0 28.77293,48.32151 35.72624,59.99893c2.86685,4.81475 1.99464,12.6285 -3.13572,15.68338c-6.61471,3.93863 -14.97732,8.91822 -18.59968,11.07519c-3.41679,2.03441 -11.49385,-1.45037 -14.63567,-6.72693z" fill="url(#color-2)"/></g></g><g fill="#ffffff" stroke="#000000" stroke-width="25"><path d="M226.352,218.67687c-0.89649,-14.68426 -4.77259,-78.17755 -6.5841,-107.85078c-0.57315,-9.38853 6.16946,-12.08923 13.63274,-7.43474c14.22637,8.87256 64.81292,41.55319 87.98169,56.00278c7.41305,4.62323 7.61635,10.25135 0.52402,14.47444c-22.68561,13.508 -71.76591,42.73261 -83.99861,50.01667c-5.40784,3.22004 -11.19263,0.73863 -11.55563,-5.20837z"/><path d="M284.5331,246.33683c-7.13547,-11.98355 -35.01168,-58.79903 -35.01168,-58.79903l35.65651,-21.23154c0,0 28.77293,48.32162 35.72624,59.99894c2.86685,4.81475 1.99464,12.6285 -3.13572,15.68338c-6.61471,3.93874 -14.97733,8.91821 -18.59969,11.07518c-3.41679,2.03441 -11.49385,-1.45036 -14.63567,-6.72693z"/></g><g fill="#ffffff" stroke="none" stroke-width="0"><path d="M226.352,218.67698c-0.89649,-14.68426 -4.77259,-78.17756 -6.5841,-107.85079c-0.57315,-9.38853 6.16957,-12.08934 13.63274,-7.43473c14.22637,8.87246 64.81292,41.55319 87.98169,56.00278c7.41305,4.62323 7.61635,10.25135 0.52402,14.47444c-22.68561,13.508 -71.76591,42.73272 -83.99861,50.01667c-5.40784,3.22004 -11.19263,0.73874 -11.55563,-5.20837z"/><path d="M284.5331,246.33683c-7.13547,-11.98355 -35.01168,-58.79903 -35.01168,-58.79903l35.65662,-21.23164c0,0 28.77293,48.32151 35.72624,59.99893c2.86685,4.81475 1.99464,12.6285 -3.13572,15.68338c-6.61471,3.93863 -14.97732,8.91822 -18.59969,11.07519c-3.41679,2.03441 -11.49385,-1.45036 -14.63567,-6.72692z"/></g></g></g></svg>