<svg version="1.1" xmlns="http://www.w3.org/2000/svg" xmlns:xlink="http://www.w3.org/1999/xlink" width="840.84084" height="515.33485" viewBox="0,0,840.84084,515.33485"><g transform="translate(132.42042,70.49999)"><g stroke-miterlimit="10"><path d="M-49.83784,411.23127v-462.46246h675.67568v462.46246z" fill="#796dcc" stroke="none" stroke-width="0"/><path d="M-132.42042,444.83486v-169.66967h840.84084v169.66967z" fill="#93e386" stroke="none" stroke-width="0"/><path d="M90.67959,296.90004v-186h87v186z" fill="#4f2b13" stroke="none" stroke-width="0"/><path d="M20.51256,139.77006c-9.15427,-33.56811 10.63705,-68.20143 44.20516,-77.3557c33.56811,-9.15427 68.20143,10.63705 77.3557,44.20516c9.15427,33.5681 -10.63704,68.20143 -44.20515,77.3557c-33.56811,9.15427 -68.20143,-10.63705 -77.3557,-44.20515z" fill="#5d9062" stroke="none" stroke-width="0"/><path d="M72.0845,89.42789c-9.15427,-33.56811 10.63705,-68.20143 44.20515,-77.3557c33.5681,-9.15427 68.20143,10.63704 77.3557,44.20515c9.15427,33.56811 -10.63704,68.20143 -44.20515,77.3557c-33.56811,9.15427 -68.20143,-10.63705 -77.3557,-44.20515z" fill="#5d9062" stroke="none" stroke-width="0"/><path d="M126.28576,139.94742c-9.15427,-33.56811 10.63705,-68.20143 44.20516,-77.3557c33.56811,-9.15427 68.20143,10.63705 77.3557,44.20515c9.15427,33.56811 -10.63705,68.20143 -44.20515,77.3557c-33.56811,9.15427 -68.20143,-10.63705 -77.3557,-44.20516z" fill="#5d9062" stroke="none" stroke-width="0"/><path d="M393.67959,323.53164v-186h87v186z" fill="#4f2b13" stroke="none" stroke-width="0"/><path d="M243.66378,323.53164v-186h87v186z" fill="#4f2b13" stroke="none" stroke-width="0"/><path d="M178.78812,135.76505c6.46508,-34.18803 39.42093,-56.66191 73.60896,-50.19683c34.18803,6.46508 56.66191,39.42093 50.19683,73.60895c-6.46508,34.18803 -39.42093,56.66191 -73.60895,50.19683c-34.18803,-6.46508 -56.66192,-39.42093 -50.19684,-73.60896z" fill="#70a775" stroke="none" stroke-width="0"/><path d="M235.06569,74.97249c6.46508,-34.18803 39.42093,-56.66192 73.60895,-50.19684c34.18802,6.46508 56.66191,39.42093 50.19683,73.60896c-6.46508,34.18803 -39.42093,56.66191 -73.60895,50.19683c-34.18803,-6.46508 -56.66191,-39.42093 -50.19683,-73.60895z" fill="#70a775" stroke="none" stroke-width="0"/><path d="M272.25291,142.54375c6.46508,-34.18803 39.42094,-56.6619 73.60896,-50.19682c34.18802,6.46508 56.6619,39.42093 50.19682,73.60896c-6.46508,34.18803 -39.42093,56.66191 -73.60896,50.19683c-34.18802,-6.46508 -56.66191,-39.42093 -50.19683,-73.60896z" fill="#70a775" stroke="none" stroke-width="0"/><path d="M330.69384,158.19177c-1.06438,-34.77766 26.26563,-63.83337 61.04328,-64.89775c34.77766,-1.06438 63.83337,26.26563 64.89775,61.04328c1.06438,34.77766 -26.26562,63.83337 -61.04328,64.89775c-34.77766,1.06438 -63.83337,-26.26563 -64.89775,-61.04328z" fill="#8ccc92" stroke="none" stroke-width="0"/><path d="M372.52766,86.68771c-1.06438,-34.77766 26.26562,-63.83337 61.04328,-64.89775c34.77766,-1.06438 63.83337,26.26562 64.89775,61.04328c1.06438,34.77766 -26.26562,63.83337 -61.04328,64.89775c-34.77766,1.06438 -63.83337,-26.26562 -64.89775,-61.04328z" fill="#8ccc92" stroke="none" stroke-width="0"/><path d="M423.41946,144.64273c-1.06438,-34.77766 26.26563,-63.83337 61.04328,-64.89775c34.77766,-1.06438 63.83337,26.26563 64.89775,61.04328c1.06438,34.77766 -26.26563,63.83337 -61.04328,64.89775c-34.77766,1.06438 -63.83337,-26.26563 -64.89775,-61.04328z" fill="#8ccc92" stroke="none" stroke-width="0"/><path d="M19.1199,332.73487v-178.48504h30v178.48504z" fill="#935e3b" stroke="none" stroke-width="0"/><path d="M182.1199,332.73487v-178.48504h30v178.48504z" fill="#935e3b" stroke="none" stroke-width="0"/><path d="M19.1199,185.24982v-94.01143h193v94.01143z" fill="#935e3b" stroke="none" stroke-width="0"/><path d="M29.21095,175.41901v-74.34979h172.81791v74.3498z" fill="#ffffff" stroke="none" stroke-width="0"/><g><text transform="translate(37.36159,145.99409) scale(0.67173,0.67173)" font-size="40" xml:space="preserve" fill="#000000" stroke="none" stroke-width="1" font-family="&quot;Broadway&quot;, Marker" font-weight="normal" text-anchor="start"><tspan x="0" dy="0">Lem  nade</tspan></text><g stroke="#ffffff" stroke-width="1.5"><path d="M118.53125,127.72114c0.99178,1.25761 0.13808,3.58439 -1.90678,5.19701c-2.04486,1.61262 -4.50654,1.9004 -5.49832,0.64279c-0.99178,-1.25761 -0.13808,-3.58439 1.90678,-5.197c2.04486,-1.61262 4.50654,-1.9004 5.49832,-0.64279z" fill="#86d72f"/><path d="M113.42891,129.97753c4.3044,2.04026 5.90015,7.68932 3.56421,12.61755c-2.33594,4.92823 -7.71901,7.26939 -12.02341,5.22914c-4.3044,-2.04026 -5.90015,-7.68932 -3.56421,-12.61755c2.33594,-4.92823 7.71901,-7.2694 12.02341,-5.22914z" fill="#fcd53f"/><path d="M106.76863,144.02898c1.44728,0.686 2.06442,2.41537 1.37842,3.86264c-0.686,1.44727 -2.41536,2.06441 -3.86263,1.37841c-1.44728,-0.686 -2.06442,-2.41537 -1.37842,-3.86264c0.686,-1.44727 2.41536,-2.06441 3.86263,-1.37841z" fill="#fcd53f"/></g><g stroke="none" stroke-width="0"><path d="M118.53125,127.72114c0.99178,1.25761 0.13808,3.58439 -1.90678,5.19701c-2.04486,1.61262 -4.50654,1.9004 -5.49832,0.64279c-0.99178,-1.25761 -0.13808,-3.58439 1.90678,-5.197c2.04486,-1.61262 4.50654,-1.9004 5.49832,-0.64279z" fill="#86d72f"/><path d="M113.42891,129.97753c4.3044,2.04026 5.90015,7.68932 3.56421,12.61755c-2.33594,4.92823 -7.71901,7.26939 -12.02341,5.22914c-4.3044,-2.04026 -5.90015,-7.68932 -3.56421,-12.61755c2.33594,-4.92823 7.71901,-7.2694 12.02341,-5.22914z" fill="#fcd53f"/><path d="M106.76863,144.02898c1.44728,0.686 2.06442,2.41537 1.37842,3.86264c-0.686,1.44727 -2.41536,2.06441 -3.86263,1.37841c-1.44728,-0.686 -2.06442,-2.41537 -1.37842,-3.86264c0.686,-1.44727 2.41536,-2.06441 3.86263,-1.37841z" fill="#fcd53f"/></g></g><path d="M58.47959,304.86195v-35.33333h5v35.33333z" fill="#232222" stroke="none" stroke-width="0"/><path d="M165.14625,306.19525v-35.33333h5v35.33333z" fill="#232222" stroke="none" stroke-width="0"/><path d="M53.67959,273.19525v-10h124v10z" fill="#e7dbd3" stroke="none" stroke-width="0"/><path d="M73.67959,263.19525v-22.4h19v22.4z" fill-opacity="0.57647" fill="#d2cfe9" stroke="none" stroke-width="0"/><path d="M74.32959,257.04526v-10.1h17.7v10.1z" fill="#d2cfe8" stroke="none" stroke-width="0"/><text transform="translate(75.86533,253.70949) scale(0.14858,0.14858)" font-size="40" xml:space="preserve" fill="#000000" stroke="none" stroke-width="1" font-family="&quot;Broadway&quot;, Marker" font-weight="normal" text-anchor="start"><tspan x="0" dy="0">TIPS</tspan></text><path d="M19.1199,332.73487v-31h193v31z" fill="#935e3b" stroke="none" stroke-width="0"/><g fill="#ded3c0" stroke="none" stroke-width="0"><path d="M335.1945,-6.94087c0,-34.50261 27.96989,-62.4725 62.4725,-62.4725c34.50261,0 62.4725,27.96989 62.4725,62.4725c0,34.50261 -27.96989,62.4725 -62.4725,62.4725c-34.50261,0 -62.4725,-27.96989 -62.4725,-62.4725z"/><path d="M386.6958,4.20223c0,-26.79178 21.71903,-48.51081 48.51081,-48.51081c26.79178,0 48.51081,21.71903 48.51081,48.51081c0,26.79178 -21.71903,48.51082 -48.51081,48.51082c-26.79178,0 -48.51081,-21.71903 -48.51081,-48.51081z"/><path d="M428.27017,-15.05273c0,-30.62267 24.82458,-55.44726 55.44726,-55.44726c30.62268,0 55.44725,24.82459 55.44725,55.44726c0,30.62268 -24.82458,55.44726 -55.44725,55.44726c-30.62268,0 -55.44726,-24.82458 -55.44726,-55.44726z"/></g><g fill="#ded3c0" stroke="none" stroke-width="0"><path d="M110.13481,28.76588c0,-34.50261 27.96989,-62.4725 62.4725,-62.4725c34.50261,0 62.4725,27.96989 62.4725,62.4725c0,34.50261 -27.96989,62.4725 -62.4725,62.4725c-34.50261,0 -62.4725,-27.96989 -62.4725,-62.4725z"/><path d="M161.63611,39.90898c0,-26.79178 21.71904,-48.51081 48.51082,-48.51081c26.79178,0 48.51081,21.71903 48.51081,48.51081c0,26.79178 -21.71903,48.51081 -48.51081,48.51081c-26.79178,0 -48.51082,-21.71903 -48.51082,-48.51081z"/><path d="M203.21048,20.65402c0,-30.62267 24.82458,-55.44726 55.44726,-55.44726c30.62268,0 55.44725,24.82459 55.44725,55.44726c0,30.62268 -24.82458,55.44726 -55.44725,55.44726c-30.62268,0 -55.44726,-24.82458 -55.44726,-55.44726z"/></g><g fill="#ded3c0" stroke="none" stroke-width="0"><path d="M-112.86519,-2.29352c0,-34.50261 27.96989,-62.4725 62.4725,-62.4725c34.50261,0 62.4725,27.96989 62.4725,62.4725c0,34.50261 -27.96989,62.4725 -62.4725,62.4725c-34.50261,0 -62.4725,-27.96989 -62.4725,-62.4725z"/><path d="M-61.36389,8.84958c0,-26.79178 21.71904,-48.51081 48.51081,-48.51081c26.79178,0 48.51081,21.71903 48.51081,48.51081c0,26.79178 -21.71903,48.51081 -48.51081,48.51081c-26.79178,0 -48.51081,-21.71903 -48.51081,-48.51081z"/><path d="M-19.78952,-10.40539c0,-30.62267 24.82458,-55.44726 55.44726,-55.44726c30.62268,0 55.44726,24.82458 55.44726,55.44726c0,30.62268 -24.82458,55.44726 -55.44726,55.44726c-30.62267,0 -55.44726,-24.82458 -55.44726,-55.44726z"/></g></g></g></svg>