<svg version="1.1" xmlns="http://www.w3.org/2000/svg" xmlns:xlink="http://www.w3.org/1999/xlink" width="43.03908" height="43.03093" viewBox="0,0,43.03908,43.03093"><defs><linearGradient x1="513.74541" y1="-230.50934" x2="545.68387" y2="-262.4478" gradientUnits="userSpaceOnUse" id="color-1"><stop offset="0" stop-color="#ee2a7b"/><stop offset="1" stop-color="#811150"/></linearGradient></defs><g transform="translate(-266.48057,-158.48453)"><g fill="url(#color-1)" stroke="#ffffff" stroke-width="1.15823" stroke-miterlimit="10"><path d="M283.91422,168.94009c0,0 16.21764,16.20392 23.58003,23.56631c1.92856,1.92856 1.92821,5.05546 0,6.98367c-1.92856,1.92856 -5.05482,1.92828 -6.98339,-0.00028c-6.17255,-6.17255 -23.56143,-23.54701 -23.56143,-23.54701c0,0 -0.014,2.34788 -0.01365,13.11436c-0.00007,2.72752 -2.2107,4.93815 -4.93787,4.93787c-2.72788,-0.00099 -4.93858,-2.21098 -4.93822,-4.93822c-0.00064,-8.72973 0.00028,-25.05491 0.00028,-25.05491c0.00035,-2.72724 2.21126,-4.93815 4.93787,-4.93787c0,0 14.08769,-0.00028 24.85445,-0.00035c2.72887,0 4.93949,2.21063 4.93822,4.93822c0.00028,2.72731 -2.21098,4.93858 -4.93723,4.93723c-8.73178,0.00127 -12.93906,0.00099 -12.93906,0.00099z"/></g></g></svg>