<svg version="1.1" xmlns="http://www.w3.org/2000/svg" xmlns:xlink="http://www.w3.org/1999/xlink" width="623.10001" height="422.60001" viewBox="0,0,623.10001,422.60001"><defs><linearGradient x1="166.03777" y1="81.38236" x2="166.03777" y2="375.50001" gradientUnits="userSpaceOnUse" id="color-1"><stop offset="0" stop-color="#000000" stop-opacity="0"/><stop offset="1" stop-color="#000000"/></linearGradient><linearGradient x1="205.84928" y1="-16.92769" x2="205.84928" y2="134.19355" gradientUnits="userSpaceOnUse" id="color-2"><stop offset="0" stop-color="#000000" stop-opacity="0"/><stop offset="1" stop-color="#000000"/></linearGradient><linearGradient x1="162.78786" y1="-31.55232" x2="162.78786" y2="100.06939" gradientUnits="userSpaceOnUse" id="color-3"><stop offset="0" stop-color="#000000" stop-opacity="0"/><stop offset="1" stop-color="#000000"/></linearGradient><linearGradient x1="130.28867" y1="-16.92769" x2="130.28867" y2="100.06939" gradientUnits="userSpaceOnUse" id="color-4"><stop offset="0" stop-color="#000000" stop-opacity="0"/><stop offset="1" stop-color="#000000"/></linearGradient><linearGradient x1="288" y1="-23.49999" x2="288" y2="383.50001" gradientUnits="userSpaceOnUse" id="color-5"><stop offset="0" stop-color="#040a21"/><stop offset="1" stop-color="#040a21" stop-opacity="0"/></linearGradient></defs><g transform="translate(17.5,39.1)"><g stroke-width="0" stroke-miterlimit="10"><path d="M-17.5,383.50001v-407h611v407z" fill="#040a21" stroke="#000000"/><g stroke="none"><g><path d="M130.28867,375.50001v-294.11765h71.49822v294.11765z" fill="#211504"/><path d="M205.84928,134.19355c-41.73097,0 -75.56061,-33.82964 -75.56061,-75.56061c0,-41.73097 33.82964,-75.56061 75.56061,-75.56061c41.73097,0 75.56061,33.82965 75.56061,75.56062c0,41.73097 -33.82964,75.56061 -75.56061,75.56061z" fill="#04210f"/><path d="M162.78785,100.06939c-36.34633,0 -65.81084,-29.46451 -65.81084,-65.81084c0,-36.34633 29.46451,-65.81086 65.81084,-65.81086c36.34633,0 65.81086,29.46453 65.81086,65.81086c0,36.34633 -29.46453,65.81085 -65.81086,65.81085z" fill="#04210f"/><path d="M130.28867,100.06939c-32.30785,0 -58.49853,-26.19068 -58.49853,-58.49853c0,-32.30785 26.19068,-58.49854 58.49854,-58.49854c32.30785,0 58.49854,26.19069 58.49854,58.49854c0,32.30785 -26.19069,58.49854 -58.49854,58.49854z" fill="#04210f"/></g><g><path d="M130.28867,375.50001v-294.11765h71.49822v294.11765z" fill="url(#color-1)"/><path d="M205.84928,134.19355c-41.73097,0 -75.56061,-33.82964 -75.56061,-75.56061c0,-41.73097 33.82964,-75.56061 75.56061,-75.56061c41.73097,0 75.56061,33.82965 75.56061,75.56062c0,41.73097 -33.82964,75.56061 -75.56061,75.56061z" fill="url(#color-2)"/><path d="M162.78785,100.06939c-36.34633,0 -65.81084,-29.46451 -65.81084,-65.81084c0,-36.34633 29.46451,-65.81086 65.81084,-65.81086c36.34633,0 65.81086,29.46453 65.81086,65.81086c0,36.34633 -29.46453,65.81085 -65.81086,65.81085z" fill="url(#color-3)"/><path d="M130.28867,100.06939c-32.30785,0 -58.49853,-26.19068 -58.49853,-58.49853c0,-32.30785 26.19068,-58.49854 58.49854,-58.49854c32.30785,0 58.49854,26.19069 58.49854,58.49854c0,32.30785 -26.19069,58.49854 -58.49854,58.49854z" fill="url(#color-4)"/></g></g><path d="M96.60001,362.90001v-181h44v181z" fill="#211504" stroke="none"/><path d="M47.60001,167.90001c0,-25.68124 20.81876,-46.5 46.5,-46.5c25.68124,0 46.5,20.81876 46.5,46.5c0,25.68124 -20.81876,46.5 -46.5,46.5c-25.68124,0 -46.5,-20.81876 -46.5,-46.5z" fill="#04210f" stroke="none"/><path d="M80.10001,152.89999c0,-22.36753 18.13247,-40.5 40.5,-40.5c22.36753,0 40.5,18.13247 40.5,40.5c0,22.36753 -18.13247,40.5 -40.5,40.5c-22.36753,0 -40.5,-18.13247 -40.5,-40.5z" fill="#04210f" stroke="none"/><path d="M104.60001,157.39999c0,-19.88225 16.11775,-36 36,-36c19.88225,0 36,16.11775 36,36c0,19.88225 -16.11775,36 -36,36c-19.88225,0 -36,-16.11775 -36,-36z" fill="#04210f" stroke="none"/><path d="M192.74971,360.00001v-126.44711h30.73852v126.44711z" fill="#211504" stroke="none"/><path d="M225.23474,256.2575c-17.94099,0 -32.48503,-14.54404 -32.48503,-32.48503c0,-17.94099 14.54404,-32.48503 32.48503,-32.48503c17.94099,0 32.48503,14.54404 32.48503,32.48503c0,17.94099 -14.54404,32.48503 -32.48503,32.48503z" fill="#04210f" stroke="none"/><path d="M206.72176,241.58685c-15.62602,0 -28.29341,-12.66739 -28.29341,-28.29341c0,-15.62602 12.66739,-28.29341 28.29341,-28.29341c15.62602,0 28.29341,12.66739 28.29341,28.29341c0,15.62602 -12.66739,28.29341 -28.29341,28.29341z" fill="#04210f" stroke="none"/><path d="M192.74971,241.58685c-13.8898,0 -25.1497,-11.25991 -25.1497,-25.1497c0,-13.8898 11.25991,-25.1497 25.1497,-25.1497c13.8898,0 25.1497,11.25991 25.1497,25.1497c0,13.8898 -11.25991,25.1497 -25.1497,25.1497z" fill="#04210f" stroke="none"/><path d="M413.60001,56.9c0,-53.01934 42.98066,-96 96,-96c53.01934,0 96,42.98066 96,96c0,53.01934 -42.98066,96 -96,96c-53.01934,0 -96,-42.98066 -96,-96z" fill="#eef0f7" stroke="none"/><path d="M433.53331,39.30002c0,-19.42201 15.74465,-35.16667 35.16667,-35.16667c19.42201,0 35.16667,15.74465 35.16667,35.16667c0,19.42201 -15.74465,35.16667 -35.16667,35.16667c-19.42201,0 -35.16667,-15.74465 -35.16667,-35.16667z" fill="#828388" stroke="none"/><path d="M501.96667,111.96668c0,-17.94925 14.55075,-32.5 32.5,-32.5c17.94925,0 32.5,14.55075 32.5,32.5c0,17.94925 -14.55075,32.5 -32.5,32.5c-17.94925,0 -32.5,-14.55075 -32.5,-32.5z" fill="#828388" stroke="none"/><path d="M449.19998,106.30003c0,-10.76955 8.73045,-19.5 19.5,-19.5c10.76955,0 19.5,8.73045 19.5,19.5c0,10.76955 -8.73045,19.5 -19.5,19.5c-10.76955,0 -19.5,-8.73045 -19.5,-19.5z" fill="#828388" stroke="none"/><path d="M512.96667,8.80002c0,-23.19596 18.80404,-42 42,-42c23.19596,0 42,18.80404 42,42c0,23.19596 -18.80404,42 -42,42c-23.19596,0 -42,-18.80404 -42,-42z" fill="#828388" stroke="none"/><path d="M-17.5,383.50001v-407h611v407z" fill="url(#color-5)" stroke="#000000"/></g></g></svg>