<svg version="1.1" xmlns="http://www.w3.org/2000/svg" xmlns:xlink="http://www.w3.org/1999/xlink" width="695.00278" height="183" viewBox="0,0,695.00278,183"><defs><linearGradient x1="229.22991" y1="360" x2="229.22991" y2="177" gradientUnits="userSpaceOnUse" id="color-1"><stop offset="0" stop-color="#f1f527"/><stop offset="1" stop-color="#f1f527" stop-opacity="0"/></linearGradient><radialGradient cx="178.00335" cy="233.26804" r="28.69304" gradientUnits="userSpaceOnUse" id="color-2"><stop offset="0" stop-color="#dfdf2c"/><stop offset="1" stop-color="#dfdf2c" stop-opacity="0"/></radialGradient></defs><g transform="translate(118.27147,-177)"><g data-paper-data="{&quot;isPaintingLayer&quot;:true}" fill-rule="nonzero" stroke="none" stroke-linecap="butt" stroke-linejoin="miter" stroke-miterlimit="10" stroke-dasharray="" stroke-dashoffset="0" style="mix-blend-mode: normal"><path d="M576.7313,177v183h-695.00278v-183z" data-paper-data="{&quot;index&quot;:null}" fill="url(#color-1)" stroke-width="0"/><g stroke-width="0"><path d="M149.31031,233.26804c0,-15.84673 12.84631,-28.69304 28.69304,-28.69304c15.84673,0 28.69304,12.84631 28.69304,28.69304c0,15.84673 -12.84631,28.69304 -28.69304,28.69304c-15.84673,0 -28.69304,-12.84631 -28.69304,-28.69304z" fill="url(#color-2)"/><path d="M156.51879,233.26804c0,-11.8656 9.61897,-21.48456 21.48456,-21.48456c11.8656,0 21.48456,9.61897 21.48456,21.48456c0,11.8656 -9.61897,21.48456 -21.48456,21.48456c-11.8656,0 -21.48456,-9.61897 -21.48456,-21.48456z" fill="#dfdf2c"/><path d="M168.46444,265.05463v-26.06324h19.54743v26.06324z" fill="#dfdf2c"/><path d="M168.38813,266.84501c0,-2.49113 0,-8.90494 0,-8.90494h19.54743c0,0 0,6.41381 0,8.90494c0,1.80111 -1.4573,4.65499 -2.77069,4.65499c-2.19529,0 -9.14905,0 -13.38383,0c-1.99956,0 -3.39292,-2.85388 -3.39292,-4.65499z" fill="#8c8c84"/></g><text transform="translate(213.02973,243.80625) scale(0.5,0.5)" font-size="40" xml:space="preserve" fill="#dfdf2c" fill-rule="nonzero" stroke="none" stroke-width="1" stroke-linecap="butt" stroke-linejoin="miter" stroke-miterlimit="10" stroke-dasharray="" stroke-dashoffset="0" font-family="Sans Serif" font-weight="normal" text-anchor="start" style="mix-blend-mode: normal"><tspan x="0" dy="0">Lightbulb</tspan></text><text transform="translate(213.02973,258.77658) scale(0.26585,0.26585)" font-size="40" xml:space="preserve" fill="#dfdf2c" fill-rule="nonzero" stroke="none" stroke-width="1" stroke-linecap="butt" stroke-linejoin="miter" stroke-miterlimit="10" stroke-dasharray="" stroke-dashoffset="0" font-family="Sans Serif" font-weight="normal" text-anchor="start" style="mix-blend-mode: normal"><tspan x="0" dy="0">Scratch Assistant</tspan></text><text transform="translate(117.11003,310.63692) scale(0.64415,0.64415)" font-size="40" xml:space="preserve" fill="#ffffff" fill-rule="nonzero" stroke="none" stroke-width="1" stroke-linecap="butt" stroke-linejoin="miter" stroke-miterlimit="10" stroke-dasharray="" stroke-dashoffset="0" font-family="Sans Serif" font-weight="normal" text-anchor="start" style="mix-blend-mode: normal"><tspan x="0" dy="0">How can I help you?</tspan></text><text transform="translate(171.94003,329.7603) scale(0.36043,0.36043)" font-size="40" xml:space="preserve" fill="#ffffff" fill-rule="nonzero" stroke="none" stroke-width="1" stroke-linecap="butt" stroke-linejoin="miter" stroke-miterlimit="10" stroke-dasharray="" stroke-dashoffset="0" font-family="Sans Serif" font-weight="normal" text-anchor="start" style="mix-blend-mode: normal"><tspan x="0" dy="0">Click on this panel!</tspan></text></g></g></svg>