<svg version="1.1" xmlns="http://www.w3.org/2000/svg" xmlns:xlink="http://www.w3.org/1999/xlink" width="702.5" height="456.57808" viewBox="0,0,702.5,456.57808"><defs><linearGradient x1="291.5" y1="-18.5" x2="291.5" y2="302.5" gradientUnits="userSpaceOnUse" id="color-1"><stop offset="0" stop-color="#875514"/><stop offset="1" stop-color="#071145"/></linearGradient><linearGradient x1="291.5" y1="-18.5" x2="291.5" y2="438.07808" gradientUnits="userSpaceOnUse" id="color-2"><stop offset="0" stop-color="#875514" stop-opacity="0"/><stop offset="1" stop-color="#875514" stop-opacity="0.43137"/></linearGradient></defs><g transform="translate(101.5,18.5)"><g stroke="none" stroke-width="0" stroke-miterlimit="10"><path d="M-18,302.5v-321h619v321z" fill="url(#color-1)"/><g><path d="M256.10001,302.5v-165h190v165z" fill="#614e19"/><path d="M321.10001,302.5v-90.66666h62.66667v90.66667z" fill="#2e2406"/><g><path d="M322.68334,203.45v-59.5h59.5v59.5z" fill="#ebe7d9"/><path d="M350.43334,203.45v-59.5h4v59.5z" fill="#614e19"/><path d="M382.18334,175.7h-59.5v-4h59.5z" fill="#614e19"/></g><path d="M243.0218,139.95l106.07821,-106.07821l106.07821,106.07821z" fill="#560c0b"/></g><path d="M-101.5,250c0,-70.96859 57.53141,-128.5 128.5,-128.5c70.96859,0 128.5,57.53141 128.5,128.5c0,70.96859 -57.53141,128.5 -128.5,128.5c-70.96859,0 -128.5,-57.53141 -128.5,-128.5z" fill="#ffd866"/><path d="M-25,378.5v-91h626v91z" fill="#148720"/><path d="M-18,438.07808v-456.57808h619v456.57808z" fill="url(#color-2)"/></g></g></svg>