<svg version="1.1" xmlns="http://www.w3.org/2000/svg" xmlns:xlink="http://www.w3.org/1999/xlink" width="139.46787" height="27.82619" viewBox="0,0,139.46787,27.82619"><defs><linearGradient x1="14" y1="8.07673" x2="14" y2="24.05952" gradientUnits="userSpaceOnUse" id="color-1"><stop offset="0" stop-color="#262626"/><stop offset="1" stop-color="#1a1a1a"/></linearGradient><linearGradient x1="14" y1="13.43077" x2="14" y2="18.70549" gradientUnits="userSpaceOnUse" id="color-2"><stop offset="0" stop-color="#e6e6e6"/><stop offset="1" stop-color="#d7d7d7"/></linearGradient><linearGradient x1="14.63684" y1="4.35291" x2="14.63684" y2="10.22053" gradientUnits="userSpaceOnUse" id="color-3"><stop offset="0" stop-color="#312530"/><stop offset="1" stop-color="#322227"/></linearGradient><linearGradient x1="3.8031" y1="2.76576" x2="4.08498" y2="18.34904" gradientUnits="userSpaceOnUse" id="color-4"><stop offset="0" stop-color="#332632"/><stop offset="1" stop-color="#332020"/></linearGradient><linearGradient x1="6.79303" y1="0.97312" x2="6.79303" y2="3.02688" gradientUnits="userSpaceOnUse" id="color-5"><stop offset="0" stop-color="#302633"/><stop offset="1" stop-color="#322633"/></linearGradient><linearGradient x1="15.36618" y1="1.42615" x2="15.36618" y2="16.53007" gradientUnits="userSpaceOnUse" id="color-6"><stop offset="0" stop-color="#302633"/><stop offset="1" stop-color="#332020"/></linearGradient><linearGradient x1="23.59236" y1="1.62749" x2="23.59236" y2="16.73141" gradientUnits="userSpaceOnUse" id="color-7"><stop offset="0" stop-color="#302633"/><stop offset="1" stop-color="#332020"/></linearGradient><linearGradient x1="14.57931" y1="3.14487" x2="14.57931" y2="9.01249" gradientUnits="userSpaceOnUse" id="color-8"><stop offset="0" stop-color="#ea76de"/><stop offset="1" stop-color="#f75ca2"/></linearGradient><linearGradient x1="3.74557" y1="1.55772" x2="4.02745" y2="17.141" gradientUnits="userSpaceOnUse" id="color-9"><stop offset="0" stop-color="#ea76df"/><stop offset="1" stop-color="#ff3f3f"/></linearGradient><linearGradient x1="6.7355" y1="-0.23492" x2="6.7355" y2="1.81884" gradientUnits="userSpaceOnUse" id="color-10"><stop offset="0" stop-color="#e681ff"/><stop offset="1" stop-color="#e87cef"/></linearGradient><linearGradient x1="15.30865" y1="0.21811" x2="15.30865" y2="15.32203" gradientUnits="userSpaceOnUse" id="color-11"><stop offset="0" stop-color="#e681ff"/><stop offset="1" stop-color="#ff3f3f"/></linearGradient><linearGradient x1="23.53483" y1="0.41945" x2="23.53483" y2="15.52337" gradientUnits="userSpaceOnUse" id="color-12"><stop offset="0" stop-color="#e681ff"/><stop offset="1" stop-color="#ff3f3f"/></linearGradient></defs><g transform="translate(0.39287,3.76667)"><g data-paper-data="{&quot;isPaintingLayer&quot;:true}" fill-rule="nonzero" stroke-linejoin="miter" stroke-miterlimit="10" stroke-dasharray="" stroke-dashoffset="0" style="mix-blend-mode: normal"><text transform="translate(35.15834,17.68333) scale(0.5,0.5)" font-size="40" xml:space="preserve" fill="#000000" fill-rule="nonzero" stroke="none" stroke-width="1" stroke-linecap="butt" stroke-linejoin="miter" stroke-miterlimit="10" stroke-dasharray="" stroke-dashoffset="0" font-family="Sans Serif" font-weight="normal" text-anchor="start" style="mix-blend-mode: normal"><tspan x="0" dy="0">InterMusic</tspan></text><g><g><path d="M-0.39287,16.06813c0,-4.41353 6.4439,-7.99139 14.39286,-7.99139c7.94896,0 14.39286,3.57787 14.39286,7.99139c0,4.41353 -6.4439,7.99139 -14.39286,7.99139c-7.94896,0 -14.39286,-3.57787 -14.39286,-7.99139z" fill="url(#color-1)" stroke="none" stroke-width="0" stroke-linecap="butt"/><path d="M9.25,16.06813c0,-1.45657 2.12665,-2.63736 4.75,-2.63736c2.62335,0 4.75,1.18079 4.75,2.63736c0,1.45657 -2.12665,2.63736 -4.75,2.63736c-2.62335,0 -4.75,-1.18079 -4.75,-2.63736z" fill="url(#color-2)" stroke="none" stroke-width="0" stroke-linecap="butt"/><path d="M25.91964,9.24206c0,0 0.0236,4.09404 -0.49301,5.99516c-0.50703,1.86588 -2.7927,4.59352 -2.7927,4.59352" fill="none" stroke="#404040" stroke-width="1.5" stroke-linecap="round"/><path d="M20.77679,10.03525l0.42857,-2.38288h5.5l0.42857,2.38288z" fill="#404040" stroke="#404040" stroke-width="0" stroke-linecap="butt"/></g><g stroke-width="2"><g><path d="M18.40478,6.16497c0,0 -2.64605,4.63656 -5.06226,4.05556c-2.41621,-0.581 -2.47361,-5.86762 -2.47361,-5.86762" fill="none" stroke="url(#color-3)" stroke-linecap="round"/><path d="M1.93591,16.38881l4.08464,-11.73447" fill="none" stroke="url(#color-4)" stroke-linecap="round"/><path d="M5.76615,2c0,-0.56713 0.45976,-1.02688 1.02688,-1.02688c0.56713,0 1.02688,0.45976 1.02688,1.02688c0,0.56713 -0.45975,1.02688 -1.02688,1.02688c-0.56713,0 -1.02688,-0.45975 -1.02688,-1.02688z" fill="url(#color-5)" stroke="none" stroke-linecap="butt"/><path d="M11.37368,2.57734l-4.42706,13.95273" fill="none" stroke="url(#color-6)" stroke-linecap="round"/><path d="M19.59986,2.77869l-4.42706,13.95272" fill="none" stroke="url(#color-7)" stroke-linecap="round"/></g><g><path d="M18.34725,4.95693c0,0 -2.64605,4.63656 -5.06226,4.05556c-2.41621,-0.581 -2.47361,-5.86762 -2.47361,-5.86762" fill="none" stroke="url(#color-8)" stroke-linecap="round"/><path d="M5.96303,3.44631l-4.08464,11.73446" fill="none" stroke="url(#color-9)" stroke-linecap="round"/><path d="M5.70862,0.79196c0,-0.56713 0.45975,-1.02688 1.02688,-1.02688c0.56713,0 1.02688,0.45976 1.02688,1.02688c0,0.56713 -0.45975,1.02687 -1.02688,1.02687c-0.56713,0 -1.02688,-0.45974 -1.02688,-1.02687z" fill="url(#color-10)" stroke="none" stroke-linecap="butt"/><path d="M11.31616,1.3693l-4.42706,13.95273" fill="none" stroke="url(#color-11)" stroke-linecap="round"/><path d="M15.11527,15.52336l4.42706,-13.95272" fill="none" stroke="url(#color-12)" stroke-linecap="round"/></g></g></g></g></g></svg>