<svg version="1.1" xmlns="http://www.w3.org/2000/svg" xmlns:xlink="http://www.w3.org/1999/xlink" width="164.5" height="71.5" viewBox="0,0,164.5,71.5"><g transform="translate(-24.10004,-130.15003)"><g stroke-miterlimit="10"><path d="M24.10005,182.20004c0,-23.50906 0,15.29494 0,-33.5c0,-16.69625 5.34527,-18.55 20.7,-18.55c36.93744,0 102.8643,0 123.5,0c12.14827,0 20.3,0.13046 20.3,14.55c0,48.25715 0,18.25232 0,41c0,8.30104 -5.72275,15.95 -22.3,15.95c-41.01562,0 -114.80997,0 -132.5,0c-7.52211,0 -9.7,-9.57429 -9.7,-19.45z" fill-opacity="0.53333" fill="#66ffed" stroke="none" stroke-width="0"/><text transform="translate(99.40133,174.94634) scale(0.54622,0.54622)" font-size="40" xml:space="preserve" fill="#000000" stroke="none" stroke-width="1" font-family="&quot;Trebuchet MS&quot;, Sans Serif" font-weight="normal" text-anchor="start"><tspan x="0" dy="0">Transfer</tspan></text><text transform="translate(98.42189,173.9669) scale(0.54622,0.54622)" font-size="40" xml:space="preserve" fill="#ffffff" stroke="none" stroke-width="1" font-family="&quot;Trebuchet MS&quot;, Sans Serif" font-weight="normal" text-anchor="start"><tspan x="0" dy="0">Transfer</tspan></text><g stroke="#000000"><g stroke-width="5"><path d="M49.97013,176.66745c0,-3.8177 0,-14.57712 0,-19.61657c0,-1.63375 1.73423,-2.66633 3.57105,-2.66633c4.39738,0 23.02729,0 33.50245,0c4.30236,0 7.22908,3.06303 7.22908,5.53167c0,2.95155 0,10.32509 0,15.86959c0,3.84563 -2.25579,6.81135 -5.68621,6.81135c-9.12466,0 -26.56008,0 -31.95958,0c-3.12414,0 -6.6568,-3.32185 -6.6568,-5.9297z" fill="#a8a4af"/><path d="M61.45726,186.1264c2.69742,-2.69742 10.66417,-10.66417 10.66417,-10.66417c0,0 9.09311,9.0931 11.70049,11.70049c1.30918,1.30918 -0.33143,2.94979 -2.94979,2.94979c-3.4369,0 -12.5082,0 -18.2941,0c-2.99302,0 -2.76992,-2.33695 -1.12077,-3.98611z" fill="#a8a4af"/><path d="M54.96545,174.82355c0,-2.95678 0,-11.28984 0,-15.19285c0,-1.26532 1.34314,-2.06504 2.76574,-2.06504c3.40573,0 17.83442,0 25.94734,0c3.33214,0 5.59886,2.37229 5.59886,4.28422c0,2.28595 0,7.99669 0,12.29085c0,2.97841 -1.74708,5.27533 -4.40392,5.27533c-7.06697,0 -20.57055,0 -24.7524,0c-2.41962,0 -5.15563,-2.57274 -5.15563,-4.5925z" fill="#7ae9eb"/></g><g><g stroke-width="5"><path d="M29.77733,163.97045c0,-3.8177 0,-14.57712 0,-19.61657c0,-1.63374 1.73423,-2.66632 3.57105,-2.66632c4.39738,0 23.02729,0 33.50245,0c4.30236,0 7.22908,3.06303 7.22908,5.53166c0,2.95155 0,10.3251 0,15.86959c0,3.84563 -2.25579,6.81134 -5.68621,6.81134c-9.12466,0 -26.56008,0 -31.95958,0c-3.12414,0 -6.6568,-3.32185 -6.6568,-5.9297z" fill="#a8a4af"/><path d="M41.26445,173.42941c2.69743,-2.69743 10.66417,-10.66417 10.66417,-10.66417c0,0 9.0931,9.0931 11.70049,11.70049c1.30918,1.30918 -0.33143,2.94978 -2.94979,2.94978c-3.4369,0 -12.5082,0 -18.29411,0c-2.99301,0 -2.76992,-2.33695 -1.12077,-3.9861z" fill="#a8a4af"/><path d="M34.77264,162.12656c0,-2.95677 0,-11.28984 0,-15.19285c0,-1.26532 1.34314,-2.06504 2.76574,-2.06504c3.40573,0 17.83443,0 25.94735,0c3.33214,0 5.59886,2.37229 5.59886,4.28422c0,2.28594 0,7.99669 0,12.29085c0,2.97841 -1.74708,5.27532 -4.40392,5.27532c-7.06696,0 -20.57054,0 -24.7524,0c-2.41962,0 -5.15563,-2.57274 -5.15563,-4.5925z" fill="#7ae9eb"/></g><g stroke-width="0"><path d="M29.77733,163.97045c0,-3.8177 0,-14.57711 0,-19.61657c0,-1.63374 1.73423,-2.66633 3.57105,-2.66633c4.39738,0 23.02729,0 33.50245,0c4.30236,0 7.22908,3.06303 7.22908,5.53167c0,2.95155 0,10.32509 0,15.86958c0,3.84563 -2.25579,6.81135 -5.68621,6.81135c-9.12466,0 -26.56008,0 -31.95958,0c-3.12414,0 -6.6568,-3.32185 -6.6568,-5.9297z" fill="#a8a4af"/><path d="M41.26445,173.42941c2.69742,-2.69743 10.66417,-10.66417 10.66417,-10.66417c0,0 9.0931,9.0931 11.70049,11.70049c1.30918,1.30918 -0.33143,2.94978 -2.94979,2.94978c-3.4369,0 -12.5082,0 -18.29411,0c-2.99301,0 -2.76992,-2.33695 -1.12077,-3.9861z" fill="#a8a4af"/><path d="M34.77264,162.12656c0,-2.95677 0,-11.28984 0,-15.19285c0,-1.26532 1.34314,-2.06504 2.76574,-2.06504c3.40573,0 17.83443,0 25.94735,0c3.33214,0 5.59886,2.37229 5.59886,4.28423c0,2.28594 0,7.99669 0,12.29084c0,2.97841 -1.74708,5.27532 -4.40392,5.27532c-7.06696,0 -20.57054,0 -24.7524,0c-2.41962,0 -5.15563,-2.57274 -5.15563,-4.5925z" fill="#7ae9eb"/></g></g><g stroke-width="0"><path d="M49.97013,176.66745c0,-3.8177 0,-14.57712 0,-19.61657c0,-1.63375 1.73423,-2.66633 3.57105,-2.66633c4.39738,0 23.02729,0 33.50245,0c4.30236,0 7.22908,3.06303 7.22908,5.53167c0,2.95155 0,10.32509 0,15.86959c0,3.84563 -2.25579,6.81135 -5.68621,6.81135c-9.12466,0 -26.56008,0 -31.95958,0c-3.12414,0 -6.6568,-3.32185 -6.6568,-5.9297z" fill="#a8a4af"/><path d="M61.45726,186.1264c2.69742,-2.69742 10.66417,-10.66417 10.66417,-10.66417c0,0 9.09311,9.0931 11.70049,11.70049c1.30918,1.30918 -0.33143,2.94979 -2.94979,2.94979c-3.4369,0 -12.5082,0 -18.2941,0c-2.99302,0 -2.76992,-2.33695 -1.12077,-3.98611z" fill="#a8a4af"/><path d="M54.96545,174.82355c0,-2.95678 0,-11.28984 0,-15.19285c0,-1.26532 1.34314,-2.06504 2.76574,-2.06504c3.40573,0 17.83442,0 25.94734,0c3.33214,0 5.59886,2.37229 5.59886,4.28422c0,2.28595 0,7.99669 0,12.29085c0,2.97841 -1.74708,5.27533 -4.40392,5.27533c-7.06697,0 -20.57055,0 -24.7524,0c-2.41962,0 -5.15563,-2.57274 -5.15563,-4.5925z" fill="#7ae9eb"/></g></g></g></g></svg>