<svg version="1.1" xmlns="http://www.w3.org/2000/svg" xmlns:xlink="http://www.w3.org/1999/xlink" width="31.36832" height="31.36833" viewBox="0,0,31.36832,31.36833"><g transform="translate(-233.31584,-258.91113)"><g stroke-miterlimit="10"><path d="M233.31585,284.36091c0,-3.8671 0,-14.80635 0,-21.01086c0,-2.65195 3.20889,-4.43892 7.39819,-4.43892c6.16066,0 14.44155,0 17.75565,0c2.76744,0 6.21448,1.65488 6.21448,4.14299c0,6.14638 0,17.37743 0,21.30679c0,2.66198 -2.06346,5.91855 -5.03077,5.91855c-6.01664,0 -15.7493,0 -19.53122,0c-2.97269,0 -6.80633,-3.25657 -6.80633,-5.91855z" fill="#ffca00" stroke="#ffffff" stroke-width="0" stroke-linecap="butt"/><path d="M255.22084,265.94064c4.77984,3.56924 5.76122,10.3375 2.19198,15.11734c-3.56924,4.77984 -10.3375,5.76122 -15.11734,2.19198c-4.77984,-3.56924 -5.76122,-10.3375 -2.19198,-15.11734c3.56924,-4.77984 10.3375,-5.76122 15.11734,-2.19198z" fill="#ffca00" stroke="#ffffff" stroke-width="3.5" stroke-linecap="butt"/><path d="M259.90268,283.28362l-6.02901,-4.50203" fill="none" stroke="#ffca00" stroke-width="5.5" stroke-linecap="round"/><g fill="none" stroke="#ffffff" stroke-width="2.5" stroke-linecap="round"><path d="M257.25171,279.46614l4.818,-1.13441"/><path d="M256.11732,274.64814l1.1344,4.818"/></g></g></g></svg>