<svg version="1.1" xmlns="http://www.w3.org/2000/svg" xmlns:xlink="http://www.w3.org/1999/xlink" width="643.39999" height="470" viewBox="0,0,643.39999,470"><defs><linearGradient x1="289.20001" y1="25.3" x2="289.20001" y2="115.3" gradientUnits="userSpaceOnUse" id="color-1"><stop offset="0" stop-color="#f5edff"/><stop offset="1" stop-color="#5f5c63"/></linearGradient><linearGradient x1="238.45001" y1="38.55" x2="292.45001" y2="38.55" gradientUnits="userSpaceOnUse" id="color-2"><stop offset="0" stop-color="#fe4242"/><stop offset="1" stop-color="#ed3961"/></linearGradient><linearGradient x1="288" y1="84.06667" x2="288" y2="122.4" gradientUnits="userSpaceOnUse" id="color-3"><stop offset="0" stop-color="#7b7783"/><stop offset="1" stop-color="#3e3d42"/></linearGradient><linearGradient x1="289.20001" y1="98.6" x2="289.20001" y2="227.6" gradientUnits="userSpaceOnUse" id="color-4"><stop offset="0" stop-color="#7b7783"/><stop offset="1" stop-color="#3e3d42"/></linearGradient><linearGradient x1="290.30002" y1="154.89999" x2="290.30002" y2="326.89999" gradientUnits="userSpaceOnUse" id="color-5"><stop offset="0" stop-color="#7b7783"/><stop offset="1" stop-color="#3e3d42"/></linearGradient><linearGradient x1="295.2" y1="214.48694" x2="295.2" y2="408.41256" gradientUnits="userSpaceOnUse" id="color-6"><stop offset="0" stop-color="#7b7783"/><stop offset="1" stop-color="#3e3d42"/></linearGradient><linearGradient x1="288" y1="-55" x2="288" y2="415" gradientUnits="userSpaceOnUse" id="color-7"><stop offset="0" stop-color="#1f1e21"/><stop offset="1" stop-color="#1f1e21" stop-opacity="0"/></linearGradient></defs><g transform="translate(26.5,55)"><g stroke="none" stroke-width="0" stroke-miterlimit="10"><path d="M-20.29999,385.1v-402h619v402z" fill="#81a0a6"/><g><path d="M285.95001,115.3v-90h6.5v90z" fill="url(#color-1)"/><path d="M238.45001,54.05v-31c0,0 17.35604,3.25 26.65,3.25c8.66141,0 27.35,-3.25 27.35,-3.25v31c0,0 -14.23634,-1 -22.85,-1c-9.32918,0 -31.15,1 -31.15,1z" fill="url(#color-2)"/></g><path d="M268.83333,122.4v-38.33333h38.33333v38.33333z" fill="url(#color-3)"/><path d="M164.20001,227.6v-129h250v129z" fill="url(#color-4)"/><path d="M27.30002,326.89999v-172h526v172z" fill="url(#color-5)"/><path d="M-26.5,408.41256v-193.92562h643.39999v193.92562z" fill="url(#color-6)"/><path d="M-18,415v-470h612v470z" fill="url(#color-7)"/></g></g></svg>