<svg version="1.1" xmlns="http://www.w3.org/2000/svg" xmlns:xlink="http://www.w3.org/1999/xlink" width="638" height="394.89999" viewBox="0,0,638,394.89999"><defs><linearGradient x1="288" y1="0" x2="288" y2="360" gradientUnits="userSpaceOnUse" id="color-1"><stop offset="0" stop-color="#07283b"/><stop offset="1" stop-color="#000000"/></linearGradient><radialGradient cx="32.50001" cy="27.50001" r="6.21429" gradientUnits="userSpaceOnUse" id="color-2"><stop offset="0" stop-color="#ffe766"/><stop offset="1" stop-color="#ffe766" stop-opacity="0"/></radialGradient><radialGradient cx="85.50001" cy="54.00001" r="6.21429" gradientUnits="userSpaceOnUse" id="color-3"><stop offset="0" stop-color="#ffe766"/><stop offset="1" stop-color="#ffe766" stop-opacity="0"/></radialGradient><radialGradient cx="14.50001" cy="64.50001" r="6.21429" gradientUnits="userSpaceOnUse" id="color-4"><stop offset="0" stop-color="#ffe766"/><stop offset="1" stop-color="#ffe766" stop-opacity="0"/></radialGradient><radialGradient cx="104.00001" cy="118.50001" r="6.21429" gradientUnits="userSpaceOnUse" id="color-5"><stop offset="0" stop-color="#ffe766"/><stop offset="1" stop-color="#ffe766" stop-opacity="0"/></radialGradient><radialGradient cx="41.00001" cy="84.50001" r="6.21429" gradientUnits="userSpaceOnUse" id="color-6"><stop offset="0" stop-color="#ffe766"/><stop offset="1" stop-color="#ffe766" stop-opacity="0"/></radialGradient><radialGradient cx="114.50001" cy="86.50001" r="6.21429" gradientUnits="userSpaceOnUse" id="color-7"><stop offset="0" stop-color="#ffe766"/><stop offset="1" stop-color="#ffe766" stop-opacity="0"/></radialGradient><radialGradient cx="186.00001" cy="59.00001" r="6.21429" gradientUnits="userSpaceOnUse" id="color-8"><stop offset="0" stop-color="#ffe766"/><stop offset="1" stop-color="#ffe766" stop-opacity="0"/></radialGradient><radialGradient cx="101.50001" cy="240.50001" r="6.21429" gradientUnits="userSpaceOnUse" id="color-9"><stop offset="0" stop-color="#ffe766"/><stop offset="1" stop-color="#ffe766" stop-opacity="0"/></radialGradient><radialGradient cx="154.5" cy="214.00001" r="6.21429" gradientUnits="userSpaceOnUse" id="color-10"><stop offset="0" stop-color="#ffe766"/><stop offset="1" stop-color="#ffe766" stop-opacity="0"/></radialGradient><radialGradient cx="83.50001" cy="203.50001" r="6.21429" gradientUnits="userSpaceOnUse" id="color-11"><stop offset="0" stop-color="#ffe766"/><stop offset="1" stop-color="#ffe766" stop-opacity="0"/></radialGradient><radialGradient cx="173.00001" cy="149.5" r="6.21429" gradientUnits="userSpaceOnUse" id="color-12"><stop offset="0" stop-color="#ffe766"/><stop offset="1" stop-color="#ffe766" stop-opacity="0"/></radialGradient><radialGradient cx="110.00001" cy="183.50001" r="6.21429" gradientUnits="userSpaceOnUse" id="color-13"><stop offset="0" stop-color="#ffe766"/><stop offset="1" stop-color="#ffe766" stop-opacity="0"/></radialGradient><radialGradient cx="445.00001" cy="320.50001" r="6.21429" gradientUnits="userSpaceOnUse" id="color-14"><stop offset="0" stop-color="#ffe766"/><stop offset="1" stop-color="#ffe766" stop-opacity="0"/></radialGradient><radialGradient cx="392.00001" cy="294.00001" r="6.21429" gradientUnits="userSpaceOnUse" id="color-15"><stop offset="0" stop-color="#ffe766"/><stop offset="1" stop-color="#ffe766" stop-opacity="0"/></radialGradient><radialGradient cx="463.00001" cy="283.50001" r="6.21429" gradientUnits="userSpaceOnUse" id="color-16"><stop offset="0" stop-color="#ffe766"/><stop offset="1" stop-color="#ffe766" stop-opacity="0"/></radialGradient><radialGradient cx="373.50001" cy="229.50001" r="6.21429" gradientUnits="userSpaceOnUse" id="color-17"><stop offset="0" stop-color="#ffe766"/><stop offset="1" stop-color="#ffe766" stop-opacity="0"/></radialGradient><radialGradient cx="436.50001" cy="263.50001" r="6.21429" gradientUnits="userSpaceOnUse" id="color-18"><stop offset="0" stop-color="#ffe766"/><stop offset="1" stop-color="#ffe766" stop-opacity="0"/></radialGradient><radialGradient cx="363.00001" cy="261.50001" r="6.21429" gradientUnits="userSpaceOnUse" id="color-19"><stop offset="0" stop-color="#ffe766"/><stop offset="1" stop-color="#ffe766" stop-opacity="0"/></radialGradient><radialGradient cx="291.50001" cy="289.00001" r="6.21429" gradientUnits="userSpaceOnUse" id="color-20"><stop offset="0" stop-color="#ffe766"/><stop offset="1" stop-color="#ffe766" stop-opacity="0"/></radialGradient><radialGradient cx="464.00001" cy="62.50001" r="6.21429" gradientUnits="userSpaceOnUse" id="color-21"><stop offset="0" stop-color="#ffe766"/><stop offset="1" stop-color="#ffe766" stop-opacity="0"/></radialGradient><radialGradient cx="411.00001" cy="89.00001" r="6.21429" gradientUnits="userSpaceOnUse" id="color-22"><stop offset="0" stop-color="#ffe766"/><stop offset="1" stop-color="#ffe766" stop-opacity="0"/></radialGradient><radialGradient cx="482.00001" cy="99.50001" r="6.21429" gradientUnits="userSpaceOnUse" id="color-23"><stop offset="0" stop-color="#ffe766"/><stop offset="1" stop-color="#ffe766" stop-opacity="0"/></radialGradient><radialGradient cx="392.50001" cy="153.5" r="6.21429" gradientUnits="userSpaceOnUse" id="color-24"><stop offset="0" stop-color="#ffe766"/><stop offset="1" stop-color="#ffe766" stop-opacity="0"/></radialGradient><radialGradient cx="455.50001" cy="119.50001" r="6.21429" gradientUnits="userSpaceOnUse" id="color-25"><stop offset="0" stop-color="#ffe766"/><stop offset="1" stop-color="#ffe766" stop-opacity="0"/></radialGradient><radialGradient cx="382.00001" cy="121.50001" r="6.21429" gradientUnits="userSpaceOnUse" id="color-26"><stop offset="0" stop-color="#ffe766"/><stop offset="1" stop-color="#ffe766" stop-opacity="0"/></radialGradient><radialGradient cx="310.50001" cy="94.00001" r="6.21429" gradientUnits="userSpaceOnUse" id="color-27"><stop offset="0" stop-color="#ffe766"/><stop offset="1" stop-color="#ffe766" stop-opacity="0"/></radialGradient><radialGradient cx="503.75" cy="33.5" r="6.21429" gradientUnits="userSpaceOnUse" id="color-28"><stop offset="0" stop-color="#ffe766"/><stop offset="1" stop-color="#ffe766" stop-opacity="0"/></radialGradient><radialGradient cx="450.75" cy="60" r="6.21429" gradientUnits="userSpaceOnUse" id="color-29"><stop offset="0" stop-color="#ffe766"/><stop offset="1" stop-color="#ffe766" stop-opacity="0"/></radialGradient><radialGradient cx="521.75" cy="70.5" r="6.21429" gradientUnits="userSpaceOnUse" id="color-30"><stop offset="0" stop-color="#ffe766"/><stop offset="1" stop-color="#ffe766" stop-opacity="0"/></radialGradient><radialGradient cx="432.25" cy="124.5" r="6.21429" gradientUnits="userSpaceOnUse" id="color-31"><stop offset="0" stop-color="#ffe766"/><stop offset="1" stop-color="#ffe766" stop-opacity="0"/></radialGradient><radialGradient cx="495.25" cy="90.5" r="6.21429" gradientUnits="userSpaceOnUse" id="color-32"><stop offset="0" stop-color="#ffe766"/><stop offset="1" stop-color="#ffe766" stop-opacity="0"/></radialGradient><radialGradient cx="421.75" cy="92.5" r="6.21429" gradientUnits="userSpaceOnUse" id="color-33"><stop offset="0" stop-color="#ffe766"/><stop offset="1" stop-color="#ffe766" stop-opacity="0"/></radialGradient><radialGradient cx="350.25" cy="65" r="6.21429" gradientUnits="userSpaceOnUse" id="color-34"><stop offset="0" stop-color="#ffe766"/><stop offset="1" stop-color="#ffe766" stop-opacity="0"/></radialGradient><radialGradient cx="434.75" cy="246.5" r="6.21429" gradientUnits="userSpaceOnUse" id="color-35"><stop offset="0" stop-color="#ffe766"/><stop offset="1" stop-color="#ffe766" stop-opacity="0"/></radialGradient><radialGradient cx="381.75" cy="220" r="6.21429" gradientUnits="userSpaceOnUse" id="color-36"><stop offset="0" stop-color="#ffe766"/><stop offset="1" stop-color="#ffe766" stop-opacity="0"/></radialGradient><radialGradient cx="452.75" cy="209.5" r="6.21429" gradientUnits="userSpaceOnUse" id="color-37"><stop offset="0" stop-color="#ffe766"/><stop offset="1" stop-color="#ffe766" stop-opacity="0"/></radialGradient><radialGradient cx="363.25" cy="155.5" r="6.21429" gradientUnits="userSpaceOnUse" id="color-38"><stop offset="0" stop-color="#ffe766"/><stop offset="1" stop-color="#ffe766" stop-opacity="0"/></radialGradient><radialGradient cx="426.25" cy="189.5" r="6.21429" gradientUnits="userSpaceOnUse" id="color-39"><stop offset="0" stop-color="#ffe766"/><stop offset="1" stop-color="#ffe766" stop-opacity="0"/></radialGradient><radialGradient cx="352.75" cy="187.5" r="6.21429" gradientUnits="userSpaceOnUse" id="color-40"><stop offset="0" stop-color="#ffe766"/><stop offset="1" stop-color="#ffe766" stop-opacity="0"/></radialGradient><radialGradient cx="281.25" cy="215" r="6.21429" gradientUnits="userSpaceOnUse" id="color-41"><stop offset="0" stop-color="#ffe766"/><stop offset="1" stop-color="#ffe766" stop-opacity="0"/></radialGradient><radialGradient cx="91.25" cy="326.5" r="6.21429" gradientUnits="userSpaceOnUse" id="color-42"><stop offset="0" stop-color="#ffe766"/><stop offset="1" stop-color="#ffe766" stop-opacity="0"/></radialGradient><radialGradient cx="144.25" cy="300" r="6.21429" gradientUnits="userSpaceOnUse" id="color-43"><stop offset="0" stop-color="#ffe766"/><stop offset="1" stop-color="#ffe766" stop-opacity="0"/></radialGradient><radialGradient cx="73.25" cy="289.5" r="6.21429" gradientUnits="userSpaceOnUse" id="color-44"><stop offset="0" stop-color="#ffe766"/><stop offset="1" stop-color="#ffe766" stop-opacity="0"/></radialGradient><radialGradient cx="99.75" cy="269.5" r="6.21429" gradientUnits="userSpaceOnUse" id="color-45"><stop offset="0" stop-color="#ffe766"/><stop offset="1" stop-color="#ffe766" stop-opacity="0"/></radialGradient><radialGradient cx="173.25" cy="267.5" r="6.21429" gradientUnits="userSpaceOnUse" id="color-46"><stop offset="0" stop-color="#ffe766"/><stop offset="1" stop-color="#ffe766" stop-opacity="0"/></radialGradient><radialGradient cx="244.75" cy="295" r="6.21429" gradientUnits="userSpaceOnUse" id="color-47"><stop offset="0" stop-color="#ffe766"/><stop offset="1" stop-color="#ffe766" stop-opacity="0"/></radialGradient><radialGradient cx="72.25" cy="68.5" r="6.21429" gradientUnits="userSpaceOnUse" id="color-48"><stop offset="0" stop-color="#ffe766"/><stop offset="1" stop-color="#ffe766" stop-opacity="0"/></radialGradient><radialGradient cx="125.25" cy="95" r="6.21429" gradientUnits="userSpaceOnUse" id="color-49"><stop offset="0" stop-color="#ffe766"/><stop offset="1" stop-color="#ffe766" stop-opacity="0"/></radialGradient><radialGradient cx="54.25" cy="105.5" r="6.21429" gradientUnits="userSpaceOnUse" id="color-50"><stop offset="0" stop-color="#ffe766"/><stop offset="1" stop-color="#ffe766" stop-opacity="0"/></radialGradient><radialGradient cx="143.75" cy="159.5" r="6.21429" gradientUnits="userSpaceOnUse" id="color-51"><stop offset="0" stop-color="#ffe766"/><stop offset="1" stop-color="#ffe766" stop-opacity="0"/></radialGradient><radialGradient cx="80.75" cy="125.5" r="6.21429" gradientUnits="userSpaceOnUse" id="color-52"><stop offset="0" stop-color="#ffe766"/><stop offset="1" stop-color="#ffe766" stop-opacity="0"/></radialGradient><radialGradient cx="225.75" cy="100" r="6.21429" gradientUnits="userSpaceOnUse" id="color-53"><stop offset="0" stop-color="#ffe766"/><stop offset="1" stop-color="#ffe766" stop-opacity="0"/></radialGradient><radialGradient cx="503.75" cy="326.5" r="6.21429" gradientUnits="userSpaceOnUse" id="color-54"><stop offset="0" stop-color="#ffe766"/><stop offset="1" stop-color="#ffe766" stop-opacity="0"/></radialGradient><radialGradient cx="450.75" cy="300" r="6.21429" gradientUnits="userSpaceOnUse" id="color-55"><stop offset="0" stop-color="#ffe766"/><stop offset="1" stop-color="#ffe766" stop-opacity="0"/></radialGradient><radialGradient cx="521.75" cy="289.5" r="6.21429" gradientUnits="userSpaceOnUse" id="color-56"><stop offset="0" stop-color="#ffe766"/><stop offset="1" stop-color="#ffe766" stop-opacity="0"/></radialGradient><radialGradient cx="432.25" cy="235.5" r="6.21429" gradientUnits="userSpaceOnUse" id="color-57"><stop offset="0" stop-color="#ffe766"/><stop offset="1" stop-color="#ffe766" stop-opacity="0"/></radialGradient><radialGradient cx="495.25" cy="269.5" r="6.21429" gradientUnits="userSpaceOnUse" id="color-58"><stop offset="0" stop-color="#ffe766"/><stop offset="1" stop-color="#ffe766" stop-opacity="0"/></radialGradient><radialGradient cx="421.75" cy="267.5" r="6.21429" gradientUnits="userSpaceOnUse" id="color-59"><stop offset="0" stop-color="#ffe766"/><stop offset="1" stop-color="#ffe766" stop-opacity="0"/></radialGradient><radialGradient cx="350.25" cy="295" r="6.21429" gradientUnits="userSpaceOnUse" id="color-60"><stop offset="0" stop-color="#ffe766"/><stop offset="1" stop-color="#ffe766" stop-opacity="0"/></radialGradient><radialGradient cx="434.75" cy="113.5" r="6.21429" gradientUnits="userSpaceOnUse" id="color-61"><stop offset="0" stop-color="#ffe766"/><stop offset="1" stop-color="#ffe766" stop-opacity="0"/></radialGradient><radialGradient cx="381.75" cy="140" r="6.21429" gradientUnits="userSpaceOnUse" id="color-62"><stop offset="0" stop-color="#ffe766"/><stop offset="1" stop-color="#ffe766" stop-opacity="0"/></radialGradient><radialGradient cx="452.75" cy="150.5" r="6.21429" gradientUnits="userSpaceOnUse" id="color-63"><stop offset="0" stop-color="#ffe766"/><stop offset="1" stop-color="#ffe766" stop-opacity="0"/></radialGradient><radialGradient cx="363.25" cy="204.5" r="6.21429" gradientUnits="userSpaceOnUse" id="color-64"><stop offset="0" stop-color="#ffe766"/><stop offset="1" stop-color="#ffe766" stop-opacity="0"/></radialGradient><radialGradient cx="426.25" cy="170.5" r="6.21429" gradientUnits="userSpaceOnUse" id="color-65"><stop offset="0" stop-color="#ffe766"/><stop offset="1" stop-color="#ffe766" stop-opacity="0"/></radialGradient><radialGradient cx="352.75" cy="172.5" r="6.21429" gradientUnits="userSpaceOnUse" id="color-66"><stop offset="0" stop-color="#ffe766"/><stop offset="1" stop-color="#ffe766" stop-opacity="0"/></radialGradient><radialGradient cx="281.25" cy="145" r="6.21429" gradientUnits="userSpaceOnUse" id="color-67"><stop offset="0" stop-color="#ffe766"/><stop offset="1" stop-color="#ffe766" stop-opacity="0"/></radialGradient><radialGradient cx="91.25" cy="33.5" r="6.21429" gradientUnits="userSpaceOnUse" id="color-68"><stop offset="0" stop-color="#ffe766"/><stop offset="1" stop-color="#ffe766" stop-opacity="0"/></radialGradient><radialGradient cx="144.25" cy="60" r="6.21429" gradientUnits="userSpaceOnUse" id="color-69"><stop offset="0" stop-color="#ffe766"/><stop offset="1" stop-color="#ffe766" stop-opacity="0"/></radialGradient><radialGradient cx="73.25" cy="70.5" r="6.21429" gradientUnits="userSpaceOnUse" id="color-70"><stop offset="0" stop-color="#ffe766"/><stop offset="1" stop-color="#ffe766" stop-opacity="0"/></radialGradient><radialGradient cx="162.75" cy="124.5" r="6.21429" gradientUnits="userSpaceOnUse" id="color-71"><stop offset="0" stop-color="#ffe766"/><stop offset="1" stop-color="#ffe766" stop-opacity="0"/></radialGradient><radialGradient cx="99.75" cy="90.5" r="6.21429" gradientUnits="userSpaceOnUse" id="color-72"><stop offset="0" stop-color="#ffe766"/><stop offset="1" stop-color="#ffe766" stop-opacity="0"/></radialGradient><radialGradient cx="173.25" cy="92.5" r="6.21429" gradientUnits="userSpaceOnUse" id="color-73"><stop offset="0" stop-color="#ffe766"/><stop offset="1" stop-color="#ffe766" stop-opacity="0"/></radialGradient><radialGradient cx="244.75" cy="65" r="6.21429" gradientUnits="userSpaceOnUse" id="color-74"><stop offset="0" stop-color="#ffe766"/><stop offset="1" stop-color="#ffe766" stop-opacity="0"/></radialGradient><radialGradient cx="72.25" cy="291.5" r="6.21429" gradientUnits="userSpaceOnUse" id="color-75"><stop offset="0" stop-color="#ffe766"/><stop offset="1" stop-color="#ffe766" stop-opacity="0"/></radialGradient><radialGradient cx="125.25" cy="265" r="6.21429" gradientUnits="userSpaceOnUse" id="color-76"><stop offset="0" stop-color="#ffe766"/><stop offset="1" stop-color="#ffe766" stop-opacity="0"/></radialGradient><radialGradient cx="54.25" cy="254.5" r="6.21429" gradientUnits="userSpaceOnUse" id="color-77"><stop offset="0" stop-color="#ffe766"/><stop offset="1" stop-color="#ffe766" stop-opacity="0"/></radialGradient><radialGradient cx="143.75" cy="200.5" r="6.21429" gradientUnits="userSpaceOnUse" id="color-78"><stop offset="0" stop-color="#ffe766"/><stop offset="1" stop-color="#ffe766" stop-opacity="0"/></radialGradient><radialGradient cx="80.75" cy="234.5" r="6.21429" gradientUnits="userSpaceOnUse" id="color-79"><stop offset="0" stop-color="#ffe766"/><stop offset="1" stop-color="#ffe766" stop-opacity="0"/></radialGradient><radialGradient cx="154.25" cy="232.5" r="6.21429" gradientUnits="userSpaceOnUse" id="color-80"><stop offset="0" stop-color="#ffe766"/><stop offset="1" stop-color="#ffe766" stop-opacity="0"/></radialGradient><radialGradient cx="225.75" cy="260" r="6.21429" gradientUnits="userSpaceOnUse" id="color-81"><stop offset="0" stop-color="#ffe766"/><stop offset="1" stop-color="#ffe766" stop-opacity="0"/></radialGradient><radialGradient cx="298.25" cy="178.75" r="6.21429" gradientUnits="userSpaceOnUse" id="color-82"><stop offset="0" stop-color="#ffe766"/><stop offset="1" stop-color="#ffe766" stop-opacity="0"/></radialGradient><radialGradient cx="323.5" cy="144.25" r="6.21429" gradientUnits="userSpaceOnUse" id="color-83"><stop offset="0" stop-color="#ffe766"/><stop offset="1" stop-color="#ffe766" stop-opacity="0"/></radialGradient><radialGradient cx="252.5" cy="154.75" r="6.21429" gradientUnits="userSpaceOnUse" id="color-84"><stop offset="0" stop-color="#ffe766"/><stop offset="1" stop-color="#ffe766" stop-opacity="0"/></radialGradient><radialGradient cx="279" cy="174.75001" r="6.21429" gradientUnits="userSpaceOnUse" id="color-85"><stop offset="0" stop-color="#ffe766"/><stop offset="1" stop-color="#ffe766" stop-opacity="0"/></radialGradient><radialGradient cx="310.25" cy="158.75" r="6.21429" gradientUnits="userSpaceOnUse" id="color-86"><stop offset="0" stop-color="#ffe766"/><stop offset="1" stop-color="#ffe766" stop-opacity="0"/></radialGradient><radialGradient cx="292.25" cy="195.75" r="6.21429" gradientUnits="userSpaceOnUse" id="color-87"><stop offset="0" stop-color="#ffe766"/><stop offset="1" stop-color="#ffe766" stop-opacity="0"/></radialGradient><radialGradient cx="318.75" cy="215.75" r="6.21429" gradientUnits="userSpaceOnUse" id="color-88"><stop offset="0" stop-color="#ffe766"/><stop offset="1" stop-color="#ffe766" stop-opacity="0"/></radialGradient><radialGradient cx="182.00001" cy="170.00001" r="6.21429" gradientUnits="userSpaceOnUse" id="color-89"><stop offset="0" stop-color="#ffe766"/><stop offset="1" stop-color="#ffe766" stop-opacity="0"/></radialGradient><radialGradient cx="208.25" cy="176" r="6.21429" gradientUnits="userSpaceOnUse" id="color-90"><stop offset="0" stop-color="#ffe766"/><stop offset="1" stop-color="#ffe766" stop-opacity="0"/></radialGradient><radialGradient cx="208.25" cy="106" r="6.21429" gradientUnits="userSpaceOnUse" id="color-91"><stop offset="0" stop-color="#ffe766"/><stop offset="1" stop-color="#ffe766" stop-opacity="0"/></radialGradient><radialGradient cx="225.25" cy="139.75" r="6.21429" gradientUnits="userSpaceOnUse" id="color-92"><stop offset="0" stop-color="#ffe766"/><stop offset="1" stop-color="#ffe766" stop-opacity="0"/></radialGradient><radialGradient cx="250.5" cy="105.25001" r="6.21429" gradientUnits="userSpaceOnUse" id="color-93"><stop offset="0" stop-color="#ffe766"/><stop offset="1" stop-color="#ffe766" stop-opacity="0"/></radialGradient><radialGradient cx="179.5" cy="115.75001" r="6.21429" gradientUnits="userSpaceOnUse" id="color-94"><stop offset="0" stop-color="#ffe766"/><stop offset="1" stop-color="#ffe766" stop-opacity="0"/></radialGradient><radialGradient cx="206" cy="135.75" r="6.21429" gradientUnits="userSpaceOnUse" id="color-95"><stop offset="0" stop-color="#ffe766"/><stop offset="1" stop-color="#ffe766" stop-opacity="0"/></radialGradient><radialGradient cx="237.25" cy="119.75" r="6.21429" gradientUnits="userSpaceOnUse" id="color-96"><stop offset="0" stop-color="#ffe766"/><stop offset="1" stop-color="#ffe766" stop-opacity="0"/></radialGradient><radialGradient cx="219.25" cy="156.75" r="6.21429" gradientUnits="userSpaceOnUse" id="color-97"><stop offset="0" stop-color="#ffe766"/><stop offset="1" stop-color="#ffe766" stop-opacity="0"/></radialGradient><radialGradient cx="245.75" cy="176.75" r="6.21429" gradientUnits="userSpaceOnUse" id="color-98"><stop offset="0" stop-color="#ffe766"/><stop offset="1" stop-color="#ffe766" stop-opacity="0"/></radialGradient><radialGradient cx="252.00001" cy="255.00001" r="6.21429" gradientUnits="userSpaceOnUse" id="color-99"><stop offset="0" stop-color="#ffe766"/><stop offset="1" stop-color="#ffe766" stop-opacity="0"/></radialGradient><radialGradient cx="278.25" cy="261" r="6.21429" gradientUnits="userSpaceOnUse" id="color-100"><stop offset="0" stop-color="#ffe766"/><stop offset="1" stop-color="#ffe766" stop-opacity="0"/></radialGradient><radialGradient cx="278.25" cy="191" r="6.21429" gradientUnits="userSpaceOnUse" id="color-101"><stop offset="0" stop-color="#ffe766"/><stop offset="1" stop-color="#ffe766" stop-opacity="0"/></radialGradient><radialGradient cx="295.25" cy="224.75" r="6.21429" gradientUnits="userSpaceOnUse" id="color-102"><stop offset="0" stop-color="#ffe766"/><stop offset="1" stop-color="#ffe766" stop-opacity="0"/></radialGradient><radialGradient cx="320.5" cy="190.25001" r="6.21429" gradientUnits="userSpaceOnUse" id="color-103"><stop offset="0" stop-color="#ffe766"/><stop offset="1" stop-color="#ffe766" stop-opacity="0"/></radialGradient><radialGradient cx="249.5" cy="200.75001" r="6.21429" gradientUnits="userSpaceOnUse" id="color-104"><stop offset="0" stop-color="#ffe766"/><stop offset="1" stop-color="#ffe766" stop-opacity="0"/></radialGradient><radialGradient cx="307.25" cy="204.75" r="6.21429" gradientUnits="userSpaceOnUse" id="color-105"><stop offset="0" stop-color="#ffe766"/><stop offset="1" stop-color="#ffe766" stop-opacity="0"/></radialGradient><radialGradient cx="289.25" cy="241.75" r="6.21429" gradientUnits="userSpaceOnUse" id="color-106"><stop offset="0" stop-color="#ffe766"/><stop offset="1" stop-color="#ffe766" stop-opacity="0"/></radialGradient><radialGradient cx="315.75" cy="261.75" r="6.21429" gradientUnits="userSpaceOnUse" id="color-107"><stop offset="0" stop-color="#ffe766"/><stop offset="1" stop-color="#ffe766" stop-opacity="0"/></radialGradient><radialGradient cx="205.25" cy="222" r="6.21429" gradientUnits="userSpaceOnUse" id="color-108"><stop offset="0" stop-color="#ffe766"/><stop offset="1" stop-color="#ffe766" stop-opacity="0"/></radialGradient><radialGradient cx="216.25" cy="202.75" r="6.21429" gradientUnits="userSpaceOnUse" id="color-109"><stop offset="0" stop-color="#ffe766"/><stop offset="1" stop-color="#ffe766" stop-opacity="0"/></radialGradient><radialGradient cx="242.75" cy="222.75" r="6.21429" gradientUnits="userSpaceOnUse" id="color-110"><stop offset="0" stop-color="#ffe766"/><stop offset="1" stop-color="#ffe766" stop-opacity="0"/></radialGradient><linearGradient x1="299.49286" y1="0" x2="299.49286" y2="394.89999" gradientUnits="userSpaceOnUse" id="color-111"><stop offset="0" stop-color="#000000" stop-opacity="0"/><stop offset="1" stop-color="#000000"/></linearGradient><radialGradient cx="288" cy="180" r="121.75" gradientUnits="userSpaceOnUse" id="color-112"><stop offset="0" stop-color="#ffffff"/><stop offset="1" stop-color="#ffffff" stop-opacity="0"/></radialGradient><radialGradient cx="271.24285" cy="198.51965" r="37.91667" gradientUnits="userSpaceOnUse" id="color-113"><stop offset="0" stop-color="#ffe766"/><stop offset="1" stop-color="#ffe766" stop-opacity="0"/></radialGradient></defs><g transform="translate(19.50714,0)"><g stroke-miterlimit="10"><path d="M0,360v-360h576v360z" fill="url(#color-1)" stroke="none" stroke-width="0"/><g stroke="none" stroke-width="0"><g><path d="M26.28572,27.50001c0,-3.43206 2.78223,-6.21429 6.21429,-6.21429c3.43206,0 6.21429,2.78223 6.21429,6.21429c0,3.43206 -2.78223,6.21429 -6.21429,6.21429c-3.43206,0 -6.21429,-2.78223 -6.21429,-6.21429z" fill="url(#color-2)"/><path d="M27.50001,27.50001c0,-2.76142 2.23858,-5 5,-5c2.76142,0 5,2.23858 5,5c0,2.76142 -2.23858,5 -5,5c-2.76142,0 -5,-2.23858 -5,-5z" fill="#ffe766"/></g><g><path d="M79.28572,54.00001c0,-3.43206 2.78223,-6.21429 6.21429,-6.21429c3.43206,0 6.21429,2.78223 6.21429,6.21429c0,3.43206 -2.78223,6.21429 -6.21429,6.21429c-3.43206,0 -6.21429,-2.78223 -6.21429,-6.21429z" fill="url(#color-3)"/><path d="M80.50001,54.00001c0,-2.76142 2.23858,-5 5,-5c2.76142,0 5,2.23858 5,5c0,2.76142 -2.23858,5 -5,5c-2.76142,0 -5,-2.23858 -5,-5z" fill="#ffe766"/></g><g><path d="M8.28572,64.50001c0,-3.43206 2.78223,-6.21429 6.21429,-6.21429c3.43206,0 6.21429,2.78223 6.21429,6.21429c0,3.43206 -2.78223,6.21429 -6.21429,6.21429c-3.43206,0 -6.21429,-2.78223 -6.21429,-6.21429z" fill="url(#color-4)"/><path d="M9.50001,64.50001c0,-2.76142 2.23858,-5 5,-5c2.76142,0 5,2.23858 5,5c0,2.76142 -2.23858,5 -5,5c-2.76142,0 -5,-2.23858 -5,-5z" fill="#ffe766"/></g><g><path d="M97.78572,118.50001c0,-3.43206 2.78223,-6.21429 6.21429,-6.21429c3.43206,0 6.21429,2.78223 6.21429,6.21429c0,3.43206 -2.78223,6.21429 -6.21429,6.21429c-3.43206,0 -6.21429,-2.78223 -6.21429,-6.21429z" fill="url(#color-5)"/><path d="M99.00001,118.50001c0,-2.76142 2.23858,-5 5,-5c2.76142,0 5,2.23858 5,5c0,2.76142 -2.23858,5 -5,5c-2.76142,0 -5,-2.23858 -5,-5z" fill="#ffe766"/></g><g><path d="M34.78572,84.50001c0,-3.43206 2.78223,-6.21429 6.21429,-6.21429c3.43206,0 6.21429,2.78223 6.21429,6.21429c0,3.43206 -2.78223,6.21429 -6.21429,6.21429c-3.43206,0 -6.21429,-2.78223 -6.21429,-6.21429z" fill="url(#color-6)"/><path d="M36.00001,84.50001c0,-2.76142 2.23858,-5 5,-5c2.76142,0 5,2.23858 5,5c0,2.76142 -2.23858,5 -5,5c-2.76142,0 -5,-2.23858 -5,-5z" fill="#ffe766"/></g><g><path d="M108.28572,86.50001c0,-3.43206 2.78223,-6.21429 6.21429,-6.21429c3.43206,0 6.21429,2.78223 6.21429,6.21429c0,3.43206 -2.78223,6.21429 -6.21429,6.21429c-3.43206,0 -6.21429,-2.78223 -6.21429,-6.21429z" fill="url(#color-7)"/><path d="M109.50001,86.50001c0,-2.76142 2.23858,-5 5,-5c2.76142,0 5,2.23858 5,5c0,2.76142 -2.23858,5 -5,5c-2.76142,0 -5,-2.23858 -5,-5z" fill="#ffe766"/></g><g><path d="M179.78572,59.00001c0,-3.43206 2.78223,-6.21429 6.21429,-6.21429c3.43206,0 6.21429,2.78223 6.21429,6.21429c0,3.43206 -2.78223,6.21429 -6.21429,6.21429c-3.43206,0 -6.21429,-2.78223 -6.21429,-6.21429z" fill="url(#color-8)"/><path d="M181.00001,59.00001c0,-2.76142 2.23858,-5 5,-5c2.76142,0 5,2.23858 5,5c0,2.76142 -2.23858,5 -5,5c-2.76142,0 -5,-2.23858 -5,-5z" fill="#ffe766"/></g><g><path d="M101.50001,234.28572c3.43206,0 6.21429,2.78223 6.21429,6.21429c0,3.43206 -2.78223,6.21429 -6.21429,6.21429c-3.43206,0 -6.21429,-2.78223 -6.21429,-6.21429c0,-3.43206 2.78223,-6.21429 6.21429,-6.21429z" fill="url(#color-9)"/><path d="M101.50001,235.50001c2.76142,0 5,2.23858 5,5c0,2.76142 -2.23858,5 -5,5c-2.76142,0 -5,-2.23858 -5,-5c0,-2.76142 2.23858,-5 5,-5z" fill="#ffe766"/></g><g><path d="M154.5,207.78572c3.43206,0 6.21429,2.78223 6.21429,6.21429c0,3.43206 -2.78223,6.21429 -6.21429,6.21429c-3.43206,0 -6.21429,-2.78223 -6.21429,-6.21429c0,-3.43206 2.78223,-6.21429 6.21429,-6.21429z" fill="url(#color-10)"/><path d="M154.5,209.00001c2.76142,0 5,2.23858 5,5c0,2.76142 -2.23858,5 -5,5c-2.76142,0 -5,-2.23858 -5,-5c0,-2.76142 2.23858,-5 5,-5z" fill="#ffe766"/></g><g><path d="M83.50001,197.28572c3.43206,0 6.21429,2.78223 6.21429,6.21429c0,3.43206 -2.78223,6.21429 -6.21429,6.21429c-3.43206,0 -6.21429,-2.78223 -6.21429,-6.21429c0,-3.43206 2.78223,-6.21429 6.21429,-6.21429z" fill="url(#color-11)"/><path d="M83.50001,198.50001c2.76142,0 5,2.23858 5,5c0,2.76142 -2.23858,5 -5,5c-2.76142,0 -5,-2.23858 -5,-5c0,-2.76142 2.23858,-5 5,-5z" fill="#ffe766"/></g><g><path d="M173.00001,143.28572c3.43206,0 6.21429,2.78223 6.21429,6.21429c0,3.43206 -2.78223,6.21429 -6.21429,6.21429c-3.43206,0 -6.21429,-2.78223 -6.21429,-6.21429c0,-3.43206 2.78223,-6.21429 6.21429,-6.21429z" fill="url(#color-12)"/><path d="M173.00001,144.5c2.76142,0 5,2.23858 5,5c0,2.76142 -2.23858,5 -5,5c-2.76142,0 -5,-2.23858 -5,-5c0,-2.76142 2.23858,-5 5,-5z" fill="#ffe766"/></g><g><path d="M110.00001,177.28572c3.43206,0 6.21429,2.78223 6.21429,6.21429c0,3.43206 -2.78223,6.21429 -6.21429,6.21429c-3.43206,0 -6.21429,-2.78223 -6.21429,-6.21429c0,-3.43206 2.78223,-6.21429 6.21429,-6.21429z" fill="url(#color-13)"/><path d="M110.00001,178.50001c2.76142,0 5,2.23858 5,5c0,2.76142 -2.23858,5 -5,5c-2.76142,0 -5,-2.23858 -5,-5c0,-2.76142 2.23858,-5 5,-5z" fill="#ffe766"/></g><g><path d="M451.2143,320.50001c0,3.43206 -2.78223,6.21429 -6.21429,6.21429c-3.43206,0 -6.21429,-2.78223 -6.21429,-6.21429c0,-3.43206 2.78223,-6.21429 6.21429,-6.21429c3.43206,0 6.21429,2.78223 6.21429,6.21429z" fill="url(#color-14)"/><path d="M450.00001,320.50001c0,2.76142 -2.23858,5 -5,5c-2.76142,0 -5,-2.23858 -5,-5c0,-2.76142 2.23858,-5 5,-5c2.76142,0 5,2.23858 5,5z" fill="#ffe766"/></g><g><path d="M398.2143,294.00001c0,3.43206 -2.78223,6.21429 -6.21429,6.21429c-3.43206,0 -6.21429,-2.78223 -6.21429,-6.21429c0,-3.43206 2.78223,-6.21429 6.21429,-6.21429c3.43206,0 6.21429,2.78223 6.21429,6.21429z" fill="url(#color-15)"/><path d="M397.00001,294.00001c0,2.76142 -2.23858,5 -5,5c-2.76142,0 -5,-2.23858 -5,-5c0,-2.76142 2.23858,-5 5,-5c2.76142,0 5,2.23858 5,5z" fill="#ffe766"/></g><g><path d="M469.2143,283.50001c0,3.43206 -2.78223,6.21429 -6.21429,6.21429c-3.43206,0 -6.21429,-2.78223 -6.21429,-6.21429c0,-3.43206 2.78223,-6.21429 6.21429,-6.21429c3.43206,0 6.21429,2.78223 6.21429,6.21429z" fill="url(#color-16)"/><path d="M468.00001,283.50001c0,2.76142 -2.23858,5 -5,5c-2.76142,0 -5,-2.23858 -5,-5c0,-2.76142 2.23858,-5 5,-5c2.76142,0 5,2.23858 5,5z" fill="#ffe766"/></g><g><path d="M379.7143,229.50001c0,3.43206 -2.78223,6.21429 -6.21429,6.21429c-3.43206,0 -6.21429,-2.78223 -6.21429,-6.21429c0,-3.43206 2.78223,-6.21429 6.21429,-6.21429c3.43206,0 6.21429,2.78223 6.21429,6.21429z" fill="url(#color-17)"/><path d="M378.50001,229.50001c0,2.76142 -2.23858,5 -5,5c-2.76142,0 -5,-2.23858 -5,-5c0,-2.76142 2.23858,-5 5,-5c2.76142,0 5,2.23858 5,5z" fill="#ffe766"/></g><g><path d="M442.7143,263.50001c0,3.43206 -2.78223,6.21429 -6.21429,6.21429c-3.43206,0 -6.21429,-2.78223 -6.21429,-6.21429c0,-3.43206 2.78223,-6.21429 6.21429,-6.21429c3.43206,0 6.21429,2.78223 6.21429,6.21429z" fill="url(#color-18)"/><path d="M441.50001,263.50001c0,2.76142 -2.23858,5 -5,5c-2.76142,0 -5,-2.23858 -5,-5c0,-2.76142 2.23858,-5 5,-5c2.76142,0 5,2.23858 5,5z" fill="#ffe766"/></g><g><path d="M369.2143,261.50001c0,3.43206 -2.78223,6.21429 -6.21429,6.21429c-3.43206,0 -6.21429,-2.78223 -6.21429,-6.21429c0,-3.43206 2.78223,-6.21429 6.21429,-6.21429c3.43206,0 6.21429,2.78223 6.21429,6.21429z" fill="url(#color-19)"/><path d="M368.00001,261.50001c0,2.76142 -2.23858,5 -5,5c-2.76142,0 -5,-2.23858 -5,-5c0,-2.76142 2.23858,-5 5,-5c2.76142,0 5,2.23858 5,5z" fill="#ffe766"/></g><g><path d="M297.7143,289.00001c0,3.43206 -2.78223,6.21429 -6.21429,6.21429c-3.43206,0 -6.21429,-2.78223 -6.21429,-6.21429c0,-3.43206 2.78223,-6.21429 6.21429,-6.21429c3.43206,0 6.21429,2.78223 6.21429,6.21429z" fill="url(#color-20)"/><path d="M296.50001,289.00001c0,2.76142 -2.23858,5 -5,5c-2.76142,0 -5,-2.23858 -5,-5c0,-2.76142 2.23858,-5 5,-5c2.76142,0 5,2.23858 5,5z" fill="#ffe766"/></g><g><path d="M464.00001,68.7143c-3.43206,0 -6.21429,-2.78223 -6.21429,-6.21429c0,-3.43206 2.78223,-6.21429 6.21429,-6.21429c3.43206,0 6.21429,2.78223 6.21429,6.21429c0,3.43206 -2.78223,6.21429 -6.21429,6.21429z" fill="url(#color-21)"/><path d="M464.00001,67.50001c-2.76142,0 -5,-2.23858 -5,-5c0,-2.76142 2.23858,-5 5,-5c2.76142,0 5,2.23858 5,5c0,2.76142 -2.23858,5 -5,5z" fill="#ffe766"/></g><g><path d="M411.00001,95.2143c-3.43206,0 -6.21429,-2.78223 -6.21429,-6.21429c0,-3.43206 2.78223,-6.21429 6.21429,-6.21429c3.43206,0 6.21429,2.78223 6.21429,6.21429c0,3.43206 -2.78223,6.21429 -6.21429,6.21429z" fill="url(#color-22)"/><path d="M411.00001,94.00001c-2.76142,0 -5,-2.23858 -5,-5c0,-2.76142 2.23858,-5 5,-5c2.76142,0 5,2.23858 5,5c0,2.76142 -2.23858,5 -5,5z" fill="#ffe766"/></g><g><path d="M482.00001,105.7143c-3.43206,0 -6.21429,-2.78223 -6.21429,-6.21429c0,-3.43206 2.78223,-6.21429 6.21429,-6.21429c3.43206,0 6.21429,2.78223 6.21429,6.21429c0,3.43206 -2.78223,6.21429 -6.21429,6.21429z" fill="url(#color-23)"/><path d="M482.00001,104.50001c-2.76142,0 -5,-2.23858 -5,-5c0,-2.76142 2.23858,-5 5,-5c2.76142,0 5,2.23858 5,5c0,2.76142 -2.23858,5 -5,5z" fill="#ffe766"/></g><g><path d="M392.50001,159.7143c-3.43206,0 -6.21429,-2.78223 -6.21429,-6.21429c0,-3.43206 2.78223,-6.21429 6.21429,-6.21429c3.43206,0 6.21429,2.78223 6.21429,6.21429c0,3.43206 -2.78223,6.21429 -6.21429,6.21429z" fill="url(#color-24)"/><path d="M392.50001,158.5c-2.76142,0 -5,-2.23858 -5,-5c0,-2.76142 2.23858,-5 5,-5c2.76142,0 5,2.23858 5,5c0,2.76142 -2.23858,5 -5,5z" fill="#ffe766"/></g><g><path d="M455.50001,125.7143c-3.43206,0 -6.21429,-2.78223 -6.21429,-6.21429c0,-3.43206 2.78223,-6.21429 6.21429,-6.21429c3.43206,0 6.21429,2.78223 6.21429,6.21429c0,3.43206 -2.78223,6.21429 -6.21429,6.21429z" fill="url(#color-25)"/><path d="M455.50001,124.50001c-2.76142,0 -5,-2.23858 -5,-5c0,-2.76142 2.23858,-5 5,-5c2.76142,0 5,2.23858 5,5c0,2.76142 -2.23858,5 -5,5z" fill="#ffe766"/></g><g><path d="M382.00001,127.7143c-3.43206,0 -6.21429,-2.78223 -6.21429,-6.21429c0,-3.43206 2.78223,-6.21429 6.21429,-6.21429c3.43206,0 6.21429,2.78223 6.21429,6.21429c0,3.43206 -2.78223,6.21429 -6.21429,6.21429z" fill="url(#color-26)"/><path d="M382.00001,126.50001c-2.76142,0 -5,-2.23858 -5,-5c0,-2.76142 2.23858,-5 5,-5c2.76142,0 5,2.23858 5,5c0,2.76142 -2.23858,5 -5,5z" fill="#ffe766"/></g><g><path d="M310.50001,100.2143c-3.43206,0 -6.21429,-2.78223 -6.21429,-6.21429c0,-3.43206 2.78223,-6.21429 6.21429,-6.21429c3.43206,0 6.21429,2.78223 6.21429,6.21429c0,3.43206 -2.78223,6.21429 -6.21429,6.21429z" fill="url(#color-27)"/><path d="M310.50001,99.00001c-2.76142,0 -5,-2.23858 -5,-5c0,-2.76142 2.23858,-5 5,-5c2.76142,0 5,2.23858 5,5c0,2.76142 -2.23858,5 -5,5z" fill="#ffe766"/></g><g><path d="M503.75,39.71429c-3.43206,0 -6.21429,-2.78223 -6.21429,-6.21429c0,-3.43206 2.78223,-6.21429 6.21429,-6.21429c3.43206,0 6.21429,2.78223 6.21429,6.21429c0,3.43206 -2.78223,6.21429 -6.21429,6.21429z" fill="url(#color-28)"/><path d="M503.75,38.5c-2.76142,0 -5,-2.23858 -5,-5c0,-2.76142 2.23858,-5 5,-5c2.76142,0 5,2.23858 5,5c0,2.76142 -2.23858,5 -5,5z" fill="#ffe766"/></g><g><path d="M450.75,66.21429c-3.43206,0 -6.21429,-2.78223 -6.21429,-6.21429c0,-3.43206 2.78223,-6.21429 6.21429,-6.21429c3.43206,0 6.21429,2.78223 6.21429,6.21429c0,3.43206 -2.78223,6.21429 -6.21429,6.21429z" fill="url(#color-29)"/><path d="M450.75,65c-2.76142,0 -5,-2.23858 -5,-5c0,-2.76142 2.23858,-5 5,-5c2.76142,0 5,2.23858 5,5c0,2.76142 -2.23858,5 -5,5z" fill="#ffe766"/></g><g><path d="M521.75,76.71429c-3.43206,0 -6.21429,-2.78223 -6.21429,-6.21429c0,-3.43206 2.78223,-6.21429 6.21429,-6.21429c3.43206,0 6.21429,2.78223 6.21429,6.21429c0,3.43206 -2.78223,6.21429 -6.21429,6.21429z" fill="url(#color-30)"/><path d="M521.75,75.5c-2.76142,0 -5,-2.23858 -5,-5c0,-2.76142 2.23858,-5 5,-5c2.76142,0 5,2.23858 5,5c0,2.76142 -2.23858,5 -5,5z" fill="#ffe766"/></g><g><path d="M432.25,130.71429c-3.43206,0 -6.21429,-2.78223 -6.21429,-6.21429c0,-3.43206 2.78223,-6.21429 6.21429,-6.21429c3.43206,0 6.21429,2.78223 6.21429,6.21429c0,3.43206 -2.78223,6.21429 -6.21429,6.21429z" fill="url(#color-31)"/><path d="M432.25,129.5c-2.76142,0 -5,-2.23858 -5,-5c0,-2.76142 2.23858,-5 5,-5c2.76142,0 5,2.23858 5,5c0,2.76142 -2.23858,5 -5,5z" fill="#ffe766"/></g><g><path d="M495.25,96.71429c-3.43206,0 -6.21429,-2.78223 -6.21429,-6.21429c0,-3.43206 2.78223,-6.21429 6.21429,-6.21429c3.43206,0 6.21429,2.78223 6.21429,6.21429c0,3.43206 -2.78223,6.21429 -6.21429,6.21429z" fill="url(#color-32)"/><path d="M495.25,95.5c-2.76142,0 -5,-2.23858 -5,-5c0,-2.76142 2.23858,-5 5,-5c2.76142,0 5,2.23858 5,5c0,2.76142 -2.23858,5 -5,5z" fill="#ffe766"/></g><g><path d="M421.75,98.71429c-3.43206,0 -6.21429,-2.78223 -6.21429,-6.21429c0,-3.43206 2.78223,-6.21429 6.21429,-6.21429c3.43206,0 6.21429,2.78223 6.21429,6.21429c0,3.43206 -2.78223,6.21429 -6.21429,6.21429z" fill="url(#color-33)"/><path d="M421.75,97.5c-2.76142,0 -5,-2.23858 -5,-5c0,-2.76142 2.23858,-5 5,-5c2.76142,0 5,2.23858 5,5c0,2.76142 -2.23858,5 -5,5z" fill="#ffe766"/></g><g><path d="M350.25,71.21429c-3.43206,0 -6.21429,-2.78223 -6.21429,-6.21429c0,-3.43206 2.78223,-6.21429 6.21429,-6.21429c3.43206,0 6.21429,2.78223 6.21429,6.21429c0,3.43206 -2.78223,6.21429 -6.21429,6.21429z" fill="url(#color-34)"/><path d="M350.25,70c-2.76142,0 -5,-2.23858 -5,-5c0,-2.76142 2.23858,-5 5,-5c2.76142,0 5,2.23858 5,5c0,2.76142 -2.23858,5 -5,5z" fill="#ffe766"/></g><g><path d="M440.96429,246.5c0,3.43206 -2.78223,6.21429 -6.21429,6.21429c-3.43206,0 -6.21429,-2.78223 -6.21429,-6.21429c0,-3.43206 2.78223,-6.21429 6.21429,-6.21429c3.43206,0 6.21429,2.78223 6.21429,6.21429z" fill="url(#color-35)"/><path d="M439.75,246.5c0,2.76142 -2.23858,5 -5,5c-2.76142,0 -5,-2.23858 -5,-5c0,-2.76142 2.23858,-5 5,-5c2.76142,0 5,2.23858 5,5z" fill="#ffe766"/></g><g><path d="M387.96429,220c0,3.43206 -2.78223,6.21429 -6.21429,6.21429c-3.43206,0 -6.21429,-2.78223 -6.21429,-6.21429c0,-3.43206 2.78223,-6.21429 6.21429,-6.21429c3.43206,0 6.21429,2.78223 6.21429,6.21429z" fill="url(#color-36)"/><path d="M386.75,220c0,2.76142 -2.23858,5 -5,5c-2.76142,0 -5,-2.23858 -5,-5c0,-2.76142 2.23858,-5 5,-5c2.76142,0 5,2.23858 5,5z" fill="#ffe766"/></g><g><path d="M458.96429,209.5c0,3.43206 -2.78223,6.21429 -6.21429,6.21429c-3.43206,0 -6.21429,-2.78223 -6.21429,-6.21429c0,-3.43206 2.78223,-6.21429 6.21429,-6.21429c3.43206,0 6.21429,2.78223 6.21429,6.21429z" fill="url(#color-37)"/><path d="M457.75,209.5c0,2.76142 -2.23858,5 -5,5c-2.76142,0 -5,-2.23858 -5,-5c0,-2.76142 2.23858,-5 5,-5c2.76142,0 5,2.23858 5,5z" fill="#ffe766"/></g><g><path d="M369.46429,155.5c0,3.43206 -2.78223,6.21429 -6.21429,6.21429c-3.43206,0 -6.21429,-2.78223 -6.21429,-6.21429c0,-3.43206 2.78223,-6.21429 6.21429,-6.21429c3.43206,0 6.21429,2.78223 6.21429,6.21429z" fill="url(#color-38)"/><path d="M368.25,155.5c0,2.76142 -2.23858,5 -5,5c-2.76142,0 -5,-2.23858 -5,-5c0,-2.76142 2.23858,-5 5,-5c2.76142,0 5,2.23858 5,5z" fill="#ffe766"/></g><g><path d="M432.46429,189.5c0,3.43206 -2.78223,6.21429 -6.21429,6.21429c-3.43206,0 -6.21429,-2.78223 -6.21429,-6.21429c0,-3.43206 2.78223,-6.21429 6.21429,-6.21429c3.43206,0 6.21429,2.78223 6.21429,6.21429z" fill="url(#color-39)"/><path d="M431.25,189.5c0,2.76142 -2.23858,5 -5,5c-2.76142,0 -5,-2.23858 -5,-5c0,-2.76142 2.23858,-5 5,-5c2.76142,0 5,2.23858 5,5z" fill="#ffe766"/></g><g><path d="M358.96429,187.5c0,3.43206 -2.78223,6.21429 -6.21429,6.21429c-3.43206,0 -6.21429,-2.78223 -6.21429,-6.21429c0,-3.43206 2.78223,-6.21429 6.21429,-6.21429c3.43206,0 6.21429,2.78223 6.21429,6.21429z" fill="url(#color-40)"/><path d="M357.75,187.5c0,2.76142 -2.23858,5 -5,5c-2.76142,0 -5,-2.23858 -5,-5c0,-2.76142 2.23858,-5 5,-5c2.76142,0 5,2.23858 5,5z" fill="#ffe766"/></g><g><path d="M287.46429,215c0,3.43206 -2.78223,6.21429 -6.21429,6.21429c-3.43206,0 -6.21429,-2.78223 -6.21429,-6.21429c0,-3.43206 2.78223,-6.21429 6.21429,-6.21429c3.43206,0 6.21429,2.78223 6.21429,6.21429z" fill="url(#color-41)"/><path d="M286.25,215c0,2.76142 -2.23858,5 -5,5c-2.76142,0 -5,-2.23858 -5,-5c0,-2.76142 2.23858,-5 5,-5c2.76142,0 5,2.23858 5,5z" fill="#ffe766"/></g><g><path d="M91.25,320.28571c3.43206,0 6.21429,2.78223 6.21429,6.21429c0,3.43206 -2.78223,6.21429 -6.21429,6.21429c-3.43206,0 -6.21429,-2.78223 -6.21429,-6.21429c0,-3.43206 2.78223,-6.21429 6.21429,-6.21429z" fill="url(#color-42)"/><path d="M91.25,321.5c2.76142,0 5,2.23858 5,5c0,2.76142 -2.23858,5 -5,5c-2.76142,0 -5,-2.23858 -5,-5c0,-2.76142 2.23858,-5 5,-5z" fill="#ffe766"/></g><g><path d="M144.25,293.78571c3.43206,0 6.21429,2.78223 6.21429,6.21429c0,3.43206 -2.78223,6.21429 -6.21429,6.21429c-3.43206,0 -6.21429,-2.78223 -6.21429,-6.21429c0,-3.43206 2.78223,-6.21429 6.21429,-6.21429z" fill="url(#color-43)"/><path d="M144.25,295c2.76142,0 5,2.23858 5,5c0,2.76142 -2.23858,5 -5,5c-2.76142,0 -5,-2.23858 -5,-5c0,-2.76142 2.23858,-5 5,-5z" fill="#ffe766"/></g><g><path d="M73.25,283.28571c3.43206,0 6.21429,2.78223 6.21429,6.21429c0,3.43206 -2.78223,6.21429 -6.21429,6.21429c-3.43206,0 -6.21429,-2.78223 -6.21429,-6.21429c0,-3.43206 2.78223,-6.21429 6.21429,-6.21429z" fill="url(#color-44)"/><path d="M73.25,284.5c2.76142,0 5,2.23858 5,5c0,2.76142 -2.23858,5 -5,5c-2.76142,0 -5,-2.23858 -5,-5c0,-2.76142 2.23858,-5 5,-5z" fill="#ffe766"/></g><g><path d="M99.75,263.28571c3.43206,0 6.21429,2.78223 6.21429,6.21429c0,3.43206 -2.78223,6.21429 -6.21429,6.21429c-3.43206,0 -6.21429,-2.78223 -6.21429,-6.21429c0,-3.43206 2.78223,-6.21429 6.21429,-6.21429z" fill="url(#color-45)"/><path d="M99.75,264.5c2.76142,0 5,2.23858 5,5c0,2.76142 -2.23858,5 -5,5c-2.76142,0 -5,-2.23858 -5,-5c0,-2.76142 2.23858,-5 5,-5z" fill="#ffe766"/></g><g><path d="M173.25,261.28571c3.43206,0 6.21429,2.78223 6.21429,6.21429c0,3.43206 -2.78223,6.21429 -6.21429,6.21429c-3.43206,0 -6.21429,-2.78223 -6.21429,-6.21429c0,-3.43206 2.78223,-6.21429 6.21429,-6.21429z" fill="url(#color-46)"/><path d="M173.25,262.5c2.76142,0 5,2.23858 5,5c0,2.76142 -2.23858,5 -5,5c-2.76142,0 -5,-2.23858 -5,-5c0,-2.76142 2.23858,-5 5,-5z" fill="#ffe766"/></g><g><path d="M244.75,288.78571c3.43206,0 6.21429,2.78223 6.21429,6.21429c0,3.43206 -2.78223,6.21429 -6.21429,6.21429c-3.43206,0 -6.21429,-2.78223 -6.21429,-6.21429c0,-3.43206 2.78223,-6.21429 6.21429,-6.21429z" fill="url(#color-47)"/><path d="M244.75,290c2.76142,0 5,2.23858 5,5c0,2.76142 -2.23858,5 -5,5c-2.76142,0 -5,-2.23858 -5,-5c0,-2.76142 2.23858,-5 5,-5z" fill="#ffe766"/></g><g><path d="M66.03571,68.5c0,-3.43206 2.78223,-6.21429 6.21429,-6.21429c3.43206,0 6.21429,2.78223 6.21429,6.21429c0,3.43206 -2.78223,6.21429 -6.21429,6.21429c-3.43206,0 -6.21429,-2.78223 -6.21429,-6.21429z" fill="url(#color-48)"/><path d="M67.25,68.5c0,-2.76142 2.23858,-5 5,-5c2.76142,0 5,2.23858 5,5c0,2.76142 -2.23858,5 -5,5c-2.76142,0 -5,-2.23858 -5,-5z" fill="#ffe766"/></g><g><path d="M119.03571,95c0,-3.43206 2.78223,-6.21429 6.21429,-6.21429c3.43206,0 6.21429,2.78223 6.21429,6.21429c0,3.43206 -2.78223,6.21429 -6.21429,6.21429c-3.43206,0 -6.21429,-2.78223 -6.21429,-6.21429z" fill="url(#color-49)"/><path d="M120.25,95c0,-2.76142 2.23858,-5 5,-5c2.76142,0 5,2.23858 5,5c0,2.76142 -2.23858,5 -5,5c-2.76142,0 -5,-2.23858 -5,-5z" fill="#ffe766"/></g><g><path d="M48.03571,105.5c0,-3.43206 2.78223,-6.21429 6.21429,-6.21429c3.43206,0 6.21429,2.78223 6.21429,6.21429c0,3.43206 -2.78223,6.21429 -6.21429,6.21429c-3.43206,0 -6.21429,-2.78223 -6.21429,-6.21429z" fill="url(#color-50)"/><path d="M49.25,105.5c0,-2.76142 2.23858,-5 5,-5c2.76142,0 5,2.23858 5,5c0,2.76142 -2.23858,5 -5,5c-2.76142,0 -5,-2.23858 -5,-5z" fill="#ffe766"/></g><g><path d="M137.53571,159.5c0,-3.43206 2.78223,-6.21429 6.21429,-6.21429c3.43206,0 6.21429,2.78223 6.21429,6.21429c0,3.43206 -2.78223,6.21429 -6.21429,6.21429c-3.43206,0 -6.21429,-2.78223 -6.21429,-6.21429z" fill="url(#color-51)"/><path d="M138.75,159.5c0,-2.76142 2.23858,-5 5,-5c2.76142,0 5,2.23858 5,5c0,2.76142 -2.23858,5 -5,5c-2.76142,0 -5,-2.23858 -5,-5z" fill="#ffe766"/></g><g><path d="M74.53571,125.5c0,-3.43206 2.78223,-6.21429 6.21429,-6.21429c3.43206,0 6.21429,2.78223 6.21429,6.21429c0,3.43206 -2.78223,6.21429 -6.21429,6.21429c-3.43206,0 -6.21429,-2.78223 -6.21429,-6.21429z" fill="url(#color-52)"/><path d="M75.75,125.5c0,-2.76142 2.23858,-5 5,-5c2.76142,0 5,2.23858 5,5c0,2.76142 -2.23858,5 -5,5c-2.76142,0 -5,-2.23858 -5,-5z" fill="#ffe766"/></g><g><path d="M219.53571,100c0,-3.43206 2.78223,-6.21429 6.21429,-6.21429c3.43206,0 6.21429,2.78223 6.21429,6.21429c0,3.43206 -2.78223,6.21429 -6.21429,6.21429c-3.43206,0 -6.21429,-2.78223 -6.21429,-6.21429z" fill="url(#color-53)"/><path d="M220.75,100c0,-2.76142 2.23858,-5 5,-5c2.76142,0 5,2.23858 5,5c0,2.76142 -2.23858,5 -5,5c-2.76142,0 -5,-2.23858 -5,-5z" fill="#ffe766"/></g><g><path d="M509.96429,326.5c0,3.43206 -2.78223,6.21429 -6.21429,6.21429c-3.43206,0 -6.21429,-2.78223 -6.21429,-6.21429c0,-3.43206 2.78223,-6.21429 6.21429,-6.21429c3.43206,0 6.21429,2.78223 6.21429,6.21429z" fill="url(#color-54)"/><path d="M508.75,326.5c0,2.76142 -2.23858,5 -5,5c-2.76142,0 -5,-2.23858 -5,-5c0,-2.76142 2.23858,-5 5,-5c2.76142,0 5,2.23858 5,5z" fill="#ffe766"/></g><g><path d="M456.96429,300c0,3.43206 -2.78223,6.21429 -6.21429,6.21429c-3.43206,0 -6.21429,-2.78223 -6.21429,-6.21429c0,-3.43206 2.78223,-6.21429 6.21429,-6.21429c3.43206,0 6.21429,2.78223 6.21429,6.21429z" fill="url(#color-55)"/><path d="M455.75,300c0,2.76142 -2.23858,5 -5,5c-2.76142,0 -5,-2.23858 -5,-5c0,-2.76142 2.23858,-5 5,-5c2.76142,0 5,2.23858 5,5z" fill="#ffe766"/></g><g><path d="M527.96429,289.5c0,3.43206 -2.78223,6.21429 -6.21429,6.21429c-3.43206,0 -6.21429,-2.78223 -6.21429,-6.21429c0,-3.43206 2.78223,-6.21429 6.21429,-6.21429c3.43206,0 6.21429,2.78223 6.21429,6.21429z" fill="url(#color-56)"/><path d="M526.75,289.5c0,2.76142 -2.23858,5 -5,5c-2.76142,0 -5,-2.23858 -5,-5c0,-2.76142 2.23858,-5 5,-5c2.76142,0 5,2.23858 5,5z" fill="#ffe766"/></g><g><path d="M438.46429,235.5c0,3.43206 -2.78223,6.21429 -6.21429,6.21429c-3.43206,0 -6.21429,-2.78223 -6.21429,-6.21429c0,-3.43206 2.78223,-6.21429 6.21429,-6.21429c3.43206,0 6.21429,2.78223 6.21429,6.21429z" fill="url(#color-57)"/><path d="M437.25,235.5c0,2.76142 -2.23858,5 -5,5c-2.76142,0 -5,-2.23858 -5,-5c0,-2.76142 2.23858,-5 5,-5c2.76142,0 5,2.23858 5,5z" fill="#ffe766"/></g><g><path d="M501.46429,269.5c0,3.43206 -2.78223,6.21429 -6.21429,6.21429c-3.43206,0 -6.21429,-2.78223 -6.21429,-6.21429c0,-3.43206 2.78223,-6.21429 6.21429,-6.21429c3.43206,0 6.21429,2.78223 6.21429,6.21429z" fill="url(#color-58)"/><path d="M500.25,269.5c0,2.76142 -2.23858,5 -5,5c-2.76142,0 -5,-2.23858 -5,-5c0,-2.76142 2.23858,-5 5,-5c2.76142,0 5,2.23858 5,5z" fill="#ffe766"/></g><g><path d="M427.96429,267.5c0,3.43206 -2.78223,6.21429 -6.21429,6.21429c-3.43206,0 -6.21429,-2.78223 -6.21429,-6.21429c0,-3.43206 2.78223,-6.21429 6.21429,-6.21429c3.43206,0 6.21429,2.78223 6.21429,6.21429z" fill="url(#color-59)"/><path d="M426.75,267.5c0,2.76142 -2.23858,5 -5,5c-2.76142,0 -5,-2.23858 -5,-5c0,-2.76142 2.23858,-5 5,-5c2.76142,0 5,2.23858 5,5z" fill="#ffe766"/></g><g><path d="M356.46429,295c0,3.43206 -2.78223,6.21429 -6.21429,6.21429c-3.43206,0 -6.21429,-2.78223 -6.21429,-6.21429c0,-3.43206 2.78223,-6.21429 6.21429,-6.21429c3.43206,0 6.21429,2.78223 6.21429,6.21429z" fill="url(#color-60)"/><path d="M355.25,295c0,2.76142 -2.23858,5 -5,5c-2.76142,0 -5,-2.23858 -5,-5c0,-2.76142 2.23858,-5 5,-5c2.76142,0 5,2.23858 5,5z" fill="#ffe766"/></g><g><path d="M434.75,119.71429c-3.43206,0 -6.21429,-2.78223 -6.21429,-6.21429c0,-3.43206 2.78223,-6.21429 6.21429,-6.21429c3.43206,0 6.21429,2.78223 6.21429,6.21429c0,3.43206 -2.78223,6.21429 -6.21429,6.21429z" fill="url(#color-61)"/><path d="M434.75,118.5c-2.76142,0 -5,-2.23858 -5,-5c0,-2.76142 2.23858,-5 5,-5c2.76142,0 5,2.23858 5,5c0,2.76142 -2.23858,5 -5,5z" fill="#ffe766"/></g><g><path d="M381.75,146.21429c-3.43206,0 -6.21429,-2.78223 -6.21429,-6.21429c0,-3.43206 2.78223,-6.21429 6.21429,-6.21429c3.43206,0 6.21429,2.78223 6.21429,6.21429c0,3.43206 -2.78223,6.21429 -6.21429,6.21429z" fill="url(#color-62)"/><path d="M381.75,145c-2.76142,0 -5,-2.23858 -5,-5c0,-2.76142 2.23858,-5 5,-5c2.76142,0 5,2.23858 5,5c0,2.76142 -2.23858,5 -5,5z" fill="#ffe766"/></g><g><path d="M452.75,156.71429c-3.43206,0 -6.21429,-2.78223 -6.21429,-6.21429c0,-3.43206 2.78223,-6.21429 6.21429,-6.21429c3.43206,0 6.21429,2.78223 6.21429,6.21429c0,3.43206 -2.78223,6.21429 -6.21429,6.21429z" fill="url(#color-63)"/><path d="M452.75,155.5c-2.76142,0 -5,-2.23858 -5,-5c0,-2.76142 2.23858,-5 5,-5c2.76142,0 5,2.23858 5,5c0,2.76142 -2.23858,5 -5,5z" fill="#ffe766"/></g><g><path d="M363.25,210.71429c-3.43206,0 -6.21429,-2.78223 -6.21429,-6.21429c0,-3.43206 2.78223,-6.21429 6.21429,-6.21429c3.43206,0 6.21429,2.78223 6.21429,6.21429c0,3.43206 -2.78223,6.21429 -6.21429,6.21429z" fill="url(#color-64)"/><path d="M363.25,209.5c-2.76142,0 -5,-2.23858 -5,-5c0,-2.76142 2.23858,-5 5,-5c2.76142,0 5,2.23858 5,5c0,2.76142 -2.23858,5 -5,5z" fill="#ffe766"/></g><g><path d="M426.25,176.71429c-3.43206,0 -6.21429,-2.78223 -6.21429,-6.21429c0,-3.43206 2.78223,-6.21429 6.21429,-6.21429c3.43206,0 6.21429,2.78223 6.21429,6.21429c0,3.43206 -2.78223,6.21429 -6.21429,6.21429z" fill="url(#color-65)"/><path d="M426.25,175.5c-2.76142,0 -5,-2.23858 -5,-5c0,-2.76142 2.23858,-5 5,-5c2.76142,0 5,2.23858 5,5c0,2.76142 -2.23858,5 -5,5z" fill="#ffe766"/></g><g><path d="M352.75,178.71429c-3.43206,0 -6.21429,-2.78223 -6.21429,-6.21429c0,-3.43206 2.78223,-6.21429 6.21429,-6.21429c3.43206,0 6.21429,2.78223 6.21429,6.21429c0,3.43206 -2.78223,6.21429 -6.21429,6.21429z" fill="url(#color-66)"/><path d="M352.75,177.5c-2.76142,0 -5,-2.23858 -5,-5c0,-2.76142 2.23858,-5 5,-5c2.76142,0 5,2.23858 5,5c0,2.76142 -2.23858,5 -5,5z" fill="#ffe766"/></g><g><path d="M281.25,151.21429c-3.43206,0 -6.21429,-2.78223 -6.21429,-6.21429c0,-3.43206 2.78223,-6.21429 6.21429,-6.21429c3.43206,0 6.21429,2.78223 6.21429,6.21429c0,3.43206 -2.78223,6.21429 -6.21429,6.21429z" fill="url(#color-67)"/><path d="M281.25,150c-2.76142,0 -5,-2.23858 -5,-5c0,-2.76142 2.23858,-5 5,-5c2.76142,0 5,2.23858 5,5c0,2.76142 -2.23858,5 -5,5z" fill="#ffe766"/></g><g><path d="M85.03571,33.5c0,-3.43206 2.78223,-6.21429 6.21429,-6.21429c3.43206,0 6.21429,2.78223 6.21429,6.21429c0,3.43206 -2.78223,6.21429 -6.21429,6.21429c-3.43206,0 -6.21429,-2.78223 -6.21429,-6.21429z" fill="url(#color-68)"/><path d="M86.25,33.5c0,-2.76142 2.23858,-5 5,-5c2.76142,0 5,2.23858 5,5c0,2.76142 -2.23858,5 -5,5c-2.76142,0 -5,-2.23858 -5,-5z" fill="#ffe766"/></g><g><path d="M138.03571,60c0,-3.43206 2.78223,-6.21429 6.21429,-6.21429c3.43206,0 6.21429,2.78223 6.21429,6.21429c0,3.43206 -2.78223,6.21429 -6.21429,6.21429c-3.43206,0 -6.21429,-2.78223 -6.21429,-6.21429z" fill="url(#color-69)"/><path d="M139.25,60c0,-2.76142 2.23858,-5 5,-5c2.76142,0 5,2.23858 5,5c0,2.76142 -2.23858,5 -5,5c-2.76142,0 -5,-2.23858 -5,-5z" fill="#ffe766"/></g><g><path d="M67.03571,70.5c0,-3.43206 2.78223,-6.21429 6.21429,-6.21429c3.43206,0 6.21429,2.78223 6.21429,6.21429c0,3.43206 -2.78223,6.21429 -6.21429,6.21429c-3.43206,0 -6.21429,-2.78223 -6.21429,-6.21429z" fill="url(#color-70)"/><path d="M68.25,70.5c0,-2.76142 2.23858,-5 5,-5c2.76142,0 5,2.23858 5,5c0,2.76142 -2.23858,5 -5,5c-2.76142,0 -5,-2.23858 -5,-5z" fill="#ffe766"/></g><g><path d="M156.53571,124.5c0,-3.43206 2.78223,-6.21429 6.21429,-6.21429c3.43206,0 6.21429,2.78223 6.21429,6.21429c0,3.43206 -2.78223,6.21429 -6.21429,6.21429c-3.43206,0 -6.21429,-2.78223 -6.21429,-6.21429z" fill="url(#color-71)"/><path d="M157.75,124.5c0,-2.76142 2.23858,-5 5,-5c2.76142,0 5,2.23858 5,5c0,2.76142 -2.23858,5 -5,5c-2.76142,0 -5,-2.23858 -5,-5z" fill="#ffe766"/></g><g><path d="M93.53571,90.5c0,-3.43206 2.78223,-6.21429 6.21429,-6.21429c3.43206,0 6.21429,2.78223 6.21429,6.21429c0,3.43206 -2.78223,6.21429 -6.21429,6.21429c-3.43206,0 -6.21429,-2.78223 -6.21429,-6.21429z" fill="url(#color-72)"/><path d="M94.75,90.5c0,-2.76142 2.23858,-5 5,-5c2.76142,0 5,2.23858 5,5c0,2.76142 -2.23858,5 -5,5c-2.76142,0 -5,-2.23858 -5,-5z" fill="#ffe766"/></g><g><path d="M167.03571,92.5c0,-3.43206 2.78223,-6.21429 6.21429,-6.21429c3.43206,0 6.21429,2.78223 6.21429,6.21429c0,3.43206 -2.78223,6.21429 -6.21429,6.21429c-3.43206,0 -6.21429,-2.78223 -6.21429,-6.21429z" fill="url(#color-73)"/><path d="M168.25,92.5c0,-2.76142 2.23858,-5 5,-5c2.76142,0 5,2.23858 5,5c0,2.76142 -2.23858,5 -5,5c-2.76142,0 -5,-2.23858 -5,-5z" fill="#ffe766"/></g><g><path d="M238.53571,65c0,-3.43206 2.78223,-6.21429 6.21429,-6.21429c3.43206,0 6.21429,2.78223 6.21429,6.21429c0,3.43206 -2.78223,6.21429 -6.21429,6.21429c-3.43206,0 -6.21429,-2.78223 -6.21429,-6.21429z" fill="url(#color-74)"/><path d="M239.75,65c0,-2.76142 2.23858,-5 5,-5c2.76142,0 5,2.23858 5,5c0,2.76142 -2.23858,5 -5,5c-2.76142,0 -5,-2.23858 -5,-5z" fill="#ffe766"/></g><g><path d="M72.25,285.28571c3.43206,0 6.21429,2.78223 6.21429,6.21429c0,3.43206 -2.78223,6.21429 -6.21429,6.21429c-3.43206,0 -6.21429,-2.78223 -6.21429,-6.21429c0,-3.43206 2.78223,-6.21429 6.21429,-6.21429z" fill="url(#color-75)"/><path d="M72.25,286.5c2.76142,0 5,2.23858 5,5c0,2.76142 -2.23858,5 -5,5c-2.76142,0 -5,-2.23858 -5,-5c0,-2.76142 2.23858,-5 5,-5z" fill="#ffe766"/></g><g><path d="M125.25,258.78571c3.43206,0 6.21429,2.78223 6.21429,6.21429c0,3.43206 -2.78223,6.21429 -6.21429,6.21429c-3.43206,0 -6.21429,-2.78223 -6.21429,-6.21429c0,-3.43206 2.78223,-6.21429 6.21429,-6.21429z" fill="url(#color-76)"/><path d="M125.25,260c2.76142,0 5,2.23858 5,5c0,2.76142 -2.23858,5 -5,5c-2.76142,0 -5,-2.23858 -5,-5c0,-2.76142 2.23858,-5 5,-5z" fill="#ffe766"/></g><g><path d="M54.25,248.28571c3.43206,0 6.21429,2.78223 6.21429,6.21429c0,3.43206 -2.78223,6.21429 -6.21429,6.21429c-3.43206,0 -6.21429,-2.78223 -6.21429,-6.21429c0,-3.43206 2.78223,-6.21429 6.21429,-6.21429z" fill="url(#color-77)"/><path d="M54.25,249.5c2.76142,0 5,2.23858 5,5c0,2.76142 -2.23858,5 -5,5c-2.76142,0 -5,-2.23858 -5,-5c0,-2.76142 2.23858,-5 5,-5z" fill="#ffe766"/></g><g><path d="M143.75,194.28571c3.43206,0 6.21429,2.78223 6.21429,6.21429c0,3.43206 -2.78223,6.21429 -6.21429,6.21429c-3.43206,0 -6.21429,-2.78223 -6.21429,-6.21429c0,-3.43206 2.78223,-6.21429 6.21429,-6.21429z" fill="url(#color-78)"/><path d="M143.75,195.5c2.76142,0 5,2.23858 5,5c0,2.76142 -2.23858,5 -5,5c-2.76142,0 -5,-2.23858 -5,-5c0,-2.76142 2.23858,-5 5,-5z" fill="#ffe766"/></g><g><path d="M80.75,228.28571c3.43206,0 6.21429,2.78223 6.21429,6.21429c0,3.43206 -2.78223,6.21429 -6.21429,6.21429c-3.43206,0 -6.21429,-2.78223 -6.21429,-6.21429c0,-3.43206 2.78223,-6.21429 6.21429,-6.21429z" fill="url(#color-79)"/><path d="M80.75,229.5c2.76142,0 5,2.23858 5,5c0,2.76142 -2.23858,5 -5,5c-2.76142,0 -5,-2.23858 -5,-5c0,-2.76142 2.23858,-5 5,-5z" fill="#ffe766"/></g><g><path d="M154.25,226.28571c3.43206,0 6.21429,2.78223 6.21429,6.21429c0,3.43206 -2.78223,6.21429 -6.21429,6.21429c-3.43206,0 -6.21429,-2.78223 -6.21429,-6.21429c0,-3.43206 2.78223,-6.21429 6.21429,-6.21429z" fill="url(#color-80)"/><path d="M154.25,227.5c2.76142,0 5,2.23858 5,5c0,2.76142 -2.23858,5 -5,5c-2.76142,0 -5,-2.23858 -5,-5c0,-2.76142 2.23858,-5 5,-5z" fill="#ffe766"/></g><g><path d="M225.75,253.78571c3.43206,0 6.21429,2.78223 6.21429,6.21429c0,3.43206 -2.78223,6.21429 -6.21429,6.21429c-3.43206,0 -6.21429,-2.78223 -6.21429,-6.21429c0,-3.43206 2.78223,-6.21429 6.21429,-6.21429z" fill="url(#color-81)"/><path d="M225.75,255c2.76142,0 5,2.23858 5,5c0,2.76142 -2.23858,5 -5,5c-2.76142,0 -5,-2.23858 -5,-5c0,-2.76142 2.23858,-5 5,-5z" fill="#ffe766"/></g><g><path d="M298.25,184.96429c-3.43206,0 -6.21429,-2.78223 -6.21429,-6.21429c0,-3.43206 2.78223,-6.21429 6.21429,-6.21429c3.43206,0 6.21429,2.78223 6.21429,6.21429c0,3.43206 -2.78223,6.21429 -6.21429,6.21429z" fill="url(#color-82)"/><path d="M298.25,183.75c-2.76142,0 -5,-2.23858 -5,-5c0,-2.76142 2.23858,-5 5,-5c2.76142,0 5,2.23858 5,5c0,2.76142 -2.23858,5 -5,5z" fill="#ffe766"/></g><g><path d="M317.28571,144.25c0,-3.43206 2.78223,-6.21429 6.21429,-6.21429c3.43206,0 6.21429,2.78223 6.21429,6.21429c0,3.43206 -2.78223,6.21429 -6.21429,6.21429c-3.43206,0 -6.21429,-2.78223 -6.21429,-6.21429z" fill="url(#color-83)"/><path d="M318.5,144.25c0,-2.76142 2.23858,-5 5,-5c2.76142,0 5,2.23858 5,5c0,2.76142 -2.23858,5 -5,5c-2.76142,0 -5,-2.23858 -5,-5z" fill="#ffe766"/></g><g><path d="M246.28571,154.75c0,-3.43206 2.78223,-6.21429 6.21429,-6.21429c3.43206,0 6.21429,2.78223 6.21429,6.21429c0,3.43206 -2.78223,6.21429 -6.21429,6.21429c-3.43206,0 -6.21429,-2.78223 -6.21429,-6.21429z" fill="url(#color-84)"/><path d="M247.5,154.75c0,-2.76142 2.23858,-5 5,-5c2.76142,0 5,2.23858 5,5c0,2.76142 -2.23858,5 -5,5c-2.76142,0 -5,-2.23858 -5,-5z" fill="#ffe766"/></g><g><path d="M272.78571,174.75001c0,-3.43206 2.78223,-6.21429 6.21429,-6.21429c3.43206,0 6.21429,2.78223 6.21429,6.21429c0,3.43206 -2.78223,6.21429 -6.21429,6.21429c-3.43206,0 -6.21429,-2.78223 -6.21429,-6.21429z" fill="url(#color-85)"/><path d="M274,174.75001c0,-2.76142 2.23858,-5 5,-5c2.76142,0 5,2.23858 5,5c0,2.76142 -2.23858,5 -5,5c-2.76142,0 -5,-2.23858 -5,-5z" fill="#ffe766"/></g><g><path d="M304.03571,158.75c0,-3.43206 2.78223,-6.21429 6.21429,-6.21429c3.43206,0 6.21429,2.78223 6.21429,6.21429c0,3.43206 -2.78223,6.21429 -6.21429,6.21429c-3.43206,0 -6.21429,-2.78223 -6.21429,-6.21429z" fill="url(#color-86)"/><path d="M305.25,158.75c0,-2.76142 2.23858,-5 5,-5c2.76142,0 5,2.23858 5,5c0,2.76142 -2.23858,5 -5,5c-2.76142,0 -5,-2.23858 -5,-5z" fill="#ffe766"/></g><g><path d="M286.03571,195.75c0,-3.43206 2.78223,-6.21429 6.21429,-6.21429c3.43206,0 6.21429,2.78223 6.21429,6.21429c0,3.43206 -2.78223,6.21429 -6.21429,6.21429c-3.43206,0 -6.21429,-2.78223 -6.21429,-6.21429z" fill="url(#color-87)"/><path d="M287.25,195.75c0,-2.76142 2.23858,-5 5,-5c2.76142,0 5,2.23858 5,5c0,2.76142 -2.23858,5 -5,5c-2.76142,0 -5,-2.23858 -5,-5z" fill="#ffe766"/></g><g><path d="M312.53571,215.75c0,-3.43206 2.78223,-6.21429 6.21429,-6.21429c3.43206,0 6.21429,2.78223 6.21429,6.21429c0,3.43206 -2.78223,6.21429 -6.21429,6.21429c-3.43206,0 -6.21429,-2.78223 -6.21429,-6.21429z" fill="url(#color-88)"/><path d="M313.75,215.75c0,-2.76142 2.23858,-5 5,-5c2.76142,0 5,2.23858 5,5c0,2.76142 -2.23858,5 -5,5c-2.76142,0 -5,-2.23858 -5,-5z" fill="#ffe766"/></g><g><path d="M182.00001,163.78572c3.43206,0 6.21429,2.78223 6.21429,6.21429c0,3.43206 -2.78223,6.21429 -6.21429,6.21429c-3.43206,0 -6.21429,-2.78223 -6.21429,-6.21429c0,-3.43206 2.78223,-6.21429 6.21429,-6.21429z" fill="url(#color-89)"/><path d="M182.00001,165c2.76142,0 5,2.23858 5,5c0,2.76142 -2.23858,5 -5,5c-2.76142,0 -5,-2.23858 -5,-5c0,-2.76142 2.23858,-5 5,-5z" fill="#ffe766"/></g><g><path d="M214.46429,176c0,3.43206 -2.78223,6.21429 -6.21429,6.21429c-3.43206,0 -6.21429,-2.78223 -6.21429,-6.21429c0,-3.43206 2.78223,-6.21429 6.21429,-6.21429c3.43206,0 6.21429,2.78223 6.21429,6.21429z" fill="url(#color-90)"/><path d="M213.25,176c0,2.76142 -2.23858,5 -5,5c-2.76142,0 -5,-2.23858 -5,-5c0,-2.76142 2.23858,-5 5,-5c2.76142,0 5,2.23858 5,5z" fill="#ffe766"/></g><g><path d="M208.25,112.21429c-3.43206,0 -6.21429,-2.78223 -6.21429,-6.21429c0,-3.43206 2.78223,-6.21429 6.21429,-6.21429c3.43206,0 6.21429,2.78223 6.21429,6.21429c0,3.43206 -2.78223,6.21429 -6.21429,6.21429z" fill="url(#color-91)"/><path d="M208.25,111c-2.76142,0 -5,-2.23858 -5,-5c0,-2.76142 2.23858,-5 5,-5c2.76142,0 5,2.23858 5,5c0,2.76142 -2.23858,5 -5,5z" fill="#ffe766"/></g><g><path d="M225.25,145.96429c-3.43206,0 -6.21429,-2.78223 -6.21429,-6.21429c0,-3.43206 2.78223,-6.21429 6.21429,-6.21429c3.43206,0 6.21429,2.78223 6.21429,6.21429c0,3.43206 -2.78223,6.21429 -6.21429,6.21429z" fill="url(#color-92)"/><path d="M225.25,144.75c-2.76142,0 -5,-2.23858 -5,-5c0,-2.76142 2.23858,-5 5,-5c2.76142,0 5,2.23858 5,5c0,2.76142 -2.23858,5 -5,5z" fill="#ffe766"/></g><g><path d="M244.28571,105.25001c0,-3.43206 2.78223,-6.2143 6.21429,-6.2143c3.43206,0 6.21429,2.78224 6.21429,6.2143c0,3.43206 -2.78223,6.21429 -6.21429,6.21429c-3.43206,0 -6.21429,-2.78223 -6.21429,-6.21429z" fill="url(#color-93)"/><path d="M245.5,105.25001c0,-2.76142 2.23858,-5 5,-5c2.76142,0 5,2.23858 5,5c0,2.76142 -2.23858,5 -5,5c-2.76142,0 -5,-2.23858 -5,-5z" fill="#ffe766"/></g><g><path d="M173.28571,115.75001c0,-3.43206 2.78223,-6.2143 6.21429,-6.2143c3.43206,0 6.21429,2.78224 6.21429,6.2143c0,3.43206 -2.78223,6.21429 -6.21429,6.21429c-3.43206,0 -6.21429,-2.78223 -6.21429,-6.21429z" fill="url(#color-94)"/><path d="M174.5,115.75001c0,-2.76142 2.23858,-5 5,-5c2.76142,0 5,2.23858 5,5c0,2.76142 -2.23858,5 -5,5c-2.76142,0 -5,-2.23858 -5,-5z" fill="#ffe766"/></g><g><path d="M199.78571,135.75c0,-3.43206 2.78223,-6.21429 6.21429,-6.21429c3.43206,0 6.21429,2.78223 6.21429,6.21429c0,3.43206 -2.78223,6.21429 -6.21429,6.21429c-3.43206,0 -6.21429,-2.78223 -6.21429,-6.21429z" fill="url(#color-95)"/><path d="M201,135.75c0,-2.76142 2.23858,-5 5,-5c2.76142,0 5,2.23858 5,5c0,2.76142 -2.23858,5 -5,5c-2.76142,0 -5,-2.23858 -5,-5z" fill="#ffe766"/></g><g><path d="M231.03571,119.75c0,-3.43206 2.78223,-6.21429 6.21429,-6.21429c3.43206,0 6.21429,2.78223 6.21429,6.21429c0,3.43206 -2.78223,6.21429 -6.21429,6.21429c-3.43206,0 -6.21429,-2.78223 -6.21429,-6.21429z" fill="url(#color-96)"/><path d="M232.25,119.75c0,-2.76142 2.23858,-5 5,-5c2.76142,0 5,2.23858 5,5c0,2.76142 -2.23858,5 -5,5c-2.76142,0 -5,-2.23858 -5,-5z" fill="#ffe766"/></g><g><path d="M213.03571,156.75c0,-3.43206 2.78223,-6.21429 6.21429,-6.21429c3.43206,0 6.21429,2.78223 6.21429,6.21429c0,3.43206 -2.78223,6.21429 -6.21429,6.21429c-3.43206,0 -6.21429,-2.78223 -6.21429,-6.21429z" fill="url(#color-97)"/><path d="M214.25,156.75c0,-2.76142 2.23858,-5 5,-5c2.76142,0 5,2.23858 5,5c0,2.76142 -2.23858,5 -5,5c-2.76142,0 -5,-2.23858 -5,-5z" fill="#ffe766"/></g><g><path d="M239.53571,176.75c0,-3.43206 2.78223,-6.21429 6.21429,-6.21429c3.43206,0 6.21429,2.78223 6.21429,6.21429c0,3.43206 -2.78223,6.21429 -6.21429,6.21429c-3.43206,0 -6.21429,-2.78223 -6.21429,-6.21429z" fill="url(#color-98)"/><path d="M240.75,176.75c0,-2.76142 2.23858,-5 5,-5c2.76142,0 5,2.23858 5,5c0,2.76142 -2.23858,5 -5,5c-2.76142,0 -5,-2.23858 -5,-5z" fill="#ffe766"/></g><g><path d="M252.00001,248.78572c3.43206,0 6.21429,2.78223 6.21429,6.21429c0,3.43206 -2.78223,6.21429 -6.21429,6.21429c-3.43206,0 -6.21429,-2.78223 -6.21429,-6.21429c0,-3.43206 2.78223,-6.21429 6.21429,-6.21429z" fill="url(#color-99)"/><path d="M252.00001,250.00001c2.76142,0 5,2.23858 5,5c0,2.76142 -2.23858,5 -5,5c-2.76142,0 -5,-2.23858 -5,-5c0,-2.76142 2.23858,-5 5,-5z" fill="#ffe766"/></g><g><path d="M284.46429,261c0,3.43206 -2.78223,6.21429 -6.21429,6.21429c-3.43206,0 -6.21429,-2.78223 -6.21429,-6.21429c0,-3.43206 2.78223,-6.21429 6.21429,-6.21429c3.43206,0 6.21429,2.78223 6.21429,6.21429z" fill="url(#color-100)"/><path d="M283.25,261c0,2.76142 -2.23858,5 -5,5c-2.76142,0 -5,-2.23858 -5,-5c0,-2.76142 2.23858,-5 5,-5c2.76142,0 5,2.23858 5,5z" fill="#ffe766"/></g><g><path d="M278.25,197.21429c-3.43206,0 -6.21429,-2.78223 -6.21429,-6.21429c0,-3.43206 2.78223,-6.21429 6.21429,-6.21429c3.43206,0 6.21429,2.78223 6.21429,6.21429c0,3.43206 -2.78223,6.21429 -6.21429,6.21429z" fill="url(#color-101)"/><path d="M278.25,196c-2.76142,0 -5,-2.23858 -5,-5c0,-2.76142 2.23858,-5 5,-5c2.76142,0 5,2.23858 5,5c0,2.76142 -2.23858,5 -5,5z" fill="#ffe766"/></g><g><path d="M295.25,230.96429c-3.43206,0 -6.21429,-2.78223 -6.21429,-6.21429c0,-3.43206 2.78223,-6.21429 6.21429,-6.21429c3.43206,0 6.21429,2.78223 6.21429,6.21429c0,3.43206 -2.78223,6.21429 -6.21429,6.21429z" fill="url(#color-102)"/><path d="M295.25,229.75c-2.76142,0 -5,-2.23858 -5,-5c0,-2.76142 2.23858,-5 5,-5c2.76142,0 5,2.23858 5,5c0,2.76142 -2.23858,5 -5,5z" fill="#ffe766"/></g><g><path d="M314.28571,190.25001c0,-3.43206 2.78223,-6.21429 6.21429,-6.21429c3.43206,0 6.21429,2.78223 6.21429,6.21429c0,3.43206 -2.78223,6.21429 -6.21429,6.21429c-3.43206,0 -6.21429,-2.78223 -6.21429,-6.21429z" fill="url(#color-103)"/><path d="M315.5,190.25001c0,-2.76142 2.23858,-5 5,-5c2.76142,0 5,2.23858 5,5c0,2.76142 -2.23858,5 -5,5c-2.76142,0 -5,-2.23858 -5,-5z" fill="#ffe766"/></g><g><path d="M243.28571,200.75001c0,-3.43206 2.78223,-6.21429 6.21429,-6.21429c3.43206,0 6.21429,2.78223 6.21429,6.21429c0,3.43206 -2.78223,6.21429 -6.21429,6.21429c-3.43206,0 -6.21429,-2.78223 -6.21429,-6.21429z" fill="url(#color-104)"/><path d="M244.5,200.75001c0,-2.76142 2.23858,-5 5,-5c2.76142,0 5,2.23858 5,5c0,2.76142 -2.23858,5 -5,5c-2.76142,0 -5,-2.23858 -5,-5z" fill="#ffe766"/></g><g><path d="M301.03571,204.75c0,-3.43206 2.78223,-6.21429 6.21429,-6.21429c3.43206,0 6.21429,2.78223 6.21429,6.21429c0,3.43206 -2.78223,6.21429 -6.21429,6.21429c-3.43206,0 -6.21429,-2.78223 -6.21429,-6.21429z" fill="url(#color-105)"/><path d="M302.25,204.75c0,-2.76142 2.23858,-5 5,-5c2.76142,0 5,2.23858 5,5c0,2.76142 -2.23858,5 -5,5c-2.76142,0 -5,-2.23858 -5,-5z" fill="#ffe766"/></g><g><path d="M283.03571,241.75c0,-3.43206 2.78223,-6.21429 6.21429,-6.21429c3.43206,0 6.21429,2.78223 6.21429,6.21429c0,3.43206 -2.78223,6.21429 -6.21429,6.21429c-3.43206,0 -6.21429,-2.78223 -6.21429,-6.21429z" fill="url(#color-106)"/><path d="M284.25,241.75c0,-2.76142 2.23858,-5 5,-5c2.76142,0 5,2.23858 5,5c0,2.76142 -2.23858,5 -5,5c-2.76142,0 -5,-2.23858 -5,-5z" fill="#ffe766"/></g><g><path d="M309.53571,261.75c0,-3.43206 2.78223,-6.21429 6.21429,-6.21429c3.43206,0 6.21429,2.78223 6.21429,6.21429c0,3.43206 -2.78223,6.21429 -6.21429,6.21429c-3.43206,0 -6.21429,-2.78223 -6.21429,-6.21429z" fill="url(#color-107)"/><path d="M310.75,261.75c0,-2.76142 2.23858,-5 5,-5c2.76142,0 5,2.23858 5,5c0,2.76142 -2.23858,5 -5,5c-2.76142,0 -5,-2.23858 -5,-5z" fill="#ffe766"/></g><g><path d="M211.46429,222c0,3.43206 -2.78223,6.21429 -6.21429,6.21429c-3.43206,0 -6.21429,-2.78223 -6.21429,-6.21429c0,-3.43206 2.78223,-6.21429 6.21429,-6.21429c3.43206,0 6.21429,2.78223 6.21429,6.21429z" fill="url(#color-108)"/><path d="M210.25,222c0,2.76142 -2.23858,5 -5,5c-2.76142,0 -5,-2.23858 -5,-5c0,-2.76142 2.23858,-5 5,-5c2.76142,0 5,2.23858 5,5z" fill="#ffe766"/></g><g><path d="M210.03571,202.75c0,-3.43206 2.78223,-6.21429 6.21429,-6.21429c3.43206,0 6.21429,2.78223 6.21429,6.21429c0,3.43206 -2.78223,6.21429 -6.21429,6.21429c-3.43206,0 -6.21429,-2.78223 -6.21429,-6.21429z" fill="url(#color-109)"/><path d="M211.25,202.75c0,-2.76142 2.23858,-5 5,-5c2.76142,0 5,2.23858 5,5c0,2.76142 -2.23858,5 -5,5c-2.76142,0 -5,-2.23858 -5,-5z" fill="#ffe766"/></g><g><path d="M236.53571,222.75c0,-3.43206 2.78223,-6.21429 6.21429,-6.21429c3.43206,0 6.21429,2.78223 6.21429,6.21429c0,3.43206 -2.78223,6.21429 -6.21429,6.21429c-3.43206,0 -6.21429,-2.78223 -6.21429,-6.21429z" fill="url(#color-110)"/><path d="M237.75,222.75c0,-2.76142 2.23858,-5 5,-5c2.76142,0 5,2.23858 5,5c0,2.76142 -2.23858,5 -5,5c-2.76142,0 -5,-2.23858 -5,-5z" fill="#ffe766"/></g></g><path d="M-19.50714,394.89999v-394.89999h638v394.89999z" fill="url(#color-111)" stroke="none" stroke-width="NaN"/><path d="M166.25,180c0,-67.24067 54.50933,-121.75 121.75,-121.75c67.24067,0 121.75,54.50933 121.75,121.75c0,67.24067 -54.50933,121.75 -121.75,121.75c-67.24067,0 -121.75,-54.50933 -121.75,-121.75z" fill="url(#color-112)" stroke="none" stroke-width="0"/><path d="M254.08414,225.49376l6.88101,-17.06492l3.70977,1.49587l-6.88101,17.06493z" fill="#000000" stroke="none" stroke-width="0"/><path d="M290.28412,173.73356c0,-11.96617 9.7005,-21.66667 21.66667,-21.66667c11.96617,0 21.66667,9.7005 21.66667,21.66667c0,11.96617 -9.7005,21.66667 -21.66667,21.66667c-11.96617,0 -21.66667,-9.7005 -21.66667,-21.66667z" fill="#000000" stroke="none" stroke-width="0"/><path d="M311.95079,191.48356c0,9.80305 -7.98426,17.75 -17.83333,17.75c-9.84908,0 -17.83333,-7.94695 -17.83333,-17.75c0,-9.80305 7.98426,-17.75 17.83333,-17.75c9.84908,0 17.83333,7.94695 17.83333,17.75z" fill="#e37156" stroke="none" stroke-width="0"/><path d="M251.38597,169.91077c3.47866,-5.25881 13.64242,-4.66409 22.7014,1.32834c9.05898,5.99244 13.58272,15.11338 10.10406,20.37219c-3.47866,5.25882 -13.64242,4.66411 -22.7014,-1.32833c-9.05898,-5.99243 -13.58272,-15.11338 -10.10406,-20.37219z" fill="#000000" stroke="#e37156" stroke-width="3"/><path d="M265.18413,225.89612l6.88101,-17.06492l3.70977,1.49587l-6.88101,17.06493z" fill="#000000" stroke="none" stroke-width="0"/><path d="M233.32618,198.51965c0,-13.44814 16.97586,-24.35 37.91667,-24.35c20.94081,0 37.91667,10.90186 37.91667,24.35c0,13.44814 -16.97586,24.35 -37.91667,24.35c-20.94081,0 -37.91667,-10.90186 -37.91667,-24.35z" fill="url(#color-113)" stroke="none" stroke-width="0"/><path d="M240.73522,198.51965c0,-10.82031 13.65876,-19.59194 30.50764,-19.59194c16.84888,0 30.50764,8.77163 30.50764,19.59194c0,10.82031 -13.65876,19.59194 -30.50764,19.59194c-16.84888,0 -30.50764,-8.77163 -30.50764,-19.59194z" fill="#ffe766" stroke="none" stroke-width="0"/><path d="M309.15952,198.34179c0,10.82033 -7.35941,19.59194 -16.4377,19.59194c-9.07829,0 -9.07829,-39.18388 0,-39.18388c9.07829,0 16.4377,8.77161 16.4377,19.59194z" fill="#000000" stroke="none" stroke-width="0"/><path d="M283.16515,227.79436l-6.88101,-17.06493l3.70977,-1.49587l6.88101,17.06492z" fill="#000000" stroke="none" stroke-width="0"/><path d="M291.66263,169.40579c9.05898,5.99244 13.58272,15.11338 10.10406,20.37219c-3.47866,5.25881 -13.64242,4.66409 -22.7014,-1.32834c-9.05898,-5.99244 -13.58272,-15.11338 -10.10406,-20.37219c3.47866,-5.25881 13.64242,-4.66409 22.7014,1.32834z" fill="#000000" stroke="#e37156" stroke-width="3"/><path d="M322.66871,172.13415l13.11365,-28.73134l3.91377,2.71014l-13.11365,28.73135z" fill="#000000" stroke="none" stroke-width="0"/><path d="M307.94199,164.39177l13.11365,-28.73135l3.91377,2.71014l-13.11365,28.73135z" fill="#000000" stroke="none" stroke-width="0"/><path d="M294.26514,228.19672l-6.88102,-17.06492l3.70977,-1.49587l6.88102,17.06492z" fill="#000000" stroke="none" stroke-width="0"/><path d="M320.38809,135.66042c0,-2.13024 1.7269,-3.85714 3.85714,-3.85714c2.13024,0 3.85714,1.7269 3.85714,3.85714c0,2.13024 -1.7269,3.85714 -3.85714,3.85714c-2.13024,0 -3.85714,-1.7269 -3.85714,-3.85714z" fill="#000000" stroke="none" stroke-width="0"/><path d="M334.95953,143.40281c0,-2.13024 1.7269,-3.85715 3.85715,-3.85715c2.13024,0 3.85714,1.7269 3.85714,3.85715c0,2.13024 -1.7269,3.85715 -3.85714,3.85715c-2.13024,0 -3.85715,-1.7269 -3.85715,-3.85715z" fill="#000000" stroke="none" stroke-width="0"/><text transform="translate(20.98842,313.39999) scale(1.49675,1.49675)" font-size="40" xml:space="preserve" fill="#ffe766" stroke="#ffe766" stroke-width="3" font-family="&quot;Trebuchet MS&quot;, Sans Serif" font-weight="normal" text-anchor="start"><tspan x="0" dy="0">Firefly 1.0</tspan></text><text transform="translate(20.98842,343.88883) scale(0.38195,0.38195)" font-size="40" xml:space="preserve" fill="#ffe766" stroke="#ffe766" stroke-width="1" font-family="&quot;Trebuchet MS&quot;, Sans Serif" font-weight="normal" text-anchor="start"><tspan x="0" dy="0">Open-Source TurboWarp Kernel</tspan></text></g></g></svg>