<svg version="1.1" xmlns="http://www.w3.org/2000/svg" xmlns:xlink="http://www.w3.org/1999/xlink" width="635" height="368" viewBox="0,0,635,368"><g transform="translate(19.39999,5.57072)"><g stroke="none" stroke-width="0" stroke-miterlimit="10"><path d="M-19.39999,362.42928v-368h621v368z" fill="#5ed7d3"/><path d="M0,360v-124h576v124z" fill="#ffffff"/><path d="M226,224.00856c0,-36.72693 29.77307,-66.5 66.5,-66.5c36.72694,0 66.5,29.77307 66.5,66.5c0,36.72694 -29.77306,66.5 -66.5,66.5c-36.72693,0 -66.5,-29.77306 -66.5,-66.5z" fill="#dedede"/><path d="M226,219.50856c0,-34.24166 27.75834,-62 62,-62c34.24165,0 62,27.75834 62,62c0,34.24166 -27.75835,62 -62,62c-34.24166,0 -62,-27.75834 -62,-62z" fill="#ffffff"/><path d="M240.75,151.63356c0,-30.58276 24.79224,-55.375 55.375,-55.375c30.58276,0 55.375,24.79224 55.375,55.375c0,30.58276 -24.79224,55.375 -55.375,55.375c-30.58276,0 -55.375,-24.79224 -55.375,-55.375z" fill="#dedede"/><path d="M240.75,148.00856c0,-28.58074 23.16926,-51.75 51.75,-51.75c28.58074,0 51.75,23.16926 51.75,51.75c0,28.58074 -23.16926,51.75 -51.75,51.75c-28.58074,0 -51.75,-23.16926 -51.75,-51.75z" fill="#ffffff"/><path d="M264.25,91.88357c0,-22.43656 18.18844,-40.625 40.625,-40.625c22.43656,0 40.625,18.18843 40.625,40.625c0,22.43657 -18.18844,40.625 -40.625,40.625c-22.43656,0 -40.625,-18.18843 -40.625,-40.625z" fill="#dedede"/><path d="M264.25,88.50857c0,-20.5726 16.67739,-37.25 37.25,-37.25c20.57261,0 37.25,16.6774 37.25,37.25c0,20.5726 -16.67739,37.25 -37.25,37.25c-20.57261,0 -37.25,-16.6774 -37.25,-37.25z" fill="#ffffff"/><g><path d="M279.86667,75.53334c0,-3.4886 2.82806,-6.31666 6.31667,-6.31666c3.4886,0 6.31667,2.82806 6.31667,6.31667c0,3.4886 -2.82806,6.31667 -6.31666,6.31667c-3.4886,0 -6.31666,-2.82806 -6.31666,-6.31666z" fill="#1d1c1c"/><path d="M280.2,74.55001c0,-2.76143 2.23858,-5 5,-5c2.76142,0 5,2.23857 5,5c0,2.76143 -2.23858,5 -5,5c-2.76142,0 -5,-2.23857 -5,-5z" fill="#000000"/></g><g><path d="M309.2,77.36668c0,-3.4886 2.82806,-6.31666 6.31667,-6.31666c3.4886,0 6.31667,2.82806 6.31667,6.31667c0,3.4886 -2.82806,6.31667 -6.31666,6.31667c-3.4886,0 -6.31666,-2.82806 -6.31666,-6.31666z" fill="#1d1c1c"/><path d="M309.53334,76.38335c0,-2.76143 2.23858,-5 5,-5c2.76142,0 5,2.23857 5,5c0,2.76143 -2.23858,5 -5,5c-2.76142,0 -5,-2.23857 -5,-5z" fill="#000000"/></g><path d="M305.775,104.77292l-48.26434,-8.51435l48.26434,-8.51435z" fill="#ffab66"/><g fill="#d0813f"><path d="M302.22464,101.64761c3.51841,-0.62069 3.55036,-13.90339 3.55036,-13.90339v17.0287l-39.39864,-6.95034c11.3599,1.92118 30.2544,4.81186 35.84829,3.82504z"/><path d="M300.15714,102.5087v-13.77343l0.57143,-0.1008v13.87423z"/><path d="M292.89523,102.50079l-0.57142,-0.1008v-12.28283l0.57142,-0.1008z"/><path d="M283.36583,100.8197l-0.57143,-0.1008v-8.92065l0.57143,-0.10081z"/><path d="M273.48347,99.07634l-0.57142,-0.10081v-5.43394l0.57142,-0.1008z"/><path d="M264.82143,97.54827l-0.57143,-0.10081v-2.37778l0.57143,-0.10081z"/></g><path d="M0,263.92928c0,-37.83151 45.53264,-68.5 101.7,-68.5c56.16736,0 101.7,30.66849 101.7,68.5c0,37.83151 -45.53264,68.5 -101.7,68.5c-56.16736,0 -101.7,-30.66849 -101.7,-68.5z" fill="#ffffff"/><path d="M444.60001,270.92928c0,-47.22035 38.27965,-85.5 85.5,-85.5c47.22035,0 85.5,38.27965 85.5,85.5c0,47.22035 -38.27965,85.5 -85.5,85.5c-47.22035,0 -85.5,-38.27965 -85.5,-85.5z" fill="#ffffff"/><path d="M397.60001,254.42928c0,-26.50967 21.49033,-48 48,-48c26.50967,0 48,21.49033 48,48c0,26.50967 -21.49033,48 -48,48c-26.50967,0 -48,-21.49033 -48,-48z" fill="#ffffff"/></g></g></svg>