<svg version="1.1" xmlns="http://www.w3.org/2000/svg" xmlns:xlink="http://www.w3.org/1999/xlink" width="61.69702" height="72.25018" viewBox="0,0,61.69702,72.25018"><defs><linearGradient x1="274.20395" y1="145.46228" x2="274.20395" y2="162.13038" gradientUnits="userSpaceOnUse" id="color-1"><stop offset="0" stop-color="#e9fc92"/><stop offset="1" stop-color="#d2aa5f"/></linearGradient><linearGradient x1="288" y1="151.4499" x2="288" y2="190.8002" gradientUnits="userSpaceOnUse" id="color-2"><stop offset="0" stop-color="#e9fc92"/><stop offset="1" stop-color="#d2aa5f"/></linearGradient></defs><g transform="translate(-257.15149,-145.46228)"><g stroke="none" stroke-miterlimit="10"><text transform="translate(269.02071,213.7688) scale(0.39835,0.39835)" font-size="40" xml:space="preserve" fill="#000000" stroke-width="1" font-family="&quot;Trebuchet MS&quot;, Sans Serif" font-weight="normal" text-anchor="start"><tspan x="0" dy="0">Clasp</tspan></text><text transform="translate(268.30642,213.05451) scale(0.39835,0.39835)" font-size="40" xml:space="preserve" fill="#ffffff" stroke-width="1" font-family="&quot;Trebuchet MS&quot;, Sans Serif" font-weight="normal" text-anchor="start"><tspan x="0" dy="0">Clasp</tspan></text><g><g fill="url(#color-1)" stroke-width="0"><path d="M261.13706,159.77047c0,-2.14742 0,-9.64007 0,-12.84061c0,-0.9056 0.57957,-1.46757 1.27031,-1.46757c2.46519,0 17.13307,0 22.71176,0c1.33681,0 2.15171,0.96676 2.15171,1.42267c0,1.78402 0,9.47017 0,13.19979c0,1.24231 -0.90647,2.04564 -2.36967,2.04564c-5.39441,0 -18.35592,0 -21.36039,0c-1.21559,0 -2.40372,-1.24104 -2.40372,-2.35992z"/></g><g fill="url(#color-2)" stroke-width="0"><path d="M257.15149,185.22887c0,-5.06965 0,-22.75843 0,-30.31431c0,-2.13796 1.36826,-3.46466 2.99897,-3.46466c5.81986,0 40.448,0 53.61826,0c3.15597,0 5.07979,2.28235 5.07979,3.35866c0,4.21175 0,22.35732 0,31.16226c0,2.93287 -2.14,4.82938 -5.59436,4.82938c-12.7352,0 -43.33494,0 -50.42792,0c-2.86979,0 -5.67474,-2.92987 -5.67474,-5.57134z"/></g><text transform="translate(262.27246,176.8938) scale(0.5,0.5)" font-size="40" xml:space="preserve" fill="#ffffff" stroke-width="1" font-family="&quot;Bauhaus 93&quot;, Pixel" font-weight="normal" text-anchor="start"><tspan x="0" dy="0">Clasp</tspan></text></g></g></g></svg>