<svg version="1.1" xmlns="http://www.w3.org/2000/svg" xmlns:xlink="http://www.w3.org/1999/xlink" width="81.25" height="79" viewBox="0,0,81.25,79"><g transform="translate(-247.9,-138.725)"><g stroke-miterlimit="10"><path d="M247.9,205.725c0,-15.72388 0,-42.42322 0,-52c0,-6.73799 4.56522,-15 9,-15c9.56581,0 46.44053,0 63.5,0c5.34909,0 8.75,3.86472 8.75,7.75c0,7.76286 0,36.23353 0,54.75c0,9.58314 -4.56522,16.5 -9,16.5c-9.2942,0 -44.36852,0 -62,0c-6.20526,0 -10.25,-4.87238 -10.25,-12z" fill-opacity="0.53333" fill="#66ffed" stroke="none" stroke-width="0" stroke-linecap="butt"/><text transform="translate(269.64948,212.65118) scale(0.39835,0.39835)" font-size="40" xml:space="preserve" fill="#000000" stroke="none" stroke-width="1" stroke-linecap="butt" font-family="&quot;Trebuchet MS&quot;, Sans Serif" font-weight="normal" text-anchor="start"><tspan x="0" dy="0">Store</tspan></text><text transform="translate(268.93519,211.93689) scale(0.39835,0.39835)" font-size="40" xml:space="preserve" fill="#ffffff" stroke="none" stroke-width="1" stroke-linecap="butt" font-family="&quot;Trebuchet MS&quot;, Sans Serif" font-weight="normal" text-anchor="start"><tspan x="0" dy="0">Store</tspan></text><g><path d="M273.34491,184.80365c0,-5.80988 0,-28.59157 0,-28.59157h30.43552c0,0 0,22.37529 0,28.25913c0,2.67218 -1.83787,5.82865 -4.5442,5.82865c-6.19581,0 -16.94344,0 -20.61082,0c-2.41422,0 -5.28051,-2.94891 -5.28051,-5.49622z" fill="#ffffff" stroke="none" stroke-width="0" stroke-linecap="butt"/><text transform="translate(275.40549,187.72937) scale(1.25446,1.25446)" font-size="40" xml:space="preserve" fill="#6bf292" stroke="none" stroke-width="1" stroke-linecap="butt" font-family="&quot;Trebuchet MS&quot;, Sans Serif" font-weight="normal" text-anchor="start"><tspan x="0" dy="0">+</tspan></text><path d="M278.78682,159.53273c0,0 3.1743,-12.85055 11.36259,-12.85055c9.92862,0 7.98087,12.85055 7.98087,12.85055" fill="none" stroke="#ffffff" stroke-width="3.5" stroke-linecap="round"/></g></g></g></svg>