<svg version="1.1" xmlns="http://www.w3.org/2000/svg" xmlns:xlink="http://www.w3.org/1999/xlink" width="615" height="397" viewBox="0,0,615,397"><g transform="translate(19.5,18.5)"><g stroke-miterlimit="10"><path d="M-19.5,378.5v-397h615v397z" fill-opacity="0.5098" fill="#c2becc" stroke="none" stroke-width="0"/><path d="M12.41547,324.66509c0,0 0,-13.22809 0,-16.85123c0,-1.72474 1.35093,-3.81869 2.61279,-3.81869c3.31729,0 18.05713,0 18.05713,0v20.66992z" fill="#e37156" stroke="#e37156" stroke-width="0"/><path d="M36.71214,324.66509v-20.66992c0,0 14.73984,0 18.05713,0c1.26187,0 2.61279,2.09394 2.61279,3.81869c0,3.62314 0,16.85123 0,16.85123z" fill="#e37156" stroke="#e37156" stroke-width="0"/><path d="M33.08539,328.81228v20.66992c0,0 -14.73984,0 -18.05713,0c-1.26185,0 -2.61279,-2.09394 -2.61279,-3.81869c0,-3.62314 0,-16.85123 0,-16.85123z" fill="#e37156" stroke="#e37156" stroke-width="0"/><path d="M57.38206,328.81228c0,0 0,13.22809 0,16.85123c0,1.72474 -1.35091,3.81869 -2.61279,3.81869c-3.31729,0 -18.05713,0 -18.05713,0v-20.66992z" fill="#e37156" stroke="#e37156" stroke-width="0"/><text transform="translate(70.60001,337.29161) scale(0.66339,0.66339)" font-size="40" xml:space="preserve" fill="#000000" stroke="none" stroke-width="1" font-family="&quot;Trebuchet MS&quot;, Sans Serif" font-weight="normal" text-anchor="start"><tspan x="0" dy="0">More Apps</tspan></text></g></g></svg>