<svg version="1.1" xmlns="http://www.w3.org/2000/svg" xmlns:xlink="http://www.w3.org/1999/xlink" width="58.20117" height="65.36839" viewBox="0,0,58.20117,65.36839"><g transform="translate(-259.3654,-153.11084)"><g stroke="none" stroke-miterlimit="10"><text transform="translate(260.27887,214.53557) scale(0.39835,0.39835)" font-size="40" xml:space="preserve" fill="#000000" stroke-width="1" font-family="&quot;Trebuchet MS&quot;, Sans Serif" font-weight="normal" text-anchor="start"><tspan x="0" dy="0">Settings</tspan></text><text transform="translate(259.56458,213.82128) scale(0.39835,0.39835)" font-size="40" xml:space="preserve" fill="#ffffff" stroke-width="1" font-family="&quot;Trebuchet MS&quot;, Sans Serif" font-weight="normal" text-anchor="start"><tspan x="0" dy="0">Settings</tspan></text><g stroke-width="0"><path d="M272.69952,174.49398c0,-8.39948 6.80912,-15.2086 15.2086,-15.2086c8.39948,0 15.2086,6.80912 15.2086,15.2086c0,8.39948 -6.80912,15.2086 -15.2086,15.2086c-8.39948,0 -15.2086,-6.80912 -15.2086,-15.2086z" fill="#8c8698"/><path d="M280.37765,174.49398c0,-4.15896 3.37151,-7.53047 7.53047,-7.53047c4.15896,0 7.53047,3.37151 7.53047,7.53047c0,4.15896 -3.37151,7.53047 -7.53047,7.53047c-4.15896,0 -7.53047,-3.37151 -7.53047,-7.53047z" fill="#55dcdc"/><path d="M283.78218,165.34522c0,0 0,-7.43278 0,-9.6293c0,-1.14248 1.01517,-2.60508 1.79297,-2.60508c0.90658,0 3.11457,0 4.64063,0c0.91308,0 1.58203,1.19043 1.58203,2.1832c0,2.13017 0,10.05118 0,10.05118z" fill="#8c8698"/><path d="M296.88562,170.40837c0,0 7.43278,0 9.6293,0c1.14248,0 2.60508,1.01517 2.60508,1.79297c0,0.90658 0,3.11457 0,4.64062c0,0.91308 -1.19043,1.58203 -2.18321,1.58203c-2.13017,0 -10.05117,0 -10.05117,0z" fill="#8c8698"/><path d="M292.03406,183.64274c0,0 0,7.43278 0,9.6293c0,1.14248 -1.01517,2.60508 -1.79297,2.60508c-0.90658,0 -3.11457,0 -4.64062,0c-0.91308,0 -1.58203,-1.19043 -1.58203,-2.18321c0,-2.13017 0,-10.05117 0,-10.05117z" fill="#8c8698"/><path d="M278.93062,178.57959c0,0 -7.43278,0 -9.6293,0c-1.14248,0 -2.60508,-1.01517 -2.60508,-1.79297c0,-0.90658 0,-3.11457 0,-4.64062c0,-0.91308 1.19043,-1.58203 2.18321,-1.58203c2.13017,0 10.05117,0 10.05117,0z" fill="#8c8698"/><path d="M291.45979,165.10735c0,0 5.25577,-5.25577 6.80894,-6.80894c0.80785,-0.80785 2.5599,-1.12424 3.10989,-0.57425c0.64105,0.64105 2.20233,2.20233 3.28142,3.28142c0.64565,0.64565 0.27691,1.96043 -0.42509,2.66243c-1.50626,1.50626 -7.10725,7.10725 -7.10725,7.10725z" fill="#8c8698"/><path d="M297.14513,177.95307c0,0 5.25577,5.25577 6.80894,6.80894c0.80785,0.80785 1.12423,2.5599 0.57425,3.10989c-0.64105,0.64105 -2.20233,2.20233 -3.28142,3.28142c-0.64565,0.64565 -1.96043,0.27691 -2.66243,-0.42509c-1.50626,-1.50626 -7.10725,-7.10725 -7.10725,-7.10725z" fill="#8c8698"/><path d="M284.35645,183.88061c0,0 -5.25577,5.25577 -6.80894,6.80894c-0.80785,0.80785 -2.5599,1.12423 -3.10989,0.57425c-0.64105,-0.64105 -2.20233,-2.20233 -3.28142,-3.28142c-0.64565,-0.64565 -0.27691,-1.96043 0.42509,-2.66243c1.50626,-1.50626 7.10725,-7.10725 7.10725,-7.10725z" fill="#8c8698"/><path d="M278.67111,171.03489c0,0 -5.25577,-5.25577 -6.80894,-6.80894c-0.80785,-0.80785 -1.12423,-2.5599 -0.57425,-3.10989c0.64105,-0.64105 2.20233,-2.20233 3.28142,-3.28142c0.64565,-0.64565 1.96043,-0.27691 2.66243,0.42509c1.50626,1.50626 7.10725,7.10725 7.10725,7.10725z" fill="#8c8698"/></g></g></g></svg>