<svg version="1.1" xmlns="http://www.w3.org/2000/svg" xmlns:xlink="http://www.w3.org/1999/xlink" width="57.60365" height="69.56756" viewBox="0,0,57.60365,69.56756"><g transform="translate(-259.62984,-145.31971)"><g stroke-miterlimit="10"><g fill="#151516"><g stroke="#ffffff" stroke-width="2.5"><path d="M268.62951,168.07595c2.69057,-10.6418 13.4986,-17.08754 24.14039,-14.39697c10.6418,2.69057 17.08754,13.4986 14.39697,24.14039c-2.69057,10.6418 -13.4986,17.08754 -24.14039,14.39697c-10.6418,-2.69057 -17.08754,-13.4986 -14.39697,-24.14039z"/><path d="M287.02451,158.3507l2.91077,-11.51273l7.15001,1.80774l-2.91077,11.51273z"/><path d="M288.57132,185.3291l-2.91077,11.51273l-7.15001,-1.80774l2.91077,-11.51273z"/><path d="M277.71274,162.84848l-6.0825,-10.19896l6.33409,-3.77755l6.0825,10.19896z"/><path d="M297.88309,180.83132l6.0825,10.19896l-6.33409,3.77755l-6.0825,-10.19896z"/><path d="M274.30872,172.6133l-11.51273,-2.91077l1.80774,-7.15001l11.51273,2.91077z"/><path d="M301.28711,171.0665l11.51273,2.91077l-1.80774,7.15001l-11.51273,-2.91077z"/><path d="M278.80649,181.92508l-10.19896,6.08251l-3.77756,-6.3341l10.19897,-6.0825z"/><path d="M296.78934,161.75472l10.19896,-6.08251l3.77756,6.3341l-10.19897,6.0825z"/></g><g stroke="none" stroke-width="0"><path d="M268.62951,168.07595c2.69057,-10.6418 13.4986,-17.08754 24.14039,-14.39697c10.6418,2.69057 17.08754,13.4986 14.39697,24.14039c-2.69057,10.6418 -13.4986,17.08754 -24.14039,14.39697c-10.6418,-2.69057 -17.08754,-13.4986 -14.39697,-24.14039z"/><path d="M287.02451,158.3507l2.91077,-11.51273l7.15001,1.80774l-2.91077,11.51273z"/><path d="M288.57132,185.32909l-2.91077,11.51273l-7.15001,-1.80774l2.91077,-11.51273z"/><path d="M277.71274,162.84848l-6.0825,-10.19896l6.33409,-3.77755l6.0825,10.19896z"/><path d="M297.88309,180.83132l6.0825,10.19896l-6.33409,3.77755l-6.0825,-10.19896z"/><path d="M274.30872,172.6133l-11.51273,-2.91077l1.80774,-7.15001l11.51273,2.91077z"/><path d="M301.28711,171.0665l11.51273,2.91077l-1.80774,7.15001l-11.51273,-2.91077z"/><path d="M278.80649,181.92508l-10.19896,6.08251l-3.77756,-6.3341l10.19897,-6.0825z"/><path d="M296.78934,161.75472l10.19896,-6.08251l3.77756,6.3341l-10.19897,6.0825z"/></g></g><text transform="translate(260.5433,210.94361) scale(0.39835,0.39835)" font-size="40" xml:space="preserve" fill="#000000" stroke="none" stroke-width="1" font-family="&quot;Trebuchet MS&quot;, Sans Serif" font-weight="normal" text-anchor="start"><tspan x="0" dy="0">Flymine</tspan></text><text transform="translate(259.82902,210.22932) scale(0.39835,0.39835)" font-size="40" xml:space="preserve" fill="#ffffff" stroke="none" stroke-width="1" font-family="&quot;Trebuchet MS&quot;, Sans Serif" font-weight="normal" text-anchor="start"><tspan x="0" dy="0">Flymine</tspan></text></g></g></svg>