<svg version="1.1" xmlns="http://www.w3.org/2000/svg" xmlns:xlink="http://www.w3.org/1999/xlink" width="81.25" height="79" viewBox="0,0,81.25,79"><g transform="translate(-247.9,-138.725)"><g stroke="none" stroke-miterlimit="10"><path d="M247.9,205.725c0,-15.72388 0,-42.42322 0,-52c0,-6.73799 4.56522,-15 9,-15c9.56581,0 46.44053,0 63.5,0c5.34909,0 8.75,3.86472 8.75,7.75c0,7.76286 0,36.23353 0,54.75c0,9.58314 -4.56522,16.5 -9,16.5c-9.2942,0 -44.36852,0 -62,0c-6.20526,0 -10.25,-4.87238 -10.25,-12z" fill-opacity="0.53333" fill="#66ffed" stroke-width="0"/><text transform="translate(249.3433,210.94361) scale(0.39835,0.39835)" font-size="40" xml:space="preserve" fill="#000000" stroke-width="1" font-family="&quot;Trebuchet MS&quot;, Sans Serif" font-weight="normal" text-anchor="start"><tspan x="0" dy="0">Home Base</tspan></text><text transform="translate(248.62901,210.22932) scale(0.39835,0.39835)" font-size="40" xml:space="preserve" fill="#ffffff" stroke-width="1" font-family="&quot;Trebuchet MS&quot;, Sans Serif" font-weight="normal" text-anchor="start"><tspan x="0" dy="0">Home Base</tspan></text><g stroke-width="0"><path d="M280.48996,193.03158v-24.00339h14.55525v24.00339z" fill="#382c0c"/><path d="M268.74361,193.03158v-26.93776h12.64008v26.93776z" fill="#725e2b"/><path d="M294.02378,193.03158v-26.93776h12.64008v26.93776z" fill="#725e2b"/><path d="M289.69106,180.81307c0,-1.11669 0.90525,-2.02194 2.02194,-2.02194c1.11669,0 2.02194,0.90525 2.02194,2.02194c0,1.11669 -0.90525,2.02194 -2.02194,2.02194c-1.11669,0 -2.02194,-0.90525 -2.02194,-2.02194z" fill="#dbdec5"/><path d="M276.84767,172.02761v-4.04389h22.53023v4.04389z" fill="#725e2b"/><path d="M261.37818,169.28354l26.36226,-26.36226l26.36226,26.36226z" fill="#927a3d"/></g></g></g></svg>