<svg version="1.1" xmlns="http://www.w3.org/2000/svg" xmlns:xlink="http://www.w3.org/1999/xlink" width="38.93099" height="76.66022" viewBox="0,0,38.93099,76.66022"><g transform="translate(-268.73602,-139.93444)"><g stroke-miterlimit="10"><text transform="translate(269.64948,212.651) scale(0.39835,0.39835)" font-size="40" xml:space="preserve" fill="#000000" stroke="none" stroke-width="1" stroke-linecap="butt" font-family="&quot;Trebuchet MS&quot;, Sans Serif" font-weight="normal" text-anchor="start"><tspan x="0" dy="0">Store</tspan></text><text transform="translate(268.93519,211.93671) scale(0.39835,0.39835)" font-size="40" xml:space="preserve" fill="#ffffff" stroke="none" stroke-width="1" stroke-linecap="butt" font-family="&quot;Trebuchet MS&quot;, Sans Serif" font-weight="normal" text-anchor="start"><tspan x="0" dy="0">Store</tspan></text><g><path d="M273.3449,184.80365c0,-5.80988 0,-28.59156 0,-28.59156h30.43552c0,0 0,22.37529 0,28.25913c0,2.67218 -1.83787,5.82865 -4.5442,5.82865c-6.19581,0 -16.94345,0 -20.61082,0c-2.41422,0 -5.28051,-2.94892 -5.28051,-5.49622z" fill="#ffffff" stroke="none" stroke-width="0" stroke-linecap="butt"/><text transform="translate(275.40548,187.72937) scale(1.25446,1.25446)" font-size="40" xml:space="preserve" fill="#6bf292" stroke="none" stroke-width="1" stroke-linecap="butt" font-family="&quot;Trebuchet MS&quot;, Sans Serif" font-weight="normal" text-anchor="start"><tspan x="0" dy="0">+</tspan></text><path d="M278.78681,159.53273c0,0 3.1743,-12.85055 11.36259,-12.85055c9.92862,0 7.98087,12.85055 7.98087,12.85055" fill="none" stroke="#ffffff" stroke-width="3.5" stroke-linecap="round"/></g></g></g></svg>