<svg version="1.1" xmlns="http://www.w3.org/2000/svg" xmlns:xlink="http://www.w3.org/1999/xlink" width="246.03067" height="174.84693" viewBox="0,0,246.03067,174.84693"><g transform="translate(-117,-92.58023)"><g data-paper-data="{&quot;isPaintingLayer&quot;:true}" fill-rule="nonzero" stroke-linecap="butt" stroke-linejoin="miter" stroke-miterlimit="10" stroke-dasharray="" stroke-dashoffset="0" style="mix-blend-mode: normal"><path d="M121.75,262.28234c-3.77342,-3.91755 -3.75,-10.34484 -3.75,-10.34484v-144.25c0,0 -0.49268,-6.68349 3.375,-10.59484c3.86768,-3.91135 10.5625,-3.5 10.5625,-3.5h216.125c0,0 6.86299,-0.61768 10.6875,3.25c3.82451,3.86768 3.25,10.84484 3.25,10.84484v144.5c0,0 0.34852,6.72164 -3.5,10.71984c-3.84852,3.9982 -10.1875,3.5 -10.1875,3.5h-216.375c0,0 -6.41408,-0.20745 -10.1875,-4.125z" fill="#e5e5e5" stroke="#a8a8a8" stroke-width="2"/><text transform="translate(127.3368,256.19517) scale(0.18485,0.18485)" font-size="40" xml:space="preserve" fill="#000000" fill-rule="nonzero" stroke="none" stroke-width="1" stroke-linecap="butt" stroke-linejoin="miter" stroke-miterlimit="10" stroke-dasharray="" stroke-dashoffset="0" font-family="Sans Serif" font-weight="normal" text-anchor="start" style="mix-blend-mode: normal"><tspan x="0" dy="0">[Q] - Stop playing          [S] - Fast forward</tspan></text><path d="M125.6869,184.75412v-54.42911h74.84686v54.42911z" fill="#dddddd" stroke="none" stroke-width="0"/><path d="M125.8268,242.78506v-54.42911h74.84686v54.42911z" fill="#dddddd" stroke="none" stroke-width="0"/><path d="M202.73178,184.76074v-54.42911h74.84686v54.42911z" fill="#dddddd" stroke="none" stroke-width="0"/><path d="M202.87168,242.79168v-54.42911h74.84686v54.42911z" fill="#dddddd" stroke="none" stroke-width="0"/><path d="M279.5668,184.76074v-54.42911h74.84686v54.42911z" fill="#dddddd" stroke="none" stroke-width="0"/><path d="M279.70671,242.79167v-54.42911h74.84686v54.42911z" fill="#dddddd" stroke="none" stroke-width="0"/><path d="M206.26086,260.47378v-11.42857h62.28571v11.42857z" fill="#e5e5e5" stroke="none" stroke-width="0"/></g></g></svg>