<svg version="1.1" xmlns="http://www.w3.org/2000/svg" xmlns:xlink="http://www.w3.org/1999/xlink" width="164.5" height="71.5" viewBox="0,0,164.5,71.5"><g transform="translate(-24.10002,-55.15001)"><g stroke-miterlimit="10"><path d="M24.10002,107.20001c0,-23.50906 0,15.29494 0,-33.5c0,-16.69625 5.34527,-18.55 20.7,-18.55c36.93744,0 102.8643,0 123.5,0c12.14827,0 20.3,0.13046 20.3,14.55c0,48.25715 0,18.25232 0,41c0,8.30104 -5.72275,15.95 -22.3,15.95c-41.01562,0 -114.80997,0 -132.5,0c-7.52211,0 -9.7,-9.57429 -9.7,-19.45z" fill-opacity="0.5098" fill="#c2becc" stroke="none" stroke-width="0"/><text transform="translate(114.77391,99.94632) scale(0.54622,0.54622)" font-size="40" xml:space="preserve" fill="#000000" stroke="none" stroke-width="1" font-family="&quot;Trebuchet MS&quot;, Sans Serif" font-weight="normal" text-anchor="start"><tspan x="0" dy="0">Vinyl</tspan></text><text transform="translate(113.79448,98.96687) scale(0.54622,0.54622)" font-size="40" xml:space="preserve" fill="#ffffff" stroke="none" stroke-width="1" font-family="&quot;Trebuchet MS&quot;, Sans Serif" font-weight="normal" text-anchor="start"><tspan x="0" dy="0">Vinyl</tspan></text><g><path d="M35.4,90.90002c0,-14.70458 11.92042,-26.625 26.625,-26.625c14.70458,0 26.625,11.92042 26.625,26.625c0,14.70458 -11.92042,26.625 -26.625,26.625c-14.70458,0 -26.625,-11.92042 -26.625,-26.625z" fill="#1b1a1a" stroke="none" stroke-width="0"/><path d="M51.2,90.90002c0,-5.97848 4.84652,-10.825 10.825,-10.825c5.97848,0 10.825,4.84652 10.825,10.825c0,5.97848 -4.84652,10.825 -10.825,10.825c-5.97848,0 -10.825,-4.84652 -10.825,-10.825z" fill="#f54e4e" stroke="none" stroke-width="0"/><path d="M54.9,90.90002c0,-3.93502 3.18997,-7.125 7.125,-7.125c3.93503,0 7.125,3.18998 7.125,7.125c0,3.93502 -3.18998,7.125 -7.125,7.125c-3.93503,0 -7.125,-3.18998 -7.125,-7.125z" fill="#9595a1" stroke="none" stroke-width="0"/><path d="M39.3,90.90002c0,-12.55067 10.17433,-22.725 22.725,-22.725c12.55067,0 22.725,10.17433 22.725,22.725c0,12.55067 -10.17433,22.725 -22.725,22.725c-12.55067,0 -22.725,-10.17433 -22.725,-22.725z" fill="none" stroke="#141414" stroke-width="1.5"/><path d="M43.7,90.90002c0,-10.12062 8.20438,-18.325 18.325,-18.325c10.12061,0 18.325,8.20438 18.325,18.325c0,10.12062 -8.20439,18.325 -18.325,18.325c-10.12062,0 -18.325,-8.20439 -18.325,-18.325z" fill="none" stroke="#141414" stroke-width="1.5"/><path d="M41.5,90.90002c0,-11.33564 9.18936,-20.525 20.525,-20.525c11.33564,0 20.525,9.18936 20.525,20.525c0,11.33564 -9.18936,20.525 -20.525,20.525c-11.33564,0 -20.525,-9.18936 -20.525,-20.525z" fill="none" stroke="#141414" stroke-width="1.5"/><path d="M48.49797,90.90002c0,-7.47078 6.05626,-13.52703 13.52703,-13.52703c7.47077,0 13.52704,6.05626 13.52704,13.52703c0,7.47078 -6.05626,13.52704 -13.52704,13.52704c-7.47077,0 -13.52703,-6.05626 -13.52703,-13.52704z" fill="none" stroke="#141414" stroke-width="1.5"/><path d="M46.23113,90.90002c0,-8.72271 7.07116,-15.79387 15.79388,-15.79387c8.72272,0 15.79388,7.07116 15.79388,15.79388c0,8.72271 -7.07116,15.79388 -15.79388,15.79388c-8.72272,0 -15.79387,-7.07116 -15.79387,-15.79388z" fill="none" stroke="#141414" stroke-width="1.5"/><path d="M36.75594,90.90001c0,-13.95572 11.31334,-25.26907 25.26906,-25.26907c13.95572,0 25.26907,11.31335 25.26907,25.26907c0,13.95572 -11.31335,25.26907 -25.26907,25.26907c-13.95572,0 -25.26906,-11.31335 -25.26906,-25.26907z" fill="none" stroke="#141414" stroke-width="1.5"/></g></g></g></svg>