<svg version="1.1" xmlns="http://www.w3.org/2000/svg" xmlns:xlink="http://www.w3.org/1999/xlink" width="48.29729" height="29.25019" viewBox="0,0,48.29729,29.25019"><g transform="translate(-415.18571,-321.99267)"><g stroke-miterlimit="10"><path d="M417.18571,342.46905c0,-1.92187 0,-5.44447 0,-8.41595c0,-2.81274 2.19763,-5.13167 4.31061,-5.13167c4.16164,0 -5.57166,0 2.79147,0c3.43049,0 5.74747,3.10875 5.74747,5.33694c0,2.13367 0,6.72241 0,10.26335c0,2.4728 -4.92004,4.72114 -5.13167,4.72114c-7.78472,0 2.5618,0 -1.9704,0c-2.68883,0 -5.74747,-4.12847 -5.74747,-6.77381z" fill="#ff6766" stroke="none" stroke-width="0"/><path d="M417.18571,342.46905c0,-1.92187 0,-5.44447 0,-8.41595c0,-2.81274 2.19763,-5.13167 4.31061,-5.13167c4.16164,0 19.14264,0 27.50577,0c3.43049,0 5.74747,3.10875 5.74747,5.33694c0,2.13367 0,6.72241 0,10.26335c0,2.65514 -2.05005,4.72114 -5.13167,4.72114c-7.78472,0 -22.1525,0 -26.6847,0c-2.68883,0 -5.74747,-4.12847 -5.74747,-6.77381z" fill="none" stroke="#ffffff" stroke-width="4"/><path d="M454.74957,341.49223c0,-1.32458 0,-3.75241 0,-5.8004c0,-1.93859 0.34612,-3.53683 0.6789,-3.53683c0.65544,0 3.01489,0 4.33205,0c0.54029,0 0.9052,2.1426 0.9052,3.67831c0,1.47056 0,4.6332 0,7.07366c0,1.82997 -0.32287,3.25389 -0.80822,3.25389c-1.22606,0 -3.48893,0 -4.20273,0c-0.42348,0 -0.9052,-2.84541 -0.9052,-4.66862z" fill="#ffffff" stroke="#ffffff" stroke-width="0"/><g><path d="M461.9862,335.85019c-2.20865,0 -10.03904,0 -14.09714,0c-1.49604,0 -2.19393,-0.48697 -1.73191,-1.2751c1.59314,-2.71766 5.28544,-9.01616 6.61061,-11.27672c0.9144,-1.55984 3.16554,-1.78261 4.01149,-0.33954c1.22677,2.09269 4.67534,7.97542 6.45856,11.01732c0.66516,1.13466 -0.11339,1.87405 -1.25162,1.87405z" fill="#ffca66" stroke="#656678" stroke-width="2.5"/><g stroke="none"><path d="M461.9862,335.85019c-2.20865,0 -10.03904,0 -14.09714,0c-1.49604,0 -2.19393,-0.48697 -1.73191,-1.2751c1.59314,-2.71766 5.28544,-9.01616 6.61061,-11.27672c0.9144,-1.55984 3.16554,-1.78261 4.01149,-0.33954c1.22677,2.09269 4.67534,7.97542 6.45856,11.01732c0.66516,1.13466 -0.11339,1.87405 -1.25162,1.87405z" fill="#ffca66" stroke-width="0"/><text transform="translate(452.65642,334.03639) scale(0.31056,0.31056)" font-size="40" xml:space="preserve" fill="#ffffff" stroke-width="1" font-family="&quot;Trebuchet MS&quot;, Sans Serif" font-weight="normal" text-anchor="start"><tspan x="0" dy="0">!</tspan></text></g></g></g></g></svg>