<svg version="1.1" xmlns="http://www.w3.org/2000/svg" xmlns:xlink="http://www.w3.org/1999/xlink" width="79.73697" height="71.96599" viewBox="0,0,79.73697,71.96599"><g transform="translate(-248.42983,-142.92128)"><g stroke="none" stroke-miterlimit="10"><text transform="translate(249.3433,210.94361) scale(0.39835,0.39835)" font-size="40" xml:space="preserve" fill="#000000" stroke-width="1" font-family="&quot;Trebuchet MS&quot;, Sans Serif" font-weight="normal" text-anchor="start"><tspan x="0" dy="0">Home Base</tspan></text><text transform="translate(248.62901,210.22932) scale(0.39835,0.39835)" font-size="40" xml:space="preserve" fill="#ffffff" stroke-width="1" font-family="&quot;Trebuchet MS&quot;, Sans Serif" font-weight="normal" text-anchor="start"><tspan x="0" dy="0">Home Base</tspan></text><g stroke-width="0"><path d="M280.48996,193.03158v-24.00339h14.55525v24.00339z" fill="#382c0c"/><path d="M268.74361,193.03158v-26.93776h12.64008v26.93776z" fill="#725e2b"/><path d="M294.02378,193.03158v-26.93776h12.64008v26.93776z" fill="#725e2b"/><path d="M289.69106,180.81307c0,-1.11669 0.90525,-2.02194 2.02194,-2.02194c1.11669,0 2.02194,0.90525 2.02194,2.02194c0,1.11669 -0.90525,2.02194 -2.02194,2.02194c-1.11669,0 -2.02194,-0.90525 -2.02194,-2.02194z" fill="#dbdec5"/><path d="M276.84767,172.02761v-4.04389h22.53023v4.04389z" fill="#725e2b"/><path d="M261.37818,169.28354l26.36226,-26.36226l26.36226,26.36226z" fill="#927a3d"/></g></g></g></svg>