<svg version="1.1" xmlns="http://www.w3.org/2000/svg" xmlns:xlink="http://www.w3.org/1999/xlink" width="259.48566" height="185.81198" viewBox="0,0,259.48566,185.81198"><g transform="translate(-163.53158,-84.92818)"><g stroke-miterlimit="10"><g><g stroke="#703d00" stroke-linecap="round"><path d="M307.58701,108.70561c32.02442,11.15911 52.99303,27.48284 74.43637,50.46043c10.1843,10.93421 17.97111,26.88096 19.0377,46.12455c0.79849,15.36894 -3.07533,36.02848 -12.76834,47.90747c-11.20917,13.73727 -26.90542,16.18658 -39.59215,16.23484c-29.01096,0.06994 -56.49121,-7.98853 -82.63161,-18.32227c-29.8674,-10.37962 -59.86723,-21.91993 -84.91659,-43.64084c-9.4682,-8.20717 -14.7509,-24.58127 -16.31355,-41.2239c-0.87195,-11.05187 1.56519,-28.35154 9.51464,-38.57001c12.31738,-14.32306 28.52776,-23.07354 43.55747,-25.69585c31.15005,-5.35841 57.65164,-4.43354 89.67606,6.72557z" fill="#a85b00" stroke-width="2.61452"/><path d="M307.19084,108.83449c32.04022,11.16462 55.16911,20.82656 77.89386,40.66241c10.56925,9.23282 23.69072,27.4034 18.08306,42.03473c-4.5254,14.44853 -25.71695,16.59361 -38.34919,16.125c-29.90831,-1.11367 -58.33361,-8.79513 -86.18066,-19.0089c-28.07805,-9.77688 -56.1782,-23.47665 -80.67728,-42.5673c-8.16503,-6.34654 -19.44882,-19.31529 -14.05026,-30.9504c6.06955,-15.2628 24.30948,-22.30549 36.98466,-22.84604c30.15121,-1.27895 54.25558,5.38588 86.2958,16.5505z" fill="#a85b00" stroke-width="2.4183"/><path d="M314.12003,112.00216c47.79491,16.58783 55.42006,29.26076 80.62098,46.62216c11.84811,8.1653 23.77985,21.99193 24.09396,35.87293c0.43065,19.34614 -10.4775,49.20411 -21.45363,53.93661c-7.78568,3.36748 -6.43397,-30.75244 -16.30645,-35.69178c-6.00473,-3.82206 -7.0357,17.00782 -15.44797,18.16898c-11.42126,1.52577 -23.60393,-19.79323 -31.80564,-13.74196c-9.29971,6.87665 3.7573,27.96851 -4.06729,37.83592c-4.46643,6.61844 -20.76551,6.05197 -23.04779,-1.44674c-4.34556,-14.30318 11.60268,-29.37284 8.76496,-44.04963c-1.48513,-7.72236 -13.13257,-12.11021 -20.17559,-9.6894c-13.24752,4.5792 -18.34383,23.07827 -31.56338,26.98851c-7.07102,2.0869 -15.06298,-3.88126 -19.04646,-9.29594c-9.33666,-15.79418 -3.80629,-42.32692 -18.8217,-51.00329c-11.32303,-6.56162 -28.75875,22.78438 -35.8047,16.2671c-7.94598,-7.4083 13.53802,-35.17397 8.02928,-45.57221c-3.41264,-6.40603 -22.44806,17.2543 -26.25176,11.74524c-4.17304,-7.10911 2.03829,-27.18737 10.21931,-36.95845c8.41026,-9.83301 22.45074,-16.78232 35.33609,-15.95429c32.21473,2.0807 28.85494,-3.79384 96.72776,15.96624z" fill="#703d00" stroke-width="1.99513"/></g><path d="M310.34386,107.69828c28.70693,10.80286 57.77262,22.81463 82.61437,40.90153c12.86325,9.38007 27.63469,24.54164 29.04702,41.64472c1.40566,18.65569 -9.78594,49.32708 -22.60464,53.60593c-8.7961,2.71327 -8.59545,-33.37964 -20.63399,-39.62483c-6.59724,-3.50253 -7.20937,17.50622 -15.65815,18.77216c-11.47036,1.66668 -23.50068,-20.08952 -31.78187,-13.81016c-9.39005,7.1359 3.51934,28.6514 -4.41762,38.8413c-4.53937,6.82778 -20.8841,6.39229 -23.10657,-1.27805c-4.23138,-14.63086 11.90092,-30.22872 9.18533,-45.25599c-1.42084,-7.90686 -13.06529,-12.30329 -20.15182,-9.7576c-13.32959,4.81473 -18.60681,23.83298 -31.90238,27.96137c-7.11162,2.20343 -15.07518,-3.84626 -19.02277,-9.36392c-9.22476,-16.11531 -3.44038,-43.37701 -18.42502,-52.14168c-11.29974,-6.62846 -29.05156,23.62468 -36.06123,17.00329c-7.90459,-7.52709 13.89401,-36.19561 8.46098,-46.8111c-3.36613,-6.5395 -22.67186,17.89655 -26.43826,12.28045c-4.1226,-7.25387 2.28727,-27.90188 10.5809,-37.99612c8.52421,-10.16001 22.67037,-17.4126 35.58837,-16.67829c32.29633,1.84651 64.03136,11.53953 94.72737,21.70697z" fill="#ddc6d2" stroke="#ddc6d2" stroke-width="2.02398" stroke-linecap="round"/><path d="M304.55961,134.29095c7.39807,2.5779 13.92186,5.43363 18.48518,7.96329c4.56106,2.52888 7.16391,4.73248 6.71853,6.01065c-0.44539,1.27818 -3.85403,1.38704 -8.99898,0.53379c-5.14721,-0.85403 -12.03297,-2.67095 -19.43104,-5.24886c-7.39807,-2.5779 -13.92186,-5.43363 -18.48518,-7.96329c-4.56106,-2.52888 -7.16391,-4.73248 -6.71853,-6.01065c0.44539,-1.27818 3.85403,-1.38704 8.99898,-0.53379c5.14721,0.85403 12.03297,2.67095 19.43104,5.24886z" fill="#a85b00" stroke="#703d00" stroke-width="1.99513" stroke-linecap="butt"/><g fill="none" stroke="#6148a4" stroke-width="1.99513" stroke-linecap="round"><path d="M239.61936,147.86775l12.27288,-12.69095"/><path d="M304.84311,114.76314l14.00123,4.87881"/><path d="M289.4956,181.33719l15.61438,0.24938"/><path d="M337.96891,173.40987l11.25894,9.1148"/><path d="M204.662,154.43548l13.24321,-0.57687"/><path d="M185.0153,117.06467l3.26566,-9.37179"/><path d="M255.10314,96.16471l10.89437,2.52998"/><path d="M411.24831,218.57113l4.48536,-12.87209"/><path d="M355.81039,160.00025l-10.50092,-3.65911"/><path d="M352.26312,128.75448l7.00061,2.43941z"/></g><g fill="none" stroke="#9b4976" stroke-width="1.99513" stroke-linecap="round"><path d="M253.63406,115.2794l-12.41696,-1.7943"/><path d="M282.72202,159.3503l-14.00123,-4.87881"/><path d="M365.30391,173.81805l3.65911,-10.50092"/><path d="M330.77726,126.45915l9.30356,11.09252"/><path d="M403.3456,196.19078l-4.48536,12.87209"/><path d="M391.70794,161.99924l9.37179,3.26566"/><path d="M202.46435,115.68274l14.16003,-6.84181"/></g><g fill="none" stroke="#ffffff" stroke-width="1.99513" stroke-linecap="round"><path d="M210.45763,134.16932l10.04578,0.96805"/><path d="M279.51471,108.59639l6.53893,11.3954"/><path d="M258.11572,191.42213l12.13108,-5.01634"/><path d="M321.2577,197.72307l-6.93238,-10.26627"/><path d="M344.30549,199.16981l-3.56854,6.60716z"/><path d="M375.84425,146.08834l-10.50092,-3.65911"/><path d="M392.47592,188.47786l-10.08513,-0.85514"/><path d="M195.25798,94.93789l14.5246,-0.25699"/><path d="M231.20256,95.68704l0.66745,9.34945z"/><path d="M320.58264,158.23465l-0.76456,6.19137z"/></g></g></g></g></svg>