<svg version="1.1" xmlns="http://www.w3.org/2000/svg" xmlns:xlink="http://www.w3.org/1999/xlink" width="105.19625" height="107.76627" viewBox="0,0,105.19625,107.76627"><g transform="translate(-359.15189,-137.11687)"><g stroke-miterlimit="10"><path d="M359.15189,231.52504c0,-9.80967 0,-62.43632 0,-80.31252c0,-8.32914 3.23044,-14.09565 8.42604,-14.09565c18.9724,0 79.91564,0 89.6882,0c3.65073,0 7.08201,2.71261 7.08201,7.12977c0,16.98378 0,82.11348 0,92.19548c0,4.22333 -3.21222,8.44102 -8.37434,8.44102c-18.55982,0 -78.09216,0 -88.39587,0c-4.24746,0 -8.42604,-7.14076 -8.42604,-13.35811z" fill="#bcb4b4" stroke="none" stroke-width="0"/><text transform="translate(367.07966,224.76876) scale(0.5,0.5)" font-size="40" xml:space="preserve" fill="#ffffff" stroke="none" stroke-width="1" font-family="&quot;Trebuchet MS&quot;, Sans Serif" font-weight="normal" text-anchor="start"><tspan x="0" dy="0">Customize</tspan></text><g fill="#ff6666"><path d="M427.73046,174.68396c5.52839,7.73975 6.18883,16.74347 1.47517,20.11039c-4.71368,3.36691 -13.01652,-0.17797 -18.5449,-7.91771c-5.52839,-7.73975 -6.18883,-16.74347 -1.47517,-20.11039c4.71368,-3.36691 13.01652,0.17797 18.5449,7.91771z" stroke="none" stroke-width="0"/><path d="M391.14956,166.10177c0,-4.74846 3.61232,-16.10712 3.61232,-16.10712c0,0 7.80312,1.21598 11.27879,1.21598c8.22414,0 14.89114,6.66698 14.89114,14.89114c0,8.22414 -6.66698,14.89114 -14.89114,14.89114c-8.22414,0 -14.89114,-6.66698 -14.89114,-14.89114z" stroke="#bcb4b4" stroke-width="1"/></g></g></g></svg>