<svg version="1.1" xmlns="http://www.w3.org/2000/svg" xmlns:xlink="http://www.w3.org/1999/xlink" width="128" height="33.33333" viewBox="0,0,128,33.33333"><g transform="translate(-224,-236.97871)"><g stroke="none" stroke-miterlimit="10"><path d="M224,261.42387c0,-4.2121 0,-14.17657 0,-20c0,-2.65198 3.24649,-4.44516 8.46198,-4.44516c18.80871,0 101.55866,0 111.66667,0c4.00513,0 7.87135,2.40848 7.87135,5.77849c0,6.01142 0,15.08236 0,19c0,3.5924 -3.69654,8.55484 -9.53802,8.55484c-19.3964,0 -100.77514,0 -110.66667,0c-3.97142,0 -7.79531,-5.19167 -7.79531,-8.88817z" fill="#c2becc" stroke-width="0"/><text transform="translate(270.66523,258.56989) scale(0.42683,0.42683)" font-size="40" xml:space="preserve" fill="#ffffff" stroke-width="1" font-family="&quot;Trebuchet MS&quot;, Sans Serif" font-weight="normal" text-anchor="start"><tspan x="0" dy="0">Fate Co...</tspan></text><path d="M236.61332,253.54008c0,-7.20944 5.8444,-13.05384 13.05385,-13.05384c7.20943,0 13.05384,5.8444 13.05384,13.05384c0,7.20943 -5.8444,13.05385 -13.05384,13.05385c-7.20944,0 -13.05385,-5.8444 -13.05385,-13.05385z" fill="#ffffff" stroke-width="0"/><text transform="translate(239.81824,256.27083) scale(0.22757,0.22757)" font-size="40" xml:space="preserve" fill="#c2becc" stroke-width="1" font-family="&quot;Poppins-Regular&quot;, Malgun Gothic" font-weight="normal" text-anchor="start"><tspan x="0" dy="0">Fate</tspan></text></g></g></svg>