<svg version="1.1" xmlns="http://www.w3.org/2000/svg" xmlns:xlink="http://www.w3.org/1999/xlink" width="128" height="33.33333" viewBox="0,0,128,33.33333"><g transform="translate(-224,-199.66669)"><g stroke="none" stroke-miterlimit="10"><path d="M224,224.11185c0,-4.2121 0,-14.17657 0,-20c0,-2.65198 3.24649,-4.44516 8.46198,-4.44516c18.80871,0 101.55866,0 111.66667,0c4.00513,0 7.87135,2.40848 7.87135,5.77849c0,6.01142 0,15.08236 0,19c0,3.5924 -3.69654,8.55484 -9.53802,8.55484c-19.3964,0 -100.77514,0 -110.66667,0c-3.97142,0 -7.79531,-5.19167 -7.79531,-8.88817z" fill="#65bab4" stroke-width="0"/><text transform="translate(274.65245,221.25787) scale(0.42683,0.42683)" font-size="40" xml:space="preserve" fill="#ffffff" stroke-width="1" font-family="&quot;Trebuchet MS&quot;, Sans Serif" font-weight="normal" text-anchor="start"><tspan x="0" dy="0">Settings</tspan></text><g stroke-width="0"><path d="M240.30775,216.33344c0,-5.16906 4.19035,-9.35941 9.35941,-9.35941c5.16906,0 9.35942,4.19035 9.35942,9.35941c0,5.16906 -4.19035,9.35942 -9.35942,9.35942c-5.16906,0 -9.35941,-4.19035 -9.35941,-9.35942z" fill="#ffffff"/><path d="M245.03289,216.33344c0,-2.55944 2.07483,-4.63427 4.63427,-4.63427c2.55944,0 4.63428,2.07483 4.63428,4.63427c0,2.55944 -2.07484,4.63428 -4.63428,4.63428c-2.55944,0 -4.63427,-2.07484 -4.63427,-4.63428z" fill="#65bab4"/><path d="M247.12805,210.70327c0,0 0,-4.57415 0,-5.92589c0,-0.70308 0.62474,-1.60317 1.1034,-1.60317c0.55791,0 1.91671,0 2.85585,0c0.56191,0 0.97358,0.73259 0.97358,1.34355c0,1.31091 0,6.18552 0,6.18552z" fill="#ffffff"/><path d="M255.19194,213.81914c0,0 4.57415,0 5.92589,0c0.70308,0 1.60318,0.62474 1.60318,1.1034c0,0.55791 0,1.91672 0,2.85585c0,0.56191 -0.7326,0.97358 -1.34355,0.97358c-1.31091,0 -6.18552,0 -6.18552,0z" fill="#ffffff"/><path d="M252.20628,221.96361c0,0 0,4.57415 0,5.92589c0,0.70308 -0.62474,1.60317 -1.1034,1.60317c-0.55791,0 -1.91672,0 -2.85585,0c-0.56191,0 -0.97359,-0.73259 -0.97359,-1.34355c0,-1.31091 0,-6.18552 0,-6.18552z" fill="#ffffff"/><path d="M244.14239,218.84774c0,0 -4.57415,0 -5.9259,0c-0.70308,0 -1.60317,-0.62474 -1.60317,-1.1034c0,-0.55791 0,-1.91671 0,-2.85585c0,-0.56191 0.73259,-0.97359 1.34355,-0.97359c1.31091,0 6.18552,0 6.18552,0z" fill="#ffffff"/><path d="M251.85287,210.55688c0,0 3.23441,-3.23441 4.19024,-4.19024c0.49716,-0.49715 1.57537,-0.69186 1.91384,-0.3534c0.3945,0.39451 1.35532,1.35532 2.0194,2.0194c0.39733,0.39733 0.17041,1.20645 -0.26161,1.63846c-0.92696,0.92695 -4.37382,4.37382 -4.37382,4.37382z" fill="#ffffff"/><path d="M255.35164,218.46217c0,0 3.23442,3.23442 4.19025,4.19024c0.49716,0.49715 0.69185,1.57537 0.35339,1.91383c-0.3945,0.39451 -1.35532,1.35532 -2.01939,2.0194c-0.39733,0.39733 -1.20646,0.17042 -1.63847,-0.2616c-0.92696,-0.92695 -4.37382,-4.37382 -4.37382,-4.37382z" fill="#ffffff"/><path d="M247.48146,222.11c0,0 -3.23442,3.23441 -4.19024,4.19024c-0.49715,0.49715 -1.57537,0.69186 -1.91384,0.3534c-0.39451,-0.39451 -1.35532,-1.35532 -2.0194,-2.0194c-0.39733,-0.39733 -0.17041,-1.20645 0.2616,-1.63846c0.92695,-0.92695 4.37382,-4.37382 4.37382,-4.37382z" fill="#ffffff"/><path d="M243.98268,214.20471c0,0 -3.23441,-3.23441 -4.19024,-4.19024c-0.49715,-0.49715 -0.69186,-1.57537 -0.3534,-1.91384c0.39451,-0.39451 1.35532,-1.35532 2.0194,-2.0194c0.39733,-0.39733 1.20645,-0.17042 1.63846,0.2616c0.92695,0.92695 4.37383,4.37382 4.37383,4.37382z" fill="#ffffff"/></g></g></g></svg>