<svg version="1.1" xmlns="http://www.w3.org/2000/svg" xmlns:xlink="http://www.w3.org/1999/xlink" width="620.89377" height="438.75559" viewBox="0,0,620.89377,438.75559"><g transform="translate(20.34999,63.70967)"><g stroke="none" stroke-miterlimit="10"><path d="M-20.34998,375.04592v-381h608v381z" fill="#191965" stroke-width="0"/><path d="M-10.66196,-19.91433c-0.76884,-1.49446 0.54422,-2.80752 0.54422,-2.80752l1,-1c0.93702,-0.84731 1.64799,-2.04875 2.81106,-2.54193c1.09243,-0.46323 2.38688,0.04338 3.55625,-0.15802c1.58061,-0.27223 3.05869,-0.99186 4.63269,-1.30005c0.33333,-1 0.20697,-2.30558 1,-3c3.75899,-3.2916 12.14839,-1.73223 16.76777,-1.73223c2.56485,0 5.1568,0.39071 7.69454,0.01873c1.35984,-0.19932 2.63381,-0.85031 4,-1c2.69999,-0.29583 5.454,0.31773 8.14841,-0.0252c4.67711,-0.59528 9.21385,-1.32808 13.85159,-1.9748c1.98083,-0.27622 4.02011,0.28289 6,0c2.37094,-0.33876 4.53405,-1.64779 6.905,-1.98645c4.27998,-0.61134 9.07218,-0.03228 13.40046,-0.03228c0.82196,0.00001 7.844,-0.01564 8.45205,0.05217c3.30898,0.36903 6.48505,1.59336 9.79429,1.95999c2.90014,0.32131 5.83577,-0.01217 8.75366,-0.01217c12.58111,0 26.0618,-1.2419 38.40832,1.03357c2.82194,0.52009 5.27462,2.3402 8.06445,3.01154c1.0052,0.24189 2.10774,-0.26311 3.10161,0.02177c4.35502,1.24832 5.33607,2.9654 9.82607,2.9654c6.04392,2.01464 13.24793,0.96772 19.59954,0.96772c16.29061,0 35.68172,2.94211 50.18828,-6.17911c7.44907,-2.50761 15.72406,-4.93199 23.56537,-5.80872c1.3055,-0.14597 2.63675,0.16423 3.94089,0.00656c2.37771,-0.28746 4.54356,-1.58681 6.905,-1.98645c0.95241,-0.16118 1.94688,0.18855 2.89779,0.01877c2.42414,-0.43281 4.42341,-2.21525 6.77587,-2.94308c0.44344,-0.1372 9.06227,-1.67948 9.4902,-1.78714c8.08195,-2.03331 15.36738,-5.96813 23.1847,-8.68761c4.73271,-1.64642 9.73841,-2.78655 14.55747,-4.16342c4.03178,-1.14213 7.98144,-3.82229 12.09397,-4.43751c4.19894,-0.62815 9.21618,-0.03264 13.45045,-0.03203c16.69461,0.0024 33.48413,2.74268 49.63223,7.09464c7.42563,2.00123 14.73577,5.34508 21.96001,7.98901c17.68951,3.00482 35.39486,5.96088 53.0739,9.01072c4.89197,0.84392 9.72289,2.20672 14.63339,2.92993c10.92631,1.60922 22.11219,1.75412 33.0851,3.18047c9.48801,1.59769 18.91368,0.55577 28.38351,-0.37051c2.64982,-0.25919 5.14511,-1.42991 7.78142,-1.80224c6.16627,-0.87086 13.16657,-0.03228 19.40046,-0.03228c4.44464,0 13.25096,-1.61136 16.76777,1.73223c2.27931,2.16705 2.70487,7.8855 2.73223,10.76777c0,5.59421 0.9071,11.89459 -0.03228,17.40046c-0.47358,2.77575 -1.30364,3.59573 -2.32396,5.96736c-3.70179,8.60449 -9.66128,15.57743 -15.73771,22.6666c-3.97269,4.6348 -8.00652,10.30131 -12.94428,13.99369c-0.7692,0.57519 -7.30241,3.54858 -8,4c-1.47103,0.95193 -2.45504,2.50069 -3.69401,3.73966c-12.30435,12.28159 -27.3671,22.65923 -41.9235,32.04984c-12.07366,7.78895 -24.75097,15.9323 -38.52994,20.30902c-1.58104,1.61923 -3.49418,2.87699 -5.24446,4.31162c-1.41563,1.16033 -2.37444,2.89068 -3.96149,3.80262c-1.01025,0.58051 -2.4495,-0.10774 -3.46447,0.46447c-1.2713,0.71671 -1.91028,2.21921 -3.00591,3.1833c-1.31294,1.1553 -2.77187,2.13444 -4.19407,3.15221c-1.81573,1.29939 -3.40405,2.90776 -5.26748,4.13776c-2.74802,1.81389 -5.97967,2.84884 -8.63792,4.7919c-0.78672,0.57506 -1.26561,1.51754 -2.07675,2.05759c-3.29976,2.19694 -7.78331,4.2967 -11.28213,6.17608c-2.45856,1.32061 -5.39558,1.86626 -7.52514,3.67001c-0.87863,0.74421 -1.06775,2.08419 -1.88674,2.89357c-3.6922,3.64887 -8.82394,5.82418 -12.65939,9.4731c-1.15482,0.15482 -2.45305,-0.114 -3.46447,0.46447c-1.42852,0.81703 -2.10824,2.59106 -3.47654,3.50537c-0.69506,0.46444 -1.76897,0.00067 -2.46447,0.46447c-3.42443,2.2836 -5.67788,5.87534 -9.69153,7.61111c-5.02715,2.17408 -10.9686,3.34085 -16.17391,5.06927c-5.89639,1.9579 -12.87446,5.53379 -17.91713,9.10993c-7.84728,5.56511 -12.48629,13.4665 -18.10246,20.92801c-4.02313,5.32987 -7.31208,11.74044 -12.11585,16.43764c-2.01242,1.96777 -4.90457,2.88785 -6.88591,4.88691c-0.86206,0.86976 -1.18114,2.18512 -2.04837,3.04973c-3.41541,3.40506 -7.88178,5.95428 -11.09943,9.70281c-1.07263,1.2496 -1.72667,2.81234 -2.73498,4.1144c-1.99758,2.57952 -4.43308,4.94403 -6.34851,7.61093c-1.03294,1.43819 -1.59307,3.21129 -2.77552,4.52931c-0.90933,1.01358 -2.25925,1.52148 -3.36539,2.31564c-5.56177,3.99309 -11.58206,5.91929 -17.97116,8.41404c-2.29928,0.02987 -4.66876,-0.58422 -6.89839,-0.02177c-2.89086,0.72926 -5.10643,3.28155 -8,4c-2.47025,0.61334 -5.64912,-0.33563 -8.17393,0.0346c-1.04294,0.15293 -1.95936,0.83216 -3,1c-0.25901,0.04177 -5.92044,0.03228 -6.40046,0.03228c-5.66667,0 -11.33333,0 -17,0c-9.05115,0 -18.88636,1.06853 -27.69897,-1.0997c-3.20916,-1.07328 -6.52043,-3.17005 -9.7738,-3.94541c-0.94932,-0.22624 -1.96582,0.17774 -2.92769,0.01283c-3.39443,-0.58197 -6.45328,-2.49326 -9.905,-2.98645c-2.00971,-0.28715 -4.08687,0.31504 -6.09035,-0.0128c-2.90434,-0.47526 -5.80709,-1.12072 -8.5609,-2.15877c-1.17438,-0.44268 -2.01956,-1.51581 -3.14726,-2.06665c-2.64667,-1.29281 -5.69841,-1.59194 -8.3714,-2.82941c-9.81279,-4.54287 -18.94115,-12.63527 -26.90585,-19.7848c-6.12533,-5.59574 -14.42505,-6.75543 -21.75627,-10.40259c-2.68965,-1.33806 -5.00338,-3.3363 -7.6194,-4.81313c-0.35126,-0.1983 -8.26949,-4.0961 -8.64462,-4.3429c-7.93589,-5.22083 -12.55991,-14.87381 -17.82596,-22.53369c-2.47621,-3.60184 -4.9044,-7.53889 -7.68009,-10.92059c-2.62398,-3.19687 -5.77882,-5.69181 -8.22059,-9.09417c-4.61636,-6.46609 -9.39452,-13.34752 -13.0969,-20.38194c-5.28915,-10.04923 -7.83399,-21.59625 -10.97881,-32.4255c-4.19088,-14.43139 -8.63832,-28.75066 -13.2105,-43.06551c-3.76353,-17.12532 -7.58536,-34.09085 -12.31203,-50.97798c-3.00932,-10.75153 -7.72488,-22.46577 -7.77363,-33.67083c0,0 0,-0.44543 0.18802,-0.96025z" fill="#a0a0c0" stroke-width="0.5"/></g></g></svg>