<svg version="1.1" xmlns="http://www.w3.org/2000/svg" xmlns:xlink="http://www.w3.org/1999/xlink" width="840.84084" height="549.16607" viewBox="0,0,840.84084,549.16607"><g transform="translate(132.42042,104.33123)"><g stroke="none" stroke-width="0" stroke-miterlimit="10"><path d="M-49.83784,411.23124v-462.46246h675.67568v462.46246z" fill="#9286e3"/><path d="M-132.42042,444.83485v-169.66967h840.84084v169.66967z" fill="#93e386"/><path d="M-80.65087,46.16878c0,-83.11885 67.38115,-150.5 150.5,-150.5c83.11886,0 150.5,67.38115 150.5,150.5c0,83.11886 -67.38114,150.5 -150.5,150.5c-83.11885,0 -150.5,-67.38114 -150.5,-150.5z" fill="#d7e386"/><path d="M90.67959,296.90001v-186h87v186z" fill="#4f2b13"/><path d="M20.51256,139.77005c-9.15427,-33.56811 10.63705,-68.20143 44.20516,-77.3557c33.56811,-9.15427 68.20143,10.63705 77.3557,44.20516c9.15427,33.5681 -10.63704,68.20143 -44.20515,77.3557c-33.56811,9.15427 -68.20143,-10.63705 -77.3557,-44.20515z" fill="#5d9062"/><path d="M72.0845,89.42787c-9.15427,-33.56811 10.63705,-68.20143 44.20515,-77.3557c33.5681,-9.15427 68.20143,10.63704 77.3557,44.20515c9.15427,33.56811 -10.63704,68.20143 -44.20515,77.3557c-33.56811,9.15427 -68.20143,-10.63705 -77.3557,-44.20515z" fill="#5d9062"/><path d="M126.28576,139.94741c-9.15427,-33.56811 10.63705,-68.20143 44.20516,-77.3557c33.56811,-9.15427 68.20143,10.63705 77.3557,44.20515c9.15427,33.56811 -10.63705,68.20143 -44.20515,77.3557c-33.56811,9.15427 -68.20143,-10.63705 -77.3557,-44.20516z" fill="#5d9062"/><path d="M393.67959,323.53162v-186h87v186z" fill="#4f2b13"/><path d="M243.66378,323.53162v-186h87v186z" fill="#4f2b13"/><path d="M178.78812,135.76505c6.46508,-34.18803 39.42093,-56.66191 73.60896,-50.19683c34.18803,6.46508 56.66191,39.42093 50.19683,73.60895c-6.46508,34.18803 -39.42093,56.66191 -73.60895,50.19683c-34.18803,-6.46508 -56.66192,-39.42093 -50.19684,-73.60896z" fill="#70a775"/><path d="M235.06569,74.97249c6.46508,-34.18803 39.42093,-56.66192 73.60895,-50.19684c34.18802,6.46508 56.66191,39.42093 50.19683,73.60896c-6.46508,34.18803 -39.42093,56.66191 -73.60895,50.19683c-34.18803,-6.46508 -56.66191,-39.42093 -50.19683,-73.60895z" fill="#70a775"/><path d="M272.25291,142.54373c6.46508,-34.18803 39.42094,-56.6619 73.60896,-50.19682c34.18802,6.46508 56.6619,39.42093 50.19682,73.60896c-6.46508,34.18803 -39.42093,56.66191 -73.60896,50.19683c-34.18802,-6.46508 -56.66191,-39.42093 -50.19683,-73.60896z" fill="#70a775"/><path d="M330.69384,158.19176c-1.06438,-34.77766 26.26563,-63.83337 61.04328,-64.89775c34.77766,-1.06438 63.83337,26.26563 64.89775,61.04328c1.06438,34.77766 -26.26562,63.83337 -61.04328,64.89775c-34.77766,1.06438 -63.83337,-26.26563 -64.89775,-61.04328z" fill="#8ccc92"/><path d="M372.52766,86.68769c-1.06438,-34.77766 26.26562,-63.83337 61.04328,-64.89775c34.77766,-1.06438 63.83337,26.26562 64.89775,61.04328c1.06438,34.77766 -26.26562,63.83337 -61.04328,64.89775c-34.77766,1.06438 -63.83337,-26.26562 -64.89775,-61.04328z" fill="#8ccc92"/><path d="M423.41946,144.64273c-1.06438,-34.77766 26.26563,-63.83337 61.04328,-64.89775c34.77766,-1.06438 63.83337,26.26563 64.89775,61.04328c1.06438,34.77766 -26.26563,63.83337 -61.04328,64.89775c-34.77766,1.06438 -63.83337,-26.26563 -64.89775,-61.04328z" fill="#8ccc92"/></g></g></svg>